<?xml version="1.0" encoding="utf-8"?>
<!-- Generator: Adobe Illustrator 26.5.2, SVG Export Plug-In . SVG Version: 6.00 Build 0)  -->
<svg version="1.1" id="Layer_1" xmlns:lucid="lucid"
	 xmlns="http://www.w3.org/2000/svg" xmlns:xlink="http://www.w3.org/1999/xlink" x="0px" y="0px" width="1760px" height="700px"
	 viewBox="0 0 1760 700" style="enable-background:new 0 0 1760 700;" xml:space="preserve">
<style type="text/css">
	.st0{fill:#FFFFFF;}
	.st1{fill:none;stroke:#3A414A;}
	.st2{fill:none;}
	.st3{fill:#FFFFFF;stroke:#3A414A;}
	.st4{fill:#3A414A;stroke:#3A414A;stroke-width:5.000000e-02;}
	.st5{fill:#3A414A;stroke:#3A414A;}
	.st6{fill:#FFFFFF;fill-opacity:0;stroke:#000000;stroke-opacity:0;}
	.st7{fill:none;stroke:#3A414A;stroke-width:3;}
	.st8{fill:#3A414A;stroke:#3A414A;stroke-width:3;}
	.st9{enable-background:new    ;}
	.st10{fill:#3A414A;}
</style>
<path class="st0" d="M-1686.9-100h3677.7v1322.8h-3677.7V-100z"/>
<path class="st0" d="M340,326c0-3.3,2.7-6,6-6h1388c3.3,0,6,2.7,6,6v348c0,3.3-2.7,6-6,6H346c-3.3,0-6-2.7-6-6V326z"/>
<path class="st1" d="M365.2,320.1h20.1 M395.4,320.1h20.1 M425.6,320.1h20.1 M455.8,320.1h20.1 M486,320.1h20.1 M516.2,320.1h20.1
	 M546.4,320.1h20.1 M576.5,320.1h20.1 M606.7,320.1h20.1 M636.9,320.1h20.1 M667.1,320.1h20.1 M697.3,320.1l20.1,0 M727.5,320.1
	h20.1 M757.7,320.1h20.1 M787.9,320.1H808 M818.1,320.1h20.1 M848.3,320.1h20.1 M878.5,320.1h20.1 M908.7,320.1h20.1 M938.9,320.1
	H959 M969.1,320.1h20.1 M999.3,320.1h20.1 M1029.5,320.1h20.1 M1059.7,320.1l20.1,0 M1089.8,320h20.1 M1120.1,320h20.1 M1150.2,320
	h20.1 M1180.4,320h20.1 M1210.6,320h20.1 M1240.8,320h20.1 M1271,320h20.1 M1301.2,320h20.1 M1331.4,320h20.1 M1361.6,320h20.1
	 M1391.8,320h20.1 M1422,320h20.1 M1452.2,320l20.1,0 M1482.4,320h20.1 M1512.6,320h20.1 M1542.8,320h20.1 M1573,320h20.1
	 M1603.2,320h20.1 M1633.3,320h20.1 M1663.5,320h20.1 M1693.7,320h20.1 M1723.9,320h10.1l0.9,0.1l0.9,0.2l0.9,0.4l0.8,0.5l0.7,0.6
	l0.6,0.7l0.5,0.8l0.4,0.9l0.2,0.9v9.7 M1739.9,344.5v19.4 M1739.9,373.5v19.4 M1739.9,402.6l0,19.4 M1740,431.7v19.4 M1740,460.8
	v19.4 M1740,489.9l0,19.4 M1740,518.9v19.4 M1740,548v19.4 M1740,577.1v19.4 M1740,606.2v19.4 M1740,635.3v19.4 M1740,664.3v9.7
	l-0.1,0.9l-0.2,0.9l-0.3,0.9l-0.5,0.8l-0.6,0.7l-0.7,0.6l-0.8,0.5l-0.9,0.4l-0.9,0.2h-10.1 M1714.8,680h-20.1 M1684.6,680h-20.1
	 M1654.5,680h-20.1 M1624.3,680h-20.1 M1594.1,680h-20.1 M1563.9,680h-20.1 M1533.7,680h-20.1 M1503.5,680h-20.1 M1473.3,680h-20.1
	 M1443.1,680H1423 M1412.9,680h-20.1 M1382.7,680l-20.1,0 M1352.5,680h-20.1 M1322.3,680h-20.1 M1292.1,680H1272 M1261.9,680h-20.1
	 M1231.7,680h-20.1 M1201.5,680h-20.1 M1171.3,680h-20.1 M1141.2,680H1121 M1110.9,680h-20.1 M1080.7,680h-20.1 M1050.5,680h-20.1
	 M1020.3,680l-20.1,0 M990.2,680H970 M960,680h-20.1 M929.8,680h-20.1 M899.6,680h-20.1 M869.4,680h-20.1 M839.2,680H819 M809,680
	h-20.1 M778.8,680h-20.1 M748.6,680h-20.1 M718.4,680h-20.1 M688.2,680h-20.1 M658,680h-20.1 M627.8,680l-20.1,0 M597.7,680h-20.2
	 M567.4,680h-20.1 M537.2,680h-20.1 M507,680h-20.1 M476.8,680h-20.1 M446.7,680h-20.1 M416.5,680h-20.1 M386.3,680h-20.1
	 M356.1,680H346l-0.9-0.1l-0.9-0.2l-0.9-0.3l-0.8-0.5l-0.7-0.6l-0.6-0.7l-0.5-0.8l-0.4-0.9l-0.2-0.9v-9.7 M340.1,655.6v-19.4
	 M340.1,626.5v-19.4 M340.1,597.4l0-19.4 M340,568.3v-19.4 M340,539.2v-19.4 M340,510.2l0-19.4 M340,481.1v-19.4 M340,452v-19.4
	 M340,422.9v-19.4 M340,393.8v-19.4 M340,364.8v-19.4 M340,335.7V326l0.1-0.9l0.2-0.9l0.4-0.9l0.5-0.8l0.6-0.7l0.7-0.6l0.8-0.5
	l0.9-0.4l0.9-0.2h10.1"/>
<path class="st0" d="M340,26c0-3.3,2.7-6,6-6h1388c3.3,0,6,2.7,6,6v188c0,3.3-2.7,6-6,6H346c-3.3,0-6-2.7-6-6V26z"/>
<path class="st1" d="M365.2,20.1h20.1 M395.4,20.1h20.1 M425.6,20.1h20.1 M455.8,20.1h20.1 M486,20.1h20.1 M516.2,20.1h20.1
	 M546.4,20.1h20.1 M576.5,20.1h20.1 M606.7,20.1h20.1 M636.9,20.1h20.1 M667.1,20.1h20.1 M697.3,20.1l20.1,0 M727.5,20.1h20.1
	 M757.7,20.1h20.1 M787.9,20.1H808 M818.1,20.1h20.1 M848.3,20.1h20.1 M878.5,20.1h20.1 M908.7,20.1h20.1 M938.9,20.1H959
	 M969.1,20.1h20.1 M999.3,20.1h20.1 M1029.5,20.1h20.1 M1059.7,20.1l20.1,0 M1089.8,20h20.1 M1120.1,20h20.1 M1150.2,20h20.1
	 M1180.4,20h20.1 M1210.6,20h20.1 M1240.8,20h20.1 M1271,20h20.1 M1301.2,20h20.1 M1331.4,20h20.1 M1361.6,20h20.1 M1391.8,20h20.1
	 M1422,20h20.1 M1452.2,20l20.1,0 M1482.4,20h20.1 M1512.6,20h20.1 M1542.8,20h20.1 M1573,20h20.1 M1603.2,20h20.1 M1633.3,20h20.1
	 M1663.5,20h20.1 M1693.7,20h20.1 M1723.9,20h10.1l0.9,0.1l0.9,0.2l0.9,0.3l0.8,0.5l0.7,0.6l0.6,0.7l0.5,0.8l0.4,0.9l0.2,0.9v10.5
	 M1739.9,46.1v21 M1740,77.6v21 M1740,109l0,21 M1740,140.5v21 M1740,172l0,21 M1740,203.5V214l-0.1,0.9l-0.2,0.9l-0.3,0.9l-0.5,0.8
	l-0.6,0.7l-0.7,0.6l-0.8,0.5l-0.9,0.4l-0.9,0.2h-10.1 M1714.8,219.9h-20.1 M1684.6,219.9h-20.1 M1654.5,219.9h-20.1 M1624.3,219.9
	h-20.1 M1594.1,219.9h-20.1 M1563.9,219.9h-20.1 M1533.7,219.9h-20.1 M1503.5,219.9h-20.1 M1473.3,219.9h-20.1 M1443.1,219.9H1423
	 M1412.9,219.9h-20.1 M1382.7,219.9l-20.1,0 M1352.5,220h-20.1 M1322.3,220h-20.1 M1292.1,220H1272 M1261.9,220h-20.1 M1231.7,220
	h-20.1 M1201.5,220h-20.1 M1171.3,220h-20.1 M1141.2,220H1121 M1110.9,220h-20.1 M1080.7,220h-20.1 M1050.5,220h-20.1 M1020.3,220
	l-20.1,0 M990.2,220H970 M960,220h-20.1 M929.8,220h-20.1 M899.6,220h-20.1 M869.4,220h-20.1 M839.2,220H819 M809,220h-20.1
	 M778.8,220h-20.1 M748.6,220h-20.1 M718.4,220h-20.1 M688.2,220h-20.1 M658,220h-20.1 M627.8,220l-20.1,0 M597.7,220h-20.2
	 M567.4,220h-20.1 M537.2,220h-20.1 M507,220h-20.1 M476.8,220h-20.1 M446.7,220h-20.1 M416.5,220h-20.1 M386.3,220h-20.1
	 M356.1,220H346l-0.9-0.1l-0.9-0.2l-0.9-0.4l-0.8-0.5l-0.7-0.6l-0.6-0.7l-0.5-0.8l-0.4-0.9l-0.2-0.9v-10.5 M340.1,194v-21
	 M340,162.5v-21 M340,131l0-21 M340,99.5v-21 M340,68l0-21 M340,36.5V26l0.1-0.9l0.2-0.9l0.4-0.9l0.5-0.8l0.6-0.7l0.7-0.6l0.8-0.5
	l0.9-0.4l0.9-0.2h10.1"/>
<path class="st2" d="M20,260h240v60H20V260z"/>
<path class="st3" d="M420,86c0-3.3,2.7-6,6-6h188c3.3,0,6,2.7,6,6v108c0,3.3-2.7,6-6,6H426c-3.3,0-6-2.7-6-6V86z"/>
<path class="st3" d="M930,86c0-3.3,2.7-6,6-6h188c3.3,0,6,2.7,6,6v108c0,3.3-2.7,6-6,6H936c-3.3,0-6-2.7-6-6V86z"/>
<path class="st3" d="M1440,86c0-3.3,2.7-6,6-6h188c3.3,0,6,2.7,6,6v108c0,3.3-2.7,6-6,6h-188c-3.3,0-6-2.7-6-6V86z"/>
<path class="st3" d="M420,346c0-3.3,2.7-6,6-6h188c3.3,0,6,2.7,6,6v108c0,3.3-2.7,6-6,6H426c-3.3,0-6-2.7-6-6V346z"/>
<path class="st3" d="M740,346c0-3.3,2.7-6,6-6h188c3.3,0,6,2.7,6,6v108c0,3.3-2.7,6-6,6H746c-3.3,0-6-2.7-6-6V346z"/>
<path class="st3" d="M1080,346c0-3.3,2.7-6,6-6h188c3.3,0,6,2.7,6,6v108c0,3.3-2.7,6-6,6h-188c-3.3,0-6-2.7-6-6V346z"/>
<path class="st3" d="M1160,526c0-3.3,2.7-6,6-6h188c3.3,0,6,2.7,6,6v108c0,3.3-2.7,6-6,6h-188c-3.3,0-6-2.7-6-6V526z"/>
<path class="st3" d="M1500,526c0-3.3,2.7-6,6-6h188c3.3,0,6,2.7,6,6v108c0,3.3-2.7,6-6,6h-188c-3.3,0-6-2.7-6-6V526z"/>
<path class="st1" d="M621,140h292.2"/>
<path class="st4" d="M621,140.5h-0.5v-1h0.5V140.5z"/>
<path class="st5" d="M927.9,140l-14.3,4.6v-9.3L927.9,140z"/>
<path class="st1" d="M1131,140h292.2"/>
<path class="st4" d="M1131,140.5h-0.5v-1h0.5V140.5z"/>
<path class="st5" d="M1437.9,140l-14.3,4.6v-9.3L1437.9,140z"/>
<path class="st1" d="M621,400h102.2"/>
<path class="st4" d="M621,400.5h-0.5v-1h0.5V400.5z"/>
<path class="st5" d="M737.9,400l-14.3,4.6v-9.3L737.9,400z"/>
<path class="st1" d="M941,400h122.2"/>
<path class="st4" d="M941,400.5h-0.5v-1h0.5V400.5z"/>
<path class="st5" d="M1077.9,400l-14.3,4.6v-9.3L1077.9,400z"/>
<path class="st1" d="M1361,580h122.2"/>
<path class="st4" d="M1361,580.5h-0.5v-1h0.5V580.5z"/>
<path class="st5" d="M1497.9,580l-14.3,4.6v-9.3L1497.9,580z"/>
<path class="st6" d="M100,64.3c0-3.3,2.7-6,6-6h228c3.3,0,6,2.7,6,6v51.3c0,3.3-2.7,6-6,6H106c-3.3,0-6-2.7-6-6V64.3z"/>
<path class="st6" d="M100,431c0-3.3,2.7-6,6-6h228c3.3,0,6,2.7,6,6v78c0,3.3-2.7,6-6,6H106c-3.3,0-6-2.7-6-6V431z"/>
<path class="st7" d="M220,123.1v15.6 M220,154.4v31.3 M220,201.3v31.2 M220,248.2v31.2 M220,295v31.2 M220,341.9v31.3 M220,388.8
	v15.6"/>
<path class="st4" d="M221.5,123.2h-3v-1.5h3V123.2z"/>
<path class="st8" d="M220,420.2l-4.6-14.3h9.3L220,420.2z"/>
<path class="st1" d="M1180,461v42.2"/>
<path class="st4" d="M1180.5,461h-1v-0.5h1V461z"/>
<path class="st5" d="M1180,518l-4.6-14.3h9.3L1180,518z"/>
<g transform="translate(-0.5 -0.5)">
	<g class="st9">
		<path class="st10" d="M149.5,81.7H146l5.6-15.8h3.8l5.6,15.8h-3.6l-1-3.3h-5.8L149.5,81.7z M151.4,75.7h4l-2-6.2h0L151.4,75.7z"/>
		<path class="st10" d="M173.6,81.7h-3v-1.5h0c-0.7,1.3-2.1,1.8-3.4,1.8c-3.5,0-4.9-3.1-4.9-6.3c0-4,2.3-6,4.9-6
			c2,0,2.9,1.1,3.4,1.8h0v-5.6h3.1V81.7z M167.9,79.5c2,0,2.7-1.6,2.7-3.4c0-1.9-0.5-3.8-2.6-3.8c-2,0-2.6,1.7-2.6,3.6
			C165.3,77.3,165.9,79.5,167.9,79.5z"/>
		<path class="st10" d="M193,81.7H190v-7.1c0-1.7-0.8-2.3-1.7-2.3c-1.5,0-2.1,1-2.1,2.4v7h-3.1v-7c0-1,0-2.4-1.8-2.4
			c-1.5,0-1.9,1-1.9,2.3v7.1h-3.1V70h2.9v1.7h0c0.4-0.8,1.3-2,3.3-2c1.7,0,2.5,0.6,3.3,1.9c0.4-0.6,1.3-1.9,3.1-1.9
			c2.3,0,4.1,1.3,4.1,3.9V81.7z"/>
		<path class="st10" d="M199,68.6h-3.1v-2.9h3.1V68.6z M199,70v11.7h-3.1V70H199z"/>
		<path class="st10" d="M212.6,81.7h-3.1v-7.1c0-0.9,0-2.3-2-2.3c-1.4,0-2.4,0.9-2.4,2.7v6.7H202V70h2.9v1.7h0c0.4-0.7,1.3-2,3.5-2
			c2.3,0,4.1,1.3,4.1,3.9V81.7z"/>
		<path class="st10" d="M218.6,68.6h-3.1v-2.9h3.1V68.6z M218.6,70v11.7h-3.1V70H218.6z"/>
		<path class="st10" d="M228.2,73.6c-0.1-0.7-0.4-1.5-2.1-1.5s-1.9,0.6-1.9,1.1c0,1.8,7.3,0.5,7.3,4.8c0,3.4-3.3,4-5.1,4
			c-2.7,0-5.5-0.9-5.6-4h3.2c0,1,0.6,1.7,2.6,1.7c1.6,0,2-0.8,2-1.2c0-2-7.3-0.5-7.3-4.9c0-1.7,1.1-3.9,4.7-3.9c2.3,0,5,0.6,5.3,3.9
			H228.2z"/>
		<path class="st10" d="M237.2,70h1.9v2.2h-1.9v6.4c0,0.7,0,0.9,1.3,0.9c0.2,0,0.4,0,0.6,0v2.3c-0.5,0-1,0-1.5,0h-0.4
			c-2.7,0-3.1-1-3.1-2.5v-7.1h-1.6V70h1.6v-3.2h3.1V70z"/>
		<path class="st10" d="M241.1,70h2.9v2h0c0.6-1.2,1.3-2.3,3.2-2.3c0.2,0,0.4,0,0.6,0v3.1c-0.3,0-0.6,0-0.9,0
			c-2.4,0-2.8,1.5-2.8,2.8v6.1h-3.1V70z"/>
		<path class="st10" d="M259.1,79.4c0,1.4,0.3,1.7,0.7,1.8v0.5h-3.3c-0.2-0.5-0.2-0.7-0.3-1.4c-0.7,0.7-1.7,1.7-3.8,1.7
			c-1.8,0-3.6-1-3.6-3.4c0-2.3,1.5-3.5,3.4-3.7l2.8-0.4c0.5-0.1,1.1-0.3,1.1-0.9c0-1.3-1.2-1.4-2-1.4c-1.5,0-1.8,0.9-1.9,1.6h-3
			c0.4-3.6,2.8-4.1,5.2-4.1c1.6,0,4.7,0.5,4.7,3.4V79.4z M256.1,76c-0.3,0.2-0.8,0.4-2.1,0.6c-1.1,0.2-2.1,0.5-2.1,1.8
			c0,1.1,0.8,1.4,1.4,1.4c1.4,0,2.8-0.9,2.8-2.3V76z"/>
		<path class="st10" d="M272.6,81.7h-3v-1.5h0c-0.7,1.3-2.1,1.8-3.4,1.8c-3.5,0-4.9-3.1-4.9-6.3c0-4,2.3-6,4.9-6
			c2,0,2.9,1.1,3.4,1.8h0v-5.6h3.1V81.7z M266.9,79.5c2,0,2.7-1.6,2.7-3.4c0-1.9-0.5-3.8-2.6-3.8c-2,0-2.6,1.7-2.6,3.6
			C264.4,77.3,264.9,79.5,266.9,79.5z"/>
		<path class="st10" d="M280.6,82c-3.1,0-6-1.9-6-6.2s2.8-6.2,6-6.2s6,1.9,6,6.2S283.8,82,280.6,82z M280.6,72.3
			c-2.4,0-2.8,2.1-2.8,3.6s0.4,3.6,2.8,3.6s2.8-2.1,2.8-3.6S283,72.3,280.6,72.3z"/>
		<path class="st10" d="M288.7,70h2.9v2h0c0.6-1.2,1.3-2.3,3.2-2.3c0.2,0,0.4,0,0.6,0v3.1c-0.3,0-0.6,0-0.9,0
			c-2.4,0-2.8,1.5-2.8,2.8v6.1h-3.1V70z"/>
		<path class="st10" d="M136.3,108.1h-3v-1.5h0c-0.7,1.3-2.1,1.8-3.4,1.8c-3.5,0-4.9-3.1-4.9-6.3c0-4,2.3-6,4.9-6
			c2,0,2.9,1.1,3.4,1.8h0v-5.6h3.1V108.1z M130.6,105.9c2,0,2.7-1.6,2.7-3.4c0-1.9-0.5-3.8-2.6-3.8c-2,0-2.6,1.7-2.6,3.6
			C128.1,103.7,128.6,105.9,130.6,105.9z"/>
		<path class="st10" d="M149.1,104.7c-0.8,2.8-3.1,3.7-5.1,3.7c-3.3,0-5.8-1.6-5.8-6.4c0-1.4,0.5-5.9,5.6-5.9c2.3,0,5.5,1.1,5.5,6.4
			v0.5h-8c0.1,0.9,0.3,2.9,2.8,2.9c0.9,0,1.7-0.4,2-1.3H149.1z M146,101.1c-0.2-1.9-1.4-2.5-2.4-2.5c-1.5,0-2.2,0.9-2.4,2.5H146z"/>
		<path class="st10" d="M159.9,108.1h-3.5l5.6-15.8h3.8l5.6,15.8h-3.6l-1-3.3H161L159.9,108.1z M161.8,102.1h4l-2-6.2h0L161.8,102.1
			z"/>
		<path class="st10" d="M183.9,108.1h-3v-1.5h0c-0.7,1.3-2.1,1.8-3.4,1.8c-3.5,0-4.9-3.1-4.9-6.3c0-4,2.3-6,4.9-6
			c2,0,2.9,1.1,3.4,1.8h0v-5.6h3.1V108.1z M178.3,105.9c2,0,2.7-1.6,2.7-3.4c0-1.9-0.5-3.8-2.6-3.8c-2,0-2.6,1.7-2.6,3.6
			C175.7,103.7,176.3,105.9,178.3,105.9z"/>
		<path class="st10" d="M203.4,108.1h-3.1V101c0-1.7-0.8-2.3-1.7-2.3c-1.5,0-2.1,1-2.1,2.4v7h-3.1v-7c0-1,0-2.4-1.8-2.4
			c-1.5,0-1.9,1-1.9,2.3v7.1h-3.1V96.4h2.9v1.7h0c0.4-0.8,1.3-2,3.3-2c1.7,0,2.5,0.6,3.3,1.9c0.4-0.6,1.3-1.9,3.1-1.9
			c2.3,0,4.1,1.3,4.1,3.9V108.1z"/>
		<path class="st10" d="M209.4,95h-3.1v-2.9h3.1V95z M209.4,96.4v11.7h-3.1V96.4H209.4z"/>
		<path class="st10" d="M223,108.1h-3.1V101c0-0.9,0-2.3-2-2.3c-1.4,0-2.4,0.9-2.4,2.7v6.7h-3.1V96.4h2.9v1.7h0c0.4-0.7,1.3-2,3.5-2
			c2.3,0,4.1,1.3,4.1,3.9V108.1z"/>
		<path class="st10" d="M242.2,97.5c-0.3-0.9-0.8-2.7-3.5-2.7c-1.6,0-3.9,1.1-3.9,5.5c0,2.8,1.1,5.4,3.9,5.4c1.8,0,3.1-1,3.5-3h3.3
			c-0.7,3.4-2.9,5.8-6.9,5.8c-4.2,0-7.2-2.8-7.2-8.3c0-5.5,3.2-8.3,7.3-8.3c4.7,0,6.6,3.3,6.8,5.6H242.2z"/>
		<path class="st10" d="M253.1,108.4c-3.1,0-6-1.9-6-6.2s2.8-6.2,6-6.2s6,1.9,6,6.2S256.3,108.4,253.1,108.4z M253.1,98.7
			c-2.4,0-2.8,2.1-2.8,3.6s0.4,3.6,2.8,3.6s2.8-2.1,2.8-3.6S255.5,98.7,253.1,98.7z"/>
		<path class="st10" d="M271.8,108.1h-3.1V101c0-0.9,0-2.3-2-2.3c-1.4,0-2.4,0.9-2.4,2.7v6.7h-3.1V96.4h2.9v1.7h0
			c0.4-0.7,1.3-2,3.5-2c2.3,0,4.1,1.3,4.1,3.9V108.1z"/>
		<path class="st10" d="M281.3,100c-0.1-0.7-0.4-1.5-2.1-1.5s-1.9,0.6-1.9,1.1c0,1.8,7.3,0.5,7.3,4.8c0,3.4-3.3,4-5.1,4
			c-2.7,0-5.5-0.9-5.6-4h3.2c0,1,0.6,1.7,2.6,1.7c1.6,0,2-0.8,2-1.2c0-2-7.3-0.5-7.3-4.9c0-1.7,1.1-3.9,4.7-3.9c2.3,0,5,0.6,5.3,3.9
			H281.3z"/>
		<path class="st10" d="M292.2,108.4c-3.1,0-6-1.9-6-6.2s2.8-6.2,6-6.2s6,1.9,6,6.2S295.4,108.4,292.2,108.4z M292.2,98.7
			c-2.4,0-2.8,2.1-2.8,3.6s0.4,3.6,2.8,3.6s2.8-2.1,2.8-3.6S294.6,98.7,292.2,98.7z"/>
		<path class="st10" d="M303.5,108.1h-3.1V92.3h3.1V108.1z"/>
		<path class="st10" d="M316.5,104.7c-0.8,2.8-3.1,3.7-5.1,3.7c-3.3,0-5.8-1.6-5.8-6.4c0-1.4,0.5-5.9,5.6-5.9c2.3,0,5.5,1.1,5.5,6.4
			v0.5h-8c0.1,0.9,0.3,2.9,2.8,2.9c0.9,0,1.7-0.4,2-1.3H316.5z M313.5,101.1c-0.2-1.9-1.4-2.5-2.4-2.5c-1.5,0-2.2,0.9-2.4,2.5H313.5
			z"/>
	</g>
</g>
<g transform="translate(-0.5 -0.5)">
	<g class="st9">
		<path class="st10" d="M456.1,141l-1.7,4.6h-2.2l5.9-15.8h2.4l5.7,15.8H464l-1.6-4.6H456.1z M461.7,139.1l-2.3-7h0l-2.5,7H461.7z"
			/>
		<path class="st10" d="M477.4,145.6h-1.9v-7.1c0-2-0.6-3-2.5-3c-1.1,0-3,0.7-3,3.8v6.3h-1.9v-11.5h1.8v1.6h0c0.4-0.6,1.5-2,3.5-2
			c1.8,0,4,0.7,4,4V145.6z M476.3,129.7c-0.2,1.3-0.9,2.4-2.2,2.4c-0.4,0-0.7-0.1-1.3-0.3l-0.6-0.2c-0.8-0.3-1.1-0.3-1.3-0.3
			c-0.6,0-0.9,0.4-1,1h-1.1c0.2-1.3,0.8-2.4,2.3-2.4c0.6,0,1,0.2,1.5,0.3l0.5,0.2c0.4,0.2,0.9,0.3,1,0.3c0.9,0,1-0.6,1.1-1H476.3z"
			/>
		<path class="st10" d="M480.2,137.6c0.1-2.8,1.9-3.8,4.8-3.8c0.9,0,4.3,0.3,4.3,3.2v6.6c0,0.5,0.2,0.7,0.6,0.7c0.2,0,0.4,0,0.6-0.1
			v1.4c-0.3,0.1-0.6,0.2-1.1,0.2c-1.7,0-2-0.9-2-1.8c-0.7,0.8-1.9,1.9-4.2,1.9c-2.1,0-3.6-1.3-3.6-3.3c0-1,0.3-3.2,3.5-3.6l3.2-0.4
			c0.5,0,1-0.2,1-1.4c0-1.2-0.9-1.9-2.7-1.9c-2.2,0-2.5,1.3-2.6,2.2H480.2z M487.3,139.7c-0.3,0.2-0.8,0.4-3.2,0.7
			c-0.9,0.1-2.5,0.4-2.5,1.9c0,1.3,0.6,2,2.1,2c1.8,0,3.6-1.2,3.6-2.7V139.7z"/>
		<path class="st10" d="M502.1,145.6h-1.8V144h0c-0.8,1.6-2.2,1.9-3.3,1.9c-3.9,0-5.1-3.7-5.1-6.4c0-3.2,1.7-5.7,4.8-5.7
			c2.1,0,3,1.3,3.4,2l0-0.2v-5.8h1.9V145.6z M497,144.2c1.2,0,3.1-0.8,3.1-3.9c0-1.9-0.3-4.9-3.1-4.9c-3,0-3.1,2.8-3.1,4.3
			C493.9,142.3,494.9,144.2,497,144.2z"/>
		<path class="st10" d="M504.8,132v-2.2h1.9v2.2H504.8z M506.8,145.6h-1.9v-11.5h1.9V145.6z"/>
		<path class="st10" d="M511.9,145.6h-1.9v-11.5h1.8v1.9h0c0.8-1.3,1.8-2.2,3.2-2.2c0.2,0,0.4,0,0.5,0.1v2h-0.7
			c-1.8,0-2.9,1.4-2.9,3.1V145.6z"/>
		<path class="st10" d="M532.6,144.6c0,1.7,0,5.8-5.3,5.8c-1.4,0-4-0.4-4.4-3.4h1.9c0.4,1.8,2.1,1.8,2.6,1.8c3.3,0,3.3-2.7,3.3-4
			v-0.5h0v0.1c-0.5,0.8-1.5,1.5-3.1,1.5c-3.9,0-5.1-3.7-5.1-6.4c0-3.2,1.7-5.7,4.8-5.7c2.1,0,3,1.3,3.4,2h0v-1.6h1.8V144.6z
			 M527.7,144.2c1.2,0,3.1-0.8,3.1-3.9c0-1.9-0.3-4.9-3.1-4.9c-3,0-3.1,2.8-3.1,4.3C524.5,142.3,525.5,144.2,527.7,144.2z"/>
		<path class="st10" d="M537.3,145.6h-1.9v-11.5h1.8v1.9h0c0.8-1.3,1.8-2.2,3.2-2.2c0.2,0,0.4,0,0.5,0.1v2h-0.7
			c-1.8,0-2.9,1.4-2.9,3.1V145.6z"/>
		<path class="st10" d="M550.3,145.6v-1.7l0,0c-0.8,1.3-1.8,2-3.7,2c-1.7,0-3.7-0.8-3.7-3.6v-8.3h1.9v7.6c0,1.9,1,2.5,2.2,2.5
			c2.4,0,3.2-2.2,3.2-3.8v-6.3h1.9v11.5H550.3z"/>
		<path class="st10" d="M554.8,134.1h1.8v1.6h0c0.5-0.7,1.3-2,3.4-2c3.1,0,4.8,2.5,4.8,5.7c0,2.8-1.1,6.4-5.1,6.4
			c-1.5,0-2.6-0.7-3.1-1.5h0v5.8h-1.9V134.1z M559.8,144.2c2.1,0,3.1-1.9,3.1-4.4c0-1.5-0.2-4.3-3.1-4.3c-2.8,0-3.1,3-3.1,4.9
			C556.7,143.4,558.6,144.2,559.8,144.2z"/>
		<path class="st10" d="M571.9,133.7c3.7,0,5.3,3.1,5.3,6.1s-1.7,6.1-5.3,6.1c-3.7,0-5.3-3.1-5.3-6.1S568.2,133.7,571.9,133.7z
			 M571.9,144.2c2.8,0,3.3-2.9,3.3-4.4s-0.6-4.4-3.3-4.4c-2.8,0-3.3,2.9-3.3,4.4S569.1,144.2,571.9,144.2z"/>
		<path class="st10" d="M586,137.3c0-0.7-0.3-1.9-2.7-1.9c-0.6,0-2.3,0.2-2.3,1.6c0,0.9,0.6,1.2,2.1,1.5l1.9,0.5
			c2.4,0.6,3.2,1.5,3.2,3c0,2.4-2,3.8-4.6,3.8c-4.6,0-4.9-2.6-5-4h1.9c0.1,0.9,0.3,2.4,3.1,2.4c1.4,0,2.6-0.6,2.6-1.8
			c0-0.9-0.6-1.2-2.3-1.7l-2.2-0.6c-1.6-0.4-2.7-1.2-2.7-2.8c0-2.5,2.1-3.7,4.4-3.7c4.1,0,4.4,3,4.4,3.6H586z"/>
		<path class="st10" d="M474.5,172h-1.8v-1.6h0c-0.8,1.6-2.2,1.9-3.3,1.9c-3.9,0-5.1-3.7-5.1-6.4c0-3.2,1.7-5.7,4.8-5.7
			c2.1,0,3,1.3,3.4,2l0-0.2v-5.8h1.9V172z M469.4,170.6c1.2,0,3.1-0.8,3.1-3.9c0-1.9-0.3-4.9-3.1-4.9c-3,0-3.1,2.8-3.1,4.3
			C466.2,168.7,467.2,170.6,469.4,170.6z"/>
		<path class="st10" d="M486.9,168.4c-0.1,0.5-0.6,2.2-2,3.1c-0.5,0.4-1.3,0.8-3.1,0.8c-3.2,0-5.1-2.4-5.1-5.8
			c0-3.6,1.7-6.4,5.5-6.4c3.3,0,5,2.6,5,6.7h-8.4c0,2.4,1.1,3.8,3.3,3.8c1.8,0,2.9-1.4,3-2.3H486.9z M485.1,165.3
			c-0.1-1.8-0.9-3.4-3.2-3.4c-1.8,0-3.2,1.7-3.2,3.4H485.1z"/>
		<path class="st10" d="M503,172v-1.7l0,0c-0.8,1.3-1.8,2-3.7,2c-1.7,0-3.7-0.8-3.7-3.6v-8.3h1.9v7.6c0,1.9,1,2.5,2.2,2.5
			c2.4,0,3.2-2.2,3.2-3.8v-6.3h1.9V172H503z"/>
		<path class="st10" d="M514.3,163.7c0-0.7-0.3-1.9-2.7-1.9c-0.6,0-2.3,0.2-2.3,1.6c0,0.9,0.6,1.2,2.1,1.5l1.9,0.5
			c2.4,0.6,3.2,1.5,3.2,3c0,2.4-2,3.8-4.6,3.8c-4.6,0-4.9-2.6-5-4h1.9c0.1,0.9,0.3,2.4,3.1,2.4c1.4,0,2.6-0.6,2.6-1.8
			c0-0.9-0.6-1.2-2.3-1.7l-2.2-0.6c-1.6-0.4-2.7-1.2-2.7-2.8c0-2.5,2.1-3.7,4.4-3.7c4.1,0,4.4,3,4.4,3.6H514.3z"/>
		<path class="st10" d="M526.2,172v-1.7l0,0c-0.8,1.3-1.8,2-3.7,2c-1.7,0-3.7-0.8-3.7-3.6v-8.3h1.9v7.6c0,1.9,1,2.5,2.2,2.5
			c2.4,0,3.2-2.2,3.2-3.8v-6.3h1.9V172H526.2z"/>
		<path class="st10" d="M530.9,164c0.1-2.8,1.9-3.8,4.8-3.8c0.9,0,4.3,0.3,4.3,3.2v6.6c0,0.5,0.2,0.7,0.6,0.7c0.2,0,0.4,0,0.6-0.1
			v1.4c-0.3,0.1-0.6,0.2-1.1,0.2c-1.7,0-2-0.9-2-1.8c-0.7,0.8-1.9,1.9-4.2,1.9c-2.1,0-3.6-1.3-3.6-3.3c0-1,0.3-3.2,3.5-3.6l3.2-0.4
			c0.5,0,1-0.2,1-1.4c0-1.2-0.9-1.9-2.7-1.9c-2.2,0-2.5,1.3-2.6,2.2H530.9z M538,166.1c-0.3,0.2-0.8,0.4-3.2,0.7
			c-0.9,0.1-2.5,0.4-2.5,1.9c0,1.3,0.6,2,2.1,2c1.8,0,3.6-1.2,3.6-2.7V166.1z"/>
		<path class="st10" d="M545.4,172h-1.9v-11.5h1.8v1.9h0c0.8-1.3,1.8-2.2,3.2-2.2c0.2,0,0.4,0,0.5,0.1v2h-0.7
			c-1.8,0-2.9,1.4-2.9,3.1V172z"/>
		<path class="st10" d="M550.9,158.4v-2.2h1.9v2.2H550.9z M552.8,172h-1.9v-11.5h1.9V172z"/>
		<path class="st10" d="M560.4,160.1c3.7,0,5.3,3.1,5.3,6.1s-1.7,6.1-5.3,6.1c-3.7,0-5.3-3.1-5.3-6.1S556.7,160.1,560.4,160.1z
			 M560.4,170.6c2.8,0,3.3-2.9,3.3-4.4s-0.6-4.4-3.3-4.4s-3.3,2.9-3.3,4.4S557.6,170.6,560.4,170.6z"/>
		<path class="st10" d="M574.5,163.7c0-0.7-0.3-1.9-2.7-1.9c-0.6,0-2.3,0.2-2.3,1.6c0,0.9,0.6,1.2,2.1,1.5l1.9,0.5
			c2.4,0.6,3.2,1.5,3.2,3c0,2.4-2,3.8-4.6,3.8c-4.6,0-4.9-2.6-5-4h1.9c0.1,0.9,0.3,2.4,3.1,2.4c1.4,0,2.6-0.6,2.6-1.8
			c0-0.9-0.6-1.2-2.3-1.7l-2.2-0.6c-1.6-0.4-2.7-1.2-2.7-2.8c0-2.5,2.1-3.7,4.4-3.7c4.1,0,4.4,3,4.4,3.6H574.5z"/>
	</g>
</g>
<g transform="translate(-0.5 -0.5)">
	<g class="st9">
		<path class="st10" d="M1467.5,127.4l-1.7,4.6h-2.2l5.9-15.8h2.4l5.7,15.8h-2.3l-1.6-4.6H1467.5z M1473.1,125.5l-2.3-7h0l-2.5,7
			H1473.1z"/>
		<path class="st10" d="M1488.9,132h-1.9v-7.1c0-2-0.6-3-2.5-3c-1.1,0-3,0.7-3,3.8v6.3h-1.9v-11.5h1.8v1.6h0c0.4-0.6,1.5-2,3.5-2
			c1.8,0,4,0.7,4,4V132z M1487.7,116.1c-0.2,1.3-0.9,2.4-2.2,2.4c-0.4,0-0.7-0.1-1.3-0.3l-0.6-0.2c-0.8-0.3-1.1-0.3-1.3-0.3
			c-0.6,0-0.9,0.4-1,1h-1.1c0.2-1.3,0.8-2.4,2.3-2.4c0.6,0,1,0.2,1.5,0.3l0.5,0.2c0.4,0.2,0.9,0.3,1,0.3c0.9,0,1-0.6,1.1-1H1487.7z"
			/>
		<path class="st10" d="M1491.7,124c0.1-2.8,1.9-3.8,4.8-3.8c0.9,0,4.3,0.3,4.3,3.2v6.6c0,0.5,0.2,0.7,0.6,0.7c0.2,0,0.4,0,0.6-0.1
			v1.4c-0.3,0.1-0.6,0.2-1.1,0.2c-1.7,0-2-0.9-2-1.8c-0.7,0.8-1.9,1.9-4.2,1.9c-2.1,0-3.6-1.3-3.6-3.3c0-1,0.3-3.2,3.5-3.6l3.2-0.4
			c0.5,0,1-0.2,1-1.4c0-1.2-0.9-1.9-2.7-1.9c-2.2,0-2.5,1.3-2.6,2.2H1491.7z M1498.7,126.1c-0.3,0.2-0.8,0.4-3.2,0.7
			c-0.9,0.1-2.5,0.4-2.5,1.9c0,1.3,0.6,2,2.1,2c1.8,0,3.6-1.2,3.6-2.7V126.1z"/>
		<path class="st10" d="M1513.5,132h-1.8v-1.6h0c-0.8,1.6-2.2,1.9-3.3,1.9c-3.9,0-5.1-3.7-5.1-6.4c0-3.2,1.7-5.7,4.8-5.7
			c2.1,0,3,1.3,3.4,2l0-0.2v-5.8h1.9V132z M1508.4,130.7c1.2,0,3.1-0.8,3.1-3.9c0-1.9-0.3-4.9-3.1-4.9c-3,0-3.1,2.8-3.1,4.3
			C1505.3,128.8,1506.3,130.7,1508.4,130.7z"/>
		<path class="st10" d="M1516.2,118.4v-2.2h1.9v2.2H1516.2z M1518.2,132h-1.9v-11.5h1.9V132z"/>
		<path class="st10" d="M1523.3,132h-1.9v-11.5h1.8v1.9h0c0.8-1.3,1.8-2.2,3.2-2.2c0.2,0,0.4,0,0.5,0.1v2h-0.7
			c-1.8,0-2.9,1.4-2.9,3.1V132z"/>
		<path class="st10" d="M1542,132v-1.7l0,0c-0.8,1.3-1.8,2-3.7,2c-1.7,0-3.7-0.8-3.7-3.6v-8.3h1.9v7.6c0,1.9,1,2.5,2.2,2.5
			c2.4,0,3.2-2.2,3.2-3.8v-6.3h1.9V132H1542z"/>
		<path class="st10" d="M1553.3,123.8c0-0.7-0.3-1.9-2.7-1.9c-0.6,0-2.3,0.2-2.3,1.6c0,0.9,0.6,1.2,2.1,1.5l1.9,0.5
			c2.4,0.6,3.2,1.5,3.2,3c0,2.4-2,3.8-4.6,3.8c-4.6,0-4.9-2.6-5-4h1.9c0.1,0.9,0.3,2.4,3.1,2.4c1.4,0,2.6-0.6,2.6-1.8
			c0-0.9-0.6-1.2-2.3-1.7l-2.2-0.6c-1.6-0.4-2.7-1.2-2.7-2.8c0-2.5,2.1-3.7,4.4-3.7c4.1,0,4.4,3,4.4,3.6H1553.3z"/>
		<path class="st10" d="M1565.2,132v-1.7l0,0c-0.8,1.3-1.8,2-3.7,2c-1.7,0-3.7-0.8-3.7-3.6v-8.3h1.9v7.6c0,1.9,1,2.5,2.2,2.5
			c2.4,0,3.2-2.2,3.2-3.8v-6.3h1.9V132H1565.2z"/>
		<path class="st10" d="M1569.9,124c0.1-2.8,1.9-3.8,4.8-3.8c0.9,0,4.3,0.3,4.3,3.2v6.6c0,0.5,0.2,0.7,0.6,0.7c0.2,0,0.4,0,0.6-0.1
			v1.4c-0.3,0.1-0.6,0.2-1.1,0.2c-1.7,0-2-0.9-2-1.8c-0.7,0.8-1.9,1.9-4.2,1.9c-2.1,0-3.6-1.3-3.6-3.3c0-1,0.3-3.2,3.5-3.6l3.2-0.4
			c0.5,0,1-0.2,1-1.4c0-1.2-0.9-1.9-2.7-1.9c-2.2,0-2.5,1.3-2.6,2.2H1569.9z M1577,126.1c-0.3,0.2-0.8,0.4-3.2,0.7
			c-0.9,0.1-2.5,0.4-2.5,1.9c0,1.3,0.6,2,2.1,2c1.8,0,3.6-1.2,3.6-2.7V126.1z"/>
		<path class="st10" d="M1584.4,132h-1.9v-11.5h1.8v1.9h0c0.8-1.3,1.8-2.2,3.2-2.2c0.2,0,0.4,0,0.5,0.1v2h-0.7
			c-1.8,0-2.9,1.4-2.9,3.1V132z"/>
		<path class="st10" d="M1589.9,118.4v-2.2h1.9v2.2H1589.9z M1591.8,132h-1.9v-11.5h1.9V132z"/>
		<path class="st10" d="M1599.4,120.2c3.7,0,5.3,3.1,5.3,6.1s-1.7,6.1-5.3,6.1c-3.7,0-5.3-3.1-5.3-6.1S1595.8,120.2,1599.4,120.2z
			 M1599.4,130.7c2.8,0,3.3-2.9,3.3-4.4s-0.6-4.4-3.3-4.4s-3.3,2.9-3.3,4.4S1596.7,130.7,1599.4,130.7z"/>
		<path class="st10" d="M1613.5,123.8c0-0.7-0.3-1.9-2.7-1.9c-0.6,0-2.3,0.2-2.3,1.6c0,0.9,0.6,1.2,2.1,1.5l1.9,0.5
			c2.4,0.6,3.2,1.5,3.2,3c0,2.4-2,3.8-4.6,3.8c-4.6,0-4.9-2.6-5-4h1.9c0.1,0.9,0.3,2.4,3.1,2.4c1.4,0,2.6-0.6,2.6-1.8
			c0-0.9-0.6-1.2-2.3-1.7l-2.2-0.6c-1.6-0.4-2.7-1.2-2.7-2.8c0-2.5,2.1-3.7,4.4-3.7c4.1,0,4.4,3,4.4,3.6H1613.5z"/>
		<path class="st10" d="M1498.5,150.4c0.1-2.8,1.9-3.8,4.8-3.8c0.9,0,4.3,0.3,4.3,3.2v6.6c0,0.5,0.2,0.7,0.6,0.7
			c0.2,0,0.4,0,0.6-0.1v1.4c-0.3,0.1-0.6,0.2-1.1,0.2c-1.7,0-2-0.9-2-1.8c-0.7,0.8-1.9,1.9-4.2,1.9c-2.1,0-3.6-1.3-3.6-3.3
			c0-1,0.3-3.2,3.5-3.6l3.2-0.4c0.5,0,1-0.2,1-1.4c0-1.2-0.9-1.9-2.7-1.9c-2.2,0-2.5,1.3-2.6,2.2H1498.5z M1505.6,152.5
			c-0.3,0.2-0.8,0.4-3.2,0.7c-0.9,0.1-2.5,0.4-2.5,1.9c0,1.3,0.6,2,2.1,2c1.8,0,3.6-1.2,3.6-2.7V152.5z"/>
		<path class="st10" d="M1526.4,157.5c0,1.7,0,5.8-5.3,5.8c-1.4,0-4-0.4-4.4-3.4h1.9c0.4,1.8,2.1,1.8,2.6,1.8c3.3,0,3.3-2.7,3.3-4
			v-0.5h0v0.1c-0.5,0.8-1.5,1.5-3.1,1.5c-3.9,0-5.1-3.7-5.1-6.4c0-3.2,1.7-5.7,4.8-5.7c2.1,0,3,1.3,3.4,2h0v-1.6h1.8V157.5z
			 M1521.4,157.1c1.2,0,3.1-0.8,3.1-3.9c0-1.9-0.3-4.9-3.1-4.9c-3,0-3.1,2.8-3.1,4.3C1518.3,155.2,1519.3,157.1,1521.4,157.1z"/>
		<path class="st10" d="M1531.1,158.4h-1.9v-11.5h1.8v1.9h0c0.8-1.3,1.8-2.2,3.2-2.2c0.2,0,0.4,0,0.5,0.1v2h-0.7
			c-1.8,0-2.9,1.4-2.9,3.1V158.4z"/>
		<path class="st10" d="M1544.1,158.4v-1.7l0,0c-0.8,1.3-1.8,2-3.7,2c-1.7,0-3.7-0.8-3.7-3.6v-8.3h1.9v7.6c0,1.9,1,2.5,2.2,2.5
			c2.4,0,3.2-2.2,3.2-3.8v-6.3h1.9v11.5H1544.1z"/>
		<path class="st10" d="M1548.6,146.9h1.8v1.6h0c0.5-0.7,1.3-2,3.4-2c3.1,0,4.8,2.5,4.8,5.7c0,2.8-1.1,6.4-5.1,6.4
			c-1.5,0-2.6-0.7-3.1-1.5h0v5.8h-1.9V146.9z M1553.6,157.1c2.1,0,3.1-1.9,3.1-4.4c0-1.5-0.2-4.3-3.1-4.3c-2.8,0-3.1,3-3.1,4.9
			C1550.5,156.3,1552.4,157.1,1553.6,157.1z"/>
		<path class="st10" d="M1565.7,146.6c3.7,0,5.3,3.1,5.3,6.1s-1.7,6.1-5.3,6.1s-5.3-3.1-5.3-6.1S1562,146.6,1565.7,146.6z
			 M1565.7,157.1c2.8,0,3.3-2.9,3.3-4.4s-0.6-4.4-3.3-4.4s-3.3,2.9-3.3,4.4S1562.9,157.1,1565.7,157.1z"/>
		<path class="st10" d="M1579.8,150.2c0-0.7-0.3-1.9-2.7-1.9c-0.6,0-2.3,0.2-2.3,1.6c0,0.9,0.6,1.2,2.1,1.5l1.9,0.5
			c2.4,0.6,3.2,1.5,3.2,3c0,2.4-2,3.8-4.6,3.8c-4.6,0-4.9-2.6-5-4h1.9c0.1,0.9,0.3,2.4,3.1,2.4c1.4,0,2.6-0.6,2.6-1.8
			c0-0.9-0.6-1.2-2.3-1.7l-2.2-0.6c-1.6-0.4-2.7-1.2-2.7-2.8c0-2.5,2.1-3.7,4.4-3.7c4.1,0,4.4,3,4.4,3.6H1579.8z"/>
	</g>
</g>
<g transform="translate(-0.5 -0.5)">
	<g class="st9">
		<path class="st10" d="M1142.5,381.6c-0.6-2.8-2.9-3.3-4.4-3.3c-2.9,0-5.2,2.1-5.2,6.3c0,3.7,1.3,6.6,5.2,6.6
			c1.4,0,3.8-0.7,4.5-4.3h2.1c-0.9,6-5.7,6.2-6.9,6.2c-3.6,0-7.1-2.3-7.1-8.4c0-4.9,2.8-8.2,7.4-8.2c4.1,0,6.2,2.5,6.5,5.2H1142.5z"
			/>
		<path class="st10" d="M1151.7,380.8c3.7,0,5.3,3.1,5.3,6.1s-1.7,6.1-5.3,6.1s-5.3-3.1-5.3-6.1S1148,380.8,1151.7,380.8z
			 M1151.7,391.3c2.8,0,3.3-2.9,3.3-4.4s-0.6-4.4-3.3-4.4s-3.3,2.9-3.3,4.4S1148.9,391.3,1151.7,391.3z"/>
		<path class="st10" d="M1168.6,392.7h-1.9v-7.1c0-2-0.6-3-2.5-3c-1.1,0-3,0.7-3,3.8v6.3h-1.9v-11.5h1.8v1.6h0c0.4-0.6,1.5-2,3.5-2
			c1.8,0,4,0.7,4,4V392.7z"/>
		<path class="st10" d="M1173.9,382.8v9.9h-1.9v-9.9h-1.6v-1.6h1.6v-2c0-1.7,1.1-2.5,3-2.5c0.3,0,0.6,0,0.9,0v1.7
			c-0.2,0-0.5,0-0.8,0c-0.8,0-1.1,0.4-1.1,1.3v1.4h1.9v1.6H1173.9z"/>
		<path class="st10" d="M1177.6,379.1v-2.2h1.9v2.2H1177.6z M1179.6,392.7h-1.9v-11.5h1.9V392.7z"/>
		<path class="st10" d="M1192,391.7c0,1.7,0,5.8-5.3,5.8c-1.4,0-4-0.4-4.4-3.4h1.9c0.4,1.8,2.1,1.8,2.6,1.8c3.3,0,3.3-2.7,3.3-4
			v-0.5h0v0.1c-0.5,0.8-1.5,1.5-3.1,1.5c-3.9,0-5.1-3.7-5.1-6.4c0-3.2,1.7-5.7,4.8-5.7c2.1,0,3,1.3,3.4,2h0v-1.6h1.8V391.7z
			 M1187,391.3c1.2,0,3.1-0.8,3.1-3.9c0-1.9-0.3-4.9-3.1-4.9c-3,0-3.1,2.8-3.1,4.3C1183.9,389.4,1184.9,391.3,1187,391.3z"/>
		<path class="st10" d="M1202.2,392.7V391l0,0c-0.8,1.3-1.8,2-3.7,2c-1.7,0-3.7-0.8-3.7-3.6v-8.3h1.9v7.6c0,1.9,1,2.5,2.2,2.5
			c2.4,0,3.2-2.2,3.2-3.8v-6.3h1.9v11.5H1202.2z"/>
		<path class="st10" d="M1209.1,392.7h-1.9v-11.5h1.8v1.9h0c0.8-1.3,1.8-2.2,3.2-2.2c0.2,0,0.4,0,0.5,0.1v2h-0.7
			c-1.8,0-2.9,1.4-2.9,3.1V392.7z"/>
		<path class="st10" d="M1214,384.7c0.1-2.8,1.9-3.8,4.8-3.8c0.9,0,4.3,0.3,4.3,3.2v6.6c0,0.5,0.2,0.7,0.6,0.7c0.2,0,0.4,0,0.6-0.1
			v1.4c-0.3,0.1-0.6,0.2-1.1,0.2c-1.7,0-2-0.9-2-1.8c-0.7,0.8-1.9,1.9-4.2,1.9c-2.1,0-3.6-1.3-3.6-3.3c0-1,0.3-3.2,3.5-3.6l3.2-0.4
			c0.5,0,1-0.2,1-1.4c0-1.2-0.9-1.9-2.7-1.9c-2.2,0-2.5,1.3-2.6,2.2H1214z M1221.1,386.8c-0.3,0.2-0.8,0.4-3.2,0.7
			c-0.9,0.1-2.5,0.4-2.5,1.9c0,1.3,0.6,2,2.1,2c1.8,0,3.6-1.2,3.6-2.7V386.8z"/>
		<path class="st10" d="M1228.5,392.7h-1.9v-11.5h1.8v1.9h0c0.8-1.3,1.8-2.2,3.2-2.2c0.2,0,0.4,0,0.5,0.1v2h-0.7
			c-1.8,0-2.9,1.4-2.9,3.1V392.7z"/>
		<path class="st10" d="M1137.3,407.6h1.8v1.6h0c0.5-0.7,1.3-2,3.4-2c3.1,0,4.8,2.5,4.8,5.7c0,2.8-1.1,6.4-5.1,6.4
			c-1.5,0-2.6-0.7-3.1-1.5h0v5.8h-1.9V407.6z M1142.3,417.7c2.1,0,3.1-1.9,3.1-4.4c0-1.5-0.2-4.3-3.1-4.3c-2.8,0-3.1,3-3.1,4.9
			C1139.2,416.9,1141.1,417.7,1142.3,417.7z"/>
		<path class="st10" d="M1159.5,415.5c-0.1,0.5-0.6,2.2-2,3.1c-0.5,0.4-1.3,0.8-3.1,0.8c-3.2,0-5.1-2.4-5.1-5.8
			c0-3.6,1.7-6.4,5.5-6.4c3.3,0,5,2.6,5,6.7h-8.4c0,2.4,1.1,3.8,3.3,3.8c1.8,0,2.9-1.4,3-2.3H1159.5z M1157.6,412.4
			c-0.1-1.8-0.9-3.4-3.2-3.4c-1.8,0-3.2,1.7-3.2,3.4H1157.6z"/>
		<path class="st10" d="M1164.1,419.1h-1.9v-11.5h1.8v1.9h0c0.8-1.3,1.8-2.2,3.2-2.2c0.2,0,0.4,0,0.5,0.1v2h-0.7
			c-1.8,0-2.9,1.4-2.9,3.1V419.1z"/>
		<path class="st10" d="M1169.8,407.6h1.8v1.6h0c0.4-0.6,1.4-2,3.5-2s2.7,1.3,3.1,1.9c1-1.1,1.7-1.9,3.5-1.9c1.2,0,3.6,0.6,3.6,3.9
			v8h-1.9v-7.4c0-1.6-0.5-2.7-2.1-2.7c-1.6,0-2.7,1.5-2.7,3.1v7h-1.9v-8c0-1-0.4-2.1-1.8-2.1c-1.1,0-3,0.7-3,3.8v6.3h-1.9V407.6z"/>
		<path class="st10" d="M1188.2,405.5v-2.2h1.9v2.2H1188.2z M1190.1,419.1h-1.9v-11.5h1.9V419.1z"/>
		<path class="st10" d="M1199.6,410.9c0-0.7-0.3-1.9-2.7-1.9c-0.6,0-2.3,0.2-2.3,1.6c0,0.9,0.6,1.2,2.1,1.5l1.9,0.5
			c2.4,0.6,3.2,1.5,3.2,3c0,2.4-2,3.8-4.6,3.8c-4.6,0-4.9-2.6-5-4h1.9c0.1,0.9,0.3,2.4,3.1,2.4c1.4,0,2.6-0.6,2.6-1.8
			c0-0.9-0.6-1.2-2.3-1.7l-2.2-0.6c-1.6-0.4-2.7-1.2-2.7-2.8c0-2.5,2.1-3.7,4.4-3.7c4.1,0,4.4,3,4.4,3.6H1199.6z"/>
		<path class="st10" d="M1208.7,407.3c3.7,0,5.3,3.1,5.3,6.1s-1.7,6.1-5.3,6.1s-5.3-3.1-5.3-6.1S1205,407.3,1208.7,407.3z
			 M1208.7,417.7c2.8,0,3.3-2.9,3.3-4.4s-0.6-4.4-3.3-4.4s-3.3,2.9-3.3,4.4S1205.9,417.7,1208.7,417.7z"/>
		<path class="st10" d="M1222.8,410.9c0-0.7-0.3-1.9-2.7-1.9c-0.6,0-2.3,0.2-2.3,1.6c0,0.9,0.6,1.2,2.1,1.5l1.9,0.5
			c2.4,0.6,3.2,1.5,3.2,3c0,2.4-2,3.8-4.6,3.8c-4.6,0-4.9-2.6-5-4h1.9c0.1,0.9,0.3,2.4,3.1,2.4c1.4,0,2.6-0.6,2.6-1.8
			c0-0.9-0.6-1.2-2.3-1.7l-2.2-0.6c-1.6-0.4-2.7-1.2-2.7-2.8c0-2.5,2.1-3.7,4.4-3.7c4.1,0,4.4,3,4.4,3.6H1222.8z"/>
	</g>
</g>
<g transform="translate(-0.5 -0.5)">
	<g class="st9">
		<path class="st10" d="M1221.7,550.6c-0.6-2.8-2.9-3.3-4.4-3.3c-2.9,0-5.2,2.1-5.2,6.3c0,3.7,1.3,6.6,5.2,6.6
			c1.4,0,3.8-0.7,4.5-4.3h2.1c-0.9,6-5.7,6.2-6.9,6.2c-3.6,0-7.1-2.3-7.1-8.4c0-4.9,2.8-8.2,7.4-8.2c4.1,0,6.2,2.5,6.5,5.2H1221.7z"
			/>
		<path class="st10" d="M1230.9,549.8c3.7,0,5.3,3.1,5.3,6.1s-1.7,6.1-5.3,6.1s-5.3-3.1-5.3-6.1S1227.2,549.8,1230.9,549.8z
			 M1230.9,560.3c2.8,0,3.3-2.9,3.3-4.4s-0.6-4.4-3.3-4.4s-3.3,2.9-3.3,4.4S1228.1,560.3,1230.9,560.3z"/>
		<path class="st10" d="M1247.8,561.7h-1.9v-7.1c0-2-0.6-3-2.5-3c-1.1,0-3,0.7-3,3.8v6.3h-1.9v-11.5h1.8v1.6h0c0.4-0.6,1.5-2,3.5-2
			c1.8,0,4,0.7,4,4V561.7z"/>
		<path class="st10" d="M1253.1,551.8v9.9h-1.9v-9.9h-1.6v-1.6h1.6v-2c0-1.7,1.1-2.5,3-2.5c0.3,0,0.6,0,0.9,0v1.7
			c-0.2,0-0.5,0-0.8,0c-0.8,0-1.1,0.4-1.1,1.3v1.4h1.9v1.6H1253.1z"/>
		<path class="st10" d="M1256.8,548.1v-2.2h1.9v2.2H1256.8z M1258.8,561.7h-1.9v-11.5h1.9V561.7z"/>
		<path class="st10" d="M1271.2,560.7c0,1.7,0,5.8-5.3,5.8c-1.4,0-4-0.4-4.4-3.4h1.9c0.4,1.8,2.1,1.8,2.6,1.8c3.3,0,3.3-2.7,3.3-4
			v-0.5h0v0.1c-0.5,0.8-1.5,1.5-3.1,1.5c-3.9,0-5.1-3.7-5.1-6.4c0-3.2,1.7-5.7,4.8-5.7c2.1,0,3,1.3,3.4,2h0v-1.6h1.8V560.7z
			 M1266.2,560.3c1.2,0,3.1-0.8,3.1-3.9c0-1.9-0.3-4.9-3.1-4.9c-3,0-3.1,2.8-3.1,4.3C1263.1,558.4,1264.1,560.3,1266.2,560.3z"/>
		<path class="st10" d="M1281.4,561.7V560l0,0c-0.8,1.3-1.8,2-3.7,2c-1.7,0-3.7-0.8-3.7-3.6v-8.3h1.9v7.6c0,1.9,1,2.5,2.2,2.5
			c2.4,0,3.2-2.2,3.2-3.8v-6.3h1.9v11.5H1281.4z"/>
		<path class="st10" d="M1288.3,561.7h-1.9v-11.5h1.8v1.9h0c0.8-1.3,1.8-2.2,3.2-2.2c0.2,0,0.4,0,0.5,0.1v2h-0.7
			c-1.8,0-2.9,1.4-2.9,3.1V561.7z"/>
		<path class="st10" d="M1293.2,553.7c0.1-2.8,1.9-3.8,4.8-3.8c0.9,0,4.3,0.3,4.3,3.2v6.6c0,0.5,0.2,0.7,0.6,0.7
			c0.2,0,0.4,0,0.6-0.1v1.4c-0.3,0.1-0.6,0.2-1.1,0.2c-1.7,0-2-0.9-2-1.8c-0.7,0.8-1.9,1.9-4.2,1.9c-2.1,0-3.6-1.3-3.6-3.3
			c0-1,0.3-3.2,3.5-3.6l3.2-0.4c0.5,0,1-0.2,1-1.4c0-1.2-0.9-1.9-2.7-1.9c-2.2,0-2.5,1.3-2.6,2.2H1293.2z M1300.3,555.8
			c-0.3,0.2-0.8,0.4-3.2,0.7c-0.9,0.1-2.5,0.4-2.5,1.9c0,1.3,0.6,2,2.1,2c1.8,0,3.6-1.2,3.6-2.7V555.8z"/>
		<path class="st10" d="M1307.7,561.7h-1.9v-11.5h1.8v1.9h0c0.8-1.3,1.8-2.2,3.2-2.2c0.2,0,0.4,0,0.5,0.1v2h-0.7
			c-1.8,0-2.9,1.4-2.9,3.1V561.7z"/>
		<path class="st10" d="M1209.6,578.2v9.9h-1.9v-9.9h-1.6v-1.6h1.6v-2c0-1.7,1.1-2.5,3-2.5c0.3,0,0.6,0,0.9,0v1.7
			c-0.2,0-0.5,0-0.8,0c-0.8,0-1.1,0.4-1.1,1.3v1.4h1.9v1.6H1209.6z"/>
		<path class="st10" d="M1217.3,576.3c3.7,0,5.3,3.1,5.3,6.1s-1.7,6.1-5.3,6.1c-3.7,0-5.3-3.1-5.3-6.1S1213.6,576.3,1217.3,576.3z
			 M1217.3,586.7c2.8,0,3.3-2.9,3.3-4.4s-0.6-4.4-3.3-4.4s-3.3,2.9-3.3,4.4S1214.5,586.7,1217.3,586.7z"/>
		<path class="st10" d="M1227.1,588.1h-1.9v-11.5h1.8v1.9h0c0.8-1.3,1.8-2.2,3.2-2.2c0.2,0,0.4,0,0.5,0.1v2h-0.7
			c-1.8,0-2.9,1.4-2.9,3.1V588.1z"/>
		<path class="st10" d="M1232.7,576.6h1.8v1.6h0c0.4-0.6,1.4-2,3.5-2s2.7,1.3,3.1,1.9c1-1.1,1.7-1.9,3.5-1.9c1.2,0,3.6,0.6,3.6,3.9
			v8h-1.9v-7.4c0-1.6-0.5-2.7-2.1-2.7c-1.6,0-2.7,1.5-2.7,3.1v7h-1.9v-8c0-1-0.4-2.1-1.8-2.1c-1.1,0-3,0.7-3,3.8v6.3h-1.9V576.6z"/>
		<path class="st10" d="M1258.3,588.1v-1.7l0,0c-0.8,1.3-1.8,2-3.7,2c-1.7,0-3.7-0.8-3.7-3.6v-8.3h1.9v7.6c0,1.9,1,2.5,2.2,2.5
			c2.4,0,3.2-2.2,3.2-3.8v-6.3h1.9v11.5H1258.3z"/>
		<path class="st10" d="M1265,588.1h-1.9v-15.8h1.9V588.1z"/>
		<path class="st10" d="M1267.9,580.1c0.1-2.8,1.9-3.8,4.8-3.8c0.9,0,4.3,0.3,4.3,3.2v6.6c0,0.5,0.2,0.7,0.6,0.7
			c0.2,0,0.4,0,0.6-0.1v1.4c-0.3,0.1-0.6,0.2-1.1,0.2c-1.7,0-2-0.9-2-1.8c-0.7,0.8-1.9,1.9-4.2,1.9c-2.1,0-3.6-1.3-3.6-3.3
			c0-1,0.3-3.2,3.5-3.6l3.2-0.4c0.5,0,1-0.2,1-1.4c0-1.2-0.9-1.9-2.7-1.9c-2.2,0-2.5,1.3-2.6,2.2H1267.9z M1275,582.2
			c-0.3,0.2-0.8,0.4-3.2,0.7c-0.9,0.1-2.5,0.4-2.5,1.9c0,1.3,0.6,2,2.1,2c1.8,0,3.6-1.2,3.6-2.7V582.2z"/>
		<path class="st10" d="M1282.4,588.1h-1.9v-11.5h1.8v1.9h0c0.8-1.3,1.8-2.2,3.2-2.2c0.2,0,0.4,0,0.5,0.1v2h-0.7
			c-1.8,0-2.9,1.4-2.9,3.1V588.1z"/>
		<path class="st10" d="M1287.9,574.5v-2.2h1.9v2.2H1287.9z M1289.8,588.1h-1.9v-11.5h1.9V588.1z"/>
		<path class="st10" d="M1297.4,576.3c3.7,0,5.3,3.1,5.3,6.1s-1.7,6.1-5.3,6.1c-3.7,0-5.3-3.1-5.3-6.1S1293.7,576.3,1297.4,576.3z
			 M1297.4,586.7c2.8,0,3.3-2.9,3.3-4.4s-0.6-4.4-3.3-4.4s-3.3,2.9-3.3,4.4S1294.6,586.7,1297.4,586.7z"/>
		<path class="st10" d="M1311.5,579.9c0-0.7-0.3-1.9-2.7-1.9c-0.6,0-2.3,0.2-2.3,1.6c0,0.9,0.6,1.2,2.1,1.5l1.9,0.5
			c2.4,0.6,3.2,1.5,3.2,3c0,2.4-2,3.8-4.6,3.8c-4.6,0-4.9-2.6-5-4h1.9c0.1,0.9,0.3,2.4,3.1,2.4c1.4,0,2.6-0.6,2.6-1.8
			c0-0.9-0.6-1.2-2.3-1.7l-2.2-0.6c-1.6-0.4-2.7-1.2-2.7-2.8c0-2.5,2.1-3.7,4.4-3.7c4.1,0,4.4,3,4.4,3.6H1311.5z"/>
		<path class="st10" d="M1204.5,614.5h-1.8v-1.6h0c-0.8,1.6-2.2,1.9-3.3,1.9c-3.9,0-5.1-3.7-5.1-6.4c0-3.2,1.7-5.7,4.8-5.7
			c2.1,0,3,1.3,3.4,2l0-0.2v-5.8h1.9V614.5z M1199.4,613.1c1.2,0,3.1-0.8,3.1-3.9c0-1.9-0.3-4.9-3.1-4.9c-3,0-3.1,2.8-3.1,4.3
			C1196.3,611.2,1197.2,613.1,1199.4,613.1z"/>
		<path class="st10" d="M1216.9,610.9c-0.1,0.5-0.6,2.2-2,3.1c-0.5,0.4-1.3,0.8-3.1,0.8c-3.2,0-5.1-2.4-5.1-5.8
			c0-3.6,1.7-6.4,5.5-6.4c3.3,0,5,2.6,5,6.7h-8.4c0,2.4,1.1,3.8,3.3,3.8c1.8,0,2.9-1.4,3-2.3H1216.9z M1215.1,607.8
			c-0.1-1.8-0.9-3.4-3.2-3.4c-1.8,0-3.2,1.7-3.2,3.4H1215.1z"/>
		<path class="st10" d="M1225.5,603h1.8v1.6h0c0.4-0.6,1.4-2,3.5-2s2.7,1.3,3.1,1.9c1-1.1,1.7-1.9,3.5-1.9c1.2,0,3.6,0.6,3.6,3.9v8
			h-1.9v-7.4c0-1.6-0.5-2.7-2.1-2.7c-1.6,0-2.7,1.5-2.7,3.1v7h-1.9v-8c0-1-0.4-2.1-1.8-2.1c-1.1,0-3,0.7-3,3.8v6.3h-1.9V603z"/>
		<path class="st10" d="M1253.6,610.9c-0.1,0.5-0.6,2.2-2,3.1c-0.5,0.4-1.3,0.8-3.1,0.8c-3.2,0-5.1-2.4-5.1-5.8
			c0-3.6,1.7-6.4,5.5-6.4c3.3,0,5,2.6,5,6.7h-8.4c0,2.4,1.1,3.8,3.3,3.8c1.8,0,2.9-1.4,3-2.3H1253.6z M1251.7,607.8
			c-0.1-1.8-0.9-3.4-3.2-3.4c-1.8,0-3.2,1.7-3.2,3.4H1251.7z"/>
		<path class="st10" d="M1258.4,604.6v7.5c0,0.9,0.8,0.9,1.2,0.9h0.7v1.5c-0.7,0.1-1.3,0.2-1.5,0.2c-1.9,0-2.3-1.1-2.3-2.5v-7.6
			h-1.6V603h1.6v-3.2h1.9v3.2h1.8v1.6H1258.4z"/>
		<path class="st10" d="M1262.1,606.5c0.1-2.8,1.9-3.8,4.8-3.8c0.9,0,4.3,0.3,4.3,3.2v6.6c0,0.5,0.2,0.7,0.6,0.7
			c0.2,0,0.4,0,0.6-0.1v1.4c-0.3,0.1-0.6,0.2-1.1,0.2c-1.7,0-2-0.9-2-1.8c-0.7,0.8-1.9,1.9-4.2,1.9c-2.1,0-3.6-1.3-3.6-3.3
			c0-1,0.3-3.2,3.5-3.6l3.2-0.4c0.5,0,1-0.2,1-1.4c0-1.2-0.9-1.9-2.7-1.9c-2.2,0-2.5,1.3-2.6,2.2H1262.1z M1269.2,608.6
			c-0.3,0.2-0.8,0.4-3.2,0.7c-0.9,0.1-2.5,0.4-2.5,1.9c0,1.3,0.6,2,2.1,2c1.8,0,3.6-1.2,3.6-2.7V608.6z"/>
		<path class="st10" d="M1283.9,614.5h-1.8v-1.6h0c-0.8,1.6-2.2,1.9-3.3,1.9c-3.9,0-5.1-3.7-5.1-6.4c0-3.2,1.7-5.7,4.8-5.7
			c2.1,0,3,1.3,3.4,2l0-0.2v-5.8h1.9V614.5z M1278.8,613.1c1.2,0,3.1-0.8,3.1-3.9c0-1.9-0.3-4.9-3.1-4.9c-3,0-3.1,2.8-3.1,4.3
			C1275.7,611.2,1276.7,613.1,1278.8,613.1z"/>
		<path class="st10" d="M1286.6,606.5c0.1-2.8,1.9-3.8,4.8-3.8c0.9,0,4.3,0.3,4.3,3.2v6.6c0,0.5,0.2,0.7,0.6,0.7
			c0.2,0,0.4,0,0.6-0.1v1.4c-0.3,0.1-0.6,0.2-1.1,0.2c-1.7,0-2-0.9-2-1.8c-0.7,0.8-1.9,1.9-4.2,1.9c-2.1,0-3.6-1.3-3.6-3.3
			c0-1,0.3-3.2,3.5-3.6l3.2-0.4c0.5,0,1-0.2,1-1.4c0-1.2-0.9-1.9-2.7-1.9c-2.2,0-2.5,1.3-2.6,2.2H1286.6z M1293.6,608.6
			c-0.3,0.2-0.8,0.4-3.2,0.7c-0.9,0.1-2.5,0.4-2.5,1.9c0,1.3,0.6,2,2.1,2c1.8,0,3.6-1.2,3.6-2.7V608.6z"/>
		<path class="st10" d="M1301.2,604.6v7.5c0,0.9,0.8,0.9,1.2,0.9h0.7v1.5c-0.7,0.1-1.3,0.2-1.5,0.2c-1.9,0-2.3-1.1-2.3-2.5v-7.6
			h-1.6V603h1.6v-3.2h1.9v3.2h1.8v1.6H1301.2z"/>
		<path class="st10" d="M1309.7,602.7c3.7,0,5.3,3.1,5.3,6.1s-1.7,6.1-5.3,6.1c-3.7,0-5.3-3.1-5.3-6.1S1306,602.7,1309.7,602.7z
			 M1309.7,613.1c2.8,0,3.3-2.9,3.3-4.4s-0.6-4.4-3.3-4.4s-3.3,2.9-3.3,4.4S1306.9,613.1,1309.7,613.1z"/>
		<path class="st10" d="M1323.7,606.3c0-0.7-0.3-1.9-2.7-1.9c-0.6,0-2.3,0.2-2.3,1.6c0,0.9,0.6,1.2,2.1,1.5l1.9,0.5
			c2.4,0.6,3.2,1.5,3.2,3c0,2.4-2,3.8-4.6,3.8c-4.6,0-4.9-2.6-5-4h1.9c0.1,0.9,0.3,2.4,3.1,2.4c1.4,0,2.6-0.6,2.6-1.8
			c0-0.9-0.6-1.2-2.3-1.7l-2.2-0.6c-1.6-0.4-2.7-1.2-2.7-2.8c0-2.5,2.1-3.7,4.4-3.7c4.1,0,4.4,3,4.4,3.6H1323.7z"/>
	</g>
</g>
<g transform="translate(-0.5 -0.5)">
	<g class="st9">
		<path class="st10" d="M1585.3,549.6c-0.6-2.8-2.9-3.3-4.4-3.3c-2.9,0-5.2,2.1-5.2,6.3c0,3.7,1.3,6.6,5.2,6.6
			c1.4,0,3.8-0.7,4.5-4.3h2.1c-0.9,6-5.7,6.2-6.9,6.2c-3.6,0-7.1-2.3-7.1-8.4c0-4.9,2.8-8.2,7.4-8.2c4.1,0,6.2,2.5,6.5,5.2H1585.3z"
			/>
		<path class="st10" d="M1592,560.7h-1.9v-11.5h1.8v1.9h0c0.8-1.3,1.8-2.2,3.2-2.2c0.2,0,0.4,0,0.5,0.1v2h-0.7
			c-1.8,0-2.9,1.4-2.9,3.1V560.7z"/>
		<path class="st10" d="M1606.9,557.1c-0.1,0.5-0.6,2.2-2,3.1c-0.5,0.4-1.3,0.8-3.1,0.8c-3.2,0-5.1-2.4-5.1-5.8
			c0-3.6,1.7-6.4,5.5-6.4c3.3,0,5,2.6,5,6.7h-8.4c0,2.4,1.1,3.8,3.3,3.8c1.8,0,2.9-1.4,3-2.3H1606.9z M1605.1,554
			c-0.1-1.8-0.9-3.4-3.2-3.4c-1.8,0-3.2,1.7-3.2,3.4H1605.1z"/>
		<path class="st10" d="M1609.3,552.7c0.1-2.8,1.9-3.8,4.8-3.8c0.9,0,4.3,0.3,4.3,3.2v6.6c0,0.5,0.2,0.7,0.6,0.7
			c0.2,0,0.4,0,0.6-0.1v1.4c-0.3,0.1-0.6,0.2-1.1,0.2c-1.7,0-2-0.9-2-1.8c-0.7,0.8-1.9,1.9-4.2,1.9c-2.1,0-3.6-1.3-3.6-3.3
			c0-1,0.3-3.2,3.5-3.6l3.2-0.4c0.5,0,1-0.2,1-1.4c0-1.2-0.9-1.9-2.7-1.9c-2.2,0-2.5,1.3-2.6,2.2H1609.3z M1616.4,554.8
			c-0.3,0.2-0.8,0.4-3.2,0.7c-0.9,0.1-2.5,0.4-2.5,1.9c0,1.3,0.6,2,2.1,2c1.8,0,3.6-1.2,3.6-2.7V554.8z"/>
		<path class="st10" d="M1623.8,560.7h-1.9v-11.5h1.8v1.9h0c0.8-1.3,1.8-2.2,3.2-2.2c0.2,0,0.4,0,0.5,0.1v2h-0.7
			c-1.8,0-2.9,1.4-2.9,3.1V560.7z"/>
		<path class="st10" d="M1551.2,579.5c-0.2-1.5-1.1-2.5-2.7-2.5c-2.4,0-3.2,2.3-3.2,4.3c0,2,0.5,4.4,3.1,4.4c1.3,0,2.4-1,2.8-2.7
			h1.9c-0.2,1.8-1.3,4.4-4.7,4.4c-3.2,0-5.1-2.4-5.1-5.8c0-3.6,1.7-6.4,5.5-6.4c3,0,4.2,2.2,4.3,4.2H1551.2z"/>
		<path class="st10" d="M1559.7,575.3c3.7,0,5.3,3.1,5.3,6.1s-1.7,6.1-5.3,6.1c-3.7,0-5.3-3.1-5.3-6.1S1556,575.3,1559.7,575.3z
			 M1559.7,585.7c2.8,0,3.3-2.9,3.3-4.4s-0.6-4.4-3.3-4.4c-2.8,0-3.3,2.9-3.3,4.4S1556.9,585.7,1559.7,585.7z"/>
		<path class="st10" d="M1569.2,587.1h-1.9v-15.8h1.9V587.1z"/>
		<path class="st10" d="M1581.9,583.5c-0.1,0.5-0.6,2.2-2,3.1c-0.5,0.4-1.3,0.8-3.1,0.8c-3.2,0-5.1-2.4-5.1-5.8
			c0-3.6,1.7-6.4,5.5-6.4c3.3,0,5,2.6,5,6.7h-8.4c0,2.4,1.1,3.8,3.3,3.8c1.8,0,2.9-1.4,3-2.3H1581.9z M1580,580.4
			c-0.1-1.8-0.9-3.4-3.2-3.4c-1.8,0-3.2,1.7-3.2,3.4H1580z"/>
		<path class="st10" d="M1591.5,579.5c-0.2-1.5-1.1-2.5-2.7-2.5c-2.4,0-3.2,2.3-3.2,4.3c0,2,0.5,4.4,3.1,4.4c1.3,0,2.4-1,2.8-2.7
			h1.9c-0.2,1.8-1.3,4.4-4.7,4.4c-3.2,0-5.1-2.4-5.1-5.8c0-3.6,1.7-6.4,5.5-6.4c3,0,4.2,2.2,4.3,4.2H1591.5z"/>
		<path class="st10" d="M1602.5,579.5c-0.2-1.5-1.1-2.5-2.7-2.5c-2.4,0-3.2,2.3-3.2,4.3c0,2,0.5,4.4,3.1,4.4c1.3,0,2.4-1,2.8-2.7
			h1.9c-0.2,1.8-1.3,4.4-4.7,4.4c-3.2,0-5.1-2.4-5.1-5.8c0-3.6,1.7-6.4,5.5-6.4c3,0,4.2,2.2,4.3,4.2H1602.5z"/>
		<path class="st10" d="M1606.4,573.5v-2.2h1.9v2.2H1606.4z M1608.3,587.1h-1.9v-11.5h1.9V587.1z"/>
		<path class="st10" d="M1615.9,575.3c3.7,0,5.3,3.1,5.3,6.1s-1.7,6.1-5.3,6.1s-5.3-3.1-5.3-6.1S1612.2,575.3,1615.9,575.3z
			 M1615.9,585.7c2.8,0,3.3-2.9,3.3-4.4s-0.6-4.4-3.3-4.4s-3.3,2.9-3.3,4.4S1613.1,585.7,1615.9,585.7z"/>
		<path class="st10" d="M1632.8,587.1h-1.9V580c0-2-0.6-3-2.5-3c-1.1,0-3,0.7-3,3.8v6.3h-1.9v-11.5h1.8v1.6h0c0.4-0.6,1.5-2,3.5-2
			c1.8,0,4,0.7,4,4V587.1z"/>
		<path class="st10" d="M1645.4,583.5c-0.1,0.5-0.6,2.2-2,3.1c-0.5,0.4-1.3,0.8-3.1,0.8c-3.2,0-5.1-2.4-5.1-5.8
			c0-3.6,1.7-6.4,5.5-6.4c3.3,0,5,2.6,5,6.7h-8.4c0,2.4,1.1,3.8,3.3,3.8c1.8,0,2.9-1.4,3-2.3H1645.4z M1643.6,580.4
			c-0.1-1.8-0.9-3.4-3.2-3.4c-1.8,0-3.2,1.7-3.2,3.4H1643.6z"/>
		<path class="st10" d="M1654.4,578.9c0-0.7-0.3-1.9-2.7-1.9c-0.6,0-2.3,0.2-2.3,1.6c0,0.9,0.6,1.2,2.1,1.5l1.9,0.5
			c2.4,0.6,3.2,1.5,3.2,3c0,2.4-2,3.8-4.6,3.8c-4.6,0-4.9-2.6-5-4h1.9c0.1,0.9,0.3,2.4,3.1,2.4c1.4,0,2.6-0.6,2.6-1.8
			c0-0.9-0.6-1.2-2.3-1.7l-2.2-0.6c-1.6-0.4-2.7-1.2-2.7-2.8c0-2.5,2.1-3.7,4.4-3.7c4.1,0,4.4,3,4.4,3.6H1654.4z"/>
		<path class="st10" d="M1561.2,602h1.8v1.6h0c0.5-0.7,1.3-2,3.4-2c3.1,0,4.8,2.5,4.8,5.7c0,2.8-1.1,6.4-5.1,6.4
			c-1.5,0-2.6-0.7-3.1-1.5h0v5.8h-1.9V602z M1566.2,612.1c2.1,0,3.1-1.9,3.1-4.4c0-1.5-0.2-4.3-3.1-4.3c-2.8,0-3.1,3-3.1,4.9
			C1563,611.3,1564.9,612.1,1566.2,612.1z"/>
		<path class="st10" d="M1581.1,613.5v-1.7l0,0c-0.8,1.3-1.8,2-3.7,2c-1.7,0-3.7-0.8-3.7-3.6V602h1.9v7.6c0,1.9,1,2.5,2.2,2.5
			c2.4,0,3.2-2.2,3.2-3.8V602h1.9v11.5H1581.1z M1578.7,600.4h-1.5l2-3.1h2.4L1578.7,600.4z"/>
		<path class="st10" d="M1585.6,613.5v-15.8h1.9v5.7h0c0.8-1.2,2-1.8,3.3-1.8c3.1,0,4.8,2.5,4.8,5.7c0,2.8-1.1,6.4-5.1,6.4
			c-2,0-2.8-1.1-3.2-1.8h0v1.4H1585.6z M1590.6,603.4c-2.8,0-3.1,3-3.1,4.9c0,3.1,1.9,3.9,3.1,3.9c2.1,0,3.1-1.9,3.1-4.4
			C1593.7,606.2,1593.6,603.4,1590.6,603.4z"/>
		<path class="st10" d="M1599.6,613.5h-1.9v-15.8h1.9V613.5z"/>
		<path class="st10" d="M1602.5,599.9v-2.2h1.9v2.2H1602.5z M1604.4,613.5h-1.9V602h1.9V613.5z"/>
		<path class="st10" d="M1614.5,605.9c-0.2-1.5-1.1-2.5-2.7-2.5c-2.4,0-3.2,2.3-3.2,4.3c0,2,0.5,4.4,3.1,4.4c1.3,0,2.4-1,2.8-2.7
			h1.9c-0.2,1.8-1.3,4.4-4.7,4.4c-3.2,0-5.1-2.4-5.1-5.8c0-3.6,1.7-6.4,5.5-6.4c3,0,4.2,2.2,4.3,4.2H1614.5z"/>
		<path class="st10" d="M1618.3,605.5c0.1-2.8,1.9-3.8,4.8-3.8c0.9,0,4.3,0.3,4.3,3.2v6.6c0,0.5,0.2,0.7,0.6,0.7
			c0.2,0,0.4,0,0.6-0.1v1.4c-0.3,0.1-0.6,0.2-1.1,0.2c-1.7,0-2-0.9-2-1.8c-0.7,0.8-1.9,1.9-4.2,1.9c-2.1,0-3.6-1.3-3.6-3.3
			c0-1,0.3-3.2,3.5-3.6l3.2-0.4c0.5,0,1-0.2,1-1.4c0-1.2-0.9-1.9-2.7-1.9c-2.2,0-2.5,1.3-2.6,2.2H1618.3z M1625.4,607.6
			c-0.3,0.2-0.8,0.4-3.2,0.7c-0.9,0.1-2.5,0.4-2.5,1.9c0,1.3,0.6,2,2.1,2c1.8,0,3.6-1.2,3.6-2.7V607.6z"/>
		<path class="st10" d="M1637.1,605.3c0-0.7-0.3-1.9-2.7-1.9c-0.6,0-2.3,0.2-2.3,1.6c0,0.9,0.6,1.2,2.1,1.5l1.9,0.5
			c2.4,0.6,3.2,1.5,3.2,3c0,2.4-2,3.8-4.6,3.8c-4.6,0-4.9-2.6-5-4h1.9c0.1,0.9,0.3,2.4,3.1,2.4c1.4,0,2.6-0.6,2.6-1.8
			c0-0.9-0.6-1.2-2.3-1.7l-2.2-0.6c-1.6-0.4-2.7-1.2-2.7-2.8c0-2.5,2.1-3.7,4.4-3.7c4.1,0,4.4,3,4.4,3.6H1637.1z"/>
	</g>
</g>
<g transform="translate(-0.5 -0.5)">
	<g class="st9">
		<path class="st10" d="M774.4,396.4c-0.6-2.8-2.9-3.3-4.4-3.3c-2.9,0-5.2,2.1-5.2,6.3c0,3.7,1.3,6.6,5.2,6.6c1.4,0,3.8-0.7,4.5-4.3
			h2.1c-0.9,6-5.7,6.2-6.9,6.2c-3.6,0-7.1-2.3-7.1-8.4c0-4.9,2.8-8.2,7.4-8.2c4.1,0,6.2,2.5,6.5,5.2H774.4z"/>
		<path class="st10" d="M778.9,399.4c0.1-2.8,1.9-3.8,4.8-3.8c0.9,0,4.3,0.3,4.3,3.2v6.6c0,0.5,0.2,0.7,0.6,0.7c0.2,0,0.4,0,0.6-0.1
			v1.4c-0.3,0.1-0.6,0.2-1.1,0.2c-1.7,0-2-0.9-2-1.8c-0.7,0.8-1.9,1.9-4.2,1.9c-2.1,0-3.6-1.3-3.6-3.3c0-1,0.3-3.2,3.5-3.6l3.2-0.4
			c0.5,0,1-0.2,1-1.4c0-1.2-0.9-1.9-2.7-1.9c-2.2,0-2.5,1.3-2.6,2.2H778.9z M786,401.5c-0.3,0.2-0.8,0.4-3.2,0.7
			c-0.9,0.1-2.5,0.4-2.5,1.9c0,1.3,0.6,2,2.1,2c1.8,0,3.6-1.2,3.6-2.7V401.5z"/>
		<path class="st10" d="M793.4,407.4h-1.9v-11.5h1.8v1.9h0c0.8-1.3,1.8-2.2,3.2-2.2c0.2,0,0.4,0,0.5,0.1v2h-0.7
			c-1.8,0-2.9,1.4-2.9,3.1V407.4z"/>
		<path class="st10" d="M808.1,406.5c0,1.7,0,5.8-5.3,5.8c-1.4,0-4-0.4-4.4-3.4h1.9c0.4,1.8,2.1,1.8,2.6,1.8c3.3,0,3.3-2.7,3.3-4
			v-0.5h0v0.1c-0.5,0.8-1.5,1.5-3.1,1.5c-3.9,0-5.1-3.7-5.1-6.4c0-3.2,1.7-5.7,4.8-5.7c2.1,0,3,1.3,3.4,2h0v-1.6h1.8V406.5z
			 M803.1,406.1c1.2,0,3.1-0.8,3.1-3.9c0-1.9-0.3-4.9-3.1-4.9c-3,0-3.1,2.8-3.1,4.3C800,404.1,801,406.1,803.1,406.1z"/>
		<path class="st10" d="M810.7,399.4c0.1-2.8,1.9-3.8,4.8-3.8c0.9,0,4.3,0.3,4.3,3.2v6.6c0,0.5,0.2,0.7,0.6,0.7c0.2,0,0.4,0,0.6-0.1
			v1.4c-0.3,0.1-0.6,0.2-1.1,0.2c-1.7,0-2-0.9-2-1.8c-0.7,0.8-1.9,1.9-4.2,1.9c-2.1,0-3.6-1.3-3.6-3.3c0-1,0.3-3.2,3.5-3.6l3.2-0.4
			c0.5,0,1-0.2,1-1.4c0-1.2-0.9-1.9-2.7-1.9c-2.2,0-2.5,1.3-2.6,2.2H810.7z M817.8,401.5c-0.3,0.2-0.8,0.4-3.2,0.7
			c-0.9,0.1-2.5,0.4-2.5,1.9c0,1.3,0.6,2,2.1,2c1.8,0,3.6-1.2,3.6-2.7V401.5z"/>
		<path class="st10" d="M825.2,407.4h-1.9v-11.5h1.8v1.9h0c0.8-1.3,1.8-2.2,3.2-2.2c0.2,0,0.4,0,0.5,0.1v2h-0.7
			c-1.8,0-2.9,1.4-2.9,3.1V407.4z"/>
		<path class="st10" d="M838.6,407.4h-1.9v-11.5h1.8v1.9h0c0.8-1.3,1.8-2.2,3.2-2.2c0.2,0,0.4,0,0.5,0.1v2h-0.7
			c-1.8,0-2.9,1.4-2.9,3.1V407.4z"/>
		<path class="st10" d="M853.5,403.8c-0.1,0.5-0.6,2.2-2,3.1c-0.5,0.4-1.3,0.8-3.1,0.8c-3.2,0-5.1-2.4-5.1-5.8
			c0-3.6,1.7-6.4,5.5-6.4c3.3,0,5,2.6,5,6.7h-8.4c0,2.4,1.1,3.8,3.3,3.8c1.8,0,2.9-1.4,3-2.3H853.5z M851.7,400.7
			c-0.1-1.8-0.9-3.4-3.2-3.4c-1.8,0-3.2,1.7-3.2,3.4H851.7z"/>
		<path class="st10" d="M863.2,399.8c-0.2-1.5-1.1-2.5-2.7-2.5c-2.4,0-3.2,2.3-3.2,4.3c0,2,0.5,4.4,3.1,4.4c1.3,0,2.4-1,2.8-2.7h1.9
			c-0.2,1.8-1.3,4.4-4.7,4.4c-3.2,0-5.1-2.4-5.1-5.8c0-3.6,1.7-6.4,5.5-6.4c3,0,4.2,2.2,4.3,4.2H863.2z"/>
		<path class="st10" d="M874.5,407.4v-1.7l0,0c-0.8,1.3-1.8,2-3.7,2c-1.7,0-3.7-0.8-3.7-3.6v-8.3h1.9v7.6c0,1.9,1,2.5,2.2,2.5
			c2.4,0,3.2-2.2,3.2-3.8v-6.3h1.9v11.5H874.5z"/>
		<path class="st10" d="M881.4,407.4h-1.9v-11.5h1.8v1.9h0c0.8-1.3,1.8-2.2,3.2-2.2c0.2,0,0.4,0,0.5,0.1v2h-0.7
			c-1.8,0-2.9,1.4-2.9,3.1V407.4z"/>
		<path class="st10" d="M893.1,399.2c0-0.7-0.3-1.9-2.7-1.9c-0.6,0-2.3,0.2-2.3,1.6c0,0.9,0.6,1.2,2.1,1.5l1.9,0.5
			c2.4,0.6,3.2,1.5,3.2,3c0,2.4-2,3.8-4.6,3.8c-4.6,0-4.9-2.6-5-4h1.9c0.1,0.9,0.3,2.4,3.1,2.4c1.4,0,2.6-0.6,2.6-1.8
			c0-0.9-0.6-1.2-2.3-1.7l-2.2-0.6c-1.6-0.4-2.7-1.2-2.7-2.8c0-2.5,2.1-3.7,4.4-3.7c4.1,0,4.4,3,4.4,3.6H893.1z"/>
		<path class="st10" d="M902.2,395.6c3.7,0,5.3,3.1,5.3,6.1s-1.7,6.1-5.3,6.1s-5.3-3.1-5.3-6.1S898.6,395.6,902.2,395.6z M902.2,406
			c2.8,0,3.3-2.9,3.3-4.4s-0.6-4.4-3.3-4.4s-3.3,2.9-3.3,4.4S899.5,406,902.2,406z"/>
		<path class="st10" d="M916.3,399.2c0-0.7-0.3-1.9-2.7-1.9c-0.6,0-2.3,0.2-2.3,1.6c0,0.9,0.6,1.2,2.1,1.5l1.9,0.5
			c2.4,0.6,3.2,1.5,3.2,3c0,2.4-2,3.8-4.6,3.8c-4.6,0-4.9-2.6-5-4h1.9c0.1,0.9,0.3,2.4,3.1,2.4c1.4,0,2.6-0.6,2.6-1.8
			c0-0.9-0.6-1.2-2.3-1.7l-2.2-0.6c-1.6-0.4-2.7-1.2-2.7-2.8c0-2.5,2.1-3.7,4.4-3.7c4.1,0,4.4,3,4.4,3.6H916.3z"/>
	</g>
</g>
<g transform="translate(-0.5 -0.5)">
	<g class="st9">
		<path class="st10" d="M453.3,380.1c-0.6-2.8-2.9-3.3-4.4-3.3c-2.9,0-5.2,2.1-5.2,6.3c0,3.7,1.3,6.6,5.2,6.6c1.4,0,3.8-0.7,4.5-4.3
			h2.1c-0.9,6-5.7,6.2-6.9,6.2c-3.6,0-7.1-2.3-7.1-8.4c0-4.9,2.8-8.2,7.4-8.2c4.1,0,6.2,2.5,6.5,5.2H453.3z"/>
		<path class="st10" d="M460,391.2h-1.9v-11.5h1.8v1.9h0c0.8-1.3,1.8-2.2,3.2-2.2c0.2,0,0.4,0,0.5,0.1v2H463c-1.8,0-2.9,1.4-2.9,3.1
			V391.2z"/>
		<path class="st10" d="M474.9,387.6c-0.1,0.5-0.6,2.2-2,3.1c-0.5,0.4-1.3,0.8-3.1,0.8c-3.2,0-5.1-2.4-5.1-5.8
			c0-3.6,1.7-6.4,5.5-6.4c3.3,0,5,2.6,5,6.7h-8.4c0,2.4,1.1,3.8,3.3,3.8c1.8,0,2.9-1.4,3-2.3H474.9z M473.1,384.5
			c-0.1-1.8-0.9-3.4-3.2-3.4c-1.8,0-3.2,1.7-3.2,3.4H473.1z"/>
		<path class="st10" d="M477.3,383.2c0.1-2.8,1.9-3.8,4.8-3.8c0.9,0,4.3,0.3,4.3,3.2v6.6c0,0.5,0.2,0.7,0.6,0.7c0.2,0,0.4,0,0.6-0.1
			v1.4c-0.3,0.1-0.6,0.2-1.1,0.2c-1.7,0-2-0.9-2-1.8c-0.7,0.8-1.9,1.9-4.2,1.9c-2.1,0-3.6-1.3-3.6-3.3c0-1,0.3-3.2,3.5-3.6l3.2-0.4
			c0.5,0,1-0.2,1-1.4c0-1.2-0.9-1.9-2.7-1.9c-2.2,0-2.5,1.3-2.6,2.2H477.3z M484.4,385.3c-0.3,0.2-0.8,0.4-3.2,0.7
			c-0.9,0.1-2.5,0.4-2.5,1.9c0,1.3,0.6,2,2.1,2c1.8,0,3.6-1.2,3.6-2.7V385.3z"/>
		<path class="st10" d="M491.8,391.2h-1.9v-11.5h1.8v1.9h0c0.8-1.3,1.8-2.2,3.2-2.2c0.2,0,0.4,0,0.5,0.1v2h-0.7
			c-1.8,0-2.9,1.4-2.9,3.1V391.2z"/>
		<path class="st10" d="M512.8,387.6c-0.1,0.5-0.6,2.2-2,3.1c-0.5,0.4-1.3,0.8-3.1,0.8c-3.2,0-5.1-2.4-5.1-5.8
			c0-3.6,1.7-6.4,5.5-6.4c3.3,0,5,2.6,5,6.7h-8.4c0,2.4,1.1,3.8,3.3,3.8c1.8,0,2.9-1.4,3-2.3H512.8z M511,384.5
			c-0.1-1.8-0.9-3.4-3.2-3.4c-1.8,0-3.2,1.7-3.2,3.4H511z"/>
		<path class="st10" d="M521.8,383c0-0.7-0.3-1.9-2.7-1.9c-0.6,0-2.3,0.2-2.3,1.6c0,0.9,0.6,1.2,2.1,1.5l1.9,0.5
			c2.4,0.6,3.2,1.5,3.2,3c0,2.4-2,3.8-4.6,3.8c-4.6,0-4.9-2.6-5-4h1.9c0.1,0.9,0.3,2.4,3.1,2.4c1.4,0,2.6-0.6,2.6-1.8
			c0-0.9-0.6-1.2-2.3-1.7l-2.2-0.6c-1.6-0.4-2.7-1.2-2.7-2.8c0-2.5,2.1-3.7,4.4-3.7c4.1,0,4.4,3,4.4,3.6H521.8z"/>
		<path class="st10" d="M528.7,381.3v7.5c0,0.9,0.8,0.9,1.2,0.9h0.7v1.5c-0.7,0.1-1.3,0.2-1.5,0.2c-1.9,0-2.3-1.1-2.3-2.5v-7.6h-1.6
			v-1.6h1.6v-3.2h1.9v3.2h1.8v1.6H528.7z"/>
		<path class="st10" d="M534.6,391.2h-1.9v-11.5h1.8v1.9h0c0.8-1.3,1.8-2.2,3.2-2.2c0.2,0,0.4,0,0.5,0.1v2h-0.7
			c-1.8,0-2.9,1.4-2.9,3.1V391.2z"/>
		<path class="st10" d="M547.6,391.2v-1.7l0,0c-0.8,1.3-1.8,2-3.7,2c-1.7,0-3.7-0.8-3.7-3.6v-8.3h1.9v7.6c0,1.9,1,2.5,2.2,2.5
			c2.4,0,3.2-2.2,3.2-3.8v-6.3h1.9v11.5H547.6z"/>
		<path class="st10" d="M559.5,383.6c-0.2-1.5-1.1-2.5-2.7-2.5c-2.4,0-3.2,2.3-3.2,4.3c0,2,0.5,4.4,3.1,4.4c1.3,0,2.4-1,2.8-2.7h1.9
			c-0.2,1.8-1.3,4.4-4.7,4.4c-3.2,0-5.1-2.4-5.1-5.8c0-3.6,1.7-6.4,5.5-6.4c3,0,4.2,2.2,4.3,4.2H559.5z"/>
		<path class="st10" d="M565.7,381.3v7.5c0,0.9,0.8,0.9,1.2,0.9h0.7v1.5c-0.7,0.1-1.3,0.2-1.5,0.2c-1.9,0-2.3-1.1-2.3-2.5v-7.6h-1.6
			v-1.6h1.6v-3.2h1.9v3.2h1.8v1.6H565.7z"/>
		<path class="st10" d="M576.9,391.2v-1.7l0,0c-0.8,1.3-1.8,2-3.7,2c-1.7,0-3.7-0.8-3.7-3.6v-8.3h1.9v7.6c0,1.9,1,2.5,2.2,2.5
			c2.4,0,3.2-2.2,3.2-3.8v-6.3h1.9v11.5H576.9z"/>
		<path class="st10" d="M583.8,391.2h-1.9v-11.5h1.8v1.9h0c0.8-1.3,1.8-2.2,3.2-2.2c0.2,0,0.4,0,0.5,0.1v2h-0.7
			c-1.8,0-2.9,1.4-2.9,3.1V391.2z"/>
		<path class="st10" d="M588.7,383.2c0.1-2.8,1.9-3.8,4.8-3.8c0.9,0,4.3,0.3,4.3,3.2v6.6c0,0.5,0.2,0.7,0.6,0.7c0.2,0,0.4,0,0.6-0.1
			v1.4c-0.3,0.1-0.6,0.2-1.1,0.2c-1.7,0-2-0.9-2-1.8c-0.7,0.8-1.9,1.9-4.2,1.9c-2.1,0-3.6-1.3-3.6-3.3c0-1,0.3-3.2,3.5-3.6l3.2-0.4
			c0.5,0,1-0.2,1-1.4c0-1.2-0.9-1.9-2.7-1.9c-2.2,0-2.5,1.3-2.6,2.2H588.7z M595.8,385.3c-0.3,0.2-0.8,0.4-3.2,0.7
			c-0.9,0.1-2.5,0.4-2.5,1.9c0,1.3,0.6,2,2.1,2c1.8,0,3.6-1.2,3.6-2.7V385.3z"/>
		<path class="st10" d="M473.2,417.6h-1.8V416h0c-0.8,1.6-2.2,1.9-3.3,1.9c-3.9,0-5.1-3.7-5.1-6.4c0-3.2,1.7-5.7,4.8-5.7
			c2.1,0,3,1.3,3.4,2l0-0.2v-5.8h1.9V417.6z M468.1,416.2c1.2,0,3.1-0.8,3.1-3.9c0-1.9-0.3-4.9-3.1-4.9c-3,0-3.1,2.8-3.1,4.3
			C465,414.3,466,416.2,468.1,416.2z"/>
		<path class="st10" d="M485.7,414c-0.1,0.5-0.6,2.2-2,3.1c-0.5,0.4-1.3,0.8-3.1,0.8c-3.2,0-5.1-2.4-5.1-5.8c0-3.6,1.7-6.4,5.5-6.4
			c3.3,0,5,2.6,5,6.7h-8.4c0,2.4,1.1,3.8,3.3,3.8c1.8,0,2.9-1.4,3-2.3H485.7z M483.8,410.9c-0.1-1.8-0.9-3.4-3.2-3.4
			c-1.8,0-3.2,1.7-3.2,3.4H483.8z"/>
		<path class="st10" d="M501.4,410c-0.2-1.5-1.1-2.5-2.7-2.5c-2.4,0-3.2,2.3-3.2,4.3c0,2,0.5,4.4,3.1,4.4c1.3,0,2.4-1,2.8-2.7h1.9
			c-0.2,1.8-1.3,4.4-4.7,4.4c-3.2,0-5.1-2.4-5.1-5.8c0-3.6,1.7-6.4,5.5-6.4c3,0,4.2,2.2,4.3,4.2H501.4z"/>
		<path class="st10" d="M505.2,409.6c0.1-2.8,1.9-3.8,4.8-3.8c0.9,0,4.3,0.3,4.3,3.2v6.6c0,0.5,0.2,0.7,0.6,0.7c0.2,0,0.4,0,0.6-0.1
			v1.4c-0.3,0.1-0.6,0.2-1.1,0.2c-1.7,0-2-0.9-2-1.8c-0.7,0.8-1.9,1.9-4.2,1.9c-2.1,0-3.6-1.3-3.6-3.3c0-1,0.3-3.2,3.5-3.6l3.2-0.4
			c0.5,0,1-0.2,1-1.4c0-1.2-0.9-1.9-2.7-1.9c-2.2,0-2.5,1.3-2.6,2.2H505.2z M512.2,411.7c-0.3,0.2-0.8,0.4-3.2,0.7
			c-0.9,0.1-2.5,0.4-2.5,1.9c0,1.3,0.6,2,2.1,2c1.8,0,3.6-1.2,3.6-2.7V411.7z"/>
		<path class="st10" d="M519.7,417.6h-1.9v-11.5h1.8v1.9h0c0.8-1.3,1.8-2.2,3.2-2.2c0.2,0,0.4,0,0.5,0.1v2h-0.7
			c-1.8,0-2.9,1.4-2.9,3.1V417.6z"/>
		<path class="st10" d="M525.3,406.1h1.8v1.6h0c0.5-0.7,1.3-2,3.4-2c3.1,0,4.8,2.5,4.8,5.7c0,2.8-1.1,6.4-5.1,6.4
			c-1.5,0-2.6-0.7-3.1-1.5h0v5.8h-1.9V406.1z M530.3,416.2c2.1,0,3.1-1.9,3.1-4.4c0-1.5-0.2-4.3-3.1-4.3c-2.8,0-3.1,3-3.1,4.9
			C527.1,415.4,529.1,416.2,530.3,416.2z"/>
		<path class="st10" d="M547.4,414c-0.1,0.5-0.6,2.2-2,3.1c-0.5,0.4-1.3,0.8-3.1,0.8c-3.2,0-5.1-2.4-5.1-5.8c0-3.6,1.7-6.4,5.5-6.4
			c3.3,0,5,2.6,5,6.7h-8.4c0,2.4,1.1,3.8,3.3,3.8c1.8,0,2.9-1.4,3-2.3H547.4z M545.6,410.9c-0.1-1.8-0.9-3.4-3.2-3.4
			c-1.8,0-3.2,1.7-3.2,3.4H545.6z"/>
		<path class="st10" d="M552.3,407.7v7.5c0,0.9,0.8,0.9,1.2,0.9h0.7v1.5c-0.7,0.1-1.3,0.2-1.5,0.2c-1.9,0-2.3-1.1-2.3-2.5v-7.6h-1.6
			v-1.6h1.6v-3.2h1.9v3.2h1.8v1.6H552.3z"/>
		<path class="st10" d="M556,409.6c0.1-2.8,1.9-3.8,4.8-3.8c0.9,0,4.3,0.3,4.3,3.2v6.6c0,0.5,0.2,0.7,0.6,0.7c0.2,0,0.4,0,0.6-0.1
			v1.4c-0.3,0.1-0.6,0.2-1.1,0.2c-1.7,0-2-0.9-2-1.8c-0.7,0.8-1.9,1.9-4.2,1.9c-2.1,0-3.6-1.3-3.6-3.3c0-1,0.3-3.2,3.5-3.6l3.2-0.4
			c0.5,0,1-0.2,1-1.4c0-1.2-0.9-1.9-2.7-1.9c-2.2,0-2.5,1.3-2.6,2.2H556z M563,411.7c-0.3,0.2-0.8,0.4-3.2,0.7
			c-0.9,0.1-2.5,0.4-2.5,1.9c0,1.3,0.6,2,2.1,2c1.8,0,3.6-1.2,3.6-2.7V411.7z"/>
		<path class="st10" d="M574.8,409.4c0-0.7-0.3-1.9-2.7-1.9c-0.6,0-2.3,0.2-2.3,1.6c0,0.9,0.6,1.2,2.1,1.5l1.9,0.5
			c2.4,0.6,3.2,1.5,3.2,3c0,2.4-2,3.8-4.6,3.8c-4.6,0-4.9-2.6-5-4h1.9c0.1,0.9,0.3,2.4,3.1,2.4c1.4,0,2.6-0.6,2.6-1.8
			c0-0.9-0.6-1.2-2.3-1.7l-2.2-0.6c-1.6-0.4-2.7-1.2-2.7-2.8c0-2.5,2.1-3.7,4.4-3.7c4.1,0,4.4,3,4.4,3.6H574.8z"/>
	</g>
</g>
<g transform="translate(-0.5 -0.5)">
	<g class="st9">
		<path class="st10" d="M958.3,107.9l-1.5,4.2h-2l5.4-14.4h2.2l5.2,14.4h-2.1l-1.4-4.2H958.3z M963.4,106.1l-2.1-6.3h0l-2.3,6.3
			H963.4z"/>
		<path class="st10" d="M977.7,112h-1.8v-6.4c0-1.8-0.5-2.7-2.2-2.7c-1,0-2.8,0.6-2.8,3.5v5.7h-1.8v-10.5h1.7v1.5h0
			c0.4-0.6,1.4-1.8,3.2-1.8c1.6,0,3.7,0.7,3.7,3.6V112z M976.6,97.6c-0.1,1.2-0.9,2.2-2,2.2c-0.4,0-0.6-0.1-1.2-0.3l-0.5-0.2
			c-0.7-0.2-1-0.3-1.2-0.3c-0.5,0-0.8,0.4-0.9,0.9h-1c0.2-1.2,0.7-2.1,2.1-2.1c0.5,0,0.9,0.1,1.4,0.3l0.4,0.2
			c0.4,0.2,0.8,0.3,0.9,0.3c0.8,0,0.9-0.5,1-0.9H976.6z"/>
		<path class="st10" d="M980.2,104.8c0.1-2.5,1.7-3.5,4.3-3.5c0.8,0,3.9,0.2,3.9,2.9v6c0,0.4,0.2,0.6,0.6,0.6c0.2,0,0.4,0,0.6-0.1
			v1.3c-0.3,0.1-0.6,0.2-1,0.2c-1.6,0-1.8-0.8-1.9-1.6c-0.7,0.7-1.7,1.7-3.8,1.7c-1.9,0-3.3-1.2-3.3-3c0-0.9,0.3-2.9,3.2-3.3
			l2.9-0.4c0.4,0,0.9-0.2,0.9-1.2c0-1.1-0.8-1.7-2.5-1.7c-2,0-2.3,1.2-2.4,2H980.2z M986.7,106.7c-0.3,0.2-0.7,0.4-2.9,0.7
			c-0.9,0.1-2.2,0.4-2.2,1.7c0,1.1,0.6,1.8,1.9,1.8c1.6,0,3.2-1.1,3.2-2.5V106.7z"/>
		<path class="st10" d="M1000.1,112h-1.7v-1.4h0c-0.8,1.4-2,1.7-3,1.7c-3.6,0-4.6-3.3-4.6-5.8c0-2.9,1.6-5.2,4.4-5.2
			c1.9,0,2.7,1.2,3.1,1.8l0-0.1v-5.2h1.8V112z M995.4,110.8c1.1,0,2.9-0.7,2.9-3.5c0-1.7-0.3-4.4-2.8-4.4c-2.7,0-2.9,2.6-2.9,3.9
			C992.6,109.1,993.5,110.8,995.4,110.8z"/>
		<path class="st10" d="M1002.6,99.7v-2h1.8v2H1002.6z M1004.3,112h-1.8v-10.5h1.8V112z"/>
		<path class="st10" d="M1009,112h-1.8v-10.5h1.7v1.7h0c0.7-1.2,1.6-2,2.9-2c0.2,0,0.3,0,0.5,0.1v1.8h-0.7c-1.6,0-2.7,1.3-2.7,2.8
			V112z"/>
		<path class="st10" d="M1027.9,111.2c0,1.5,0,5.3-4.9,5.3c-1.2,0-3.7-0.3-4-3.1h1.8c0.3,1.7,1.9,1.7,2.4,1.7c3,0,3-2.4,3-3.7v-0.4
			h0v0.1c-0.5,0.7-1.4,1.4-2.8,1.4c-3.6,0-4.6-3.3-4.6-5.8c0-2.9,1.6-5.2,4.4-5.2c1.9,0,2.7,1.2,3.1,1.8h0v-1.5h1.7V111.2z
			 M1023.3,110.8c1.1,0,2.9-0.7,2.9-3.5c0-1.7-0.3-4.4-2.8-4.4c-2.7,0-2.9,2.6-2.9,3.9C1020.5,109.1,1021.4,110.8,1023.3,110.8z"/>
		<path class="st10" d="M1032.1,112h-1.8v-10.5h1.7v1.7h0c0.7-1.2,1.6-2,2.9-2c0.2,0,0.3,0,0.5,0.1v1.8h-0.7c-1.6,0-2.7,1.3-2.7,2.8
			V112z"/>
		<path class="st10" d="M1043.9,112v-1.5l0,0c-0.7,1.2-1.6,1.9-3.3,1.9c-1.5,0-3.4-0.7-3.4-3.2v-7.5h1.8v6.9c0,1.7,0.9,2.3,2,2.3
			c2.2,0,2.9-2,2.9-3.5v-5.8h1.8V112H1043.9z"/>
		<path class="st10" d="M1048,101.6h1.7v1.5h0c0.4-0.6,1.2-1.8,3.1-1.8c2.8,0,4.4,2.3,4.4,5.2c0,2.5-1,5.8-4.6,5.8
			c-1.4,0-2.3-0.7-2.8-1.4h0v5.2h-1.8V101.6z M1052.6,110.8c1.9,0,2.8-1.7,2.8-4c0-1.3-0.1-3.9-2.9-3.9c-2.5,0-2.8,2.7-2.8,4.4
			C1049.7,110.1,1051.5,110.8,1052.6,110.8z"/>
		<path class="st10" d="M1063.6,101.3c3.3,0,4.9,2.8,4.9,5.5s-1.5,5.5-4.9,5.5c-3.3,0-4.9-2.8-4.9-5.5S1060.2,101.3,1063.6,101.3z
			 M1063.6,110.8c2.5,0,3-2.6,3-4s-0.5-4-3-4s-3,2.6-3,4S1061,110.8,1063.6,110.8z"/>
		<path class="st10" d="M1076.4,104.6c0-0.7-0.3-1.8-2.5-1.8c-0.5,0-2.1,0.2-2.1,1.5c0,0.9,0.5,1.1,1.9,1.4l1.8,0.4
			c2.2,0.5,2.9,1.3,2.9,2.8c0,2.2-1.8,3.5-4.1,3.5c-4.1,0-4.4-2.4-4.5-3.7h1.7c0.1,0.8,0.3,2.1,2.8,2.1c1.3,0,2.4-0.5,2.4-1.7
			c0-0.8-0.6-1.1-2.1-1.5l-2-0.5c-1.5-0.4-2.4-1.1-2.4-2.5c0-2.3,1.9-3.3,4-3.3c3.7,0,4,2.8,4,3.3H1076.4z"/>
		<path class="st10" d="M1094.7,112h-1.7v-1.4h0c-0.8,1.4-2,1.7-3,1.7c-3.6,0-4.6-3.3-4.6-5.8c0-2.9,1.6-5.2,4.4-5.2
			c1.9,0,2.7,1.2,3.1,1.8l0-0.1v-5.2h1.8V112z M1090,110.8c1.1,0,2.9-0.7,2.9-3.5c0-1.7-0.3-4.4-2.8-4.4c-2.7,0-2.9,2.6-2.9,3.9
			C1087.2,109.1,1088.1,110.8,1090,110.8z"/>
		<path class="st10" d="M1106,108.8c-0.1,0.5-0.5,2-1.9,2.9c-0.5,0.3-1.2,0.7-2.8,0.7c-2.9,0-4.7-2.2-4.7-5.2c0-3.2,1.6-5.8,5-5.8
			c3,0,4.5,2.4,4.5,6.1h-7.6c0,2.2,1,3.4,3,3.4c1.7,0,2.6-1.3,2.7-2.1H1106z M1104.3,106c-0.1-1.6-0.8-3.1-2.9-3.1
			c-1.6,0-2.9,1.5-2.9,3.1H1104.3z"/>
		<path class="st10" d="M957.6,136v-1.5l0,0c-0.7,1.2-1.6,1.9-3.3,1.9c-1.5,0-3.4-0.7-3.4-3.2v-7.5h1.8v6.9c0,1.7,0.9,2.3,2,2.3
			c2.2,0,2.9-2,2.9-3.5v-5.8h1.8V136H957.6z"/>
		<path class="st10" d="M967.8,128.6c0-0.7-0.3-1.8-2.5-1.8c-0.5,0-2.1,0.2-2.1,1.5c0,0.9,0.5,1.1,1.9,1.4l1.8,0.4
			c2.2,0.5,2.9,1.3,2.9,2.8c0,2.2-1.8,3.5-4.1,3.5c-4.1,0-4.4-2.4-4.5-3.7h1.7c0.1,0.8,0.3,2.1,2.8,2.1c1.3,0,2.4-0.5,2.4-1.7
			c0-0.8-0.6-1.1-2.1-1.5l-2-0.5c-1.5-0.4-2.4-1.1-2.4-2.5c0-2.3,1.9-3.3,4-3.3c3.7,0,4,2.8,4,3.3H967.8z"/>
		<path class="st10" d="M978.7,136v-1.5l0,0c-0.7,1.2-1.6,1.9-3.3,1.9c-1.5,0-3.4-0.7-3.4-3.2v-7.5h1.8v6.9c0,1.7,0.9,2.3,2,2.3
			c2.2,0,2.9-2,2.9-3.5v-5.8h1.8V136H978.7z"/>
		<path class="st10" d="M982.9,128.8c0.1-2.5,1.7-3.5,4.3-3.5c0.8,0,3.9,0.2,3.9,2.9v6c0,0.4,0.2,0.6,0.6,0.6c0.2,0,0.4,0,0.6-0.1
			v1.3c-0.3,0.1-0.6,0.2-1,0.2c-1.6,0-1.8-0.8-1.9-1.6c-0.7,0.7-1.7,1.7-3.8,1.7c-1.9,0-3.3-1.2-3.3-3c0-0.9,0.3-2.9,3.2-3.3
			l2.9-0.4c0.4,0,0.9-0.2,0.9-1.2c0-1.1-0.8-1.7-2.5-1.7c-2,0-2.3,1.2-2.4,2H982.9z M989.4,130.7c-0.3,0.2-0.7,0.4-2.9,0.7
			c-0.9,0.1-2.2,0.4-2.2,1.7c0,1.1,0.6,1.8,1.9,1.8c1.6,0,3.2-1.1,3.2-2.5V130.7z"/>
		<path class="st10" d="M996.1,136h-1.8v-10.5h1.7v1.7h0c0.7-1.2,1.6-2,2.9-2c0.2,0,0.3,0,0.5,0.1v1.8h-0.7c-1.6,0-2.7,1.3-2.7,2.8
			V136z"/>
		<path class="st10" d="M1001.1,123.7v-2h1.8v2H1001.1z M1002.9,136h-1.8v-10.5h1.8V136z"/>
		<path class="st10" d="M1009.8,125.3c3.3,0,4.9,2.8,4.9,5.5s-1.5,5.5-4.9,5.5c-3.3,0-4.9-2.8-4.9-5.5S1006.4,125.3,1009.8,125.3z
			 M1009.8,134.8c2.5,0,3-2.6,3-4s-0.5-4-3-4s-3,2.6-3,4S1007.2,134.8,1009.8,134.8z"/>
		<path class="st10" d="M1022.6,128.6c0-0.7-0.3-1.8-2.5-1.8c-0.5,0-2.1,0.2-2.1,1.5c0,0.9,0.5,1.1,1.9,1.4l1.8,0.4
			c2.2,0.5,2.9,1.3,2.9,2.8c0,2.2-1.8,3.5-4.1,3.5c-4.1,0-4.4-2.4-4.5-3.7h1.7c0.1,0.8,0.3,2.1,2.8,2.1c1.3,0,2.4-0.5,2.4-1.7
			c0-0.8-0.6-1.1-2.1-1.5l-2-0.5c-1.5-0.4-2.4-1.1-2.4-2.5c0-2.3,1.9-3.3,4-3.3c3.7,0,4,2.8,4,3.3H1022.6z"/>
		<path class="st10" d="M1032.1,128.8c0.1-2.5,1.7-3.5,4.3-3.5c0.8,0,3.9,0.2,3.9,2.9v6c0,0.4,0.2,0.6,0.6,0.6c0.2,0,0.4,0,0.6-0.1
			v1.3c-0.3,0.1-0.6,0.2-1,0.2c-1.6,0-1.8-0.8-1.9-1.6c-0.7,0.7-1.7,1.7-3.8,1.7c-1.9,0-3.3-1.2-3.3-3c0-0.9,0.3-2.9,3.2-3.3
			l2.9-0.4c0.4,0,0.9-0.2,0.9-1.2c0-1.1-0.8-1.7-2.5-1.7c-2,0-2.3,1.2-2.4,2H1032.1z M1038.6,130.7c-0.3,0.2-0.7,0.4-2.9,0.7
			c-0.9,0.1-2.2,0.4-2.2,1.7c0,1.1,0.6,1.8,1.9,1.8c1.6,0,3.2-1.1,3.2-2.5V130.7z"/>
		<path class="st10" d="M1048.7,125.6h1.7v1.5h0c0.4-0.6,1.2-1.8,3.1-1.8c2.8,0,4.4,2.3,4.4,5.2c0,2.5-1,5.8-4.6,5.8
			c-1.4,0-2.3-0.7-2.8-1.4h0v5.2h-1.8V125.6z M1053.3,134.8c1.9,0,2.8-1.7,2.8-4c0-1.3-0.1-3.9-2.9-3.9c-2.5,0-2.8,2.7-2.8,4.4
			C1050.4,134.1,1052.1,134.8,1053.3,134.8z"/>
		<path class="st10" d="M1068.9,132.8c-0.1,0.5-0.5,2-1.9,2.9c-0.5,0.3-1.2,0.7-2.8,0.7c-2.9,0-4.7-2.2-4.7-5.2c0-3.2,1.6-5.8,5-5.8
			c3,0,4.5,2.4,4.5,6.1h-7.6c0,2.2,1,3.4,3,3.4c1.7,0,2.6-1.3,2.7-2.1H1068.9z M1067.2,130c-0.1-1.6-0.8-3.1-2.9-3.1
			c-1.6,0-2.9,1.5-2.9,3.1H1067.2z"/>
		<path class="st10" d="M1073.1,136h-1.8v-10.5h1.7v1.7h0c0.7-1.2,1.6-2,2.9-2c0.2,0,0.3,0,0.5,0.1v1.8h-0.7c-1.6,0-2.7,1.3-2.7,2.8
			V136z"/>
		<path class="st10" d="M1079.9,127v9h-1.8v-9h-1.4v-1.5h1.4v-1.8c0-1.6,1-2.3,2.7-2.3c0.3,0,0.5,0,0.8,0v1.6c-0.2,0-0.5,0-0.7,0
			c-0.8,0-1,0.4-1,1.2v1.3h1.8v1.5H1079.9z"/>
		<path class="st10" d="M1083.4,123.7v-2h1.8v2H1083.4z M1085.1,136h-1.8v-10.5h1.8V136z"/>
		<path class="st10" d="M1089.6,136h-1.8v-14.4h1.8V136z"/>
		<path class="st10" d="M1101.1,132.8c-0.1,0.5-0.5,2-1.9,2.9c-0.5,0.3-1.2,0.7-2.8,0.7c-2.9,0-4.7-2.2-4.7-5.2c0-3.2,1.6-5.8,5-5.8
			c3,0,4.5,2.4,4.5,6.1h-7.6c0,2.2,1,3.4,3,3.4c1.7,0,2.6-1.3,2.7-2.1H1101.1z M1099.4,130c-0.1-1.6-0.8-3.1-2.9-3.1
			c-1.6,0-2.9,1.5-2.9,3.1H1099.4z"/>
		<path class="st10" d="M1109.3,128.6c0-0.7-0.3-1.8-2.5-1.8c-0.5,0-2.1,0.2-2.1,1.5c0,0.9,0.5,1.1,1.9,1.4l1.8,0.4
			c2.2,0.5,2.9,1.3,2.9,2.8c0,2.2-1.8,3.5-4.1,3.5c-4.1,0-4.4-2.4-4.5-3.7h1.7c0.1,0.8,0.3,2.1,2.8,2.1c1.3,0,2.4-0.5,2.4-1.7
			c0-0.8-0.6-1.1-2.1-1.5l-2-0.5c-1.5-0.4-2.4-1.1-2.4-2.5c0-2.3,1.9-3.3,4-3.3c3.7,0,4,2.8,4,3.3H1109.3z"/>
		<path class="st10" d="M969,160h-1.7v-1.4h0c-0.8,1.4-2,1.7-3,1.7c-3.6,0-4.6-3.3-4.6-5.8c0-2.9,1.6-5.2,4.4-5.2
			c1.9,0,2.7,1.2,3.1,1.8l0-0.1v-5.2h1.8V160z M964.4,158.8c1.1,0,2.9-0.7,2.9-3.5c0-1.7-0.3-4.4-2.8-4.4c-2.7,0-2.9,2.6-2.9,3.9
			C961.5,157.1,962.4,158.8,964.4,158.8z"/>
		<path class="st10" d="M980.3,156.8c-0.1,0.5-0.5,2-1.9,2.9c-0.5,0.3-1.2,0.7-2.8,0.7c-2.9,0-4.7-2.2-4.7-5.2c0-3.2,1.6-5.8,5-5.8
			c3,0,4.5,2.4,4.5,6.1h-7.6c0,2.2,1,3.4,3,3.4c1.7,0,2.6-1.3,2.7-2.1H980.3z M978.6,154c-0.1-1.6-0.8-3.1-2.9-3.1
			c-1.6,0-2.9,1.5-2.9,3.1H978.6z"/>
		<path class="st10" d="M988,149.6h1.7v1.5h0c0.4-0.6,1.2-1.8,3.1-1.8c2.8,0,4.4,2.3,4.4,5.2c0,2.5-1,5.8-4.6,5.8
			c-1.4,0-2.3-0.7-2.8-1.4h0v5.2H988V149.6z M992.5,158.8c1.9,0,2.8-1.7,2.8-4c0-1.3-0.1-3.9-2.9-3.9c-2.5,0-2.8,2.7-2.8,4.4
			C989.7,158.1,991.4,158.8,992.5,158.8z"/>
		<path class="st10" d="M1001.2,160h-1.8v-10.5h1.7v1.7h0c0.7-1.2,1.6-2,2.9-2c0.2,0,0.3,0,0.5,0.1v1.8h-0.7c-1.6,0-2.7,1.3-2.7,2.8
			V160z"/>
		<path class="st10" d="M1010.2,149.3c3.3,0,4.9,2.8,4.9,5.5s-1.5,5.5-4.9,5.5c-3.3,0-4.9-2.8-4.9-5.5S1006.8,149.3,1010.2,149.3z
			 M1010.2,158.8c2.5,0,3-2.6,3-4s-0.5-4-3-4s-3,2.6-3,4S1007.6,158.8,1010.2,158.8z"/>
		<path class="st10" d="M1025.7,160h-1.7v-1.4h0c-0.8,1.4-2,1.7-3,1.7c-3.6,0-4.6-3.3-4.6-5.8c0-2.9,1.6-5.2,4.4-5.2
			c1.9,0,2.7,1.2,3.1,1.8l0-0.1v-5.2h1.8V160z M1021.1,158.8c1.1,0,2.9-0.7,2.9-3.5c0-1.7-0.3-4.4-2.8-4.4c-2.7,0-2.9,2.6-2.9,3.9
			C1018.2,157.1,1019.1,158.8,1021.1,158.8z"/>
		<path class="st10" d="M1035,160v-1.5l0,0c-0.7,1.2-1.6,1.9-3.3,1.9c-1.5,0-3.4-0.7-3.4-3.2v-7.5h1.8v6.9c0,1.7,0.9,2.3,2,2.3
			c2.2,0,2.9-2,2.9-3.5v-5.8h1.8V160H1035z"/>
		<path class="st10" d="M1045.8,153.1c-0.2-1.4-1-2.2-2.5-2.2c-2.2,0-2.9,2.1-2.9,3.9c0,1.8,0.4,4,2.9,4c1.2,0,2.2-0.9,2.5-2.5h1.7
			c-0.2,1.7-1.2,4-4.3,4c-2.9,0-4.7-2.2-4.7-5.2c0-3.2,1.6-5.8,5-5.8c2.7,0,3.8,2,3.9,3.8H1045.8z"/>
		<path class="st10" d="M1051.4,151v6.8c0,0.8,0.7,0.8,1.1,0.8h0.6v1.4c-0.6,0.1-1.1,0.1-1.3,0.1c-1.7,0-2.1-1-2.1-2.2V151h-1.4
			v-1.5h1.4v-2.9h1.8v2.9h1.7v1.5H1051.4z"/>
		<path class="st10" d="M1059.1,149.3c3.3,0,4.9,2.8,4.9,5.5s-1.5,5.5-4.9,5.5s-4.9-2.8-4.9-5.5S1055.7,149.3,1059.1,149.3z
			 M1059.1,158.8c2.5,0,3-2.6,3-4s-0.5-4-3-4s-3,2.6-3,4S1056.6,158.8,1059.1,158.8z"/>
		<path class="st10" d="M1071.9,152.6c0-0.7-0.3-1.8-2.5-1.8c-0.5,0-2.1,0.2-2.1,1.5c0,0.9,0.5,1.1,1.9,1.4l1.8,0.4
			c2.2,0.5,2.9,1.3,2.9,2.8c0,2.2-1.8,3.5-4.1,3.5c-4.1,0-4.4-2.4-4.5-3.7h1.7c0.1,0.8,0.3,2.1,2.8,2.1c1.3,0,2.4-0.5,2.4-1.7
			c0-0.8-0.6-1.1-2.1-1.5l-2-0.5c-1.5-0.4-2.4-1.1-2.4-2.5c0-2.3,1.9-3.3,4-3.3c3.7,0,4,2.8,4,3.3H1071.9z"/>
		<path class="st10" d="M1090.2,160h-1.7v-1.4h0c-0.8,1.4-2,1.7-3,1.7c-3.6,0-4.6-3.3-4.6-5.8c0-2.9,1.6-5.2,4.4-5.2
			c1.9,0,2.7,1.2,3.1,1.8l0-0.1v-5.2h1.8V160z M1085.5,158.8c1.1,0,2.9-0.7,2.9-3.5c0-1.7-0.3-4.4-2.8-4.4c-2.7,0-2.9,2.6-2.9,3.9
			C1082.7,157.1,1083.6,158.8,1085.5,158.8z"/>
		<path class="st10" d="M1101.5,156.8c-0.1,0.5-0.5,2-1.9,2.9c-0.5,0.3-1.2,0.7-2.8,0.7c-2.9,0-4.7-2.2-4.7-5.2c0-3.2,1.6-5.8,5-5.8
			c3,0,4.5,2.4,4.5,6.1h-7.6c0,2.2,1,3.4,3,3.4c1.7,0,2.6-1.3,2.7-2.1H1101.5z M1099.8,154c-0.1-1.6-0.8-3.1-2.9-3.1
			c-1.6,0-2.9,1.5-2.9,3.1H1099.8z"/>
		<path class="st10" d="M956.1,179.9l-1.5,4.2h-2l5.4-14.4h2.2l5.2,14.4h-2.1l-1.4-4.2H956.1z M961.2,178.1l-2.1-6.3h0l-2.3,6.3
			H961.2z"/>
		<path class="st10" d="M972.9,176.6c0-0.7-0.3-1.8-2.5-1.8c-0.5,0-2.1,0.2-2.1,1.5c0,0.9,0.5,1.1,1.9,1.4l1.8,0.4
			c2.2,0.5,2.9,1.3,2.9,2.8c0,2.2-1.8,3.5-4.1,3.5c-4.1,0-4.4-2.4-4.5-3.7h1.7c0.1,0.8,0.3,2.1,2.8,2.1c1.3,0,2.4-0.5,2.4-1.7
			c0-0.8-0.6-1.1-2.1-1.5l-2-0.5c-1.5-0.4-2.4-1.1-2.4-2.5c0-2.3,1.9-3.3,4-3.3c3.7,0,4,2.8,4,3.3H972.9z"/>
		<path class="st10" d="M982.9,176.6c0-0.7-0.3-1.8-2.5-1.8c-0.5,0-2.1,0.2-2.1,1.5c0,0.9,0.5,1.1,1.9,1.4l1.8,0.4
			c2.2,0.5,2.9,1.3,2.9,2.8c0,2.2-1.8,3.5-4.1,3.5c-4.1,0-4.4-2.4-4.5-3.7h1.7c0.1,0.8,0.3,2.1,2.8,2.1c1.3,0,2.4-0.5,2.4-1.7
			c0-0.8-0.6-1.1-2.1-1.5l-2-0.5c-1.5-0.4-2.4-1.1-2.4-2.5c0-2.3,1.9-3.3,4-3.3c3.7,0,4,2.8,4,3.3H982.9z"/>
		<path class="st10" d="M995.9,180.8c-0.1,0.5-0.5,2-1.9,2.9c-0.5,0.3-1.2,0.7-2.8,0.7c-2.9,0-4.7-2.2-4.7-5.2c0-3.2,1.6-5.8,5-5.8
			c3,0,4.5,2.4,4.5,6.1h-7.6c0,2.2,1,3.4,3,3.4c1.7,0,2.6-1.3,2.7-2.1H995.9z M994.2,178c-0.1-1.6-0.8-3.1-2.9-3.1
			c-1.6,0-2.9,1.5-2.9,3.1H994.2z"/>
		<path class="st10" d="M1000.3,175v6.8c0,0.8,0.7,0.8,1.1,0.8h0.6v1.4c-0.6,0.1-1.1,0.1-1.3,0.1c-1.7,0-2.1-1-2.1-2.2V175h-1.4
			v-1.5h1.4v-2.9h1.8v2.9h1.7v1.5H1000.3z"/>
		<path class="st10" d="M1009.6,176.6c0-0.7-0.3-1.8-2.5-1.8c-0.5,0-2.1,0.2-2.1,1.5c0,0.9,0.5,1.1,1.9,1.4l1.8,0.4
			c2.2,0.5,2.9,1.3,2.9,2.8c0,2.2-1.8,3.5-4.1,3.5c-4.1,0-4.4-2.4-4.5-3.7h1.7c0.1,0.8,0.3,2.1,2.8,2.1c1.3,0,2.4-0.5,2.4-1.7
			c0-0.8-0.6-1.1-2.1-1.5l-2-0.5c-1.5-0.4-2.4-1.1-2.4-2.5c0-2.3,1.9-3.3,4-3.3c3.7,0,4,2.8,4,3.3H1009.6z"/>
		<path class="st10" d="M1030.3,184h-10.6v-14.4h10.5v1.7h-8.5v4.4h7.9v1.7h-7.9v4.8h8.7V184z"/>
		<path class="st10" d="M1038.5,176.6c0-0.7-0.3-1.8-2.5-1.8c-0.5,0-2.1,0.2-2.1,1.5c0,0.9,0.5,1.1,1.9,1.4l1.8,0.4
			c2.2,0.5,2.9,1.3,2.9,2.8c0,2.2-1.8,3.5-4.1,3.5c-4.1,0-4.4-2.4-4.5-3.7h1.7c0.1,0.8,0.3,2.1,2.8,2.1c1.3,0,2.4-0.5,2.4-1.7
			c0-0.8-0.6-1.1-2.1-1.5l-2-0.5c-1.5-0.4-2.4-1.1-2.4-2.5c0-2.3,1.9-3.3,4-3.3c3.7,0,4,2.8,4,3.3H1038.5z"/>
		<path class="st10" d="M1048.5,176.6c0-0.7-0.3-1.8-2.5-1.8c-0.5,0-2.1,0.2-2.1,1.5c0,0.9,0.5,1.1,1.9,1.4l1.8,0.4
			c2.2,0.5,2.9,1.3,2.9,2.8c0,2.2-1.8,3.5-4.1,3.5c-4.1,0-4.4-2.4-4.5-3.7h1.7c0.1,0.8,0.3,2.1,2.8,2.1c1.3,0,2.4-0.5,2.4-1.7
			c0-0.8-0.6-1.1-2.1-1.5l-2-0.5c-1.5-0.4-2.4-1.1-2.4-2.5c0-2.3,1.9-3.3,4-3.3c3.7,0,4,2.8,4,3.3H1048.5z"/>
		<path class="st10" d="M1061.5,180.8c-0.1,0.5-0.5,2-1.9,2.9c-0.5,0.3-1.2,0.7-2.8,0.7c-2.9,0-4.7-2.2-4.7-5.2c0-3.2,1.6-5.8,5-5.8
			c3,0,4.5,2.4,4.5,6.1h-7.6c0,2.2,1,3.4,3,3.4c1.7,0,2.6-1.3,2.7-2.1H1061.5z M1059.8,178c-0.1-1.6-0.8-3.1-2.9-3.1
			c-1.6,0-2.9,1.5-2.9,3.1H1059.8z"/>
		<path class="st10" d="M1072.2,184h-1.8v-6.4c0-1.8-0.5-2.7-2.2-2.7c-1,0-2.8,0.6-2.8,3.5v5.7h-1.8v-10.5h1.7v1.5h0
			c0.4-0.6,1.4-1.8,3.2-1.8c1.6,0,3.7,0.7,3.7,3.6V184z"/>
		<path class="st10" d="M1077,175v6.8c0,0.8,0.7,0.8,1.1,0.8h0.6v1.4c-0.6,0.1-1.1,0.1-1.3,0.1c-1.7,0-2.1-1-2.1-2.2V175h-1.4v-1.5
			h1.4v-2.9h1.8v2.9h1.7v1.5H1077z"/>
		<path class="st10" d="M1080.4,171.7v-2h1.8v2H1080.4z M1082.2,184h-1.8v-10.5h1.8V184z"/>
		<path class="st10" d="M1084.8,176.8c0.1-2.5,1.7-3.5,4.3-3.5c0.8,0,3.9,0.2,3.9,2.9v6c0,0.4,0.2,0.6,0.6,0.6c0.2,0,0.4,0,0.6-0.1
			v1.3c-0.3,0.1-0.6,0.2-1,0.2c-1.6,0-1.8-0.8-1.9-1.6c-0.7,0.7-1.7,1.7-3.8,1.7c-1.9,0-3.3-1.2-3.3-3c0-0.9,0.3-2.9,3.2-3.3
			l2.9-0.4c0.4,0,0.9-0.2,0.9-1.2c0-1.1-0.8-1.7-2.5-1.7c-2,0-2.3,1.2-2.4,2H1084.8z M1091.2,178.7c-0.3,0.2-0.7,0.4-2.9,0.7
			c-0.9,0.1-2.2,0.4-2.2,1.7c0,1.1,0.6,1.8,1.9,1.8c1.6,0,3.2-1.1,3.2-2.5V178.7z"/>
		<path class="st10" d="M1097.7,184h-1.8v-14.4h1.8V184z"/>
		<path class="st10" d="M1106.3,176.6c0-0.7-0.3-1.8-2.5-1.8c-0.5,0-2.1,0.2-2.1,1.5c0,0.9,0.5,1.1,1.9,1.4l1.8,0.4
			c2.2,0.5,2.9,1.3,2.9,2.8c0,2.2-1.8,3.5-4.1,3.5c-4.1,0-4.4-2.4-4.5-3.7h1.7c0.1,0.8,0.3,2.1,2.8,2.1c1.3,0,2.4-0.5,2.4-1.7
			c0-0.8-0.6-1.1-2.1-1.5l-2-0.5c-1.5-0.4-2.4-1.1-2.4-2.5c0-2.3,1.9-3.3,4-3.3c3.7,0,4,2.8,4,3.3H1106.3z"/>
	</g>
</g>
<g transform="translate(-0.5 -0.5)">
	<g class="st9">
		<path class="st10" d="M148.3,454h-3.5l5.6-15.8h3.8l5.6,15.8h-3.6l-1-3.3h-5.8L148.3,454z M150.3,448h4l-2-6.2h0L150.3,448z"/>
		<path class="st10" d="M172.4,454h-3v-1.5h0c-0.7,1.3-2.1,1.8-3.4,1.8c-3.5,0-4.9-3.1-4.9-6.3c0-4,2.3-6,4.9-6c2,0,2.9,1.1,3.4,1.8
			h0v-5.6h3.1V454z M166.8,451.8c2,0,2.7-1.6,2.7-3.4c0-1.9-0.5-3.8-2.6-3.8c-2,0-2.6,1.7-2.6,3.6
			C164.2,449.6,164.8,451.8,166.8,451.8z"/>
		<path class="st10" d="M191.9,454h-3.1v-7.1c0-1.7-0.8-2.3-1.7-2.3c-1.5,0-2.1,1-2.1,2.4v7H182v-7c0-1,0-2.4-1.8-2.4
			c-1.5,0-1.9,1-1.9,2.3v7.1h-3.1v-11.7h2.9v1.7h0c0.4-0.8,1.3-2,3.3-2c1.7,0,2.5,0.6,3.3,1.9c0.4-0.6,1.3-1.9,3.1-1.9
			c2.3,0,4.1,1.3,4.1,3.9V454z"/>
		<path class="st10" d="M197.9,440.9h-3.1v-2.9h3.1V440.9z M197.9,442.3V454h-3.1v-11.7H197.9z"/>
		<path class="st10" d="M211.4,454h-3.1v-7.1c0-0.9,0-2.3-2-2.3c-1.4,0-2.4,0.9-2.4,2.7v6.7h-3.1v-11.7h2.9v1.7h0
			c0.4-0.7,1.3-2,3.5-2c2.3,0,4.1,1.3,4.1,3.9V454z"/>
		<path class="st10" d="M217.5,440.9h-3.1v-2.9h3.1V440.9z M217.5,442.3V454h-3.1v-11.7H217.5z"/>
		<path class="st10" d="M227,445.9c-0.1-0.7-0.4-1.5-2.1-1.5s-1.9,0.6-1.9,1.1c0,1.8,7.3,0.5,7.3,4.8c0,3.4-3.3,4-5.1,4
			c-2.7,0-5.5-0.9-5.6-4h3.2c0,1,0.6,1.7,2.6,1.7c1.6,0,2-0.8,2-1.2c0-2-7.3-0.5-7.3-4.9c0-1.7,1.1-3.9,4.7-3.9c2.3,0,5,0.6,5.3,3.9
			H227z"/>
		<path class="st10" d="M236.1,442.3h1.9v2.2h-1.9v6.4c0,0.7,0,0.9,1.3,0.9c0.2,0,0.4,0,0.6,0v2.3c-0.5,0-1,0-1.5,0h-0.4
			c-2.7,0-3.1-1-3.1-2.5v-7.1h-1.6v-2.2h1.6v-3.2h3.1V442.3z"/>
		<path class="st10" d="M240,442.3h2.9v2h0c0.6-1.2,1.3-2.3,3.2-2.3c0.2,0,0.4,0,0.6,0v3.1c-0.3,0-0.6,0-0.9,0
			c-2.4,0-2.8,1.5-2.8,2.8v6.1H240V442.3z"/>
		<path class="st10" d="M258,451.7c0,1.4,0.3,1.7,0.7,1.8v0.5h-3.3c-0.2-0.5-0.2-0.7-0.3-1.4c-0.7,0.7-1.7,1.7-3.8,1.7
			c-1.8,0-3.6-1-3.6-3.4c0-2.3,1.5-3.5,3.4-3.7l2.8-0.4c0.5-0.1,1.1-0.3,1.1-0.9c0-1.3-1.2-1.4-2-1.4c-1.5,0-1.8,0.9-1.9,1.6h-3
			c0.4-3.6,2.8-4.1,5.2-4.1c1.6,0,4.7,0.5,4.7,3.4V451.7z M255,448.3c-0.3,0.2-0.8,0.4-2.1,0.6c-1.1,0.2-2.1,0.5-2.1,1.8
			c0,1.1,0.8,1.4,1.4,1.4c1.4,0,2.8-0.9,2.8-2.3V448.3z"/>
		<path class="st10" d="M271.5,454h-3v-1.5h0c-0.7,1.3-2.1,1.8-3.4,1.8c-3.5,0-4.9-3.1-4.9-6.3c0-4,2.3-6,4.9-6c2,0,2.9,1.1,3.4,1.8
			h0v-5.6h3.1V454z M265.8,451.8c2,0,2.7-1.6,2.7-3.4c0-1.9-0.5-3.8-2.6-3.8c-2,0-2.6,1.7-2.6,3.6
			C263.3,449.6,263.8,451.8,265.8,451.8z"/>
		<path class="st10" d="M279.5,454.3c-3.1,0-6-1.9-6-6.2s2.8-6.2,6-6.2s6,1.9,6,6.2S282.7,454.3,279.5,454.3z M279.5,444.6
			c-2.4,0-2.8,2.1-2.8,3.6s0.4,3.6,2.8,3.6s2.8-2.1,2.8-3.6S281.9,444.6,279.5,444.6z"/>
		<path class="st10" d="M287.6,442.3h2.9v2h0c0.6-1.2,1.3-2.3,3.2-2.3c0.2,0,0.4,0,0.6,0v3.1c-0.3,0-0.6,0-0.9,0
			c-2.4,0-2.8,1.5-2.8,2.8v6.1h-3.1V442.3z"/>
		<path class="st10" d="M162,480.4h-3v-1.5h0c-0.7,1.3-2.1,1.8-3.4,1.8c-3.5,0-4.9-3.1-4.9-6.3c0-4,2.3-6,4.9-6c2,0,2.9,1.1,3.4,1.8
			h0v-5.6h3.1V480.4z M156.4,478.2c2,0,2.7-1.6,2.7-3.4c0-1.9-0.5-3.8-2.6-3.8c-2,0-2.6,1.7-2.6,3.6
			C153.8,476,154.4,478.2,156.4,478.2z"/>
		<path class="st10" d="M174.8,477c-0.8,2.8-3.1,3.7-5.1,3.7c-3.3,0-5.8-1.6-5.8-6.4c0-1.4,0.5-5.9,5.6-5.9c2.3,0,5.5,1.1,5.5,6.4
			v0.5h-8c0.1,0.9,0.3,2.9,2.8,2.9c0.9,0,1.7-0.4,2-1.3H174.8z M171.8,473.4c-0.2-1.9-1.4-2.5-2.4-2.5c-1.5,0-2.2,0.9-2.4,2.5H171.8
			z"/>
		<path class="st10" d="M192.6,478.1c0,1.4,0.3,1.7,0.7,1.8v0.5H190c-0.2-0.5-0.2-0.7-0.3-1.4c-0.7,0.7-1.7,1.7-3.8,1.7
			c-1.8,0-3.6-1-3.6-3.4c0-2.3,1.5-3.5,3.4-3.7l2.8-0.4c0.5-0.1,1.1-0.3,1.1-0.9c0-1.3-1.2-1.4-2-1.4c-1.5,0-1.8,0.9-1.9,1.6h-3
			c0.4-3.6,2.8-4.1,5.2-4.1c1.6,0,4.7,0.5,4.7,3.4V478.1z M189.6,474.7c-0.3,0.2-0.8,0.4-2.1,0.6c-1.1,0.2-2.1,0.5-2.1,1.8
			c0,1.1,0.8,1.4,1.4,1.4c1.4,0,2.8-0.9,2.8-2.3V474.7z"/>
		<path class="st10" d="M198.2,470.4L198.2,470.4c0.6-0.9,1.5-2,3.5-2c2.6,0,4.9,2,4.9,6c0,3.2-1.5,6.3-4.9,6.3
			c-2.2,0-2.9-1.2-3.3-1.8h0v6.1h-3.1v-16.3h2.9V470.4z M201,478.2c2,0,2.5-2.2,2.5-3.5c0-1.8-0.7-3.6-2.6-3.6
			c-2.1,0-2.6,1.9-2.6,3.8C198.2,476.6,199,478.2,201,478.2z"/>
		<path class="st10" d="M212,480.4h-3.1v-15.8h3.1V480.4z"/>
		<path class="st10" d="M218.1,467.3H215v-2.9h3.1V467.3z M218.1,468.7v11.7H215v-11.7H218.1z"/>
		<path class="st10" d="M231.1,476.1c-0.1,1.2-1.1,4.6-5.3,4.6c-4.4,0-5.4-3.4-5.4-5.8c0-3.8,1.7-6.5,5.6-6.5c1.8,0,4.9,0.8,5.2,4.5
			H228c-0.1-0.8-0.6-2-2-1.9c-1.9,0-2.4,1.9-2.4,3.4c0,1.3,0,3.8,2.4,3.8c1.6,0,2.1-1.5,2.1-2H231.1z"/>
		<path class="st10" d="M242.8,478.1c0,1.4,0.3,1.7,0.7,1.8v0.5h-3.3c-0.2-0.5-0.2-0.7-0.3-1.4c-0.7,0.7-1.7,1.7-3.8,1.7
			c-1.8,0-3.6-1-3.6-3.4c0-2.3,1.5-3.5,3.4-3.7l2.8-0.4c0.5-0.1,1.1-0.3,1.1-0.9c0-1.3-1.2-1.4-2-1.4c-1.5,0-1.8,0.9-1.9,1.6h-3
			c0.4-3.6,2.8-4.1,5.2-4.1c1.6,0,4.7,0.5,4.7,3.4V478.1z M239.7,474.7c-0.3,0.2-0.8,0.4-2.1,0.6c-1.1,0.2-2.1,0.5-2.1,1.8
			c0,1.1,0.8,1.4,1.4,1.4c1.4,0,2.8-0.9,2.8-2.3V474.7z"/>
		<path class="st10" d="M255.6,476.1c-0.1,1.2-1.1,4.6-5.3,4.6c-4.4,0-5.4-3.4-5.4-5.8c0-3.8,1.7-6.5,5.6-6.5c1.8,0,4.9,0.8,5.2,4.5
			h-3.1c-0.1-0.8-0.6-2-2-1.9c-1.9,0-2.4,1.9-2.4,3.4c0,1.3,0,3.8,2.4,3.8c1.6,0,2.1-1.5,2.1-2H255.6z"/>
		<path class="st10" d="M260.9,467.3h-3.1v-2.9h3.1V467.3z M260.9,468.7v11.7h-3.1v-11.7H260.9z"/>
		<path class="st10" d="M269.2,480.7c-3.1,0-6-1.9-6-6.2s2.8-6.2,6-6.2s6,1.9,6,6.2S272.3,480.7,269.2,480.7z M269.2,471
			c-2.4,0-2.8,2.1-2.8,3.6s0.4,3.6,2.8,3.6s2.8-2.1,2.8-3.6S271.5,471,269.2,471z M270.1,467.1h-2.2l2.1-3.2h3.4L270.1,467.1z"/>
		<path class="st10" d="M287.9,480.4h-3.1v-7.1c0-0.9,0-2.3-2-2.3c-1.4,0-2.4,0.9-2.4,2.7v6.7h-3.1v-11.7h2.9v1.7h0
			c0.4-0.7,1.3-2,3.5-2c2.3,0,4.1,1.3,4.1,3.9V480.4z"/>
		<path class="st10" d="M130,506.8h-3.5l5.6-15.8h3.8l5.6,15.8h-3.6l-1-3.3h-5.8L130,506.8z M132,500.8h4l-2-6.2h0L132,500.8z"/>
		<path class="st10" d="M150,498.7c-0.1-0.7-0.4-1.5-2.1-1.5s-1.9,0.6-1.9,1.1c0,1.8,7.3,0.5,7.3,4.8c0,3.4-3.3,4-5.1,4
			c-2.7,0-5.5-0.9-5.6-4h3.2c0,1,0.6,1.7,2.6,1.7c1.6,0,2-0.8,2-1.2c0-2-7.3-0.5-7.3-4.9c0-1.7,1.1-3.9,4.7-3.9c2.3,0,5,0.6,5.3,3.9
			H150z"/>
		<path class="st10" d="M162.2,498.7c-0.1-0.7-0.4-1.5-2.1-1.5s-1.9,0.6-1.9,1.1c0,1.8,7.3,0.5,7.3,4.8c0,3.4-3.3,4-5.1,4
			c-2.7,0-5.5-0.9-5.6-4h3.2c0,1,0.6,1.7,2.6,1.7c1.6,0,2-0.8,2-1.2c0-2-7.3-0.5-7.3-4.9c0-1.7,1.1-3.9,4.7-3.9c2.3,0,5,0.6,5.3,3.9
			H162.2z"/>
		<path class="st10" d="M177.9,503.4c-0.8,2.8-3.1,3.7-5.1,3.7c-3.3,0-5.8-1.6-5.8-6.4c0-1.4,0.5-5.9,5.6-5.9c2.3,0,5.5,1.1,5.5,6.4
			v0.5h-8c0.1,0.9,0.3,2.9,2.8,2.9c0.9,0,1.7-0.4,2-1.3H177.9z M174.9,499.8c-0.2-1.9-1.4-2.5-2.4-2.5c-1.5,0-2.2,0.9-2.4,2.5H174.9
			z"/>
		<path class="st10" d="M183.5,495.1h1.9v2.2h-1.9v6.4c0,0.7,0,0.9,1.3,0.9c0.2,0,0.4,0,0.6,0v2.3c-0.5,0-1,0-1.5,0h-0.4
			c-2.7,0-3.1-1-3.1-2.5v-7.1h-1.6v-2.2h1.6v-3.2h3.1V495.1z"/>
		<path class="st10" d="M194,498.7c-0.1-0.7-0.4-1.5-2.1-1.5s-1.9,0.6-1.9,1.1c0,1.8,7.3,0.5,7.3,4.8c0,3.4-3.3,4-5.1,4
			c-2.7,0-5.5-0.9-5.6-4h3.2c0,1,0.6,1.7,2.6,1.7c1.6,0,2-0.8,2-1.2c0-2-7.3-0.5-7.3-4.9c0-1.7,1.1-3.9,4.7-3.9c2.3,0,5,0.6,5.3,3.9
			H194z"/>
		<path class="st10" d="M217.6,493.8h-8.4v3.3h7.7v2.8h-7.7v4.1h8.8v2.8h-12V491h11.6V493.8z"/>
		<path class="st10" d="M227,498.7c-0.1-0.7-0.4-1.5-2.1-1.5s-1.9,0.6-1.9,1.1c0,1.8,7.3,0.5,7.3,4.8c0,3.4-3.3,4-5.1,4
			c-2.7,0-5.5-0.9-5.6-4h3.2c0,1,0.6,1.7,2.6,1.7c1.6,0,2-0.8,2-1.2c0-2-7.3-0.5-7.3-4.9c0-1.7,1.1-3.9,4.7-3.9c2.3,0,5,0.6,5.3,3.9
			H227z"/>
		<path class="st10" d="M239.3,498.7c-0.1-0.7-0.4-1.5-2.1-1.5s-1.9,0.6-1.9,1.1c0,1.8,7.3,0.5,7.3,4.8c0,3.4-3.3,4-5.1,4
			c-2.7,0-5.5-0.9-5.6-4h3.2c0,1,0.6,1.7,2.6,1.7c1.6,0,2-0.8,2-1.2c0-2-7.3-0.5-7.3-4.9c0-1.7,1.1-3.9,4.7-3.9c2.3,0,5,0.6,5.3,3.9
			H239.3z"/>
		<path class="st10" d="M254.9,503.4c-0.8,2.8-3.1,3.7-5.1,3.7c-3.3,0-5.8-1.6-5.8-6.4c0-1.4,0.5-5.9,5.6-5.9c2.3,0,5.5,1.1,5.5,6.4
			v0.5h-8c0.1,0.9,0.3,2.9,2.8,2.9c0.9,0,1.7-0.4,2-1.3H254.9z M251.9,499.8c-0.2-1.9-1.4-2.5-2.4-2.5c-1.5,0-2.2,0.9-2.4,2.5H251.9
			z"/>
		<path class="st10" d="M267.7,506.8h-3.1v-7.1c0-0.9,0-2.3-2-2.3c-1.4,0-2.4,0.9-2.4,2.7v6.7h-3.1v-11.7h2.9v1.7h0
			c0.4-0.7,1.3-2,3.5-2c2.3,0,4.1,1.3,4.1,3.9V506.8z"/>
		<path class="st10" d="M274,495.1h1.9v2.2H274v6.4c0,0.7,0,0.9,1.3,0.9c0.2,0,0.4,0,0.6,0v2.3c-0.5,0-1,0-1.5,0h-0.4
			c-2.7,0-3.1-1-3.1-2.5v-7.1h-1.6v-2.2h1.6v-3.2h3.1V495.1z"/>
		<path class="st10" d="M281.1,493.7H278v-2.9h3.1V493.7z M281.1,495.1v11.7H278v-11.7H281.1z"/>
		<path class="st10" d="M293.5,504.5c0,1.4,0.3,1.7,0.7,1.8v0.5h-3.3c-0.2-0.5-0.2-0.7-0.3-1.4c-0.7,0.7-1.7,1.7-3.8,1.7
			c-1.8,0-3.6-1-3.6-3.4c0-2.3,1.5-3.5,3.4-3.7l2.8-0.4c0.5-0.1,1.1-0.3,1.1-0.9c0-1.3-1.2-1.4-2-1.4c-1.5,0-1.8,0.9-1.9,1.6h-3
			c0.4-3.6,2.8-4.1,5.2-4.1c1.6,0,4.7,0.5,4.7,3.4V504.5z M290.5,501.1c-0.3,0.2-0.8,0.4-2.1,0.6c-1.1,0.2-2.1,0.5-2.1,1.8
			c0,1.1,0.8,1.4,1.4,1.4c1.4,0,2.8-0.9,2.8-2.3V501.1z"/>
		<path class="st10" d="M299.4,506.8h-3.1V491h3.1V506.8z"/>
		<path class="st10" d="M309,498.7c-0.1-0.7-0.4-1.5-2.1-1.5s-1.9,0.6-1.9,1.1c0,1.8,7.3,0.5,7.3,4.8c0,3.4-3.3,4-5.1,4
			c-2.7,0-5.5-0.9-5.6-4h3.2c0,1,0.6,1.7,2.6,1.7c1.6,0,2-0.8,2-1.2c0-2-7.3-0.5-7.3-4.9c0-1.7,1.1-3.9,4.7-3.9c2.3,0,5,0.6,5.3,3.9
			H309z"/>
	</g>
</g>
<g transform="translate(-0.5 -0.5)">
	<g class="st9">
		<path class="st10" d="M123.5,284.8c-0.3-0.9-0.8-2.7-3.5-2.7c-1.6,0-3.9,1.1-3.9,5.5c0,2.8,1.1,5.4,3.9,5.4c1.8,0,3.1-1,3.5-3h3.3
			c-0.7,3.4-2.9,5.8-6.9,5.8c-4.2,0-7.2-2.8-7.2-8.3c0-5.5,3.2-8.3,7.3-8.3c4.7,0,6.6,3.3,6.8,5.6H123.5z"/>
		<path class="st10" d="M129.1,283.7h2.9v2h0c0.6-1.2,1.3-2.3,3.2-2.3c0.2,0,0.4,0,0.6,0v3.1c-0.3,0-0.6,0-0.9,0
			c-2.4,0-2.8,1.5-2.8,2.8v6.1h-3.1V283.7z"/>
		<path class="st10" d="M147.7,292c-0.8,2.8-3.1,3.7-5.1,3.7c-3.3,0-5.8-1.6-5.8-6.4c0-1.4,0.5-5.9,5.6-5.9c2.3,0,5.5,1.1,5.5,6.4
			v0.5h-8c0.1,0.9,0.3,2.9,2.8,2.9c0.9,0,1.7-0.4,2-1.3H147.7z M144.7,288.4c-0.2-1.9-1.4-2.5-2.4-2.5c-1.5,0-2.2,0.9-2.4,2.5H144.7
			z"/>
		<path class="st10" d="M159.4,293.1c0,1.4,0.3,1.7,0.7,1.8v0.5h-3.3c-0.2-0.5-0.2-0.7-0.3-1.4c-0.7,0.7-1.7,1.7-3.8,1.7
			c-1.8,0-3.6-1-3.6-3.4c0-2.3,1.5-3.5,3.4-3.7l2.8-0.4c0.5-0.1,1.1-0.3,1.1-0.9c0-1.3-1.2-1.4-2-1.4c-1.5,0-1.8,0.9-1.9,1.6h-3
			c0.4-3.6,2.8-4.1,5.2-4.1c1.7,0,4.7,0.5,4.7,3.4V293.1z M156.3,289.7c-0.3,0.2-0.8,0.4-2.1,0.6c-1.1,0.2-2.1,0.5-2.1,1.8
			c0,1.1,0.8,1.4,1.4,1.4c1.4,0,2.8-0.9,2.8-2.3V289.7z"/>
		<path class="st10" d="M162.1,283.7h2.9v2h0c0.6-1.2,1.3-2.3,3.2-2.3c0.2,0,0.4,0,0.6,0v3.1c-0.3,0-0.6,0-0.9,0
			c-2.4,0-2.8,1.5-2.8,2.8v6.1h-3.1V283.7z"/>
	</g>
</g>
</svg>
