<?xml version="1.0" encoding="utf-8"?>
<!-- Generator: Adobe Illustrator 26.5.2, SVG Export Plug-In . SVG Version: 6.00 Build 0)  -->
<svg version="1.1" id="Layer_1" xmlns="http://www.w3.org/2000/svg" xmlns:xlink="http://www.w3.org/1999/xlink" x="0px" y="0px"
	 width="517px" height="390px" viewBox="0 0 517 390" style="enable-background:new 0 0 517 390;" xml:space="preserve">
<style type="text/css">
	.st0{fill:#FFFFFF;}
	.st1{fill:none;}
	.st2{fill:#FFB366;}
	.st3{enable-background:new    ;}
	.st4{fill:#7EA6E0;}
	.st5{fill:#7EA6E0;stroke:#000000;stroke-miterlimit:10;}
	.st6{fill:#FFB366;stroke:#000000;stroke-miterlimit:10;}
	.st7{fill:none;stroke:#000000;stroke-miterlimit:10;}
	.st8{stroke:#000000;stroke-miterlimit:10;}
	.st9{fill:#EDED00;}
</style>
<rect x="-20.3" y="-9.3" class="st0" width="547.3" height="409.6"/>
<rect x="332.5" y="192.5" pointer-events="all" class="st1" width="130" height="120"/>
<path pointer-events="all" class="st2" d="M433.7,275.9c1.4,0,3.4-1.1,3.4-3.5c0-1.8-1.6-3.3-3.5-3.3c-1.7,0-3.4,1.4-3.4,3.4
	C430.2,274.4,431.7,275.9,433.7,275.9z M433.6,308.8l4.8-4.8l-3.3-3.3l3.5-3.6l-3.9-4.1l3.1-3.2v-4.5c4.2-2.1,6.6-5.9,6.6-9.9
	c0-5.1-3.9-10.8-11.1-10.8c-4.7,0.2-9.9,3.3-10.7,10.7c0,4.7,3,8.4,6.6,10.1v19L433.6,308.8z M411.4,312.5c-2.8,0-4.9-2.1-4.9-4.6
	v-44.9c0-2.8,2.4-4.7,4.8-4.7h46.4c2.9,0,4.9,2.3,4.9,4.7v44.9c0,2.7-2.3,4.7-4.9,4.7H411.4z M411.2,253.4c-2,0-5.2,0.8-7,3.2
	c-1.6-4.1-4.5-6.5-7.9-8.4c-2.1-1.2-4.2-2.3-6.3-3.4c0.5-1.8,1.1-3.3,1.8-4.4c1-1.9,2.5-3.2,4.6-4.5l5.7-3.1c2.2-1.2,4.2-1.9,6-0.1
	c10,7.1,19.9,6.7,29.2-0.3c1.1-1.1,2.9-1,4.7-0.1c3.5,1.9,7.8,4,8.8,5c2.3,1.8,3.5,4.3,4.3,7.2c0.8,3.1,1.4,6,1.8,8.7H411.2z
	 M422.7,230.2c-9.3,0-17.4-8.3-17.4-18.6c0-12.2,9.3-19.1,17.2-19.1c10.1,0,17.8,8.5,17.8,19.2C440.2,221.9,432.2,230.2,422.7,230.2
	z M368.5,247.1c-9.7,0-17.7-8.2-17.7-19.1c0-9.9,7.9-18.6,17.4-18.6c10.3,0,17.6,9.3,17.6,18.8C385.8,239.6,376.9,247.1,368.5,247.1
	z M332.5,285.2c0.9-9.2,1.9-21.6,4-26.1c1-2.4,2.3-4.3,5-5.9l6.3-3.5c2-1.1,4.1-1.6,5.4-0.4c8.5,6.4,19,8.2,29.7,0
	c1-0.9,2.5-0.9,3.9-0.3c2,0.8,4.9,2.5,7.4,3.9c3.4,1.9,5.2,4.4,6.5,9c0.3,1,0.5,2,0.7,3v20.3H332.5z"/>
<g class="st3">
	<path d="M319,326.4h3.6v4.6h-1.2l-0.2-1.1c-0.5,0.5-1.1,1.3-2.7,1.3c-2.1,0-4-1.5-4-4.5c0-2.4,1.3-4.6,4.2-4.6
		c2.6,0,3.7,1.7,3.8,2.9h-1.8c0-0.3-0.6-1.4-1.9-1.4c-1.3,0-2.5,0.9-2.5,3.1c0,2.4,1.3,3,2.5,3c0.4,0,1.7-0.2,2.1-1.9h-2V326.4z"/>
	<path d="M324.2,324.6h1.6v1.1h0c0.3-0.6,0.7-1.3,1.8-1.3c0.1,0,0.2,0,0.3,0v1.7c-0.1,0-0.3,0-0.5,0c-1.3,0-1.5,0.8-1.5,1.5v3.3
		h-1.7V324.6z"/>
	<path d="M334.6,331H333v-0.9h0c-0.4,0.7-1.1,1.1-1.9,1.1c-1.3,0-2.2-0.7-2.2-2.4v-4.2h1.7v4c0,1,0.6,1.2,1.1,1.2
		c0.6,0,1.3-0.3,1.3-1.5v-3.7h1.7V331z"/>
	<path d="M337.7,325.5L337.7,325.5c0.3-0.5,0.8-1.1,1.9-1.1c1.4,0,2.7,1.1,2.7,3.3c0,1.8-0.8,3.4-2.7,3.4c-1.2,0-1.6-0.6-1.8-1h0
		v3.3h-1.7v-8.9h1.6V325.5z M339.2,329.8c1.1,0,1.4-1.2,1.4-1.9c0-1-0.4-2-1.4-2c-1.2,0-1.4,1-1.4,2.1
		C337.7,328.9,338.1,329.8,339.2,329.8z"/>
	<path d="M346.4,331.2c-1.7,0-3.3-1.1-3.3-3.4s1.5-3.4,3.3-3.4s3.3,1.1,3.3,3.4S348.1,331.2,346.4,331.2z M346.4,325.9
		c-1.3,0-1.5,1.1-1.5,1.9s0.2,1.9,1.5,1.9c1.3,0,1.5-1.1,1.5-1.9S347.7,325.9,346.4,325.9z"/>
	<path d="M360,331h-1.6v-0.8h0c-0.4,0.7-1.2,1-1.8,1c-1.9,0-2.7-1.7-2.7-3.4c0-2.2,1.2-3.3,2.7-3.3c1.1,0,1.6,0.6,1.8,1h0v-3.1h1.7
		V331z M356.9,329.8c1.1,0,1.5-0.9,1.5-1.8c0-1-0.3-2.1-1.4-2.1c-1.1,0-1.4,0.9-1.4,2C355.5,328.6,355.8,329.8,356.9,329.8z"/>
	<path d="M367,329.1c-0.4,1.5-1.7,2-2.8,2c-1.8,0-3.2-0.9-3.2-3.5c0-0.8,0.3-3.2,3.1-3.2c1.3,0,3,0.6,3,3.5v0.3h-4.4
		c0,0.5,0.1,1.6,1.5,1.6c0.5,0,0.9-0.2,1.1-0.7H367z M365.3,327.2c-0.1-1-0.8-1.3-1.3-1.3c-0.8,0-1.2,0.5-1.3,1.3H365.3z"/>
	<path d="M377.3,331h-1.6v-0.9h0c-0.4,0.7-1.1,1.1-1.9,1.1c-1.3,0-2.2-0.7-2.2-2.4v-4.2h1.7v4c0,1,0.6,1.2,1.1,1.2
		c0.6,0,1.3-0.3,1.3-1.5v-3.7h1.7V331z"/>
	<path d="M382.4,326.6c-0.1-0.4-0.2-0.8-1.1-0.8c-0.9,0-1,0.3-1,0.6c0,1,4,0.3,4,2.6c0,1.9-1.8,2.2-2.8,2.2c-1.5,0-3-0.5-3.1-2.2
		h1.7c0,0.5,0.3,0.9,1.4,0.9c0.9,0,1.1-0.4,1.1-0.7c0-1.1-4-0.3-4-2.7c0-0.9,0.6-2.1,2.6-2.1c1.2,0,2.7,0.3,2.9,2.1H382.4z"/>
	<path d="M391.3,331h-1.6v-0.9h0c-0.4,0.7-1.1,1.1-1.9,1.1c-1.3,0-2.2-0.7-2.2-2.4v-4.2h1.7v4c0,1,0.6,1.2,1.1,1.2
		c0.6,0,1.3-0.3,1.3-1.5v-3.7h1.7V331z"/>
	<path d="M398,329.8c0,0.8,0.2,0.9,0.4,1v0.3h-1.8c-0.1-0.3-0.1-0.4-0.2-0.8c-0.4,0.4-0.9,0.9-2.1,0.9c-1,0-1.9-0.5-1.9-1.9
		c0-1.2,0.8-1.9,1.9-2l1.5-0.2c0.3,0,0.6-0.1,0.6-0.5c0-0.7-0.7-0.7-1.1-0.7c-0.8,0-1,0.5-1,0.9h-1.6c0.2-2,1.5-2.2,2.9-2.2
		c0.9,0,2.5,0.3,2.5,1.8V329.8z M396.4,327.9c-0.2,0.1-0.4,0.2-1.1,0.3c-0.6,0.1-1.1,0.3-1.1,1c0,0.6,0.5,0.8,0.8,0.8
		c0.7,0,1.5-0.5,1.5-1.3V327.9z"/>
	<path d="M399.5,324.6h1.6v1.1h0c0.3-0.6,0.7-1.3,1.8-1.3c0.1,0,0.2,0,0.3,0v1.7c-0.1,0-0.3,0-0.5,0c-1.3,0-1.5,0.8-1.5,1.5v3.3
		h-1.7V324.6z"/>
	<path d="M405.9,323.9h-1.7v-1.6h1.7V323.9z M405.9,324.6v6.4h-1.7v-6.4H405.9z"/>
	<path d="M410.4,331.2c-1.7,0-3.3-1.1-3.3-3.4s1.5-3.4,3.3-3.4s3.3,1.1,3.3,3.4S412.1,331.2,410.4,331.2z M410.4,325.9
		c-1.3,0-1.5,1.1-1.5,1.9s0.2,1.9,1.5,1.9c1.3,0,1.5-1.1,1.5-1.9S411.7,325.9,410.4,325.9z"/>
	<path d="M418.5,326.6c-0.1-0.4-0.2-0.8-1.1-0.8c-0.9,0-1,0.3-1,0.6c0,1,4,0.3,4,2.6c0,1.9-1.8,2.2-2.8,2.2c-1.5,0-3-0.5-3.1-2.2
		h1.7c0,0.5,0.3,0.9,1.4,0.9c0.9,0,1.1-0.4,1.1-0.7c0-1.1-4-0.3-4-2.7c0-0.9,0.6-2.1,2.6-2.1c1.2,0,2.7,0.3,2.9,2.1H418.5z"/>
	<path d="M433.3,331h-1.7v-7.2h0l-1.6,7.2h-1.8l-1.6-7.2h0v7.2h-1.7v-8.6h2.6l1.6,6.8h0l1.5-6.8h2.6V331z"/>
	<path d="M440,329.8c0,0.8,0.2,0.9,0.4,1v0.3h-1.8c-0.1-0.3-0.1-0.4-0.2-0.8c-0.4,0.4-0.9,0.9-2.1,0.9c-1,0-1.9-0.5-1.9-1.9
		c0-1.2,0.8-1.9,1.9-2l1.5-0.2c0.3,0,0.6-0.1,0.6-0.5c0-0.7-0.7-0.7-1.1-0.7c-0.8,0-1,0.5-1,0.9h-1.6c0.2-2,1.5-2.2,2.9-2.2
		c0.9,0,2.5,0.3,2.5,1.8V329.8z M438.4,327.9c-0.2,0.1-0.4,0.2-1.1,0.3c-0.6,0.1-1.1,0.3-1.1,1c0,0.6,0.5,0.8,0.8,0.8
		c0.7,0,1.5-0.5,1.5-1.3V327.9z"/>
	<path d="M441.5,324.6h1.6v1.1h0c0.3-0.6,0.7-1.3,1.8-1.3c0.1,0,0.2,0,0.3,0v1.7c-0.1,0-0.3,0-0.5,0c-1.3,0-1.5,0.8-1.5,1.5v3.3
		h-1.7V324.6z"/>
	<path d="M447.9,331h-1.7v-8.6h1.7v4.7l2.1-2.4h2.1l-2.3,2.5l2.3,3.9h-2l-1.5-2.7l-0.7,0.7V331z"/>
	<path d="M458.3,329.1c-0.4,1.5-1.7,2-2.8,2c-1.8,0-3.2-0.9-3.2-3.5c0-0.8,0.3-3.2,3.1-3.2c1.3,0,3,0.6,3,3.5v0.3H454
		c0,0.5,0.1,1.6,1.5,1.6c0.5,0,0.9-0.2,1.1-0.7H458.3z M456.7,327.2c-0.1-1-0.8-1.3-1.3-1.3c-0.8,0-1.2,0.5-1.3,1.3H456.7z"/>
	<path d="M461.4,324.6h1v1.2h-1v3.5c0,0.4,0,0.5,0.7,0.5c0.1,0,0.2,0,0.3,0v1.3c-0.3,0-0.5,0-0.8,0h-0.2c-1.5,0-1.7-0.6-1.7-1.4
		v-3.9h-0.9v-1.2h0.9v-1.7h1.7V324.6z"/>
	<path d="M465.3,323.9h-1.7v-1.6h1.7V323.9z M465.3,324.6v6.4h-1.7v-6.4H465.3z"/>
	<path d="M472.6,331H471v-3.9c0-0.5,0-1.3-1.1-1.3c-0.7,0-1.3,0.5-1.3,1.5v3.7h-1.7v-6.4h1.6v0.9h0c0.2-0.4,0.7-1.1,1.9-1.1
		c1.2,0,2.2,0.7,2.2,2.1V331z"/>
	<path d="M480.1,324.6v6c0,1.1-0.1,2.9-3.2,2.9c-1.3,0-2.7-0.6-2.8-1.9h1.8c0.1,0.3,0.2,0.6,1.2,0.6c0.9,0,1.3-0.4,1.3-1.5v-0.8l0,0
		c-0.3,0.5-0.7,1-1.7,1c-1.5,0-2.7-1.1-2.7-3.3c0-2.2,1.2-3.3,2.7-3.3c1.2,0,1.7,0.7,1.9,1.1h0v-0.9H480.1z M477,329.6
		c1.1,0,1.4-1,1.4-1.8c0-1-0.5-1.9-1.4-1.9c-0.6,0-1.3,0.5-1.3,1.9C475.6,328.7,476,329.6,477,329.6z"/>
</g>
<rect x="140.5" y="72.5" pointer-events="all" class="st1" width="130" height="90"/>
<path pointer-events="all" class="st4" d="M140.5,150.7c0.6-7.6,1.5-15.1,2.8-22.7c0.6-2.3,1.3-4.5,2.2-6.8c0.9-2.3,2.5-4.2,4.6-5.7
	c2.6-1.7,5.6-2.9,8.7-3.6c1.3-0.5,2.7-0.5,3.9,0c9.1,7.9,23.3,7.9,32.4,0c1.1-0.4,2.4-0.4,3.5,0c3.6,1.1,7.1,2.6,10.3,4.4
	c-4,0.4-7.9,1.5-11.5,3.2c-5.5,2.7-9.7,7.3-11.5,12.8l-2.8,18.3L140.5,150.7z M178,108.1c-4.8,0.1-9.4-1.8-12.6-5.1
	c-3.3-3.4-5-8-4.8-12.7c-0.1-4.6,1.7-9.1,5-12.4c3.3-3.3,7.8-5.1,12.5-5c4.8-0.4,9.6,1.3,13.1,4.6c3.5,3.3,5.4,8,5.3,12.8
	c0.3,4.9-1.6,9.7-5.1,13.1C187.8,106.8,182.9,108.5,178,108.1z M188.5,162.5c0.6-6.7,1.4-13.4,2.5-20.1c0.5-3,1.2-6,2.1-8.9
	c0.6-3.1,2.5-5.9,5.3-7.7c3.2-1.8,6.5-3.3,10-4.5c1.6-0.4,3.3-0.2,4.6,0.8c2,1.8,4.2,3.3,6.7,4.4c6.2,2.5,13.3,2.5,19.6,0
	c2.5-1.1,4.8-2.6,6.9-4.2c1.7-1.2,3.9-1.4,5.7-0.5c3,0.9,5.8,2.2,8.4,3.9c2.4,1.5,4.2,3.7,5.1,6.2c1.6,4.7,2.7,9.6,3.3,14.5
	c0.8,5.4,1.4,10.8,1.8,16.2H188.5z M230.6,117.5c-11.5,0.2-21.1-9.2-21.4-21.2c0.1-5.8,2.4-11.3,6.4-15.3c4-4,9.4-6.2,15-6.1
	c10.9,0.8,19.4,10.1,19.5,21.5C249.9,107.5,241.4,116.7,230.6,117.5z"/>
<g class="st3">
	<path d="M111.5,181h-1.8v-7.1h-2.6v-1.5h7v1.5h-2.6V181z"/>
	<path d="M117,181.2c-1.7,0-3.3-1.1-3.3-3.4s1.5-3.4,3.3-3.4c1.7,0,3.3,1.1,3.3,3.4S118.7,181.2,117,181.2z M117,175.9
		c-1.3,0-1.5,1.1-1.5,1.9s0.2,1.9,1.5,1.9s1.5-1.1,1.5-1.9S118.3,175.9,117,175.9z"/>
	<path d="M127.2,181h-1.6v-0.8h0c-0.4,0.7-1.2,1-1.8,1c-1.9,0-2.7-1.7-2.7-3.4c0-2.2,1.2-3.3,2.7-3.3c1.1,0,1.6,0.6,1.8,1h0v-3.1
		h1.7V181z M124.2,179.8c1.1,0,1.5-0.9,1.5-1.8c0-1-0.3-2.1-1.4-2.1c-1.1,0-1.4,0.9-1.4,2C122.8,178.6,123.1,179.8,124.2,179.8z"/>
	<path d="M131.6,181.2c-1.7,0-3.3-1.1-3.3-3.4s1.5-3.4,3.3-3.4c1.7,0,3.3,1.1,3.3,3.4S133.4,181.2,131.6,181.2z M131.6,175.9
		c-1.3,0-1.5,1.1-1.5,1.9s0.2,1.9,1.5,1.9s1.5-1.1,1.5-1.9S132.9,175.9,131.6,175.9z"/>
	<path d="M139.7,176.6c-0.1-0.4-0.2-0.8-1.1-0.8s-1,0.3-1,0.6c0,1,4,0.3,4,2.6c0,1.9-1.8,2.2-2.8,2.2c-1.5,0-3-0.5-3.1-2.2h1.7
		c0,0.5,0.3,0.9,1.4,0.9c0.9,0,1.1-0.4,1.1-0.7c0-1.1-4-0.3-4-2.7c0-0.9,0.6-2.1,2.6-2.1c1.2,0,2.7,0.3,2.9,2.1H139.7z"/>
	<path d="M147.8,181h-1.7v-8.6h1.7V181z"/>
	<path d="M152.3,181.2c-1.7,0-3.3-1.1-3.3-3.4s1.5-3.4,3.3-3.4c1.7,0,3.3,1.1,3.3,3.4S154,181.2,152.3,181.2z M152.3,175.9
		c-1.3,0-1.5,1.1-1.5,1.9s0.2,1.9,1.5,1.9s1.5-1.1,1.5-1.9S153.6,175.9,152.3,175.9z"/>
	<path d="M160.4,176.6c-0.1-0.4-0.2-0.8-1.1-0.8s-1,0.3-1,0.6c0,1,4,0.3,4,2.6c0,1.9-1.8,2.2-2.8,2.2c-1.5,0-3-0.5-3.1-2.2h1.7
		c0,0.5,0.3,0.9,1.4,0.9c0.9,0,1.1-0.4,1.1-0.7c0-1.1-4-0.3-4-2.7c0-0.9,0.6-2.1,2.6-2.1c1.2,0,2.7,0.3,2.9,2.1H160.4z"/>
	<path d="M172.5,181h-1.6v-0.9h0c-0.4,0.7-1.1,1.1-1.9,1.1c-1.3,0-2.2-0.7-2.2-2.4v-4.2h1.7v4c0,1,0.6,1.2,1.1,1.2
		c0.6,0,1.3-0.3,1.3-1.5v-3.7h1.7V181z"/>
	<path d="M177.7,176.6c-0.1-0.4-0.2-0.8-1.1-0.8s-1,0.3-1,0.6c0,1,4,0.3,4,2.6c0,1.9-1.8,2.2-2.8,2.2c-1.5,0-3-0.5-3.1-2.2h1.7
		c0,0.5,0.3,0.9,1.4,0.9c0.9,0,1.1-0.4,1.1-0.7c0-1.1-4-0.3-4-2.7c0-0.9,0.6-2.1,2.6-2.1c1.2,0,2.7,0.3,2.9,2.1H177.7z"/>
	<path d="M186.5,181h-1.6v-0.9h0c-0.4,0.7-1.1,1.1-1.9,1.1c-1.3,0-2.2-0.7-2.2-2.4v-4.2h1.7v4c0,1,0.6,1.2,1.1,1.2
		c0.6,0,1.3-0.3,1.3-1.5v-3.7h1.7V181z"/>
	<path d="M193.3,179.8c0,0.8,0.2,0.9,0.4,1v0.3h-1.8c-0.1-0.3-0.1-0.4-0.2-0.8c-0.4,0.4-0.9,0.9-2.1,0.9c-1,0-1.9-0.5-1.9-1.9
		c0-1.2,0.8-1.9,1.9-2l1.5-0.2c0.3,0,0.6-0.1,0.6-0.5c0-0.7-0.7-0.7-1.1-0.7c-0.8,0-1,0.5-1,0.9h-1.6c0.2-2,1.5-2.2,2.9-2.2
		c0.9,0,2.5,0.3,2.5,1.8V179.8z M191.6,177.9c-0.2,0.1-0.4,0.2-1.1,0.3c-0.6,0.1-1.1,0.3-1.1,1c0,0.6,0.5,0.8,0.8,0.8
		c0.7,0,1.5-0.5,1.5-1.3V177.9z"/>
	<path d="M194.8,174.6h1.6v1.1h0c0.3-0.6,0.7-1.3,1.8-1.3c0.1,0,0.2,0,0.3,0v1.7c-0.1,0-0.3,0-0.5,0c-1.3,0-1.5,0.8-1.5,1.5v3.3
		h-1.7V174.6z"/>
	<path d="M201.2,173.9h-1.7v-1.6h1.7V173.9z M201.2,174.6v6.4h-1.7v-6.4H201.2z"/>
	<path d="M205.7,181.2c-1.7,0-3.3-1.1-3.3-3.4s1.5-3.4,3.3-3.4c1.7,0,3.3,1.1,3.3,3.4S207.4,181.2,205.7,181.2z M205.7,175.9
		c-1.3,0-1.5,1.1-1.5,1.9s0.2,1.9,1.5,1.9s1.5-1.1,1.5-1.9S207,175.9,205.7,175.9z"/>
	<path d="M213.7,176.6c-0.1-0.4-0.2-0.8-1.1-0.8s-1,0.3-1,0.6c0,1,4,0.3,4,2.6c0,1.9-1.8,2.2-2.8,2.2c-1.5,0-3-0.5-3.1-2.2h1.7
		c0,0.5,0.3,0.9,1.4,0.9c0.9,0,1.1-0.4,1.1-0.7c0-1.1-4-0.3-4-2.7c0-0.9,0.6-2.1,2.6-2.1c1.2,0,2.7,0.3,2.9,2.1H213.7z"/>
	<path d="M225.3,179.8c0,0.8,0.2,0.9,0.4,1v0.3h-1.8c-0.1-0.3-0.1-0.4-0.2-0.8c-0.4,0.4-0.9,0.9-2.1,0.9c-1,0-1.9-0.5-1.9-1.9
		c0-1.2,0.8-1.9,1.9-2l1.5-0.2c0.3,0,0.6-0.1,0.6-0.5c0-0.7-0.7-0.7-1.1-0.7c-0.8,0-1,0.5-1,0.9h-1.6c0.2-2,1.5-2.2,2.9-2.2
		c0.9,0,2.5,0.3,2.5,1.8V179.8z M223.6,177.9c-0.2,0.1-0.4,0.2-1.1,0.3c-0.6,0.1-1.1,0.3-1.1,1c0,0.6,0.5,0.8,0.8,0.8
		c0.7,0,1.5-0.5,1.5-1.3V177.9z"/>
	<path d="M232.5,181h-1.6v-0.9h0c-0.4,0.7-1.1,1.1-1.9,1.1c-1.3,0-2.2-0.7-2.2-2.4v-4.2h1.7v4c0,1,0.6,1.2,1.1,1.2
		c0.6,0,1.3-0.3,1.3-1.5v-3.7h1.7V181z"/>
	<path d="M236,174.6h1v1.2h-1v3.5c0,0.4,0,0.5,0.7,0.5c0.1,0,0.2,0,0.3,0v1.3c-0.3,0-0.5,0-0.8,0H236c-1.5,0-1.7-0.6-1.7-1.4v-3.9
		h-0.9v-1.2h0.9v-1.7h1.7V174.6z"/>
	<path d="M243.6,179.1c-0.4,1.5-1.7,2-2.8,2c-1.8,0-3.2-0.9-3.2-3.5c0-0.8,0.3-3.2,3.1-3.2c1.3,0,3,0.6,3,3.5v0.3h-4.4
		c0,0.5,0.1,1.6,1.5,1.6c0.5,0,0.9-0.2,1.1-0.7H243.6z M241.9,177.2c-0.1-1-0.8-1.3-1.3-1.3c-0.8,0-1.2,0.5-1.3,1.3H241.9z"/>
	<path d="M250.6,181h-1.7v-3.9c0-0.5,0-1.3-1.1-1.3c-0.7,0-1.3,0.5-1.3,1.5v3.7h-1.7v-6.4h1.6v0.9h0c0.2-0.4,0.7-1.1,1.9-1.1
		c1.2,0,2.2,0.7,2.2,2.1V181z"/>
	<path d="M254,174.6h1v1.2h-1v3.5c0,0.4,0,0.5,0.7,0.5c0.1,0,0.2,0,0.3,0v1.3c-0.3,0-0.5,0-0.8,0H254c-1.5,0-1.7-0.6-1.7-1.4v-3.9
		h-0.9v-1.2h0.9v-1.7h1.7V174.6z"/>
	<path d="M257.8,173.9h-1.7v-1.6h1.7V173.9z M257.8,174.6v6.4h-1.7v-6.4H257.8z"/>
	<path d="M264.9,178.7c-0.1,0.7-0.6,2.5-2.9,2.5c-2.4,0-3-1.8-3-3.2c0-2.1,0.9-3.5,3.1-3.5c1,0,2.7,0.5,2.8,2.4h-1.7
		c-0.1-0.4-0.3-1.1-1.1-1c-1.1,0-1.3,1.1-1.3,1.8c0,0.7,0,2.1,1.3,2.1c0.9,0,1.1-0.8,1.1-1.1H264.9z"/>
	<path d="M271.3,179.8c0,0.8,0.2,0.9,0.4,1v0.3h-1.8c-0.1-0.3-0.1-0.4-0.2-0.8c-0.4,0.4-0.9,0.9-2.1,0.9c-1,0-1.9-0.5-1.9-1.9
		c0-1.2,0.8-1.9,1.9-2l1.5-0.2c0.3,0,0.6-0.1,0.6-0.5c0-0.7-0.7-0.7-1.1-0.7c-0.8,0-1,0.5-1,0.9h-1.6c0.2-2,1.5-2.2,2.9-2.2
		c0.9,0,2.5,0.3,2.5,1.8V179.8z M269.6,177.9c-0.2,0.1-0.4,0.2-1.1,0.3c-0.6,0.1-1.1,0.3-1.1,1c0,0.6,0.5,0.8,0.8,0.8
		c0.7,0,1.5-0.5,1.5-1.3V177.9z"/>
	<path d="M278.6,181H277v-0.8h0c-0.4,0.7-1.2,1-1.8,1c-1.9,0-2.7-1.7-2.7-3.4c0-2.2,1.2-3.3,2.7-3.3c1.1,0,1.6,0.6,1.8,1h0v-3.1h1.7
		V181z M275.5,179.8c1.1,0,1.5-0.9,1.5-1.8c0-1-0.3-2.1-1.4-2.1c-1.1,0-1.4,0.9-1.4,2C274.2,178.6,274.5,179.8,275.5,179.8z"/>
	<path d="M283,181.2c-1.7,0-3.3-1.1-3.3-3.4s1.5-3.4,3.3-3.4c1.7,0,3.3,1.1,3.3,3.4S284.7,181.2,283,181.2z M283,175.9
		c-1.3,0-1.5,1.1-1.5,1.9s0.2,1.9,1.5,1.9c1.3,0,1.5-1.1,1.5-1.9S284.3,175.9,283,175.9z"/>
	<path d="M291.1,176.6c-0.1-0.4-0.2-0.8-1.1-0.8c-0.9,0-1,0.3-1,0.6c0,1,4,0.3,4,2.6c0,1.9-1.8,2.2-2.8,2.2c-1.5,0-3-0.5-3.1-2.2
		h1.7c0,0.5,0.3,0.9,1.4,0.9c0.9,0,1.1-0.4,1.1-0.7c0-1.1-4-0.3-4-2.7c0-0.9,0.6-2.1,2.6-2.1c1.2,0,2.7,0.3,2.9,2.1H291.1z"/>
	<path d="M295.9,181h-1.8v-1.8h1.8V181z"/>
	<path d="M299.3,181h-1.8v-1.8h1.8V181z"/>
	<path d="M302.6,181h-1.8v-1.8h1.8V181z"/>
</g>
<path pointer-events="all" class="st5" d="M212.5,2.5h120v50h-40l-20,30v-30h-60V2.5z"/>
<g transform="translate(-0.5 -0.5)">
	<g class="st3">
		<path class="st0" d="M227,26.5h-1.8v-8.6h3.9c1.7,0,2.7,1.1,2.7,2.8c0,0.8-0.4,2.7-2.7,2.7H227V26.5z M228.6,21.9
			c1.3,0,1.3-1,1.3-1.3c0-0.8-0.5-1.2-1.6-1.2H227v2.5H228.6z"/>
		<path class="st0" d="M238.2,24.6c-0.4,1.5-1.7,2-2.8,2c-1.8,0-3.2-0.9-3.2-3.5c0-0.8,0.3-3.2,3.1-3.2c1.3,0,3,0.6,3,3.5v0.3h-4.4
			c0,0.5,0.1,1.6,1.5,1.6c0.5,0,0.9-0.2,1.1-0.7H238.2z M236.5,22.7c-0.1-1-0.8-1.3-1.3-1.3c-0.8,0-1.2,0.5-1.3,1.3H236.5z"/>
		<path class="st0" d="M239.3,20.1h1.6v1.1h0c0.3-0.6,0.7-1.3,1.8-1.3c0.1,0,0.2,0,0.3,0v1.7c-0.1,0-0.3,0-0.5,0
			c-1.3,0-1.5,0.8-1.5,1.5v3.3h-1.7V20.1z"/>
		<path class="st0" d="M253.1,26.5h-1.7v-3.9c0-0.9-0.4-1.3-0.9-1.3c-0.8,0-1.1,0.6-1.1,1.3v3.8h-1.7v-3.8c0-0.5,0-1.3-1-1.3
			c-0.8,0-1,0.6-1,1.2v3.9H244v-6.4h1.6v0.9h0c0.2-0.4,0.7-1.1,1.8-1.1c0.9,0,1.3,0.3,1.8,1c0.2-0.3,0.7-1,1.7-1
			c1.2,0,2.2,0.7,2.2,2.1V26.5z"/>
		<path class="st0" d="M256.4,19.4h-1.7v-1.6h1.7V19.4z M256.4,20.1v6.4h-1.7v-6.4H256.4z"/>
		<path class="st0" d="M261.6,22.1c-0.1-0.4-0.2-0.8-1.1-0.8c-0.9,0-1,0.3-1,0.6c0,1,4,0.3,4,2.6c0,1.9-1.8,2.2-2.8,2.2
			c-1.5,0-3-0.5-3.1-2.2h1.7c0,0.5,0.3,0.9,1.4,0.9c0.9,0,1.1-0.4,1.1-0.7c0-1.1-4-0.3-4-2.7c0-0.9,0.6-2.1,2.6-2.1
			c1.2,0,2.7,0.3,2.9,2.1H261.6z"/>
		<path class="st0" d="M267.6,26.7c-1.7,0-3.3-1.1-3.3-3.4s1.5-3.4,3.3-3.4c1.7,0,3.3,1.1,3.3,3.4S269.3,26.7,267.6,26.7z
			 M267.6,21.4c-1.3,0-1.5,1.1-1.5,1.9s0.2,1.9,1.5,1.9c1.3,0,1.5-1.1,1.5-1.9S268.9,21.4,267.6,21.4z"/>
		<path class="st0" d="M275.6,22.1c-0.1-0.4-0.2-0.8-1.1-0.8c-0.9,0-1,0.3-1,0.6c0,1,4,0.3,4,2.6c0,1.9-1.8,2.2-2.8,2.2
			c-1.5,0-3-0.5-3.1-2.2h1.7c0,0.5,0.3,0.9,1.4,0.9c0.9,0,1.1-0.4,1.1-0.7c0-1.1-4-0.3-4-2.7c0-0.9,0.6-2.1,2.6-2.1
			c1.2,0,2.7,0.3,2.9,2.1H275.6z"/>
		<path class="st0" d="M284,26.5h-1.8v-8.6h3.9c1.7,0,2.7,1.1,2.7,2.8c0,0.8-0.4,2.7-2.7,2.7H284V26.5z M285.6,21.9
			c1.3,0,1.3-1,1.3-1.3c0-0.8-0.5-1.2-1.6-1.2H284v2.5H285.6z"/>
		<path class="st0" d="M295.8,26.5h-1.6v-0.9h0c-0.4,0.7-1.1,1.1-1.9,1.1c-1.3,0-2.2-0.7-2.2-2.4v-4.2h1.7v4c0,1,0.6,1.2,1.1,1.2
			c0.6,0,1.3-0.3,1.3-1.5v-3.7h1.7V26.5z"/>
		<path class="st0" d="M302.8,24.6c-0.4,1.5-1.7,2-2.8,2c-1.8,0-3.2-0.9-3.2-3.5c0-0.8,0.3-3.2,3.1-3.2c1.3,0,3,0.6,3,3.5v0.3h-4.4
			c0,0.5,0.1,1.6,1.5,1.6c0.5,0,0.9-0.2,1.1-0.7H302.8z M301.2,22.7c-0.1-1-0.8-1.3-1.3-1.3c-0.8,0-1.2,0.5-1.3,1.3H301.2z"/>
		<path class="st0" d="M309.9,26.5h-1.6v-0.8h0c-0.4,0.7-1.2,1-1.8,1c-1.9,0-2.7-1.7-2.7-3.4c0-2.2,1.2-3.3,2.7-3.3
			c1.1,0,1.6,0.6,1.8,1h0v-3.1h1.7V26.5z M306.8,25.3c1.1,0,1.5-0.9,1.5-1.8c0-1-0.3-2.1-1.4-2.1c-1.1,0-1.4,0.9-1.4,2
			C305.4,24.1,305.7,25.3,306.8,25.3z"/>
		<path class="st0" d="M316.9,24.6c-0.4,1.5-1.7,2-2.8,2c-1.8,0-3.2-0.9-3.2-3.5c0-0.8,0.3-3.2,3.1-3.2c1.3,0,3,0.6,3,3.5v0.3h-4.4
			c0,0.5,0.1,1.6,1.5,1.6c0.5,0,0.9-0.2,1.1-0.7H316.9z M315.2,22.7c-0.1-1-0.8-1.3-1.3-1.3c-0.8,0-1.2,0.5-1.3,1.3H315.2z"/>
		<path class="st0" d="M267.6,40.9h-1.8l-2.3-6.4h1.9l1.3,4.7h0l1.4-4.7h1.8L267.6,40.9z"/>
		<path class="st0" d="M276.4,39c-0.4,1.5-1.7,2-2.8,2c-1.8,0-3.2-0.9-3.2-3.5c0-0.8,0.3-3.2,3.1-3.2c1.3,0,3,0.6,3,3.5v0.3H272
			c0,0.5,0.1,1.6,1.5,1.6c0.5,0,0.9-0.2,1.1-0.7H276.4z M274.7,37.1c-0.1-1-0.8-1.3-1.3-1.3c-0.8,0-1.2,0.5-1.3,1.3H274.7z"/>
		<path class="st0" d="M277.5,34.5h1.6v1.1h0c0.3-0.6,0.7-1.3,1.8-1.3c0.1,0,0.2,0,0.3,0v1.7c-0.1,0-0.3,0-0.5,0
			c-1.3,0-1.5,0.8-1.5,1.5v3.3h-1.7V34.5z"/>
	</g>
</g>
<path pointer-events="all" class="st6" d="M394.5,102.5h120v50h-40l-20,30v-30h-60V102.5z"/>
<g transform="translate(-0.5 -0.5)">
	<g class="st3">
		<path class="st0" d="M409.2,127.5h-1.8v-8.6h3.9c1.7,0,2.7,1.1,2.7,2.8c0,0.8-0.4,2.7-2.7,2.7h-2.1V127.5z M410.9,122.9
			c1.3,0,1.3-1,1.3-1.3c0-0.8-0.5-1.2-1.6-1.2h-1.4v2.5H410.9z"/>
		<path class="st0" d="M420.4,125.6c-0.4,1.5-1.7,2-2.8,2c-1.8,0-3.2-0.9-3.2-3.5c0-0.8,0.3-3.2,3.1-3.2c1.3,0,3,0.6,3,3.5v0.3h-4.4
			c0,0.5,0.1,1.6,1.5,1.6c0.5,0,0.9-0.2,1.1-0.7H420.4z M418.7,123.7c-0.1-1-0.8-1.3-1.3-1.3c-0.8,0-1.2,0.5-1.3,1.3H418.7z"/>
		<path class="st0" d="M421.6,121.1h1.6v1.1h0c0.3-0.6,0.7-1.3,1.8-1.3c0.1,0,0.2,0,0.3,0v1.7c-0.1,0-0.3,0-0.5,0
			c-1.3,0-1.5,0.8-1.5,1.5v3.3h-1.7V121.1z"/>
		<path class="st0" d="M435.4,127.5h-1.7v-3.9c0-0.9-0.4-1.3-0.9-1.3c-0.8,0-1.1,0.6-1.1,1.3v3.8H430v-3.8c0-0.5,0-1.3-1-1.3
			c-0.8,0-1,0.6-1,1.2v3.9h-1.7v-6.4h1.6v0.9h0c0.2-0.4,0.7-1.1,1.8-1.1c0.9,0,1.3,0.3,1.8,1c0.2-0.3,0.7-1,1.7-1
			c1.2,0,2.2,0.7,2.2,2.1V127.5z"/>
		<path class="st0" d="M438.7,120.4H437v-1.6h1.7V120.4z M438.7,121.1v6.4H437v-6.4H438.7z"/>
		<path class="st0" d="M443.9,123.1c-0.1-0.4-0.2-0.8-1.1-0.8c-0.9,0-1,0.3-1,0.6c0,1,4,0.3,4,2.6c0,1.9-1.8,2.2-2.8,2.2
			c-1.5,0-3-0.5-3.1-2.2h1.7c0,0.5,0.3,0.9,1.4,0.9c0.9,0,1.1-0.4,1.1-0.7c0-1.1-4-0.3-4-2.7c0-0.9,0.6-2.1,2.6-2.1
			c1.2,0,2.7,0.3,2.9,2.1H443.9z"/>
		<path class="st0" d="M449.8,127.7c-1.7,0-3.3-1.1-3.3-3.4s1.5-3.4,3.3-3.4c1.7,0,3.3,1.1,3.3,3.4S451.5,127.7,449.8,127.7z
			 M449.8,122.4c-1.3,0-1.5,1.1-1.5,1.9s0.2,1.9,1.5,1.9c1.3,0,1.5-1.1,1.5-1.9S451.1,122.4,449.8,122.4z"/>
		<path class="st0" d="M457.9,123.1c-0.1-0.4-0.2-0.8-1.1-0.8c-0.9,0-1,0.3-1,0.6c0,1,4,0.3,4,2.6c0,1.9-1.8,2.2-2.8,2.2
			c-1.5,0-3-0.5-3.1-2.2h1.7c0,0.5,0.3,0.9,1.4,0.9c0.9,0,1.1-0.4,1.1-0.7c0-1.1-4-0.3-4-2.7c0-0.9,0.6-2.1,2.6-2.1
			c1.2,0,2.7,0.3,2.9,2.1H457.9z"/>
		<path class="st0" d="M466.2,127.5h-1.8v-8.6h3.9c1.7,0,2.7,1.1,2.7,2.8c0,0.8-0.4,2.7-2.7,2.7h-2.1V127.5z M467.9,122.9
			c1.3,0,1.3-1,1.3-1.3c0-0.8-0.5-1.2-1.6-1.2h-1.4v2.5H467.9z"/>
		<path class="st0" d="M478,127.5h-1.6v-0.9h0c-0.4,0.7-1.1,1.1-1.9,1.1c-1.3,0-2.2-0.7-2.2-2.4v-4.2h1.7v4c0,1,0.6,1.2,1.1,1.2
			c0.6,0,1.3-0.3,1.3-1.5v-3.7h1.7V127.5z"/>
		<path class="st0" d="M485.1,125.6c-0.4,1.5-1.7,2-2.8,2c-1.8,0-3.2-0.9-3.2-3.5c0-0.8,0.3-3.2,3.1-3.2c1.3,0,3,0.6,3,3.5v0.3h-4.4
			c0,0.5,0.1,1.6,1.5,1.6c0.5,0,0.9-0.2,1.1-0.7H485.1z M483.4,123.7c-0.1-1-0.8-1.3-1.3-1.3c-0.8,0-1.2,0.5-1.3,1.3H483.4z"/>
		<path class="st0" d="M492.1,127.5h-1.6v-0.8h0c-0.4,0.7-1.2,1-1.8,1c-1.9,0-2.7-1.7-2.7-3.4c0-2.2,1.2-3.3,2.7-3.3
			c1.1,0,1.6,0.6,1.8,1h0v-3.1h1.7V127.5z M489,126.3c1.1,0,1.5-0.9,1.5-1.8c0-1-0.3-2.1-1.4-2.1c-1.1,0-1.4,0.9-1.4,2
			C487.6,125.1,487.9,126.3,489,126.3z"/>
		<path class="st0" d="M499.1,125.6c-0.4,1.5-1.7,2-2.8,2c-1.8,0-3.2-0.9-3.2-3.5c0-0.8,0.3-3.2,3.1-3.2c1.3,0,3,0.6,3,3.5v0.3h-4.4
			c0,0.5,0.1,1.6,1.5,1.6c0.5,0,0.9-0.2,1.1-0.7H499.1z M497.4,123.7c-0.1-1-0.8-1.3-1.3-1.3c-0.8,0-1.2,0.5-1.3,1.3H497.4z"/>
		<path class="st0" d="M444.6,140c-0.4,1.5-1.7,2-2.8,2c-1.8,0-3.2-0.9-3.2-3.5c0-0.8,0.3-3.2,3.1-3.2c1.3,0,3,0.6,3,3.5v0.3h-4.4
			c0,0.5,0.1,1.6,1.5,1.6c0.5,0,0.9-0.2,1.1-0.7H444.6z M442.9,138.1c-0.1-1-0.8-1.3-1.3-1.3c-0.8,0-1.2,0.5-1.3,1.3H442.9z"/>
		<path class="st0" d="M451.6,141.9H450v-0.8h0c-0.4,0.7-1.2,1-1.8,1c-1.9,0-2.7-1.7-2.7-3.4c0-2.2,1.2-3.3,2.7-3.3
			c1.1,0,1.6,0.6,1.8,1h0v-3.1h1.7V141.9z M448.5,140.7c1.1,0,1.5-0.9,1.5-1.8c0-1-0.3-2.1-1.4-2.1c-1.1,0-1.4,0.9-1.4,2
			C447.1,139.5,447.4,140.7,448.5,140.7z"/>
		<path class="st0" d="M454.8,134.8h-1.7v-1.6h1.7V134.8z M454.8,135.5v6.4h-1.7v-6.4H454.8z"/>
		<path class="st0" d="M458.3,135.5h1v1.2h-1v3.5c0,0.4,0,0.5,0.7,0.5c0.1,0,0.2,0,0.3,0v1.3c-0.3,0-0.5,0-0.8,0h-0.2
			c-1.5,0-1.7-0.6-1.7-1.4v-3.9h-0.9v-1.2h0.9v-1.7h1.7V135.5z"/>
		<path class="st0" d="M465.6,140.7c0,0.8,0.2,0.9,0.4,1v0.3h-1.8c-0.1-0.3-0.1-0.4-0.2-0.8c-0.4,0.4-0.9,0.9-2.1,0.9
			c-1,0-1.9-0.5-1.9-1.9c0-1.2,0.8-1.9,1.9-2l1.5-0.2c0.3,0,0.6-0.1,0.6-0.5c0-0.7-0.7-0.7-1.1-0.7c-0.8,0-1,0.5-1,0.9h-1.6
			c0.2-2,1.5-2.2,2.9-2.2c0.9,0,2.5,0.3,2.5,1.8V140.7z M464,138.8c-0.2,0.1-0.4,0.2-1.1,0.3c-0.6,0.1-1.1,0.3-1.1,1
			c0,0.6,0.5,0.8,0.8,0.8c0.7,0,1.5-0.5,1.5-1.3V138.8z"/>
		<path class="st0" d="M467.1,135.5h1.6v1.1h0c0.3-0.6,0.7-1.3,1.8-1.3c0.1,0,0.2,0,0.3,0v1.7c-0.1,0-0.3,0-0.5,0
			c-1.3,0-1.5,0.8-1.5,1.5v3.3h-1.7V135.5z"/>
	</g>
</g>
<g transform="translate(-0.5 -0.5)">
	<g>
		<g class="st3">
			<path d="M5.4,347.9h4.4c2.3,0,2.7,1.7,2.7,2.4c0,0.9-0.5,1.8-1.3,2.1c0.7,0.3,1.1,0.6,1.1,2.2c0,1.3,0,1.6,0.4,1.7v0.2h-2
				c-0.1-0.4-0.2-0.9-0.2-1.7c0-1.2-0.1-1.6-1.4-1.6H7.2v3.4H5.4V347.9z M9.3,351.7c0.9,0,1.4-0.3,1.4-1.2c0-0.5-0.2-1.1-1.3-1.1
				H7.2v2.3H9.3z"/>
			<path d="M19.4,354.6c-0.4,1.5-1.7,2-2.8,2c-1.8,0-3.2-0.9-3.2-3.5c0-0.8,0.3-3.2,3.1-3.2c1.3,0,3,0.6,3,3.5v0.3h-4.4
				c0,0.5,0.1,1.6,1.5,1.6c0.5,0,0.9-0.2,1.1-0.7H19.4z M17.8,352.7c-0.1-1-0.8-1.3-1.3-1.3c-0.8,0-1.2,0.5-1.3,1.3H17.8z"/>
			<path d="M24.2,352.1c-0.1-0.4-0.2-0.8-1.1-0.8s-1,0.3-1,0.6c0,1,4,0.3,4,2.6c0,1.9-1.8,2.2-2.8,2.2c-1.5,0-3-0.5-3.1-2.2h1.7
				c0,0.5,0.3,0.9,1.4,0.9c0.9,0,1.1-0.4,1.1-0.7c0-1.1-4-0.3-4-2.7c0-0.9,0.6-2.1,2.6-2.1c1.2,0,2.7,0.3,2.9,2.1H24.2z"/>
			<path d="M33,356.5h-1.6v-0.9h0c-0.4,0.7-1.1,1.1-1.9,1.1c-1.3,0-2.2-0.7-2.2-2.4v-4.2H29v4c0,1,0.6,1.2,1.1,1.2
				c0.6,0,1.3-0.3,1.3-1.5v-3.7H33V356.5z"/>
			<path d="M36.3,356.5h-1.7v-8.6h1.7V356.5z"/>
			<path d="M39.8,350.1h1v1.2h-1v3.5c0,0.4,0,0.5,0.7,0.5c0.1,0,0.2,0,0.3,0v1.3c-0.3,0-0.5,0-0.8,0h-0.2c-1.5,0-1.7-0.6-1.7-1.4
				v-3.9h-0.9v-1.2h0.9v-1.7h1.7V350.1z"/>
			<path d="M47.1,355.3c0,0.8,0.2,0.9,0.4,1v0.3h-1.8c-0.1-0.3-0.1-0.4-0.2-0.8c-0.4,0.4-0.9,0.9-2.1,0.9c-1,0-1.9-0.5-1.9-1.9
				c0-1.2,0.8-1.9,1.9-2l1.5-0.2c0.3,0,0.6-0.1,0.6-0.5c0-0.7-0.7-0.7-1.1-0.7c-0.8,0-1,0.5-1,0.9h-1.6c0.2-2,1.5-2.2,2.9-2.2
				c0.9,0,2.5,0.3,2.5,1.8V355.3z M45.5,353.4c-0.2,0.1-0.4,0.2-1.1,0.3c-0.6,0.1-1.1,0.3-1.1,1c0,0.6,0.5,0.8,0.8,0.8
				c0.7,0,1.5-0.5,1.5-1.3V353.4z"/>
			<path d="M54.5,356.5h-1.6v-0.8h0c-0.4,0.7-1.2,1-1.8,1c-1.9,0-2.7-1.7-2.7-3.4c0-2.2,1.2-3.3,2.7-3.3c1.1,0,1.6,0.6,1.8,1h0v-3.1
				h1.7V356.5z M51.4,355.3c1.1,0,1.5-0.9,1.5-1.8c0-1-0.3-2.1-1.4-2.1c-1.1,0-1.4,0.9-1.4,2C50,354.1,50.3,355.3,51.4,355.3z"/>
			<path d="M58.8,356.7c-1.7,0-3.3-1.1-3.3-3.4s1.5-3.4,3.3-3.4c1.7,0,3.3,1.1,3.3,3.4S60.6,356.7,58.8,356.7z M58.8,351.4
				c-1.3,0-1.5,1.1-1.5,1.9s0.2,1.9,1.5,1.9s1.5-1.1,1.5-1.9S60.1,351.4,58.8,351.4z"/>
			<path d="M65.4,352.1h-1.8v-1.8h1.8V352.1z M65.4,356.5h-1.8v-1.8h1.8V356.5z"/>
			<path d="M72.7,356.5h-1.8v-7.1h-2.6v-1.5h7v1.5h-2.6V356.5z"/>
			<path d="M78.2,356.7c-1.7,0-3.3-1.1-3.3-3.4s1.5-3.4,3.3-3.4c1.7,0,3.3,1.1,3.3,3.4S79.9,356.7,78.2,356.7z M78.2,351.4
				c-1.3,0-1.5,1.1-1.5,1.9s0.2,1.9,1.5,1.9s1.5-1.1,1.5-1.9S79.5,351.4,78.2,351.4z"/>
			<path d="M88.5,356.5h-1.6v-0.8h0c-0.4,0.7-1.2,1-1.8,1c-1.9,0-2.7-1.7-2.7-3.4c0-2.2,1.2-3.3,2.7-3.3c1.1,0,1.6,0.6,1.8,1h0v-3.1
				h1.7V356.5z M85.4,355.3c1.1,0,1.5-0.9,1.5-1.8c0-1-0.3-2.1-1.4-2.1c-1.1,0-1.4,0.9-1.4,2C84,354.1,84.3,355.3,85.4,355.3z"/>
			<path d="M92.9,356.7c-1.7,0-3.3-1.1-3.3-3.4s1.5-3.4,3.3-3.4c1.7,0,3.3,1.1,3.3,3.4S94.6,356.7,92.9,356.7z M92.9,351.4
				c-1.3,0-1.5,1.1-1.5,1.9s0.2,1.9,1.5,1.9s1.5-1.1,1.5-1.9S94.2,351.4,92.9,351.4z"/>
			<path d="M100.9,352.1c-0.1-0.4-0.2-0.8-1.1-0.8s-1,0.3-1,0.6c0,1,4,0.3,4,2.6c0,1.9-1.8,2.2-2.8,2.2c-1.5,0-3-0.5-3.1-2.2h1.7
				c0,0.5,0.3,0.9,1.4,0.9c0.9,0,1.1-0.4,1.1-0.7c0-1.1-4-0.3-4-2.7c0-0.9,0.6-2.1,2.6-2.1c1.2,0,2.7,0.3,2.9,2.1H100.9z"/>
			<path d="M109,356.5h-1.7v-8.6h1.7V356.5z"/>
			<path d="M113.5,356.7c-1.7,0-3.3-1.1-3.3-3.4s1.5-3.4,3.3-3.4c1.7,0,3.3,1.1,3.3,3.4S115.3,356.7,113.5,356.7z M113.5,351.4
				c-1.3,0-1.5,1.1-1.5,1.9s0.2,1.9,1.5,1.9s1.5-1.1,1.5-1.9S114.8,351.4,113.5,351.4z"/>
			<path d="M121.6,352.1c-0.1-0.4-0.2-0.8-1.1-0.8s-1,0.3-1,0.6c0,1,4,0.3,4,2.6c0,1.9-1.8,2.2-2.8,2.2c-1.5,0-3-0.5-3.1-2.2h1.7
				c0,0.5,0.3,0.9,1.4,0.9c0.9,0,1.1-0.4,1.1-0.7c0-1.1-4-0.3-4-2.7c0-0.9,0.6-2.1,2.6-2.1c1.2,0,2.7,0.3,2.9,2.1H121.6z"/>
			<path d="M133.7,356.5h-1.6v-0.9h0c-0.4,0.7-1.1,1.1-1.9,1.1c-1.3,0-2.2-0.7-2.2-2.4v-4.2h1.7v4c0,1,0.6,1.2,1.1,1.2
				c0.6,0,1.3-0.3,1.3-1.5v-3.7h1.7V356.5z"/>
			<path d="M138.9,352.1c-0.1-0.4-0.2-0.8-1.1-0.8s-1,0.3-1,0.6c0,1,4,0.3,4,2.6c0,1.9-1.8,2.2-2.8,2.2c-1.5,0-3-0.5-3.1-2.2h1.7
				c0,0.5,0.3,0.9,1.4,0.9c0.9,0,1.1-0.4,1.1-0.7c0-1.1-4-0.3-4-2.7c0-0.9,0.6-2.1,2.6-2.1c1.2,0,2.7,0.3,2.9,2.1H138.9z"/>
			<path d="M147.8,356.5h-1.6v-0.9h0c-0.4,0.7-1.1,1.1-1.9,1.1c-1.3,0-2.2-0.7-2.2-2.4v-4.2h1.7v4c0,1,0.6,1.2,1.1,1.2
				c0.6,0,1.3-0.3,1.3-1.5v-3.7h1.7V356.5z"/>
			<path d="M154.5,355.3c0,0.8,0.2,0.9,0.4,1v0.3h-1.8c-0.1-0.3-0.1-0.4-0.2-0.8c-0.4,0.4-0.9,0.9-2.1,0.9c-1,0-1.9-0.5-1.9-1.9
				c0-1.2,0.8-1.9,1.9-2l1.5-0.2c0.3,0,0.6-0.1,0.6-0.5c0-0.7-0.7-0.7-1.1-0.7c-0.8,0-1,0.5-1,0.9h-1.6c0.2-2,1.5-2.2,2.9-2.2
				c0.9,0,2.5,0.3,2.5,1.8V355.3z M152.9,353.4c-0.2,0.1-0.4,0.2-1.1,0.3c-0.6,0.1-1.1,0.3-1.1,1c0,0.6,0.5,0.8,0.8,0.8
				c0.7,0,1.5-0.5,1.5-1.3V353.4z"/>
			<path d="M156,350.1h1.6v1.1h0c0.3-0.6,0.7-1.3,1.8-1.3c0.1,0,0.2,0,0.3,0v1.7c-0.1,0-0.3,0-0.5,0c-1.3,0-1.5,0.8-1.5,1.5v3.3H156
				V350.1z"/>
			<path d="M162.4,349.4h-1.7v-1.6h1.7V349.4z M162.4,350.1v6.4h-1.7v-6.4H162.4z"/>
			<path d="M166.9,356.7c-1.7,0-3.3-1.1-3.3-3.4s1.5-3.4,3.3-3.4c1.7,0,3.3,1.1,3.3,3.4S168.6,356.7,166.9,356.7z M166.9,351.4
				c-1.3,0-1.5,1.1-1.5,1.9s0.2,1.9,1.5,1.9s1.5-1.1,1.5-1.9S168.2,351.4,166.9,351.4z"/>
			<path d="M174.9,352.1c-0.1-0.4-0.2-0.8-1.1-0.8s-1,0.3-1,0.6c0,1,4,0.3,4,2.6c0,1.9-1.8,2.2-2.8,2.2c-1.5,0-3-0.5-3.1-2.2h1.7
				c0,0.5,0.3,0.9,1.4,0.9c0.9,0,1.1-0.4,1.1-0.7c0-1.1-4-0.3-4-2.7c0-0.9,0.6-2.1,2.6-2.1c1.2,0,2.7,0.3,2.9,2.1H174.9z"/>
			<path d="M186.5,355.3c0,0.8,0.2,0.9,0.4,1v0.3h-1.8c-0.1-0.3-0.1-0.4-0.2-0.8c-0.4,0.4-0.9,0.9-2.1,0.9c-1,0-1.9-0.5-1.9-1.9
				c0-1.2,0.8-1.9,1.9-2l1.5-0.2c0.3,0,0.6-0.1,0.6-0.5c0-0.7-0.7-0.7-1.1-0.7c-0.8,0-1,0.5-1,0.9h-1.6c0.2-2,1.5-2.2,2.9-2.2
				c0.9,0,2.5,0.3,2.5,1.8V355.3z M184.9,353.4c-0.2,0.1-0.4,0.2-1.1,0.3c-0.6,0.1-1.1,0.3-1.1,1c0,0.6,0.5,0.8,0.8,0.8
				c0.7,0,1.5-0.5,1.5-1.3V353.4z"/>
			<path d="M193.8,356.5h-1.6v-0.9h0c-0.4,0.7-1.1,1.1-1.9,1.1c-1.3,0-2.2-0.7-2.2-2.4v-4.2h1.7v4c0,1,0.6,1.2,1.1,1.2
				c0.6,0,1.3-0.3,1.3-1.5v-3.7h1.7V356.5z"/>
			<path d="M197.2,350.1h1v1.2h-1v3.5c0,0.4,0,0.5,0.7,0.5c0.1,0,0.2,0,0.3,0v1.3c-0.3,0-0.5,0-0.8,0h-0.2c-1.5,0-1.7-0.6-1.7-1.4
				v-3.9h-0.9v-1.2h0.9v-1.7h1.7V350.1z"/>
			<path d="M204.8,354.6c-0.4,1.5-1.7,2-2.8,2c-1.8,0-3.2-0.9-3.2-3.5c0-0.8,0.3-3.2,3.1-3.2c1.3,0,3,0.6,3,3.5v0.3h-4.4
				c0,0.5,0.1,1.6,1.5,1.6c0.5,0,0.9-0.2,1.1-0.7H204.8z M203.2,352.7c-0.1-1-0.8-1.3-1.3-1.3c-0.8,0-1.2,0.5-1.3,1.3H203.2z"/>
			<path d="M211.8,356.5h-1.7v-3.9c0-0.5,0-1.3-1.1-1.3c-0.7,0-1.3,0.5-1.3,1.5v3.7H206v-6.4h1.6v0.9h0c0.2-0.4,0.7-1.1,1.9-1.1
				c1.2,0,2.2,0.7,2.2,2.1V356.5z"/>
			<path d="M215.2,350.1h1v1.2h-1v3.5c0,0.4,0,0.5,0.7,0.5c0.1,0,0.2,0,0.3,0v1.3c-0.3,0-0.5,0-0.8,0h-0.2c-1.5,0-1.7-0.6-1.7-1.4
				v-3.9h-0.9v-1.2h0.9v-1.7h1.7V350.1z"/>
			<path d="M219.1,349.4h-1.7v-1.6h1.7V349.4z M219.1,350.1v6.4h-1.7v-6.4H219.1z"/>
			<path d="M226.2,354.2c-0.1,0.7-0.6,2.5-2.9,2.5c-2.4,0-3-1.8-3-3.2c0-2.1,0.9-3.5,3.1-3.5c1,0,2.7,0.5,2.8,2.4h-1.7
				c-0.1-0.4-0.3-1.1-1.1-1c-1.1,0-1.3,1.1-1.3,1.8c0,0.7,0,2.1,1.3,2.1c0.9,0,1.1-0.8,1.1-1.1H226.2z"/>
			<path d="M232.5,355.3c0,0.8,0.2,0.9,0.4,1v0.3h-1.8c-0.1-0.3-0.1-0.4-0.2-0.8c-0.4,0.4-0.9,0.9-2.1,0.9c-1,0-1.9-0.5-1.9-1.9
				c0-1.2,0.8-1.9,1.9-2l1.5-0.2c0.3,0,0.6-0.1,0.6-0.5c0-0.7-0.7-0.7-1.1-0.7c-0.8,0-1,0.5-1,0.9h-1.6c0.2-2,1.5-2.2,2.9-2.2
				c0.9,0,2.5,0.3,2.5,1.8V355.3z M230.9,353.4c-0.2,0.1-0.4,0.2-1.1,0.3c-0.6,0.1-1.1,0.3-1.1,1c0,0.6,0.5,0.8,0.8,0.8
				c0.7,0,1.5-0.5,1.5-1.3V353.4z"/>
			<path d="M239.9,356.5h-1.6v-0.8h0c-0.4,0.7-1.2,1-1.8,1c-1.9,0-2.7-1.7-2.7-3.4c0-2.2,1.2-3.3,2.7-3.3c1.1,0,1.6,0.6,1.8,1h0
				v-3.1h1.7V356.5z M236.8,355.3c1.1,0,1.5-0.9,1.5-1.8c0-1-0.3-2.1-1.4-2.1c-1.1,0-1.4,0.9-1.4,2
				C235.4,354.1,235.7,355.3,236.8,355.3z"/>
			<path d="M244.2,356.7c-1.7,0-3.3-1.1-3.3-3.4s1.5-3.4,3.3-3.4c1.7,0,3.3,1.1,3.3,3.4S246,356.7,244.2,356.7z M244.2,351.4
				c-1.3,0-1.5,1.1-1.5,1.9s0.2,1.9,1.5,1.9s1.5-1.1,1.5-1.9S245.5,351.4,244.2,351.4z"/>
			<path d="M252.3,352.1c-0.1-0.4-0.2-0.8-1.1-0.8s-1,0.3-1,0.6c0,1,4,0.3,4,2.6c0,1.9-1.8,2.2-2.8,2.2c-1.5,0-3-0.5-3.1-2.2h1.7
				c0,0.5,0.3,0.9,1.4,0.9c0.9,0,1.1-0.4,1.1-0.7c0-1.1-4-0.3-4-2.7c0-0.9,0.6-2.1,2.6-2.1c1.2,0,2.7,0.3,2.9,2.1H252.3z"/>
			<path d="M260.6,350.1h1v1.2h-1v3.5c0,0.4,0,0.5,0.7,0.5c0.1,0,0.2,0,0.3,0v1.3c-0.3,0-0.5,0-0.8,0h-0.2c-1.5,0-1.7-0.6-1.7-1.4
				v-3.9H258v-1.2h0.9v-1.7h1.7V350.1z"/>
			<path d="M264.4,349.4h-1.7v-1.6h1.7V349.4z M264.4,350.1v6.4h-1.7v-6.4H264.4z"/>
			<path d="M271.5,354.6c-0.4,1.5-1.7,2-2.8,2c-1.8,0-3.2-0.9-3.2-3.5c0-0.8,0.3-3.2,3.1-3.2c1.3,0,3,0.6,3,3.5v0.3h-4.4
				c0,0.5,0.1,1.6,1.5,1.6c0.5,0,0.9-0.2,1.1-0.7H271.5z M269.9,352.7c-0.1-1-0.8-1.3-1.3-1.3c-0.8,0-1.2,0.5-1.3,1.3H269.9z"/>
			<path d="M278.5,356.5h-1.7v-3.9c0-0.5,0-1.3-1.1-1.3c-0.7,0-1.3,0.5-1.3,1.5v3.7h-1.7v-6.4h1.6v0.9h0c0.2-0.4,0.7-1.1,1.9-1.1
				c1.2,0,2.2,0.7,2.2,2.1V356.5z"/>
			<path d="M285.5,354.6c-0.4,1.5-1.7,2-2.8,2c-1.8,0-3.2-0.9-3.2-3.5c0-0.8,0.3-3.2,3.1-3.2c1.3,0,3,0.6,3,3.5v0.3h-4.4
				c0,0.5,0.1,1.6,1.5,1.6c0.5,0,0.9-0.2,1.1-0.7H285.5z M283.9,352.7c-0.1-1-0.8-1.3-1.3-1.3c-0.8,0-1.2,0.5-1.3,1.3H283.9z"/>
			<path d="M292.5,356.5h-1.7v-3.9c0-0.5,0-1.3-1.1-1.3c-0.7,0-1.3,0.5-1.3,1.5v3.7h-1.7v-6.4h1.6v0.9h0c0.2-0.4,0.7-1.1,1.9-1.1
				c1.2,0,2.2,0.7,2.2,2.1V356.5z"/>
			<path d="M6.9,365.4L6.9,365.4c0.3-0.5,0.8-1.1,1.9-1.1c1.4,0,2.7,1.1,2.7,3.3c0,1.8-0.8,3.4-2.7,3.4c-1.2,0-1.6-0.6-1.8-1h0v3.3
				H5.2v-8.9h1.6V365.4z M8.3,369.7c1.1,0,1.4-1.2,1.4-1.9c0-1-0.4-2-1.4-2c-1.2,0-1.4,1-1.4,2.1C6.9,368.8,7.3,369.7,8.3,369.7z"/>
			<path d="M18.1,369c-0.4,1.5-1.7,2-2.8,2c-1.8,0-3.2-0.9-3.2-3.5c0-0.8,0.3-3.2,3.1-3.2c1.3,0,3,0.6,3,3.5v0.3h-4.4
				c0,0.5,0.1,1.6,1.5,1.6c0.5,0,0.9-0.2,1.1-0.7H18.1z M16.4,367.1c-0.1-1-0.8-1.3-1.3-1.3c-0.8,0-1.2,0.5-1.3,1.3H16.4z"/>
			<path d="M19.3,364.5h1.6v1.1h0c0.3-0.6,0.7-1.3,1.8-1.3c0.1,0,0.2,0,0.3,0v1.7c-0.1,0-0.3,0-0.5,0c-1.3,0-1.5,0.8-1.5,1.5v3.3
				h-1.7V364.5z"/>
			<path d="M33.1,370.9h-1.7V367c0-0.9-0.4-1.3-0.9-1.3c-0.8,0-1.1,0.6-1.1,1.3v3.8h-1.7v-3.8c0-0.5,0-1.3-1-1.3c-0.8,0-1,0.6-1,1.2
				v3.9h-1.7v-6.4h1.6v0.9h0c0.2-0.4,0.7-1.1,1.8-1.1c0.9,0,1.3,0.3,1.8,1c0.2-0.3,0.7-1,1.7-1c1.2,0,2.2,0.7,2.2,2.1V370.9z"/>
			<path d="M36.3,363.8h-1.7v-1.6h1.7V363.8z M36.3,364.5v6.4h-1.7v-6.4H36.3z"/>
			<path d="M41.6,366.5c-0.1-0.4-0.2-0.8-1.1-0.8s-1,0.3-1,0.6c0,1,4,0.3,4,2.6c0,1.9-1.8,2.2-2.8,2.2c-1.5,0-3-0.5-3.1-2.2h1.7
				c0,0.5,0.3,0.9,1.4,0.9c0.9,0,1.1-0.4,1.1-0.7c0-1.1-4-0.3-4-2.7c0-0.9,0.6-2.1,2.6-2.1c1.2,0,2.7,0.3,2.9,2.1H41.6z"/>
			<path d="M47.5,371.1c-1.7,0-3.3-1.1-3.3-3.4s1.5-3.4,3.3-3.4c1.7,0,3.3,1.1,3.3,3.4S49.2,371.1,47.5,371.1z M47.5,365.8
				c-1.3,0-1.5,1.1-1.5,1.9s0.2,1.9,1.5,1.9s1.5-1.1,1.5-1.9S48.8,365.8,47.5,365.8z"/>
			<path d="M55.6,366.5c-0.1-0.4-0.2-0.8-1.1-0.8s-1,0.3-1,0.6c0,1,4,0.3,4,2.6c0,1.9-1.8,2.2-2.8,2.2c-1.5,0-3-0.5-3.1-2.2h1.7
				c0,0.5,0.3,0.9,1.4,0.9c0.9,0,1.1-0.4,1.1-0.7c0-1.1-4-0.3-4-2.7c0-0.9,0.6-2.1,2.6-2.1c1.2,0,2.7,0.3,2.9,2.1H55.6z"/>
			<path d="M67.8,370.9h-1.6v-0.8h0c-0.4,0.7-1.2,1-1.8,1c-1.9,0-2.7-1.7-2.7-3.4c0-2.2,1.2-3.3,2.7-3.3c1.1,0,1.6,0.6,1.8,1h0v-3.1
				h1.7V370.9z M64.7,369.7c1.1,0,1.5-0.9,1.5-1.8c0-1-0.3-2.1-1.4-2.1c-1.1,0-1.4,0.9-1.4,2C63.3,368.5,63.6,369.7,64.7,369.7z"/>
			<path d="M74.8,369c-0.4,1.5-1.7,2-2.8,2c-1.8,0-3.2-0.9-3.2-3.5c0-0.8,0.3-3.2,3.1-3.2c1.3,0,3,0.6,3,3.5v0.3h-4.4
				c0,0.5,0.1,1.6,1.5,1.6c0.5,0,0.9-0.2,1.1-0.7H74.8z M73.1,367.1c-0.1-1-0.8-1.3-1.3-1.3c-0.8,0-1.2,0.5-1.3,1.3H73.1z"/>
			<path d="M82.7,370.9H81l-2.3-6.4h1.9l1.3,4.7h0l1.4-4.7H85L82.7,370.9z"/>
			<path d="M87.7,363.8H86v-1.6h1.7V363.8z M87.7,364.5v6.4H86v-6.4H87.7z"/>
			<path d="M92.9,366.5c-0.1-0.4-0.2-0.8-1.1-0.8s-1,0.3-1,0.6c0,1,4,0.3,4,2.6c0,1.9-1.8,2.2-2.8,2.2c-1.5,0-3-0.5-3.1-2.2h1.7
				c0,0.5,0.3,0.9,1.4,0.9c0.9,0,1.1-0.4,1.1-0.7c0-1.1-4-0.3-4-2.7c0-0.9,0.6-2.1,2.6-2.1c1.2,0,2.7,0.3,2.9,2.1H92.9z"/>
			<path d="M101.7,370.9h-1.6V370h0c-0.4,0.7-1.1,1.1-1.9,1.1c-1.3,0-2.2-0.7-2.2-2.4v-4.2h1.7v4c0,1,0.6,1.2,1.1,1.2
				c0.6,0,1.3-0.3,1.3-1.5v-3.7h1.7V370.9z"/>
			<path d="M108.5,369.7c0,0.8,0.2,0.9,0.4,1v0.3H107c-0.1-0.3-0.1-0.4-0.2-0.8c-0.4,0.4-0.9,0.9-2.1,0.9c-1,0-1.9-0.5-1.9-1.9
				c0-1.2,0.8-1.9,1.9-2l1.5-0.2c0.3,0,0.6-0.1,0.6-0.5c0-0.7-0.7-0.7-1.1-0.7c-0.8,0-1,0.5-1,0.9h-1.6c0.2-2,1.5-2.2,2.9-2.2
				c0.9,0,2.5,0.3,2.5,1.8V369.7z M106.8,367.8c-0.2,0.1-0.4,0.2-1.1,0.3c-0.6,0.1-1.1,0.3-1.1,1c0,0.6,0.5,0.8,0.8,0.8
				c0.7,0,1.5-0.5,1.5-1.3V367.8z"/>
			<path d="M111.7,370.9H110v-8.6h1.7V370.9z"/>
			<path d="M115.1,363.8h-1.7v-1.6h1.7V363.8z M115.1,364.5v6.4h-1.7v-6.4H115.1z"/>
			<path d="M118.3,369.5h3.3v1.4h-5.5v-1.3l3.3-3.7h-3v-1.3h5.2v1.4L118.3,369.5z"/>
			<path d="M127.8,369.7c0,0.8,0.2,0.9,0.4,1v0.3h-1.8c-0.1-0.3-0.1-0.4-0.2-0.8c-0.4,0.4-0.9,0.9-2.1,0.9c-1,0-1.9-0.5-1.9-1.9
				c0-1.2,0.8-1.9,1.9-2l1.5-0.2c0.3,0,0.6-0.1,0.6-0.5c0-0.7-0.7-0.7-1.1-0.7c-0.8,0-1,0.5-1,0.9h-1.6c0.2-2,1.5-2.2,2.9-2.2
				c0.9,0,2.5,0.3,2.5,1.8V369.7z M126.2,367.8c-0.2,0.1-0.4,0.2-1.1,0.3c-0.6,0.1-1.1,0.3-1.1,1c0,0.6,0.5,0.8,0.8,0.8
				c0.7,0,1.5-0.5,1.5-1.3V367.8z"/>
			<path d="M134.8,368.6c-0.1,0.7-0.6,2.5-2.9,2.5c-2.4,0-3-1.8-3-3.2c0-2.1,0.9-3.5,3.1-3.5c1,0,2.7,0.5,2.8,2.4h-1.7
				c-0.1-0.4-0.3-1.1-1.1-1c-1.1,0-1.3,1.1-1.3,1.8c0,0.7,0,2.1,1.3,2.1c0.9,0,1.1-0.8,1.1-1.1H134.8z"/>
			<path d="M137.7,363.8h-1.7v-1.6h1.7V363.8z M137.7,364.5v6.4h-1.7v-6.4H137.7z"/>
			<path d="M142.2,371.1c-1.7,0-3.3-1.1-3.3-3.4s1.5-3.4,3.3-3.4c1.7,0,3.3,1.1,3.3,3.4S143.9,371.1,142.2,371.1z M142.2,365.8
				c-1.3,0-1.5,1.1-1.5,1.9s0.2,1.9,1.5,1.9s1.5-1.1,1.5-1.9S143.5,365.8,142.2,365.8z M142.7,363.7h-1.2l1.1-1.8h1.8L142.7,363.7z"
				/>
			<path d="M152.4,370.9h-1.7V367c0-0.5,0-1.3-1.1-1.3c-0.7,0-1.3,0.5-1.3,1.5v3.7h-1.7v-6.4h1.6v0.9h0c0.2-0.4,0.7-1.1,1.9-1.1
				c1.2,0,2.2,0.7,2.2,2.1V370.9z"/>
			<path d="M162.8,369c-0.4,1.5-1.7,2-2.8,2c-1.8,0-3.2-0.9-3.2-3.5c0-0.8,0.3-3.2,3.1-3.2c1.3,0,3,0.6,3,3.5v0.3h-4.4
				c0,0.5,0.1,1.6,1.5,1.6c0.5,0,0.9-0.2,1.1-0.7H162.8z M161.2,367.1c-0.1-1-0.8-1.3-1.3-1.3c-0.8,0-1.2,0.5-1.3,1.3H161.2z"/>
			<path d="M169.8,370.9h-1.7V367c0-0.5,0-1.3-1.1-1.3c-0.7,0-1.3,0.5-1.3,1.5v3.7H164v-6.4h1.6v0.9h0c0.2-0.4,0.7-1.1,1.9-1.1
				c1.2,0,2.2,0.7,2.2,2.1V370.9z"/>
			<path d="M176.4,370.9h-1.7v-8.6h1.7V370.9z"/>
			<path d="M183.2,369.7c0,0.8,0.2,0.9,0.4,1v0.3h-1.8c-0.1-0.3-0.1-0.4-0.2-0.8c-0.4,0.4-0.9,0.9-2.1,0.9c-1,0-1.9-0.5-1.9-1.9
				c0-1.2,0.8-1.9,1.9-2l1.5-0.2c0.3,0,0.6-0.1,0.6-0.5c0-0.7-0.7-0.7-1.1-0.7c-0.8,0-1,0.5-1,0.9h-1.6c0.2-2,1.5-2.2,2.9-2.2
				c0.9,0,2.5,0.3,2.5,1.8V369.7z M181.5,367.8c-0.2,0.1-0.4,0.2-1.1,0.3c-0.6,0.1-1.1,0.3-1.1,1c0,0.6,0.5,0.8,0.8,0.8
				c0.7,0,1.5-0.5,1.5-1.3V367.8z"/>
			<path d="M193.5,368.6c-0.1,0.7-0.6,2.5-2.9,2.5c-2.4,0-3-1.8-3-3.2c0-2.1,0.9-3.5,3.1-3.5c1,0,2.7,0.5,2.8,2.4h-1.7
				c-0.1-0.4-0.3-1.1-1.1-1c-1.1,0-1.3,1.1-1.3,1.8c0,0.7,0,2.1,1.3,2.1c0.9,0,1.1-0.8,1.1-1.1H193.5z"/>
			<path d="M199.9,369.7c0,0.8,0.2,0.9,0.4,1v0.3h-1.8c-0.1-0.3-0.1-0.4-0.2-0.8c-0.4,0.4-0.9,0.9-2.1,0.9c-1,0-1.9-0.5-1.9-1.9
				c0-1.2,0.8-1.9,1.9-2l1.5-0.2c0.3,0,0.6-0.1,0.6-0.5c0-0.7-0.7-0.7-1.1-0.7c-0.8,0-1,0.5-1,0.9h-1.6c0.2-2,1.5-2.2,2.9-2.2
				c0.9,0,2.5,0.3,2.5,1.8V369.7z M198.2,367.8c-0.2,0.1-0.4,0.2-1.1,0.3c-0.6,0.1-1.1,0.3-1.1,1c0,0.6,0.5,0.8,0.8,0.8
				c0.7,0,1.5-0.5,1.5-1.3V367.8z"/>
			<path d="M201.4,364.5h1.6v1.1h0c0.3-0.6,0.7-1.3,1.8-1.3c0.1,0,0.2,0,0.3,0v1.7c-0.1,0-0.3,0-0.5,0c-1.3,0-1.5,0.8-1.5,1.5v3.3
				h-1.7V364.5z"/>
			<path d="M207.6,365.4L207.6,365.4c0.3-0.5,0.8-1.1,1.9-1.1c1.4,0,2.7,1.1,2.7,3.3c0,1.8-0.8,3.4-2.7,3.4c-1.2,0-1.6-0.6-1.8-1h0
				v3.3H206v-8.9h1.6V365.4z M209.1,369.7c1.1,0,1.4-1.2,1.4-1.9c0-1-0.4-2-1.4-2c-1.2,0-1.4,1-1.4,2.1
				C207.6,368.8,208,369.7,209.1,369.7z"/>
			<path d="M218.9,369c-0.4,1.5-1.7,2-2.8,2c-1.8,0-3.2-0.9-3.2-3.5c0-0.8,0.3-3.2,3.1-3.2c1.3,0,3,0.6,3,3.5v0.3h-4.4
				c0,0.5,0.1,1.6,1.5,1.6c0.5,0,0.9-0.2,1.1-0.7H218.9z M217.2,367.1c-0.1-1-0.8-1.3-1.3-1.3c-0.8,0-1.2,0.5-1.3,1.3H217.2z"/>
			<path d="M221.9,364.5h1v1.2h-1v3.5c0,0.4,0,0.5,0.7,0.5c0.1,0,0.2,0,0.3,0v1.3c-0.3,0-0.5,0-0.8,0H222c-1.5,0-1.7-0.6-1.7-1.4
				v-3.9h-0.9v-1.2h0.9v-1.7h1.7V364.5z"/>
			<path d="M229.2,369.7c0,0.8,0.2,0.9,0.4,1v0.3h-1.8c-0.1-0.3-0.1-0.4-0.2-0.8c-0.4,0.4-0.9,0.9-2.1,0.9c-1,0-1.9-0.5-1.9-1.9
				c0-1.2,0.8-1.9,1.9-2l1.5-0.2c0.3,0,0.6-0.1,0.6-0.5c0-0.7-0.7-0.7-1.1-0.7c-0.8,0-1,0.5-1,0.9h-1.6c0.2-2,1.5-2.2,2.9-2.2
				c0.9,0,2.5,0.3,2.5,1.8V369.7z M227.6,367.8c-0.2,0.1-0.4,0.2-1.1,0.3c-0.6,0.1-1.1,0.3-1.1,1c0,0.6,0.5,0.8,0.8,0.8
				c0.7,0,1.5-0.5,1.5-1.3V367.8z"/>
			<path d="M242.4,370.9h-1.7v-7.2h0l-1.6,7.2h-1.8l-1.6-7.2h0v7.2h-1.7v-8.6h2.6l1.6,6.8h0l1.5-6.8h2.6V370.9z"/>
			<path d="M249.2,369.7c0,0.8,0.2,0.9,0.4,1v0.3h-1.8c-0.1-0.3-0.1-0.4-0.2-0.8c-0.4,0.4-0.9,0.9-2.1,0.9c-1,0-1.9-0.5-1.9-1.9
				c0-1.2,0.8-1.9,1.9-2l1.5-0.2c0.3,0,0.6-0.1,0.6-0.5c0-0.7-0.7-0.7-1.1-0.7c-0.8,0-1,0.5-1,0.9h-1.6c0.2-2,1.5-2.2,2.9-2.2
				c0.9,0,2.5,0.3,2.5,1.8V369.7z M247.6,367.8c-0.2,0.1-0.4,0.2-1.1,0.3c-0.6,0.1-1.1,0.3-1.1,1c0,0.6,0.5,0.8,0.8,0.8
				c0.7,0,1.5-0.5,1.5-1.3V367.8z"/>
			<path d="M250.7,364.5h1.6v1.1h0c0.3-0.6,0.7-1.3,1.8-1.3c0.1,0,0.2,0,0.3,0v1.7c-0.1,0-0.3,0-0.5,0c-1.3,0-1.5,0.8-1.5,1.5v3.3
				h-1.7V364.5z"/>
			<path d="M257.1,370.9h-1.7v-8.6h1.7v4.7l2.1-2.4h2.1L259,367l2.3,3.9h-2l-1.5-2.7l-0.7,0.7V370.9z"/>
			<path d="M267.5,369c-0.4,1.5-1.7,2-2.8,2c-1.8,0-3.2-0.9-3.2-3.5c0-0.8,0.3-3.2,3.1-3.2c1.3,0,3,0.6,3,3.5v0.3h-4.4
				c0,0.5,0.1,1.6,1.5,1.6c0.5,0,0.9-0.2,1.1-0.7H267.5z M265.9,367.1c-0.1-1-0.8-1.3-1.3-1.3c-0.8,0-1.2,0.5-1.3,1.3H265.9z"/>
			<path d="M270.6,364.5h1v1.2h-1v3.5c0,0.4,0,0.5,0.7,0.5c0.1,0,0.2,0,0.3,0v1.3c-0.3,0-0.5,0-0.8,0h-0.2c-1.5,0-1.7-0.6-1.7-1.4
				v-3.9h-0.9v-1.2h0.9v-1.7h1.7V364.5z"/>
			<path d="M274.4,363.8h-1.7v-1.6h1.7V363.8z M274.4,364.5v6.4h-1.7v-6.4H274.4z"/>
			<path d="M281.8,370.9h-1.7V367c0-0.5,0-1.3-1.1-1.3c-0.7,0-1.3,0.5-1.3,1.5v3.7h-1.7v-6.4h1.6v0.9h0c0.2-0.4,0.7-1.1,1.9-1.1
				c1.2,0,2.2,0.7,2.2,2.1V370.9z"/>
			<path d="M289.2,364.5v6c0,1.1-0.1,2.9-3.2,2.9c-1.3,0-2.7-0.6-2.8-1.9h1.8c0.1,0.3,0.2,0.6,1.2,0.6c0.9,0,1.3-0.4,1.3-1.5V370
				l0,0c-0.3,0.5-0.7,1-1.7,1c-1.5,0-2.7-1.1-2.7-3.3c0-2.2,1.2-3.3,2.7-3.3c1.2,0,1.7,0.7,1.9,1.1h0v-0.9H289.2z M286.1,369.5
				c1.1,0,1.4-1,1.4-1.8c0-1-0.5-1.9-1.4-1.9c-0.6,0-1.3,0.5-1.3,1.9C284.8,368.6,285.2,369.5,286.1,369.5z"/>
			<path d="M292.5,370.9h-1.8v-1.8h1.8V370.9z"/>
			<path d="M11.7,378.2H7.2v1.8h4.2v1.5H7.2v2.2h4.8v1.5H5.4v-8.6h6.3V378.2z"/>
			<path d="M15,385.3h-1.7v-8.6H15V385.3z"/>
			<path d="M25.8,378.9v6c0,1.1-0.1,2.9-3.2,2.9c-1.3,0-2.7-0.6-2.8-1.9h1.8c0.1,0.3,0.2,0.6,1.2,0.6c0.9,0,1.3-0.4,1.3-1.5v-0.8
				l0,0c-0.3,0.5-0.7,1-1.7,1c-1.5,0-2.7-1.1-2.7-3.3c0-2.2,1.2-3.3,2.7-3.3c1.2,0,1.7,0.7,1.9,1.1h0v-0.9H25.8z M22.7,383.9
				c1.1,0,1.4-1,1.4-1.8c0-1-0.5-1.9-1.4-1.9c-0.6,0-1.3,0.5-1.3,1.9C21.4,383,21.7,383.9,22.7,383.9z"/>
			<path d="M27.3,378.9h1.6v1.1h0c0.3-0.6,0.7-1.3,1.8-1.3c0.1,0,0.2,0,0.3,0v1.7c-0.1,0-0.3,0-0.5,0c-1.3,0-1.5,0.8-1.5,1.5v3.3
				h-1.7V378.9z"/>
			<path d="M37.7,385.3h-1.6v-0.9h0c-0.4,0.7-1.1,1.1-1.9,1.1c-1.3,0-2.2-0.7-2.2-2.4v-4.2h1.7v4c0,1,0.6,1.2,1.1,1.2
				c0.6,0,1.3-0.3,1.3-1.5v-3.7h1.7V385.3z"/>
			<path d="M40.9,379.8L40.9,379.8c0.3-0.5,0.8-1.1,1.9-1.1c1.4,0,2.7,1.1,2.7,3.3c0,1.8-0.8,3.4-2.7,3.4c-1.2,0-1.6-0.6-1.8-1h0
				v3.3h-1.7v-8.9h1.6V379.8z M42.3,384.1c1.1,0,1.4-1.2,1.4-1.9c0-1-0.4-2-1.4-2c-1.2,0-1.4,1-1.4,2.1
				C40.9,383.2,41.3,384.1,42.3,384.1z"/>
			<path d="M49.5,385.5c-1.7,0-3.3-1.1-3.3-3.4s1.5-3.4,3.3-3.4c1.7,0,3.3,1.1,3.3,3.4S51.2,385.5,49.5,385.5z M49.5,380.2
				c-1.3,0-1.5,1.1-1.5,1.9s0.2,1.9,1.5,1.9s1.5-1.1,1.5-1.9S50.8,380.2,49.5,380.2z"/>
			<path d="M63.1,385.3h-1.6v-0.8h0c-0.4,0.7-1.2,1-1.8,1c-1.9,0-2.7-1.7-2.7-3.4c0-2.2,1.2-3.3,2.7-3.3c1.1,0,1.6,0.6,1.8,1h0v-3.1
				h1.7V385.3z M60,384.1c1.1,0,1.5-0.9,1.5-1.8c0-1-0.3-2.1-1.4-2.1c-1.1,0-1.4,0.9-1.4,2C58.6,382.9,58.9,384.1,60,384.1z"/>
			<path d="M70.1,383.4c-0.4,1.5-1.7,2-2.8,2c-1.8,0-3.2-0.9-3.2-3.5c0-0.8,0.3-3.2,3.1-3.2c1.3,0,3,0.6,3,3.5v0.3h-4.4
				c0,0.5,0.1,1.6,1.5,1.6c0.5,0,0.9-0.2,1.1-0.7H70.1z M68.4,381.5c-0.1-1-0.8-1.3-1.3-1.3c-0.8,0-1.2,0.5-1.3,1.3H68.4z"/>
			<path d="M80.4,385.3h-1.6v-0.9h0c-0.4,0.7-1.1,1.1-1.9,1.1c-1.3,0-2.2-0.7-2.2-2.4v-4.2h1.7v4c0,1,0.6,1.2,1.1,1.2
				c0.6,0,1.3-0.3,1.3-1.5v-3.7h1.7V385.3z"/>
			<path d="M85.6,380.9c-0.1-0.4-0.2-0.8-1.1-0.8s-1,0.3-1,0.6c0,1,4,0.3,4,2.6c0,1.9-1.8,2.2-2.8,2.2c-1.5,0-3-0.5-3.1-2.2h1.7
				c0,0.5,0.3,0.9,1.4,0.9c0.9,0,1.1-0.4,1.1-0.7c0-1.1-4-0.3-4-2.7c0-0.9,0.6-2.1,2.6-2.1c1.2,0,2.7,0.3,2.9,2.1H85.6z"/>
			<path d="M94.4,385.3h-1.6v-0.9h0c-0.4,0.7-1.1,1.1-1.9,1.1c-1.3,0-2.2-0.7-2.2-2.4v-4.2h1.7v4c0,1,0.6,1.2,1.1,1.2
				c0.6,0,1.3-0.3,1.3-1.5v-3.7h1.7V385.3z"/>
			<path d="M101.1,384.1c0,0.8,0.2,0.9,0.4,1v0.3h-1.8c-0.1-0.3-0.1-0.4-0.2-0.8c-0.4,0.4-0.9,0.9-2.1,0.9c-1,0-1.9-0.5-1.9-1.9
				c0-1.2,0.8-1.9,1.9-2l1.5-0.2c0.3,0,0.6-0.1,0.6-0.5c0-0.7-0.7-0.7-1.1-0.7c-0.8,0-1,0.5-1,0.9h-1.6c0.2-2,1.5-2.2,2.9-2.2
				c0.9,0,2.5,0.3,2.5,1.8V384.1z M99.5,382.2c-0.2,0.1-0.4,0.2-1.1,0.3c-0.6,0.1-1.1,0.3-1.1,1c0,0.6,0.5,0.8,0.8,0.8
				c0.7,0,1.5-0.5,1.5-1.3V382.2z"/>
			<path d="M102.6,378.9h1.6v1.1h0c0.3-0.6,0.7-1.3,1.8-1.3c0.1,0,0.2,0,0.3,0v1.7c-0.1,0-0.3,0-0.5,0c-1.3,0-1.5,0.8-1.5,1.5v3.3
				h-1.7V378.9z"/>
			<path d="M109,378.2h-1.7v-1.6h1.7V378.2z M109,378.9v6.4h-1.7v-6.4H109z"/>
			<path d="M113.5,385.5c-1.7,0-3.3-1.1-3.3-3.4s1.5-3.4,3.3-3.4c1.7,0,3.3,1.1,3.3,3.4S115.2,385.5,113.5,385.5z M113.5,380.2
				c-1.3,0-1.5,1.1-1.5,1.9s0.2,1.9,1.5,1.9s1.5-1.1,1.5-1.9S114.8,380.2,113.5,380.2z"/>
			<path d="M121.6,380.9c-0.1-0.4-0.2-0.8-1.1-0.8s-1,0.3-1,0.6c0,1,4,0.3,4,2.6c0,1.9-1.8,2.2-2.8,2.2c-1.5,0-3-0.5-3.1-2.2h1.7
				c0,0.5,0.3,0.9,1.4,0.9c0.9,0,1.1-0.4,1.1-0.7c0-1.1-4-0.3-4-2.7c0-0.9,0.6-2.1,2.6-2.1c1.2,0,2.7,0.3,2.9,2.1H121.6z"/>
			<path d="M136.4,385.3h-1.7v-7.2h0l-1.6,7.2h-1.8l-1.6-7.2h0v7.2H128v-8.6h2.6l1.6,6.8h0l1.5-6.8h2.6V385.3z"/>
			<path d="M143.1,384.1c0,0.8,0.2,0.9,0.4,1v0.3h-1.8c-0.1-0.3-0.1-0.4-0.2-0.8c-0.4,0.4-0.9,0.9-2.1,0.9c-1,0-1.9-0.5-1.9-1.9
				c0-1.2,0.8-1.9,1.9-2l1.5-0.2c0.3,0,0.6-0.1,0.6-0.5c0-0.7-0.7-0.7-1.1-0.7c-0.8,0-1,0.5-1,0.9h-1.6c0.2-2,1.5-2.2,2.9-2.2
				c0.9,0,2.5,0.3,2.5,1.8V384.1z M141.5,382.2c-0.2,0.1-0.4,0.2-1.1,0.3c-0.6,0.1-1.1,0.3-1.1,1c0,0.6,0.5,0.8,0.8,0.8
				c0.7,0,1.5-0.5,1.5-1.3V382.2z"/>
			<path d="M144.6,378.9h1.6v1.1h0c0.3-0.6,0.7-1.3,1.8-1.3c0.1,0,0.2,0,0.3,0v1.7c-0.1,0-0.3,0-0.5,0c-1.3,0-1.5,0.8-1.5,1.5v3.3
				h-1.7V378.9z"/>
			<path d="M151,385.3h-1.7v-8.6h1.7v4.7l2.1-2.4h2.1l-2.3,2.5l2.3,3.9h-2l-1.5-2.7l-0.7,0.7V385.3z"/>
			<path d="M161.5,383.4c-0.4,1.5-1.7,2-2.8,2c-1.8,0-3.2-0.9-3.2-3.5c0-0.8,0.3-3.2,3.1-3.2c1.3,0,3,0.6,3,3.5v0.3h-4.4
				c0,0.5,0.1,1.6,1.5,1.6c0.5,0,0.9-0.2,1.1-0.7H161.5z M159.8,381.5c-0.1-1-0.8-1.3-1.3-1.3c-0.8,0-1.2,0.5-1.3,1.3H159.8z"/>
			<path d="M164.5,378.9h1v1.2h-1v3.5c0,0.4,0,0.5,0.7,0.5c0.1,0,0.2,0,0.3,0v1.3c-0.3,0-0.5,0-0.8,0h-0.2c-1.5,0-1.7-0.6-1.7-1.4
				v-3.9H162v-1.2h0.9v-1.7h1.7V378.9z"/>
			<path d="M168.4,378.2h-1.7v-1.6h1.7V378.2z M168.4,378.9v6.4h-1.7v-6.4H168.4z"/>
			<path d="M175.8,385.3h-1.7v-3.9c0-0.5,0-1.3-1.1-1.3c-0.7,0-1.3,0.5-1.3,1.5v3.7H170v-6.4h1.6v0.9h0c0.2-0.4,0.7-1.1,1.9-1.1
				c1.2,0,2.2,0.7,2.2,2.1V385.3z"/>
			<path d="M183.2,378.9v6c0,1.1-0.1,2.9-3.2,2.9c-1.3,0-2.7-0.6-2.8-1.9h1.8c0.1,0.3,0.2,0.6,1.2,0.6c0.9,0,1.3-0.4,1.3-1.5v-0.8
				l0,0c-0.3,0.5-0.7,1-1.7,1c-1.5,0-2.7-1.1-2.7-3.3c0-2.2,1.2-3.3,2.7-3.3c1.2,0,1.7,0.7,1.9,1.1h0v-0.9H183.2z M180.1,383.9
				c1.1,0,1.4-1,1.4-1.8c0-1-0.5-1.9-1.4-1.9c-0.6,0-1.3,0.5-1.3,1.9C178.8,383,179.1,383.9,180.1,383.9z"/>
			<path d="M189.9,378.9h1v1.2h-1v3.5c0,0.4,0,0.5,0.7,0.5c0.1,0,0.2,0,0.3,0v1.3c-0.3,0-0.5,0-0.8,0h-0.2c-1.5,0-1.7-0.6-1.7-1.4
				v-3.9h-0.9v-1.2h0.9v-1.7h1.7V378.9z"/>
			<path d="M193.7,378.2H192v-1.6h1.7V378.2z M193.7,378.9v6.4H192v-6.4H193.7z"/>
			<path d="M200.8,383.4c-0.4,1.5-1.7,2-2.8,2c-1.8,0-3.2-0.9-3.2-3.5c0-0.8,0.3-3.2,3.1-3.2c1.3,0,3,0.6,3,3.5v0.3h-4.4
				c0,0.5,0.1,1.6,1.5,1.6c0.5,0,0.9-0.2,1.1-0.7H200.8z M199.1,381.5c-0.1-1-0.8-1.3-1.3-1.3c-0.8,0-1.2,0.5-1.3,1.3H199.1z"/>
			<path d="M207.8,385.3h-1.7v-3.9c0-0.5,0-1.3-1.1-1.3c-0.7,0-1.3,0.5-1.3,1.5v3.7H202v-6.4h1.6v0.9h0c0.2-0.4,0.7-1.1,1.9-1.1
				c1.2,0,2.2,0.7,2.2,2.1V385.3z"/>
			<path d="M214.8,383.4c-0.4,1.5-1.7,2-2.8,2c-1.8,0-3.2-0.9-3.2-3.5c0-0.8,0.3-3.2,3.1-3.2c1.3,0,3,0.6,3,3.5v0.3h-4.4
				c0,0.5,0.1,1.6,1.5,1.6c0.5,0,0.9-0.2,1.1-0.7H214.8z M213.2,381.5c-0.1-1-0.8-1.3-1.3-1.3c-0.8,0-1.2,0.5-1.3,1.3H213.2z"/>
			<path d="M220.9,379.8L220.9,379.8c0.3-0.5,0.8-1.1,1.9-1.1c1.4,0,2.7,1.1,2.7,3.3c0,1.8-0.8,3.4-2.7,3.4c-1.2,0-1.6-0.6-1.8-1h0
				v3.3h-1.7v-8.9h1.6V379.8z M222.4,384.1c1.1,0,1.4-1.2,1.4-1.9c0-1-0.4-2-1.4-2c-1.2,0-1.4,1-1.4,2.1
				C220.9,383.2,221.3,384.1,222.4,384.1z"/>
			<path d="M232.1,383.4c-0.4,1.5-1.7,2-2.8,2c-1.8,0-3.2-0.9-3.2-3.5c0-0.8,0.3-3.2,3.1-3.2c1.3,0,3,0.6,3,3.5v0.3h-4.4
				c0,0.5,0.1,1.6,1.5,1.6c0.5,0,0.9-0.2,1.1-0.7H232.1z M230.5,381.5c-0.1-1-0.8-1.3-1.3-1.3c-0.8,0-1.2,0.5-1.3,1.3H230.5z"/>
			<path d="M233.3,378.9h1.6v1.1h0c0.3-0.6,0.7-1.3,1.8-1.3c0.1,0,0.2,0,0.3,0v1.7c-0.1,0-0.3,0-0.5,0c-1.3,0-1.5,0.8-1.5,1.5v3.3
				h-1.7V378.9z"/>
			<path d="M247.1,385.3h-1.7v-3.9c0-0.9-0.4-1.3-0.9-1.3c-0.8,0-1.1,0.6-1.1,1.3v3.8h-1.7v-3.8c0-0.5,0-1.3-1-1.3
				c-0.8,0-1,0.6-1,1.2v3.9H238v-6.4h1.6v0.9h0c0.2-0.4,0.7-1.1,1.8-1.1c0.9,0,1.3,0.3,1.8,1c0.2-0.3,0.7-1,1.7-1
				c1.2,0,2.2,0.7,2.2,2.1V385.3z"/>
			<path d="M250.4,378.2h-1.7v-1.6h1.7V378.2z M250.4,378.9v6.4h-1.7v-6.4H250.4z"/>
			<path d="M255.6,380.9c-0.1-0.4-0.2-0.8-1.1-0.8s-1,0.3-1,0.6c0,1,4,0.3,4,2.6c0,1.9-1.8,2.2-2.8,2.2c-1.5,0-3-0.5-3.1-2.2h1.7
				c0,0.5,0.3,0.9,1.4,0.9c0.9,0,1.1-0.4,1.1-0.7c0-1.1-4-0.3-4-2.7c0-0.9,0.6-2.1,2.6-2.1c1.2,0,2.7,0.3,2.9,2.1H255.6z"/>
			<path d="M261.6,385.5c-1.7,0-3.3-1.1-3.3-3.4s1.5-3.4,3.3-3.4s3.3,1.1,3.3,3.4S263.3,385.5,261.6,385.5z M261.6,380.2
				c-1.3,0-1.5,1.1-1.5,1.9s0.2,1.9,1.5,1.9s1.5-1.1,1.5-1.9S262.9,380.2,261.6,380.2z"/>
			<path d="M269.6,380.9c-0.1-0.4-0.2-0.8-1.1-0.8c-0.9,0-1,0.3-1,0.6c0,1,4,0.3,4,2.6c0,1.9-1.8,2.2-2.8,2.2c-1.5,0-3-0.5-3.1-2.2
				h1.7c0,0.5,0.3,0.9,1.4,0.9c0.9,0,1.1-0.4,1.1-0.7c0-1.1-4-0.3-4-2.7c0-0.9,0.6-2.1,2.6-2.1c1.2,0,2.7,0.3,2.9,2.1H269.6z"/>
			<path d="M281.9,385.3h-1.6v-0.8h0c-0.4,0.7-1.2,1-1.8,1c-1.9,0-2.7-1.7-2.7-3.4c0-2.2,1.2-3.3,2.7-3.3c1.1,0,1.6,0.6,1.8,1h0
				v-3.1h1.7V385.3z M278.8,384.1c1.1,0,1.5-0.9,1.5-1.8c0-1-0.3-2.1-1.4-2.1c-1.1,0-1.4,0.9-1.4,2
				C277.4,382.9,277.7,384.1,278.8,384.1z"/>
			<path d="M288.8,383.4c-0.4,1.5-1.7,2-2.8,2c-1.8,0-3.2-0.9-3.2-3.5c0-0.8,0.3-3.2,3.1-3.2c1.3,0,3,0.6,3,3.5v0.3h-4.4
				c0,0.5,0.1,1.6,1.5,1.6c0.5,0,0.9-0.2,1.1-0.7H288.8z M287.2,381.5c-0.1-1-0.8-1.3-1.3-1.3c-0.8,0-1.2,0.5-1.3,1.3H287.2z"/>
			<path d="M298.8,383.4c-0.4,1.5-1.7,2-2.8,2c-1.8,0-3.2-0.9-3.2-3.5c0-0.8,0.3-3.2,3.1-3.2c1.3,0,3,0.6,3,3.5v0.3h-4.4
				c0,0.5,0.1,1.6,1.5,1.6c0.5,0,0.9-0.2,1.1-0.7H298.8z M297.2,381.5c-0.1-1-0.8-1.3-1.3-1.3c-0.8,0-1.2,0.5-1.3,1.3H297.2z"/>
			<path d="M305.9,385.3h-1.6v-0.8h0c-0.4,0.7-1.2,1-1.8,1c-1.9,0-2.7-1.7-2.7-3.4c0-2.2,1.2-3.3,2.7-3.3c1.1,0,1.6,0.6,1.8,1h0
				v-3.1h1.7V385.3z M302.8,384.1c1.1,0,1.5-0.9,1.5-1.8c0-1-0.3-2.1-1.4-2.1c-1.1,0-1.4,0.9-1.4,2
				C301.4,382.9,301.7,384.1,302.8,384.1z"/>
			<path d="M309.1,378.2h-1.7v-1.6h1.7V378.2z M309.1,378.9v6.4h-1.7v-6.4H309.1z"/>
			<path d="M316.2,383c-0.1,0.7-0.6,2.5-2.9,2.5c-2.4,0-3-1.8-3-3.2c0-2.1,0.9-3.5,3.1-3.5c1,0,2.7,0.5,2.8,2.4h-1.7
				c-0.1-0.4-0.3-1.1-1.1-1c-1.1,0-1.3,1.1-1.3,1.8c0,0.7,0,2.1,1.3,2.1c0.9,0,1.1-0.8,1.1-1.1H316.2z"/>
			<path d="M319.1,378.2h-1.7v-1.6h1.7V378.2z M319.1,378.9v6.4h-1.7v-6.4H319.1z"/>
			<path d="M323.6,385.5c-1.7,0-3.3-1.1-3.3-3.4s1.5-3.4,3.3-3.4s3.3,1.1,3.3,3.4S325.3,385.5,323.6,385.5z M323.6,380.2
				c-1.3,0-1.5,1.1-1.5,1.9s0.2,1.9,1.5,1.9s1.5-1.1,1.5-1.9S324.9,380.2,323.6,380.2z M324.1,378.1h-1.2l1.1-1.8h1.8L324.1,378.1z"
				/>
			<path d="M333.8,385.3h-1.7v-3.9c0-0.5,0-1.3-1.1-1.3c-0.7,0-1.3,0.5-1.3,1.5v3.7H328v-6.4h1.6v0.9h0c0.2-0.4,0.7-1.1,1.9-1.1
				c1.2,0,2.2,0.7,2.2,2.1V385.3z"/>
			<path d="M337.2,385.3h-1.8v-1.8h1.8V385.3z"/>
		</g>
	</g>
</g>
<path pointer-events="stroke" class="st7" d="M78.5,224.5v-142"/>
<path pointer-events="stroke" class="st7" d="M79.5,82.5l54-0.3"/>
<path pointer-events="all" class="st8" d="M138.7,82.1l-7,3.5l1.7-3.5l-1.8-3.5L138.7,82.1z"/>
<path pointer-events="stroke" class="st7" d="M113.2,251.2l212.9,0.9"/>
<path pointer-events="all" class="st8" d="M331.4,252.2l-7,3.5l1.8-3.5l-1.7-3.5L331.4,252.2z"/>
<rect x="22.5" y="222.5" pointer-events="all" class="st1" width="90" height="70"/>
<path pointer-events="all" class="st9" d="M70.2,231.8l10.3-8.2c0.9-0.7,2-1.1,3.3-1.1h23.3c2.4,0,5.3,1.7,5.3,4.7v4.6H70.2z
	 M22.5,292.5v-52.6c0-2.6,2.7-4.6,5.3-4.6h84.7v57.2H22.5z"/>
<g class="st3">
	<path d="M48.5,311h-1.7v-7.2h0l-1.6,7.2h-1.8l-1.6-7.2h0v7.2h-1.7v-8.6h2.6l1.6,6.8h0l1.5-6.8h2.6V311z"/>
	<path d="M55.3,309.8c0,0.8,0.2,0.9,0.4,1v0.3h-1.8c-0.1-0.3-0.1-0.4-0.2-0.8c-0.4,0.4-0.9,0.9-2.1,0.9c-1,0-1.9-0.5-1.9-1.9
		c0-1.2,0.8-1.9,1.9-2l1.5-0.2c0.3,0,0.6-0.1,0.6-0.5c0-0.7-0.7-0.7-1.1-0.7c-0.8,0-1,0.5-1,0.9h-1.6c0.2-2,1.5-2.2,2.9-2.2
		c0.9,0,2.5,0.3,2.5,1.8V309.8z M53.7,307.9c-0.2,0.1-0.4,0.2-1.1,0.3c-0.6,0.1-1.1,0.3-1.1,1c0,0.6,0.5,0.8,0.8,0.8
		c0.7,0,1.5-0.5,1.5-1.3V307.9z"/>
	<path d="M56.8,304.6h1.6v1.1h0c0.3-0.6,0.7-1.3,1.8-1.3c0.1,0,0.2,0,0.3,0v1.7c-0.1,0-0.3,0-0.5,0c-1.3,0-1.5,0.8-1.5,1.5v3.3h-1.7
		V304.6z"/>
	<path d="M63.2,311h-1.7v-8.6h1.7v4.7l2.1-2.4h2.1l-2.3,2.5l2.3,3.9h-2l-1.5-2.7l-0.7,0.7V311z"/>
	<path d="M73.6,309.1c-0.4,1.5-1.7,2-2.8,2c-1.8,0-3.2-0.9-3.2-3.5c0-0.8,0.3-3.2,3.1-3.2c1.3,0,3,0.6,3,3.5v0.3h-4.4
		c0,0.5,0.1,1.6,1.5,1.6c0.5,0,0.9-0.2,1.1-0.7H73.6z M72,307.2c-0.1-1-0.8-1.3-1.3-1.3c-0.8,0-1.2,0.5-1.3,1.3H72z"/>
	<path d="M76.7,304.6h1v1.2h-1v3.5c0,0.4,0,0.5,0.7,0.5c0.1,0,0.2,0,0.3,0v1.3c-0.3,0-0.5,0-0.8,0h-0.2c-1.5,0-1.7-0.6-1.7-1.4v-3.9
		h-0.9v-1.2H75v-1.7h1.7V304.6z"/>
	<path d="M80.5,303.9h-1.7v-1.6h1.7V303.9z M80.5,304.6v6.4h-1.7v-6.4H80.5z"/>
	<path d="M87.9,311h-1.7v-3.9c0-0.5,0-1.3-1.1-1.3c-0.7,0-1.3,0.5-1.3,1.5v3.7h-1.7v-6.4h1.6v0.9h0c0.2-0.4,0.7-1.1,1.9-1.1
		c1.2,0,2.2,0.7,2.2,2.1V311z"/>
	<path d="M95.3,304.6v6c0,1.1-0.1,2.9-3.2,2.9c-1.3,0-2.7-0.6-2.8-1.9h1.8c0.1,0.3,0.2,0.6,1.2,0.6c0.9,0,1.3-0.4,1.3-1.5v-0.8l0,0
		c-0.3,0.5-0.7,1-1.7,1c-1.5,0-2.7-1.1-2.7-3.3c0-2.2,1.2-3.3,2.7-3.3c1.2,0,1.7,0.7,1.9,1.1h0v-0.9H95.3z M92.2,309.6
		c1.1,0,1.4-1,1.4-1.8c0-1-0.5-1.9-1.4-1.9c-0.6,0-1.3,0.5-1.3,1.9C90.9,308.7,91.2,309.6,92.2,309.6z"/>
</g>
</svg>
