<?xml version="1.0" encoding="utf-8"?>
<!-- Generator: Adobe Illustrator 26.5.2, SVG Export Plug-In . SVG Version: 6.00 Build 0)  -->
<svg version="1.1" id="Layer_1" xmlns="http://www.w3.org/2000/svg" xmlns:xlink="http://www.w3.org/1999/xlink" x="0px" y="0px"
	 width="493px" height="356px" viewBox="0 0 493 356" style="enable-background:new 0 0 493 356;" xml:space="preserve">
<style type="text/css">
	.st0{fill:#FFFFFF;stroke:#000000;stroke-miterlimit:10;}
	.st1{fill:#FFB366;}
	.st2{enable-background:new    ;}
	.st3{fill:none;stroke:#000000;stroke-miterlimit:10;}
	.st4{stroke:#000000;stroke-miterlimit:10;}
	.st5{fill:none;}
	.st6{fill:#EDED00;}
</style>
<rect x="-8.8" y="-13.8" class="st0" width="511.3" height="384.5"/>
<path pointer-events="all" class="st1" d="M421.9,35.1c-5.3,0.2-9.1-1.6-11.4-3.7c2.5-3.6,3-7.5,0.9-11.5c2.9-2.1,6.4-2.9,9.7-2.9
	c7.6,0.2,13,4.6,12.5,9.7C433.4,30.3,429.5,34.6,421.9,35.1z M415,53.3c0.1-2.1,0.3-4.4,0.1-6.1c-0.4-3.4-2.4-7.1-6.3-10
	c0.8-0.8,1.5-1.4,2.3-1.8c4.4,2.3,12.4,3.5,19.5,0c3.3,2.2,4.7,4.8,4.8,7.4c0.1,2.3-0.1,4.3-0.4,6c-0.3,3.5-3.5,4.5-9,4.5L415,53.3z
	 M392.9,37.4c-9.3,0-17.7-5-17.7-12.8c0-6.5,8.1-12.1,17.4-12.1c9.4,0,17.8,5.1,17.8,12.5C410.4,32.3,401.8,37.4,392.9,37.4z
	 M383.2,62.3c-6.5-0.3-10.3-2.1-10.5-5.7c-0.3-3.6,0-6.1,0-9c0.5-4.5,3.3-7.6,6.6-9.8c9.4,4.7,20.4,3.4,26.9,0
	c3.7,2.4,6.3,5.8,6.6,9.7c0.1,3.5-0.1,6.9-0.6,9.6c-0.2,1.6-1.6,3.2-3.7,4.1c-1.8,0.7-4.2,1-7,1.1c-1.2,0.1-10.6,0-14.9,0
	C385.6,62.4,384.5,62.4,383.2,62.3z"/>
<g transform="translate(-0.5 -0.5)">
	<g class="st2">
		<path d="M369,76.9h3.6v4.6h-1.2l-0.2-1.1c-0.5,0.5-1.1,1.3-2.7,1.3c-2.1,0-4-1.5-4-4.5c0-2.4,1.3-4.6,4.2-4.6
			c2.6,0,3.7,1.7,3.8,2.9h-1.8c0-0.3-0.6-1.4-1.9-1.4c-1.3,0-2.5,0.9-2.5,3.1c0,2.4,1.3,3,2.5,3c0.4,0,1.7-0.2,2.1-1.9h-2V76.9z"/>
		<path d="M374.1,75.1h1.6v1.1h0c0.3-0.6,0.7-1.3,1.8-1.3c0.1,0,0.2,0,0.3,0v1.7c-0.1,0-0.3,0-0.5,0c-1.3,0-1.5,0.8-1.5,1.5v3.3
			h-1.7V75.1z"/>
		<path d="M384.6,81.5H383v-0.9h0c-0.4,0.7-1.1,1.1-1.9,1.1c-1.3,0-2.2-0.7-2.2-2.4v-4.2h1.7v4c0,1,0.6,1.2,1.1,1.2
			c0.6,0,1.3-0.3,1.3-1.5v-3.7h1.7V81.5z"/>
		<path d="M387.7,76L387.7,76c0.3-0.5,0.8-1.1,1.9-1.1c1.4,0,2.7,1.1,2.7,3.3c0,1.8-0.8,3.4-2.7,3.4c-1.2,0-1.6-0.6-1.8-1h0V84h-1.7
			v-8.9h1.6V76z M389.2,80.3c1.1,0,1.4-1.2,1.4-1.9c0-1-0.4-2-1.4-2c-1.2,0-1.4,1-1.4,2.1C387.7,79.4,388.1,80.3,389.2,80.3z"/>
		<path d="M396.4,81.7c-1.7,0-3.3-1.1-3.3-3.4s1.5-3.4,3.3-3.4c1.7,0,3.3,1.1,3.3,3.4S398.1,81.7,396.4,81.7z M396.4,76.4
			c-1.3,0-1.5,1.1-1.5,1.9s0.2,1.9,1.5,1.9c1.3,0,1.5-1.1,1.5-1.9S397.7,76.4,396.4,76.4z"/>
		<path d="M406.7,81.5h-1.8v-7.1h-2.6v-1.5h7v1.5h-2.6V81.5z"/>
		<path d="M412.2,81.7c-1.7,0-3.3-1.1-3.3-3.4s1.5-3.4,3.3-3.4c1.7,0,3.3,1.1,3.3,3.4S413.9,81.7,412.2,81.7z M412.2,76.4
			c-1.3,0-1.5,1.1-1.5,1.9s0.2,1.9,1.5,1.9c1.3,0,1.5-1.1,1.5-1.9S413.5,76.4,412.2,76.4z"/>
		<path d="M422.5,81.5h-1.6v-0.8h0c-0.4,0.7-1.2,1-1.8,1c-1.9,0-2.7-1.7-2.7-3.4c0-2.2,1.2-3.3,2.7-3.3c1.1,0,1.6,0.6,1.8,1h0v-3.1
			h1.7V81.5z M419.4,80.3c1.1,0,1.5-0.9,1.5-1.8c0-1-0.3-2.1-1.4-2.1c-1.1,0-1.4,0.9-1.4,2C418,79.1,418.3,80.3,419.4,80.3z"/>
		<path d="M426.9,81.7c-1.7,0-3.3-1.1-3.3-3.4s1.5-3.4,3.3-3.4c1.7,0,3.3,1.1,3.3,3.4S428.6,81.7,426.9,81.7z M426.9,76.4
			c-1.3,0-1.5,1.1-1.5,1.9s0.2,1.9,1.5,1.9c1.3,0,1.5-1.1,1.5-1.9S428.2,76.4,426.9,76.4z"/>
		<path d="M434.9,77.1c-0.1-0.4-0.2-0.8-1.1-0.8c-0.9,0-1,0.3-1,0.6c0,1,4,0.3,4,2.6c0,1.9-1.8,2.2-2.8,2.2c-1.5,0-3-0.5-3.1-2.2
			h1.7c0,0.5,0.3,0.9,1.4,0.9c0.9,0,1.1-0.4,1.1-0.7c0-1.1-4-0.3-4-2.7c0-0.9,0.6-2.1,2.6-2.1c1.2,0,2.7,0.3,2.9,2.1H434.9z"/>
		<path d="M330.8,95.9h-1.7v-8.6h1.7V95.9z"/>
		<path d="M335.3,96.1c-1.7,0-3.3-1.1-3.3-3.4s1.5-3.4,3.3-3.4c1.7,0,3.3,1.1,3.3,3.4S337,96.1,335.3,96.1z M335.3,90.8
			c-1.3,0-1.5,1.1-1.5,1.9s0.2,1.9,1.5,1.9c1.3,0,1.5-1.1,1.5-1.9S336.6,90.8,335.3,90.8z"/>
		<path d="M343.3,91.5c-0.1-0.4-0.2-0.8-1.1-0.8c-0.9,0-1,0.3-1,0.6c0,1,4,0.3,4,2.6c0,1.9-1.8,2.2-2.8,2.2c-1.5,0-3-0.5-3.1-2.2
			h1.7c0,0.5,0.3,0.9,1.4,0.9c0.9,0,1.1-0.4,1.1-0.7c0-1.1-4-0.3-4-2.7c0-0.9,0.6-2.1,2.6-2.1c1.2,0,2.7,0.3,2.9,2.1H343.3z"/>
		<path d="M355.5,95.9h-1.6V95h0c-0.4,0.7-1.1,1.1-1.9,1.1c-1.3,0-2.2-0.7-2.2-2.4v-4.2h1.7v4c0,1,0.6,1.2,1.1,1.2
			c0.6,0,1.3-0.3,1.3-1.5v-3.7h1.7V95.9z"/>
		<path d="M360.7,91.5c-0.1-0.4-0.2-0.8-1.1-0.8c-0.9,0-1,0.3-1,0.6c0,1,4,0.3,4,2.6c0,1.9-1.8,2.2-2.8,2.2c-1.5,0-3-0.5-3.1-2.2
			h1.7c0,0.5,0.3,0.9,1.4,0.9c0.9,0,1.1-0.4,1.1-0.7c0-1.1-4-0.3-4-2.7c0-0.9,0.6-2.1,2.6-2.1c1.2,0,2.7,0.3,2.9,2.1H360.7z"/>
		<path d="M369.5,95.9h-1.6V95h0c-0.4,0.7-1.1,1.1-1.9,1.1c-1.3,0-2.2-0.7-2.2-2.4v-4.2h1.7v4c0,1,0.6,1.2,1.1,1.2
			c0.6,0,1.3-0.3,1.3-1.5v-3.7h1.7V95.9z"/>
		<path d="M376.2,94.7c0,0.8,0.2,0.9,0.4,1v0.3h-1.8c-0.1-0.3-0.1-0.4-0.2-0.8c-0.4,0.4-0.9,0.9-2.1,0.9c-1,0-1.9-0.5-1.9-1.9
			c0-1.2,0.8-1.9,1.9-2l1.5-0.2c0.3,0,0.6-0.1,0.6-0.5c0-0.7-0.7-0.7-1.1-0.7c-0.8,0-1,0.5-1,0.9h-1.6c0.2-2,1.5-2.2,2.9-2.2
			c0.9,0,2.5,0.3,2.5,1.8V94.7z M374.6,92.8c-0.2,0.1-0.4,0.2-1.1,0.3c-0.6,0.1-1.1,0.3-1.1,1c0,0.6,0.5,0.8,0.8,0.8
			c0.7,0,1.5-0.5,1.5-1.3V92.8z"/>
		<path d="M377.7,89.5h1.6v1.1h0c0.3-0.6,0.7-1.3,1.8-1.3c0.1,0,0.2,0,0.3,0v1.7c-0.1,0-0.3,0-0.5,0c-1.3,0-1.5,0.8-1.5,1.5v3.3
			h-1.7V89.5z"/>
		<path d="M384.1,88.8h-1.7v-1.6h1.7V88.8z M384.1,89.5v6.4h-1.7v-6.4H384.1z"/>
		<path d="M388.6,96.1c-1.7,0-3.3-1.1-3.3-3.4s1.5-3.4,3.3-3.4c1.7,0,3.3,1.1,3.3,3.4S390.3,96.1,388.6,96.1z M388.6,90.8
			c-1.3,0-1.5,1.1-1.5,1.9s0.2,1.9,1.5,1.9c1.3,0,1.5-1.1,1.5-1.9S389.9,90.8,388.6,90.8z"/>
		<path d="M396.7,91.5c-0.1-0.4-0.2-0.8-1.1-0.8c-0.9,0-1,0.3-1,0.6c0,1,4,0.3,4,2.6c0,1.9-1.8,2.2-2.8,2.2c-1.5,0-3-0.5-3.1-2.2
			h1.7c0,0.5,0.3,0.9,1.4,0.9c0.9,0,1.1-0.4,1.1-0.7c0-1.1-4-0.3-4-2.7c0-0.9,0.6-2.1,2.6-2.1c1.2,0,2.7,0.3,2.9,2.1H396.7z"/>
		<path d="M408.2,94.7c0,0.8,0.2,0.9,0.4,1v0.3h-1.8c-0.1-0.3-0.1-0.4-0.2-0.8c-0.4,0.4-0.9,0.9-2.1,0.9c-1,0-1.9-0.5-1.9-1.9
			c0-1.2,0.8-1.9,1.9-2l1.5-0.2c0.3,0,0.6-0.1,0.6-0.5c0-0.7-0.7-0.7-1.1-0.7c-0.8,0-1,0.5-1,0.9h-1.6c0.2-2,1.5-2.2,2.9-2.2
			c0.9,0,2.5,0.3,2.5,1.8V94.7z M406.6,92.8c-0.2,0.1-0.4,0.2-1.1,0.3c-0.6,0.1-1.1,0.3-1.1,1c0,0.6,0.5,0.8,0.8,0.8
			c0.7,0,1.5-0.5,1.5-1.3V92.8z"/>
		<path d="M415.5,95.9h-1.6V95h0c-0.4,0.7-1.1,1.1-1.9,1.1c-1.3,0-2.2-0.7-2.2-2.4v-4.2h1.7v4c0,1,0.6,1.2,1.1,1.2
			c0.6,0,1.3-0.3,1.3-1.5v-3.7h1.7V95.9z"/>
		<path d="M419,89.5h1v1.2h-1v3.5c0,0.4,0,0.5,0.7,0.5c0.1,0,0.2,0,0.3,0v1.3c-0.3,0-0.5,0-0.8,0H419c-1.5,0-1.7-0.6-1.7-1.4v-3.9
			h-0.9v-1.2h0.9v-1.7h1.7V89.5z"/>
		<path d="M426.5,94c-0.4,1.5-1.7,2-2.8,2c-1.8,0-3.2-0.9-3.2-3.5c0-0.8,0.3-3.2,3.1-3.2c1.3,0,3,0.6,3,3.5v0.3h-4.4
			c0,0.5,0.1,1.6,1.5,1.6c0.5,0,0.9-0.2,1.1-0.7H426.5z M424.9,92.1c-0.1-1-0.8-1.3-1.3-1.3c-0.8,0-1.2,0.5-1.3,1.3H424.9z"/>
		<path d="M433.5,95.9h-1.7V92c0-0.5,0-1.3-1.1-1.3c-0.7,0-1.3,0.5-1.3,1.5v3.7h-1.7v-6.4h1.6v0.9h0c0.2-0.4,0.7-1.1,1.9-1.1
			c1.2,0,2.2,0.7,2.2,2.1V95.9z"/>
		<path d="M437,89.5h1v1.2h-1v3.5c0,0.4,0,0.5,0.7,0.5c0.1,0,0.2,0,0.3,0v1.3c-0.3,0-0.5,0-0.8,0H437c-1.5,0-1.7-0.6-1.7-1.4v-3.9
			h-0.9v-1.2h0.9v-1.7h1.7V89.5z"/>
		<path d="M440.8,88.8h-1.7v-1.6h1.7V88.8z M440.8,89.5v6.4h-1.7v-6.4H440.8z"/>
		<path d="M447.9,93.6c-0.1,0.7-0.6,2.5-2.9,2.5c-2.4,0-3-1.8-3-3.2c0-2.1,0.9-3.5,3.1-3.5c1,0,2.7,0.5,2.8,2.4h-1.7
			c-0.1-0.4-0.3-1.1-1.1-1c-1.1,0-1.3,1.1-1.3,1.8c0,0.7,0,2.1,1.3,2.1c0.9,0,1.1-0.8,1.1-1.1H447.9z"/>
		<path d="M454.2,94.7c0,0.8,0.2,0.9,0.4,1v0.3h-1.8c-0.1-0.3-0.1-0.4-0.2-0.8c-0.4,0.4-0.9,0.9-2.1,0.9c-1,0-1.9-0.5-1.9-1.9
			c0-1.2,0.8-1.9,1.9-2l1.5-0.2c0.3,0,0.6-0.1,0.6-0.5c0-0.7-0.7-0.7-1.1-0.7c-0.8,0-1,0.5-1,0.9h-1.6c0.2-2,1.5-2.2,2.9-2.2
			c0.9,0,2.5,0.3,2.5,1.8V94.7z M452.6,92.8c-0.2,0.1-0.4,0.2-1.1,0.3c-0.6,0.1-1.1,0.3-1.1,1c0,0.6,0.5,0.8,0.8,0.8
			c0.7,0,1.5-0.5,1.5-1.3V92.8z"/>
		<path d="M461.6,95.9h-1.6v-0.8h0c-0.4,0.7-1.2,1-1.8,1c-1.9,0-2.7-1.7-2.7-3.4c0-2.2,1.2-3.3,2.7-3.3c1.1,0,1.6,0.6,1.8,1h0v-3.1
			h1.7V95.9z M458.5,94.7c1.1,0,1.5-0.9,1.5-1.8c0-1-0.3-2.1-1.4-2.1c-1.1,0-1.4,0.9-1.4,2C457.1,93.5,457.4,94.7,458.5,94.7z"/>
		<path d="M466,96.1c-1.7,0-3.3-1.1-3.3-3.4s1.5-3.4,3.3-3.4c1.7,0,3.3,1.1,3.3,3.4S467.7,96.1,466,96.1z M466,90.8
			c-1.3,0-1.5,1.1-1.5,1.9s0.2,1.9,1.5,1.9c1.3,0,1.5-1.1,1.5-1.9S467.3,90.8,466,90.8z"/>
		<path d="M474,91.5c-0.1-0.4-0.2-0.8-1.1-0.8c-0.9,0-1,0.3-1,0.6c0,1,4,0.3,4,2.6c0,1.9-1.8,2.2-2.8,2.2c-1.5,0-3-0.5-3.1-2.2h1.7
			c0,0.5,0.3,0.9,1.4,0.9c0.9,0,1.1-0.4,1.1-0.7c0-1.1-4-0.3-4-2.7c0-0.9,0.6-2.1,2.6-2.1c1.2,0,2.7,0.3,2.9,2.1H474z"/>
	</g>
</g>
<path pointer-events="stroke" class="st3" d="M342.5,52.5h-63.6"/>
<path pointer-events="all" class="st4" d="M273.6,52.5l7-3.5l-1.8,3.5l1.8,3.5L273.6,52.5z"/>
<path pointer-events="all" class="st1" d="M421.9,195.1c-5.3,0.2-9.1-1.6-11.4-3.7c2.5-3.6,3-7.5,0.9-11.5c2.9-2.1,6.4-2.9,9.7-2.9
	c7.6,0.2,13,4.6,12.5,9.7C433.4,190.3,429.5,194.6,421.9,195.1z M415,213.3c0.1-2.1,0.3-4.3,0.1-6.1c-0.4-3.4-2.4-7.1-6.3-10
	c0.8-0.8,1.5-1.4,2.3-1.8c4.4,2.3,12.4,3.5,19.5,0c3.3,2.2,4.7,4.8,4.8,7.4c0.1,2.3-0.1,4.3-0.4,6c-0.3,3.5-3.5,4.5-9,4.5L415,213.3
	z M392.9,197.4c-9.3,0-17.7-5-17.7-12.8c0-6.5,8.1-12.1,17.4-12.1c9.4,0,17.8,5.1,17.8,12.5C410.4,192.3,401.8,197.4,392.9,197.4z
	 M383.2,222.3c-6.5-0.3-10.3-2.1-10.5-5.7c-0.3-3.6,0-6.1,0-9c0.5-4.5,3.3-7.6,6.6-9.8c9.4,4.7,20.4,3.4,26.9,0
	c3.7,2.4,6.3,5.8,6.6,9.7c0.1,3.5-0.1,6.9-0.6,9.6c-0.2,1.6-1.6,3.2-3.7,4.1c-1.8,0.7-4.2,1-7,1.1c-1.2,0.1-10.6,0-14.9,0
	C385.6,222.4,384.5,222.4,383.2,222.3z"/>
<g transform="translate(-0.5 -0.5)">
	<g class="st2">
		<path d="M356.2,236.9h3.6v4.6h-1.2l-0.2-1.1c-0.5,0.5-1.1,1.3-2.7,1.3c-2.1,0-4-1.5-4-4.5c0-2.4,1.3-4.6,4.2-4.6
			c2.6,0,3.7,1.7,3.8,2.9H358c0-0.3-0.6-1.4-1.9-1.4c-1.3,0-2.5,0.9-2.5,3.1c0,2.4,1.3,3,2.5,3c0.4,0,1.7-0.2,2.1-1.9h-2V236.9z"/>
		<path d="M361.4,235.1h1.6v1.1h0c0.3-0.6,0.7-1.3,1.8-1.3c0.1,0,0.2,0,0.3,0v1.7c-0.1,0-0.3,0-0.5,0c-1.3,0-1.5,0.8-1.5,1.5v3.3
			h-1.7V235.1z"/>
		<path d="M371.8,241.5h-1.6v-0.9h0c-0.4,0.7-1.1,1.1-1.9,1.1c-1.3,0-2.2-0.7-2.2-2.4v-4.2h1.7v4c0,1,0.6,1.2,1.1,1.2
			c0.6,0,1.3-0.3,1.3-1.5v-3.7h1.7V241.5z"/>
		<path d="M375,236L375,236c0.3-0.5,0.8-1.1,1.9-1.1c1.4,0,2.7,1.1,2.7,3.3c0,1.8-0.8,3.4-2.7,3.4c-1.2,0-1.6-0.6-1.8-1h0v3.3h-1.7
			v-8.9h1.6V236z M376.4,240.3c1.1,0,1.4-1.2,1.4-1.9c0-1-0.4-2-1.4-2c-1.2,0-1.4,1-1.4,2.1C375,239.4,375.4,240.3,376.4,240.3z"/>
		<path d="M383.6,241.7c-1.7,0-3.3-1.1-3.3-3.4s1.5-3.4,3.3-3.4s3.3,1.1,3.3,3.4S385.3,241.7,383.6,241.7z M383.6,236.4
			c-1.3,0-1.5,1.1-1.5,1.9s0.2,1.9,1.5,1.9c1.3,0,1.5-1.1,1.5-1.9S384.9,236.4,383.6,236.4z"/>
		<path d="M397.2,241.5h-1.6v-0.8h0c-0.4,0.7-1.2,1-1.8,1c-1.9,0-2.7-1.7-2.7-3.4c0-2.2,1.2-3.3,2.7-3.3c1.1,0,1.6,0.6,1.8,1h0v-3.1
			h1.7V241.5z M394.1,240.3c1.1,0,1.5-0.9,1.5-1.8c0-1-0.3-2.1-1.4-2.1c-1.1,0-1.4,0.9-1.4,2C392.7,239.1,393,240.3,394.1,240.3z"/>
		<path d="M404.2,239.6c-0.4,1.5-1.7,2-2.8,2c-1.8,0-3.2-0.9-3.2-3.5c0-0.8,0.3-3.2,3.1-3.2c1.3,0,3,0.6,3,3.5v0.3h-4.4
			c0,0.5,0.1,1.6,1.5,1.6c0.5,0,0.9-0.2,1.1-0.7H404.2z M402.5,237.7c-0.1-1-0.8-1.3-1.3-1.3c-0.8,0-1.2,0.5-1.3,1.3H402.5z"/>
		<path d="M414.5,241.5h-1.6v-0.9h0c-0.4,0.7-1.1,1.1-1.9,1.1c-1.3,0-2.2-0.7-2.2-2.4v-4.2h1.7v4c0,1,0.6,1.2,1.1,1.2
			c0.6,0,1.3-0.3,1.3-1.5v-3.7h1.7V241.5z"/>
		<path d="M419.7,237.1c-0.1-0.4-0.2-0.8-1.1-0.8c-0.9,0-1,0.3-1,0.6c0,1,4,0.3,4,2.6c0,1.9-1.8,2.2-2.8,2.2c-1.5,0-3-0.5-3.1-2.2
			h1.7c0,0.5,0.3,0.9,1.4,0.9c0.9,0,1.1-0.4,1.1-0.7c0-1.1-4-0.3-4-2.7c0-0.9,0.6-2.1,2.6-2.1c1.2,0,2.7,0.3,2.9,2.1H419.7z"/>
		<path d="M428.5,241.5h-1.6v-0.9h0c-0.4,0.7-1.1,1.1-1.9,1.1c-1.3,0-2.2-0.7-2.2-2.4v-4.2h1.7v4c0,1,0.6,1.2,1.1,1.2
			c0.6,0,1.3-0.3,1.3-1.5v-3.7h1.7V241.5z"/>
		<path d="M435.2,240.3c0,0.8,0.2,0.9,0.4,1v0.3h-1.8c-0.1-0.3-0.1-0.4-0.2-0.8c-0.4,0.4-0.9,0.9-2.1,0.9c-1,0-1.9-0.5-1.9-1.9
			c0-1.2,0.8-1.9,1.9-2l1.5-0.2c0.3,0,0.6-0.1,0.6-0.5c0-0.7-0.7-0.7-1.1-0.7c-0.8,0-1,0.5-1,0.9h-1.6c0.2-2,1.5-2.2,2.9-2.2
			c0.9,0,2.5,0.3,2.5,1.8V240.3z M433.6,238.4c-0.2,0.1-0.4,0.2-1.1,0.3c-0.6,0.1-1.1,0.3-1.1,1c0,0.6,0.5,0.8,0.8,0.8
			c0.7,0,1.5-0.5,1.5-1.3V238.4z"/>
		<path d="M436.7,235.1h1.6v1.1h0c0.3-0.6,0.7-1.3,1.8-1.3c0.1,0,0.2,0,0.3,0v1.7c-0.1,0-0.3,0-0.5,0c-1.3,0-1.5,0.8-1.5,1.5v3.3
			h-1.7V235.1z"/>
		<path d="M443.1,234.4h-1.7v-1.6h1.7V234.4z M443.1,235.1v6.4h-1.7v-6.4H443.1z"/>
		<path d="M447.6,241.7c-1.7,0-3.3-1.1-3.3-3.4s1.5-3.4,3.3-3.4s3.3,1.1,3.3,3.4S449.3,241.7,447.6,241.7z M447.6,236.4
			c-1.3,0-1.5,1.1-1.5,1.9s0.2,1.9,1.5,1.9c1.3,0,1.5-1.1,1.5-1.9S448.9,236.4,447.6,236.4z"/>
		<path d="M455.7,237.1c-0.1-0.4-0.2-0.8-1.1-0.8c-0.9,0-1,0.3-1,0.6c0,1,4,0.3,4,2.6c0,1.9-1.8,2.2-2.8,2.2c-1.5,0-3-0.5-3.1-2.2
			h1.7c0,0.5,0.3,0.9,1.4,0.9c0.9,0,1.1-0.4,1.1-0.7c0-1.1-4-0.3-4-2.7c0-0.9,0.6-2.1,2.6-2.1c1.2,0,2.7,0.3,2.9,2.1H455.7z"/>
		<path d="M387.1,255.9h-1.7v-7.2h0l-1.6,7.2h-1.8l-1.6-7.2h0v7.2h-1.7v-8.6h2.6l1.6,6.8h0l1.5-6.8h2.6V255.9z"/>
		<path d="M393.9,254.7c0,0.8,0.2,0.9,0.4,1v0.3h-1.8c-0.1-0.3-0.1-0.4-0.2-0.8c-0.4,0.4-0.9,0.9-2.1,0.9c-1,0-1.9-0.5-1.9-1.9
			c0-1.2,0.8-1.9,1.9-2l1.5-0.2c0.3,0,0.6-0.1,0.6-0.5c0-0.7-0.7-0.7-1.1-0.7c-0.8,0-1,0.5-1,0.9h-1.6c0.2-2,1.5-2.2,2.9-2.2
			c0.9,0,2.5,0.3,2.5,1.8V254.7z M392.3,252.8c-0.2,0.1-0.4,0.2-1.1,0.3c-0.6,0.1-1.1,0.3-1.1,1c0,0.6,0.5,0.8,0.8,0.8
			c0.7,0,1.5-0.5,1.5-1.3V252.8z"/>
		<path d="M395.4,249.5h1.6v1.1h0c0.3-0.6,0.7-1.3,1.8-1.3c0.1,0,0.2,0,0.3,0v1.7c-0.1,0-0.3,0-0.5,0c-1.3,0-1.5,0.8-1.5,1.5v3.3
			h-1.7V249.5z"/>
		<path d="M401.8,255.9h-1.7v-8.6h1.7v4.7l2.1-2.4h2.1l-2.3,2.5l2.3,3.9h-2l-1.5-2.7l-0.7,0.7V255.9z"/>
		<path d="M412.2,254c-0.4,1.5-1.7,2-2.8,2c-1.8,0-3.2-0.9-3.2-3.5c0-0.8,0.3-3.2,3.1-3.2c1.3,0,3,0.6,3,3.5v0.3h-4.4
			c0,0.5,0.1,1.6,1.5,1.6c0.5,0,0.9-0.2,1.1-0.7H412.2z M410.6,252.1c-0.1-1-0.8-1.3-1.3-1.3c-0.8,0-1.2,0.5-1.3,1.3H410.6z"/>
		<path d="M415.3,249.5h1v1.2h-1v3.5c0,0.4,0,0.5,0.7,0.5c0.1,0,0.2,0,0.3,0v1.3c-0.3,0-0.5,0-0.8,0h-0.2c-1.5,0-1.7-0.6-1.7-1.4
			v-3.9h-0.9v-1.2h0.9v-1.7h1.7V249.5z"/>
		<path d="M419.1,248.8h-1.7v-1.6h1.7V248.8z M419.1,249.5v6.4h-1.7v-6.4H419.1z"/>
		<path d="M426.5,255.9h-1.7V252c0-0.5,0-1.3-1.1-1.3c-0.7,0-1.3,0.5-1.3,1.5v3.7h-1.7v-6.4h1.6v0.9h0c0.2-0.4,0.7-1.1,1.9-1.1
			c1.2,0,2.2,0.7,2.2,2.1V255.9z"/>
		<path d="M433.9,249.5v6c0,1.1-0.1,2.9-3.2,2.9c-1.3,0-2.7-0.6-2.8-1.9h1.8c0.1,0.3,0.2,0.6,1.2,0.6c0.9,0,1.3-0.4,1.3-1.5V255l0,0
			c-0.3,0.5-0.7,1-1.7,1c-1.5,0-2.7-1.1-2.7-3.3c0-2.2,1.2-3.3,2.7-3.3c1.2,0,1.7,0.7,1.9,1.1h0v-0.9H433.9z M430.8,254.5
			c1.1,0,1.4-1,1.4-1.8c0-1-0.5-1.9-1.4-1.9c-0.6,0-1.3,0.5-1.3,1.9C429.5,253.6,429.8,254.5,430.8,254.5z"/>
	</g>
</g>
<path pointer-events="stroke" class="st3" d="M342.5,197h-63.6"/>
<path pointer-events="all" class="st4" d="M273.6,197l7-3.5l-1.8,3.5l1.8,3.5L273.6,197z"/>
<rect x="276.5" y="22.5" pointer-events="all" class="st5" width="60" height="30"/>
<g transform="translate(-0.5 -0.5)">
	<g class="st2">
		<path d="M266,41.5h-1.2v-8.6h3.9c1.6,0,2.6,1,2.6,2.4c0,1.2-0.7,2.6-2.6,2.6H266V41.5z M266,36.9h2.3c1,0,1.8-0.4,1.8-1.5
			c0-1.1-0.7-1.4-1.7-1.4H266V36.9z"/>
		<path d="M276.7,41.5v-0.9l0,0c-0.4,0.7-1,1.1-2,1.1c-0.9,0-2-0.4-2-1.9v-4.5h1.1v4.2c0,1,0.5,1.4,1.2,1.4c1.3,0,1.7-1.2,1.7-2.1
			v-3.5h1.1v6.3H276.7z"/>
		<path d="M284.6,39.5c0,0.3-0.3,1.2-1.1,1.7c-0.3,0.2-0.7,0.4-1.7,0.4c-1.8,0-2.8-1.3-2.8-3.1c0-1.9,0.9-3.5,3-3.5
			c1.8,0,2.7,1.4,2.7,3.7h-4.6c0,1.3,0.6,2.1,1.8,2.1c1,0,1.6-0.8,1.6-1.2H284.6z M283.6,37.9c-0.1-1-0.5-1.9-1.8-1.9
			c-1,0-1.7,0.9-1.7,1.9H283.6z"/>
		<path d="M291.2,41.5h-1v-0.9h0c-0.5,0.9-1.2,1-1.8,1c-2.1,0-2.8-2-2.8-3.5c0-1.8,0.9-3.1,2.6-3.1c1.1,0,1.6,0.7,1.9,1.1l0-0.1
			v-3.1h1.1V41.5z M288.4,40.8c0.7,0,1.7-0.4,1.7-2.1c0-1-0.2-2.7-1.7-2.7c-1.6,0-1.7,1.5-1.7,2.4C286.7,39.7,287.3,40.8,288.4,40.8
			z"/>
		<path d="M298,39.5c0,0.3-0.3,1.2-1.1,1.7c-0.3,0.2-0.7,0.4-1.7,0.4c-1.8,0-2.8-1.3-2.8-3.1c0-1.9,0.9-3.5,3-3.5
			c1.8,0,2.7,1.4,2.7,3.7h-4.6c0,1.3,0.6,2.1,1.8,2.1c1,0,1.6-0.8,1.6-1.2H298z M297,37.9c-0.1-1-0.5-1.9-1.8-1.9
			c-1,0-1.7,0.9-1.7,1.9H297z"/>
		<path d="M306.6,35.2h1.2l-2.4,6.3h-1.1l-2.3-6.3h1.2l1.6,5.1h0L306.6,35.2z"/>
		<path d="M308.7,34.1v-1.2h1.1v1.2H308.7z M309.7,41.5h-1.1v-6.3h1.1V41.5z"/>
		<path d="M314.9,37c0-0.4-0.2-1.1-1.5-1.1c-0.3,0-1.2,0.1-1.2,0.9c0,0.5,0.3,0.6,1.1,0.8l1.1,0.3c1.3,0.3,1.8,0.8,1.8,1.7
			c0,1.3-1.1,2.1-2.5,2.1c-2.5,0-2.7-1.4-2.7-2.2h1c0,0.5,0.2,1.3,1.7,1.3c0.8,0,1.4-0.3,1.4-1c0-0.5-0.3-0.7-1.2-0.9l-1.2-0.3
			c-0.9-0.2-1.5-0.7-1.5-1.5c0-1.4,1.1-2,2.4-2c2.2,0,2.4,1.7,2.4,2H314.9z"/>
		<path d="M321.4,41.5v-0.9l0,0c-0.4,0.7-1,1.1-2,1.1c-0.9,0-2-0.4-2-1.9v-4.5h1.1v4.2c0,1,0.5,1.4,1.2,1.4c1.3,0,1.7-1.2,1.7-2.1
			v-3.5h1.1v6.3H321.4z"/>
		<path d="M324,37.1c0-1.5,1-2.1,2.6-2.1c0.5,0,2.3,0.1,2.3,1.8v3.6c0,0.3,0.1,0.4,0.3,0.4c0.1,0,0.2,0,0.3,0v0.8
			c-0.2,0-0.3,0.1-0.6,0.1c-0.9,0-1.1-0.5-1.1-1c-0.4,0.4-1,1-2.3,1c-1.2,0-2-0.7-2-1.8c0-0.5,0.2-1.8,1.9-2l1.7-0.2
			c0.3,0,0.6-0.1,0.6-0.7c0-0.7-0.5-1-1.5-1c-1.2,0-1.4,0.7-1.4,1.2H324z M327.8,38.3c-0.2,0.1-0.4,0.2-1.7,0.4
			c-0.5,0.1-1.3,0.2-1.3,1c0,0.7,0.3,1.1,1.1,1.1c1,0,1.9-0.6,1.9-1.5V38.3z"/>
		<path d="M331.7,41.5h-1.1v-8.6h1.1V41.5z"/>
		<path d="M333.4,34.1v-1.2h1.1v1.2H333.4z M334.4,41.5h-1.1v-6.3h1.1V41.5z"/>
		<path d="M337,40.6h3.9v0.9h-5.3v-0.8l3.8-4.6h-3.5v-0.9h4.9v0.9L337,40.6z"/>
		<path d="M342,37.1c0-1.5,1-2.1,2.6-2.1c0.5,0,2.3,0.1,2.3,1.8v3.6c0,0.3,0.1,0.4,0.3,0.4c0.1,0,0.2,0,0.3,0v0.8
			c-0.2,0-0.3,0.1-0.6,0.1c-0.9,0-1.1-0.5-1.1-1c-0.4,0.4-1,1-2.3,1c-1.2,0-2-0.7-2-1.8c0-0.5,0.2-1.8,1.9-2l1.7-0.2
			c0.3,0,0.6-0.1,0.6-0.7c0-0.7-0.5-1-1.5-1c-1.2,0-1.4,0.7-1.4,1.2H342z M345.8,38.3c-0.2,0.1-0.4,0.2-1.7,0.4
			c-0.5,0.1-1.3,0.2-1.3,1c0,0.7,0.3,1.1,1.1,1.1c1,0,1.9-0.6,1.9-1.5V38.3z"/>
		<path d="M349.9,41.5h-1.1v-6.3h1v1h0c0.4-0.7,1-1.2,1.8-1.2c0.1,0,0.2,0,0.3,0v1.1h-0.4c-1,0-1.6,0.8-1.6,1.7V41.5z"/>
	</g>
</g>
<rect x="272.5" y="162.5" pointer-events="all" class="st5" width="60" height="30"/>
<g transform="translate(-0.5 -0.5)">
	<g class="st2">
		<path d="M272,181.5h-1.2v-8.6h3.9c1.6,0,2.6,1,2.6,2.4c0,1.2-0.7,2.6-2.6,2.6H272V181.5z M272,176.9h2.3c1,0,1.8-0.4,1.8-1.5
			c0-1.1-0.7-1.4-1.7-1.4H272V176.9z"/>
		<path d="M282.7,181.5v-0.9l0,0c-0.4,0.7-1,1.1-2,1.1c-0.9,0-2-0.4-2-1.9v-4.5h1.1v4.2c0,1,0.5,1.4,1.2,1.4c1.3,0,1.7-1.2,1.7-2.1
			v-3.5h1.1v6.3H282.7z"/>
		<path d="M290.6,179.5c0,0.3-0.3,1.2-1.1,1.7c-0.3,0.2-0.7,0.4-1.7,0.4c-1.8,0-2.8-1.3-2.8-3.1c0-1.9,0.9-3.5,3-3.5
			c1.8,0,2.7,1.4,2.7,3.7h-4.6c0,1.3,0.6,2.1,1.8,2.1c1,0,1.6-0.8,1.6-1.2H290.6z M289.6,177.9c-0.1-1-0.5-1.9-1.8-1.9
			c-1,0-1.7,0.9-1.7,1.9H289.6z"/>
		<path d="M297.1,181.5h-1v-0.9h0c-0.5,0.9-1.2,1-1.8,1c-2.1,0-2.8-2-2.8-3.5c0-1.8,0.9-3.1,2.6-3.1c1.1,0,1.6,0.7,1.9,1.1l0-0.1
			v-3.1h1.1V181.5z M294.4,180.8c0.7,0,1.7-0.4,1.7-2.1c0-1-0.2-2.7-1.7-2.7c-1.6,0-1.7,1.5-1.7,2.4
			C292.7,179.7,293.2,180.8,294.4,180.8z"/>
		<path d="M303.9,179.5c0,0.3-0.3,1.2-1.1,1.7c-0.3,0.2-0.7,0.4-1.7,0.4c-1.8,0-2.8-1.3-2.8-3.1c0-1.9,0.9-3.5,3-3.5
			c1.8,0,2.7,1.4,2.7,3.7h-4.6c0,1.3,0.6,2.1,1.8,2.1c1,0,1.6-0.8,1.6-1.2H303.9z M302.9,177.9c-0.1-1-0.5-1.9-1.8-1.9
			c-1,0-1.7,0.9-1.7,1.9H302.9z"/>
		<path d="M313.9,179.5c0,0.3-0.3,1.2-1.1,1.7c-0.3,0.2-0.7,0.4-1.7,0.4c-1.8,0-2.8-1.3-2.8-3.1c0-1.9,0.9-3.5,3-3.5
			c1.8,0,2.7,1.4,2.7,3.7h-4.6c0,1.3,0.6,2.1,1.8,2.1c1,0,1.6-0.8,1.6-1.2H313.9z M312.9,177.9c-0.1-1-0.5-1.9-1.8-1.9
			c-1,0-1.7,0.9-1.7,1.9H312.9z"/>
		<path d="M320.5,181.5h-1v-0.9h0c-0.5,0.9-1.2,1-1.8,1c-2.1,0-2.8-2-2.8-3.5c0-1.8,0.9-3.1,2.6-3.1c1.1,0,1.6,0.7,1.9,1.1l0-0.1
			v-3.1h1.1V181.5z M317.7,180.8c0.7,0,1.7-0.4,1.7-2.1c0-1-0.2-2.7-1.7-2.7c-1.6,0-1.7,1.5-1.7,2.4
			C316,179.7,316.6,180.8,317.7,180.8z"/>
		<path d="M322,174.1v-1.2h1.1v1.2H322z M323,181.5H322v-6.3h1.1V181.5z"/>
		<path d="M325.9,176.1v4.1c0,0.5,0.4,0.5,0.6,0.5h0.4v0.8c-0.4,0-0.7,0.1-0.8,0.1c-1,0-1.3-0.6-1.3-1.3v-4.1H324v-0.9h0.9v-1.8h1.1
			v1.8h1v0.9H325.9z"/>
		<path d="M327.9,177.1c0-1.5,1-2.1,2.6-2.1c0.5,0,2.3,0.1,2.3,1.8v3.6c0,0.3,0.1,0.4,0.3,0.4c0.1,0,0.2,0,0.3,0v0.8
			c-0.2,0-0.3,0.1-0.6,0.1c-0.9,0-1.1-0.5-1.1-1c-0.4,0.4-1,1-2.3,1c-1.2,0-2-0.7-2-1.8c0-0.5,0.2-1.8,1.9-2l1.7-0.2
			c0.3,0,0.6-0.1,0.6-0.7c0-0.7-0.5-1-1.5-1c-1.2,0-1.4,0.7-1.4,1.2H327.9z M331.8,178.3c-0.2,0.1-0.4,0.2-1.7,0.4
			c-0.5,0.1-1.3,0.2-1.3,1c0,0.7,0.3,1.1,1.1,1.1c1,0,1.9-0.6,1.9-1.5V178.3z"/>
		<path d="M335.8,181.5h-1.1v-6.3h1v1h0c0.4-0.7,1-1.2,1.8-1.2c0.1,0,0.2,0,0.3,0v1.1h-0.4c-1,0-1.6,0.8-1.6,1.7V181.5z"/>
	</g>
</g>
<rect x="2.5" y="272.5" pointer-events="all" class="st5" width="290" height="75"/>
<g transform="translate(-0.5 -0.5)">
	<g>
		<g class="st2">
			<path d="M5.4,274.9h4.4c2.3,0,2.7,1.7,2.7,2.4c0,0.9-0.5,1.8-1.3,2.1c0.7,0.3,1.1,0.6,1.1,2.2c0,1.3,0,1.6,0.4,1.7v0.2h-2
				c-0.1-0.4-0.2-0.9-0.2-1.7c0-1.2-0.1-1.6-1.4-1.6H7.2v3.4H5.4V274.9z M9.3,278.7c0.9,0,1.4-0.3,1.4-1.2c0-0.5-0.2-1.1-1.3-1.1
				H7.2v2.3H9.3z"/>
			<path d="M19.4,281.6c-0.4,1.5-1.7,2-2.8,2c-1.8,0-3.2-0.9-3.2-3.5c0-0.8,0.3-3.2,3.1-3.2c1.3,0,3,0.6,3,3.5v0.3h-4.4
				c0,0.5,0.1,1.6,1.5,1.6c0.5,0,0.9-0.2,1.1-0.7H19.4z M17.8,279.7c-0.1-1-0.8-1.3-1.3-1.3c-0.8,0-1.2,0.5-1.3,1.3H17.8z"/>
			<path d="M24.2,279.1c-0.1-0.4-0.2-0.8-1.1-0.8s-1,0.3-1,0.6c0,1,4,0.3,4,2.6c0,1.9-1.8,2.2-2.8,2.2c-1.5,0-3-0.5-3.1-2.2h1.7
				c0,0.5,0.3,0.9,1.4,0.9c0.9,0,1.1-0.4,1.1-0.7c0-1.1-4-0.3-4-2.7c0-0.9,0.6-2.1,2.6-2.1c1.2,0,2.7,0.3,2.9,2.1H24.2z"/>
			<path d="M33,283.5h-1.6v-0.9h0c-0.4,0.7-1.1,1.1-1.9,1.1c-1.3,0-2.2-0.7-2.2-2.4v-4.2H29v4c0,1,0.6,1.2,1.1,1.2
				c0.6,0,1.3-0.3,1.3-1.5v-3.7H33V283.5z"/>
			<path d="M36.3,283.5h-1.7v-8.6h1.7V283.5z"/>
			<path d="M39.8,277.1h1v1.2h-1v3.5c0,0.4,0,0.5,0.7,0.5c0.1,0,0.2,0,0.3,0v1.3c-0.3,0-0.5,0-0.8,0h-0.2c-1.5,0-1.7-0.6-1.7-1.4
				v-3.9h-0.9v-1.2h0.9v-1.7h1.7V277.1z"/>
			<path d="M47.1,282.3c0,0.8,0.2,0.9,0.4,1v0.3h-1.8c-0.1-0.3-0.1-0.4-0.2-0.8c-0.4,0.4-0.9,0.9-2.1,0.9c-1,0-1.9-0.5-1.9-1.9
				c0-1.2,0.8-1.9,1.9-2l1.5-0.2c0.3,0,0.6-0.1,0.6-0.5c0-0.7-0.7-0.7-1.1-0.7c-0.8,0-1,0.5-1,0.9h-1.6c0.2-2,1.5-2.2,2.9-2.2
				c0.9,0,2.5,0.3,2.5,1.8V282.3z M45.5,280.4c-0.2,0.1-0.4,0.2-1.1,0.3c-0.6,0.1-1.1,0.3-1.1,1c0,0.6,0.5,0.8,0.8,0.8
				c0.7,0,1.5-0.5,1.5-1.3V280.4z"/>
			<path d="M54.5,283.5h-1.6v-0.8h0c-0.4,0.7-1.2,1-1.8,1c-1.9,0-2.7-1.7-2.7-3.4c0-2.2,1.2-3.3,2.7-3.3c1.1,0,1.6,0.6,1.8,1h0v-3.1
				h1.7V283.5z M51.4,282.3c1.1,0,1.5-0.9,1.5-1.8c0-1-0.3-2.1-1.4-2.1c-1.1,0-1.4,0.9-1.4,2C50,281.1,50.3,282.3,51.4,282.3z"/>
			<path d="M58.8,283.7c-1.7,0-3.3-1.1-3.3-3.4s1.5-3.4,3.3-3.4c1.7,0,3.3,1.1,3.3,3.4S60.6,283.7,58.8,283.7z M58.8,278.4
				c-1.3,0-1.5,1.1-1.5,1.9s0.2,1.9,1.5,1.9s1.5-1.1,1.5-1.9S60.1,278.4,58.8,278.4z"/>
			<path d="M65.4,279.1h-1.8v-1.8h1.8V279.1z M65.4,283.5h-1.8v-1.8h1.8V283.5z"/>
			<path d="M76.6,276.4H72v1.8h4.2v1.5H72v2.2h4.8v1.5h-6.5v-8.6h6.3V276.4z"/>
			<path d="M79.9,283.5h-1.7v-8.6h1.7V283.5z"/>
			<path d="M90.7,277.1v6c0,1.1-0.1,2.9-3.2,2.9c-1.3,0-2.7-0.6-2.8-1.9h1.8c0.1,0.3,0.2,0.6,1.2,0.6c0.9,0,1.3-0.4,1.3-1.5v-0.8
				l0,0c-0.3,0.5-0.7,1-1.7,1c-1.5,0-2.7-1.1-2.7-3.3c0-2.2,1.2-3.3,2.7-3.3c1.2,0,1.7,0.7,1.9,1.1h0v-0.9H90.7z M87.6,282.1
				c1.1,0,1.4-1,1.4-1.8c0-1-0.5-1.9-1.4-1.9c-0.6,0-1.3,0.5-1.3,1.9C86.2,281.2,86.6,282.1,87.6,282.1z"/>
			<path d="M92.1,277.1h1.6v1.1h0c0.3-0.6,0.7-1.3,1.8-1.3c0.1,0,0.2,0,0.3,0v1.7c-0.1,0-0.3,0-0.5,0c-1.3,0-1.5,0.8-1.5,1.5v3.3
				h-1.7V277.1z"/>
			<path d="M102.6,283.5H101v-0.9h0c-0.4,0.7-1.1,1.1-1.9,1.1c-1.3,0-2.2-0.7-2.2-2.4v-4.2h1.7v4c0,1,0.6,1.2,1.1,1.2
				c0.6,0,1.3-0.3,1.3-1.5v-3.7h1.7V283.5z"/>
			<path d="M105.7,278L105.7,278c0.3-0.5,0.8-1.1,1.9-1.1c1.4,0,2.7,1.1,2.7,3.3c0,1.8-0.8,3.4-2.7,3.4c-1.2,0-1.6-0.6-1.8-1h0v3.3
				h-1.7v-8.9h1.6V278z M107.2,282.3c1.1,0,1.4-1.2,1.4-1.9c0-1-0.4-2-1.4-2c-1.2,0-1.4,1-1.4,2.1
				C105.7,281.4,106.1,282.3,107.2,282.3z"/>
			<path d="M114.4,283.7c-1.7,0-3.3-1.1-3.3-3.4s1.5-3.4,3.3-3.4c1.7,0,3.3,1.1,3.3,3.4S116.1,283.7,114.4,283.7z M114.4,278.4
				c-1.3,0-1.5,1.1-1.5,1.9s0.2,1.9,1.5,1.9s1.5-1.1,1.5-1.9S115.7,278.4,114.4,278.4z"/>
			<path d="M124.7,283.5h-1.8v-7.1h-2.6v-1.5h7v1.5h-2.6V283.5z"/>
			<path d="M130.2,283.7c-1.7,0-3.3-1.1-3.3-3.4s1.5-3.4,3.3-3.4c1.7,0,3.3,1.1,3.3,3.4S131.9,283.7,130.2,283.7z M130.2,278.4
				c-1.3,0-1.5,1.1-1.5,1.9s0.2,1.9,1.5,1.9s1.5-1.1,1.5-1.9S131.5,278.4,130.2,278.4z"/>
			<path d="M140.5,283.5h-1.6v-0.8h0c-0.4,0.7-1.2,1-1.8,1c-1.9,0-2.7-1.7-2.7-3.4c0-2.2,1.2-3.3,2.7-3.3c1.1,0,1.6,0.6,1.8,1h0
				v-3.1h1.7V283.5z M137.4,282.3c1.1,0,1.5-0.9,1.5-1.8c0-1-0.3-2.1-1.4-2.1c-1.1,0-1.4,0.9-1.4,2
				C136,281.1,136.3,282.3,137.4,282.3z"/>
			<path d="M144.9,283.7c-1.7,0-3.3-1.1-3.3-3.4s1.5-3.4,3.3-3.4c1.7,0,3.3,1.1,3.3,3.4S146.6,283.7,144.9,283.7z M144.9,278.4
				c-1.3,0-1.5,1.1-1.5,1.9s0.2,1.9,1.5,1.9s1.5-1.1,1.5-1.9S146.2,278.4,144.9,278.4z"/>
			<path d="M152.9,279.1c-0.1-0.4-0.2-0.8-1.1-0.8s-1,0.3-1,0.6c0,1,4,0.3,4,2.6c0,1.9-1.8,2.2-2.8,2.2c-1.5,0-3-0.5-3.1-2.2h1.7
				c0,0.5,0.3,0.9,1.4,0.9c0.9,0,1.1-0.4,1.1-0.7c0-1.1-4-0.3-4-2.7c0-0.9,0.6-2.1,2.6-2.1c1.2,0,2.7,0.3,2.9,2.1H152.9z"/>
			<path d="M161.1,283.5h-1.7v-8.6h1.7V283.5z"/>
			<path d="M165.5,283.7c-1.7,0-3.3-1.1-3.3-3.4s1.5-3.4,3.3-3.4c1.7,0,3.3,1.1,3.3,3.4S167.3,283.7,165.5,283.7z M165.5,278.4
				c-1.3,0-1.5,1.1-1.5,1.9s0.2,1.9,1.5,1.9s1.5-1.1,1.5-1.9S166.8,278.4,165.5,278.4z"/>
			<path d="M173.6,279.1c-0.1-0.4-0.2-0.8-1.1-0.8s-1,0.3-1,0.6c0,1,4,0.3,4,2.6c0,1.9-1.8,2.2-2.8,2.2c-1.5,0-3-0.5-3.1-2.2h1.7
				c0,0.5,0.3,0.9,1.4,0.9c0.9,0,1.1-0.4,1.1-0.7c0-1.1-4-0.3-4-2.7c0-0.9,0.6-2.1,2.6-2.1c1.2,0,2.7,0.3,2.9,2.1H173.6z"/>
			<path d="M185.8,283.5h-1.6v-0.9h0c-0.4,0.7-1.1,1.1-1.9,1.1c-1.3,0-2.2-0.7-2.2-2.4v-4.2h1.7v4c0,1,0.6,1.2,1.1,1.2
				c0.6,0,1.3-0.3,1.3-1.5v-3.7h1.7V283.5z"/>
			<path d="M190.9,279.1c-0.1-0.4-0.2-0.8-1.1-0.8s-1,0.3-1,0.6c0,1,4,0.3,4,2.6c0,1.9-1.8,2.2-2.8,2.2c-1.5,0-3-0.5-3.1-2.2h1.7
				c0,0.5,0.3,0.9,1.4,0.9c0.9,0,1.1-0.4,1.1-0.7c0-1.1-4-0.3-4-2.7c0-0.9,0.6-2.1,2.6-2.1c1.2,0,2.7,0.3,2.9,2.1H190.9z"/>
			<path d="M199.8,283.5h-1.6v-0.9h0c-0.4,0.7-1.1,1.1-1.9,1.1c-1.3,0-2.2-0.7-2.2-2.4v-4.2h1.7v4c0,1,0.6,1.2,1.1,1.2
				c0.6,0,1.3-0.3,1.3-1.5v-3.7h1.7V283.5z"/>
			<path d="M206.5,282.3c0,0.8,0.2,0.9,0.4,1v0.3h-1.8c-0.1-0.3-0.1-0.4-0.2-0.8c-0.4,0.4-0.9,0.9-2.1,0.9c-1,0-1.9-0.5-1.9-1.9
				c0-1.2,0.8-1.9,1.9-2l1.5-0.2c0.3,0,0.6-0.1,0.6-0.5c0-0.7-0.7-0.7-1.1-0.7c-0.8,0-1,0.5-1,0.9h-1.6c0.2-2,1.5-2.2,2.9-2.2
				c0.9,0,2.5,0.3,2.5,1.8V282.3z M204.9,280.4c-0.2,0.1-0.4,0.2-1.1,0.3c-0.6,0.1-1.1,0.3-1.1,1c0,0.6,0.5,0.8,0.8,0.8
				c0.7,0,1.5-0.5,1.5-1.3V280.4z"/>
			<path d="M208,277.1h1.6v1.1h0c0.3-0.6,0.7-1.3,1.8-1.3c0.1,0,0.2,0,0.3,0v1.7c-0.1,0-0.3,0-0.5,0c-1.3,0-1.5,0.8-1.5,1.5v3.3H208
				V277.1z"/>
			<path d="M214.4,276.4h-1.7v-1.6h1.7V276.4z M214.4,277.1v6.4h-1.7v-6.4H214.4z"/>
			<path d="M218.9,283.7c-1.7,0-3.3-1.1-3.3-3.4s1.5-3.4,3.3-3.4c1.7,0,3.3,1.1,3.3,3.4S220.6,283.7,218.9,283.7z M218.9,278.4
				c-1.3,0-1.5,1.1-1.5,1.9s0.2,1.9,1.5,1.9s1.5-1.1,1.5-1.9S220.2,278.4,218.9,278.4z"/>
			<path d="M227,279.1c-0.1-0.4-0.2-0.8-1.1-0.8s-1,0.3-1,0.6c0,1,4,0.3,4,2.6c0,1.9-1.8,2.2-2.8,2.2c-1.5,0-3-0.5-3.1-2.2h1.7
				c0,0.5,0.3,0.9,1.4,0.9c0.9,0,1.1-0.4,1.1-0.7c0-1.1-4-0.3-4-2.7c0-0.9,0.6-2.1,2.6-2.1c1.2,0,2.7,0.3,2.9,2.1H227z"/>
			<path d="M238.5,282.3c0,0.8,0.2,0.9,0.4,1v0.3h-1.8c-0.1-0.3-0.1-0.4-0.2-0.8c-0.4,0.4-0.9,0.9-2.1,0.9c-1,0-1.9-0.5-1.9-1.9
				c0-1.2,0.8-1.9,1.9-2l1.5-0.2c0.3,0,0.6-0.1,0.6-0.5c0-0.7-0.7-0.7-1.1-0.7c-0.8,0-1,0.5-1,0.9h-1.6c0.2-2,1.5-2.2,2.9-2.2
				c0.9,0,2.5,0.3,2.5,1.8V282.3z M236.9,280.4c-0.2,0.1-0.4,0.2-1.1,0.3c-0.6,0.1-1.1,0.3-1.1,1c0,0.6,0.5,0.8,0.8,0.8
				c0.7,0,1.5-0.5,1.5-1.3V280.4z"/>
			<path d="M245.8,283.5h-1.6v-0.9h0c-0.4,0.7-1.1,1.1-1.9,1.1c-1.3,0-2.2-0.7-2.2-2.4v-4.2h1.7v4c0,1,0.6,1.2,1.1,1.2
				c0.6,0,1.3-0.3,1.3-1.5v-3.7h1.7V283.5z"/>
			<path d="M249.2,277.1h1v1.2h-1v3.5c0,0.4,0,0.5,0.7,0.5c0.1,0,0.2,0,0.3,0v1.3c-0.3,0-0.5,0-0.8,0h-0.2c-1.5,0-1.7-0.6-1.7-1.4
				v-3.9h-0.9v-1.2h0.9v-1.7h1.7V277.1z"/>
			<path d="M256.8,281.6c-0.4,1.5-1.7,2-2.8,2c-1.8,0-3.2-0.9-3.2-3.5c0-0.8,0.3-3.2,3.1-3.2c1.3,0,3,0.6,3,3.5v0.3h-4.4
				c0,0.5,0.1,1.6,1.5,1.6c0.5,0,0.9-0.2,1.1-0.7H256.8z M255.2,279.7c-0.1-1-0.8-1.3-1.3-1.3c-0.8,0-1.2,0.5-1.3,1.3H255.2z"/>
			<path d="M263.8,283.5h-1.7v-3.9c0-0.5,0-1.3-1.1-1.3c-0.7,0-1.3,0.5-1.3,1.5v3.7H258v-6.4h1.6v0.9h0c0.2-0.4,0.7-1.1,1.9-1.1
				c1.2,0,2.2,0.7,2.2,2.1V283.5z"/>
			<path d="M267.2,277.1h1v1.2h-1v3.5c0,0.4,0,0.5,0.7,0.5c0.1,0,0.2,0,0.3,0v1.3c-0.3,0-0.5,0-0.8,0h-0.2c-1.5,0-1.7-0.6-1.7-1.4
				v-3.9h-0.9v-1.2h0.9v-1.7h1.7V277.1z"/>
			<path d="M271.1,276.4h-1.7v-1.6h1.7V276.4z M271.1,277.1v6.4h-1.7v-6.4H271.1z"/>
			<path d="M278.2,281.2c-0.1,0.7-0.6,2.5-2.9,2.5c-2.4,0-3-1.8-3-3.2c0-2.1,0.9-3.5,3.1-3.5c1,0,2.7,0.5,2.8,2.4h-1.7
				c-0.1-0.4-0.3-1.1-1.1-1c-1.1,0-1.3,1.1-1.3,1.8c0,0.7,0,2.1,1.3,2.1c0.9,0,1.1-0.8,1.1-1.1H278.2z"/>
			<path d="M284.5,282.3c0,0.8,0.2,0.9,0.4,1v0.3h-1.8c-0.1-0.3-0.1-0.4-0.2-0.8c-0.4,0.4-0.9,0.9-2.1,0.9c-1,0-1.9-0.5-1.9-1.9
				c0-1.2,0.8-1.9,1.9-2l1.5-0.2c0.3,0,0.6-0.1,0.6-0.5c0-0.7-0.7-0.7-1.1-0.7c-0.8,0-1,0.5-1,0.9h-1.6c0.2-2,1.5-2.2,2.9-2.2
				c0.9,0,2.5,0.3,2.5,1.8V282.3z M282.9,280.4c-0.2,0.1-0.4,0.2-1.1,0.3c-0.6,0.1-1.1,0.3-1.1,1c0,0.6,0.5,0.8,0.8,0.8
				c0.7,0,1.5-0.5,1.5-1.3V280.4z"/>
			<path d="M291.9,283.5h-1.6v-0.8h0c-0.4,0.7-1.2,1-1.8,1c-1.9,0-2.7-1.7-2.7-3.4c0-2.2,1.2-3.3,2.7-3.3c1.1,0,1.6,0.6,1.8,1h0
				v-3.1h1.7V283.5z M288.8,282.3c1.1,0,1.5-0.9,1.5-1.8c0-1-0.3-2.1-1.4-2.1c-1.1,0-1.4,0.9-1.4,2
				C287.4,281.1,287.7,282.3,288.8,282.3z"/>
			<path d="M296.3,283.7c-1.7,0-3.3-1.1-3.3-3.4s1.5-3.4,3.3-3.4c1.7,0,3.3,1.1,3.3,3.4S298,283.7,296.3,283.7z M296.3,278.4
				c-1.3,0-1.5,1.1-1.5,1.9s0.2,1.9,1.5,1.9s1.5-1.1,1.5-1.9S297.5,278.4,296.3,278.4z"/>
			<path d="M304.3,279.1c-0.1-0.4-0.2-0.8-1.1-0.8c-0.9,0-1,0.3-1,0.6c0,1,4,0.3,4,2.6c0,1.9-1.8,2.2-2.8,2.2c-1.5,0-3-0.5-3.1-2.2
				h1.7c0,0.5,0.3,0.9,1.4,0.9c0.9,0,1.1-0.4,1.1-0.7c0-1.1-4-0.3-4-2.7c0-0.9,0.6-2.1,2.6-2.1c1.2,0,2.7,0.3,2.9,2.1H304.3z"/>
			<path d="M312.6,277.1h1v1.2h-1v3.5c0,0.4,0,0.5,0.7,0.5c0.1,0,0.2,0,0.3,0v1.3c-0.3,0-0.5,0-0.8,0h-0.2c-1.5,0-1.7-0.6-1.7-1.4
				v-3.9H310v-1.2h0.9v-1.7h1.7V277.1z"/>
			<path d="M316.4,276.4h-1.7v-1.6h1.7V276.4z M316.4,277.1v6.4h-1.7v-6.4H316.4z"/>
			<path d="M323.5,281.6c-0.4,1.5-1.7,2-2.8,2c-1.8,0-3.2-0.9-3.2-3.5c0-0.8,0.3-3.2,3.1-3.2c1.3,0,3,0.6,3,3.5v0.3h-4.4
				c0,0.5,0.1,1.6,1.5,1.6c0.5,0,0.9-0.2,1.1-0.7H323.5z M321.9,279.7c-0.1-1-0.8-1.3-1.3-1.3c-0.8,0-1.2,0.5-1.3,1.3H321.9z"/>
			<path d="M330.5,283.5h-1.7v-3.9c0-0.5,0-1.3-1.1-1.3c-0.7,0-1.3,0.5-1.3,1.5v3.7h-1.7v-6.4h1.6v0.9h0c0.2-0.4,0.7-1.1,1.9-1.1
				c1.2,0,2.2,0.7,2.2,2.1V283.5z"/>
			<path d="M337.5,281.6c-0.4,1.5-1.7,2-2.8,2c-1.8,0-3.2-0.9-3.2-3.5c0-0.8,0.3-3.2,3.1-3.2c1.3,0,3,0.6,3,3.5v0.3h-4.4
				c0,0.5,0.1,1.6,1.5,1.6c0.5,0,0.9-0.2,1.1-0.7H337.5z M335.9,279.7c-0.1-1-0.8-1.3-1.3-1.3c-0.8,0-1.2,0.5-1.3,1.3H335.9z"/>
			<path d="M6.9,292.4L6.9,292.4c0.3-0.5,0.8-1.1,1.9-1.1c1.4,0,2.7,1.1,2.7,3.3c0,1.8-0.8,3.4-2.7,3.4c-1.2,0-1.6-0.6-1.8-1h0v3.3
				H5.2v-8.9h1.6V292.4z M8.3,296.7c1.1,0,1.4-1.2,1.4-1.9c0-1-0.4-2-1.4-2c-1.2,0-1.4,1-1.4,2.1C6.9,295.8,7.3,296.7,8.3,296.7z"/>
			<path d="M18.1,296c-0.4,1.5-1.7,2-2.8,2c-1.8,0-3.2-0.9-3.2-3.5c0-0.8,0.3-3.2,3.1-3.2c1.3,0,3,0.6,3,3.5v0.3h-4.4
				c0,0.5,0.1,1.6,1.5,1.6c0.5,0,0.9-0.2,1.1-0.7H18.1z M16.4,294.1c-0.1-1-0.8-1.3-1.3-1.3c-0.8,0-1.2,0.5-1.3,1.3H16.4z"/>
			<path d="M19.3,291.5h1.6v1.1h0c0.3-0.6,0.7-1.3,1.8-1.3c0.1,0,0.2,0,0.3,0v1.7c-0.1,0-0.3,0-0.5,0c-1.3,0-1.5,0.8-1.5,1.5v3.3
				h-1.7V291.5z"/>
			<path d="M33.1,297.9h-1.7V294c0-0.9-0.4-1.3-0.9-1.3c-0.8,0-1.1,0.6-1.1,1.3v3.8h-1.7v-3.8c0-0.5,0-1.3-1-1.3c-0.8,0-1,0.6-1,1.2
				v3.9h-1.7v-6.4h1.6v0.9h0c0.2-0.4,0.7-1.1,1.8-1.1c0.9,0,1.3,0.3,1.8,1c0.2-0.3,0.7-1,1.7-1c1.2,0,2.2,0.7,2.2,2.1V297.9z"/>
			<path d="M36.3,290.8h-1.7v-1.6h1.7V290.8z M36.3,291.5v6.4h-1.7v-6.4H36.3z"/>
			<path d="M41.6,293.5c-0.1-0.4-0.2-0.8-1.1-0.8s-1,0.3-1,0.6c0,1,4,0.3,4,2.6c0,1.9-1.8,2.2-2.8,2.2c-1.5,0-3-0.5-3.1-2.2h1.7
				c0,0.5,0.3,0.9,1.4,0.9c0.9,0,1.1-0.4,1.1-0.7c0-1.1-4-0.3-4-2.7c0-0.9,0.6-2.1,2.6-2.1c1.2,0,2.7,0.3,2.9,2.1H41.6z"/>
			<path d="M47.5,298.1c-1.7,0-3.3-1.1-3.3-3.4s1.5-3.4,3.3-3.4c1.7,0,3.3,1.1,3.3,3.4S49.2,298.1,47.5,298.1z M47.5,292.8
				c-1.3,0-1.5,1.1-1.5,1.9s0.2,1.9,1.5,1.9s1.5-1.1,1.5-1.9S48.8,292.8,47.5,292.8z"/>
			<path d="M55.6,293.5c-0.1-0.4-0.2-0.8-1.1-0.8s-1,0.3-1,0.6c0,1,4,0.3,4,2.6c0,1.9-1.8,2.2-2.8,2.2c-1.5,0-3-0.5-3.1-2.2h1.7
				c0,0.5,0.3,0.9,1.4,0.9c0.9,0,1.1-0.4,1.1-0.7c0-1.1-4-0.3-4-2.7c0-0.9,0.6-2.1,2.6-2.1c1.2,0,2.7,0.3,2.9,2.1H55.6z"/>
			<path d="M67.8,297.9h-1.6v-0.8h0c-0.4,0.7-1.2,1-1.8,1c-1.9,0-2.7-1.7-2.7-3.4c0-2.2,1.2-3.3,2.7-3.3c1.1,0,1.6,0.6,1.8,1h0v-3.1
				h1.7V297.9z M64.7,296.7c1.1,0,1.5-0.9,1.5-1.8c0-1-0.3-2.1-1.4-2.1c-1.1,0-1.4,0.9-1.4,2C63.3,295.5,63.6,296.7,64.7,296.7z"/>
			<path d="M74.8,296c-0.4,1.5-1.7,2-2.8,2c-1.8,0-3.2-0.9-3.2-3.5c0-0.8,0.3-3.2,3.1-3.2c1.3,0,3,0.6,3,3.5v0.3h-4.4
				c0,0.5,0.1,1.6,1.5,1.6c0.5,0,0.9-0.2,1.1-0.7H74.8z M73.1,294.1c-0.1-1-0.8-1.3-1.3-1.3c-0.8,0-1.2,0.5-1.3,1.3H73.1z"/>
			<path d="M82.7,297.9H81l-2.3-6.4h1.9l1.3,4.7h0l1.4-4.7H85L82.7,297.9z"/>
			<path d="M87.7,290.8H86v-1.6h1.7V290.8z M87.7,291.5v6.4H86v-6.4H87.7z"/>
			<path d="M92.9,293.5c-0.1-0.4-0.2-0.8-1.1-0.8s-1,0.3-1,0.6c0,1,4,0.3,4,2.6c0,1.9-1.8,2.2-2.8,2.2c-1.5,0-3-0.5-3.1-2.2h1.7
				c0,0.5,0.3,0.9,1.4,0.9c0.9,0,1.1-0.4,1.1-0.7c0-1.1-4-0.3-4-2.7c0-0.9,0.6-2.1,2.6-2.1c1.2,0,2.7,0.3,2.9,2.1H92.9z"/>
			<path d="M101.7,297.9h-1.6V297h0c-0.4,0.7-1.1,1.1-1.9,1.1c-1.3,0-2.2-0.7-2.2-2.4v-4.2h1.7v4c0,1,0.6,1.2,1.1,1.2
				c0.6,0,1.3-0.3,1.3-1.5v-3.7h1.7V297.9z"/>
			<path d="M108.5,296.7c0,0.8,0.2,0.9,0.4,1v0.3H107c-0.1-0.3-0.1-0.4-0.2-0.8c-0.4,0.4-0.9,0.9-2.1,0.9c-1,0-1.9-0.5-1.9-1.9
				c0-1.2,0.8-1.9,1.9-2l1.5-0.2c0.3,0,0.6-0.1,0.6-0.5c0-0.7-0.7-0.7-1.1-0.7c-0.8,0-1,0.5-1,0.9h-1.6c0.2-2,1.5-2.2,2.9-2.2
				c0.9,0,2.5,0.3,2.5,1.8V296.7z M106.8,294.8c-0.2,0.1-0.4,0.2-1.1,0.3c-0.6,0.1-1.1,0.3-1.1,1c0,0.6,0.5,0.8,0.8,0.8
				c0.7,0,1.5-0.5,1.5-1.3V294.8z"/>
			<path d="M111.7,297.9H110v-8.6h1.7V297.9z"/>
			<path d="M115.1,290.8h-1.7v-1.6h1.7V290.8z M115.1,291.5v6.4h-1.7v-6.4H115.1z"/>
			<path d="M118.3,296.5h3.3v1.4h-5.5v-1.3l3.3-3.7h-3v-1.3h5.2v1.4L118.3,296.5z"/>
			<path d="M127.8,296.7c0,0.8,0.2,0.9,0.4,1v0.3h-1.8c-0.1-0.3-0.1-0.4-0.2-0.8c-0.4,0.4-0.9,0.9-2.1,0.9c-1,0-1.9-0.5-1.9-1.9
				c0-1.2,0.8-1.9,1.9-2l1.5-0.2c0.3,0,0.6-0.1,0.6-0.5c0-0.7-0.7-0.7-1.1-0.7c-0.8,0-1,0.5-1,0.9h-1.6c0.2-2,1.5-2.2,2.9-2.2
				c0.9,0,2.5,0.3,2.5,1.8V296.7z M126.2,294.8c-0.2,0.1-0.4,0.2-1.1,0.3c-0.6,0.1-1.1,0.3-1.1,1c0,0.6,0.5,0.8,0.8,0.8
				c0.7,0,1.5-0.5,1.5-1.3V294.8z"/>
			<path d="M134.8,295.6c-0.1,0.7-0.6,2.5-2.9,2.5c-2.4,0-3-1.8-3-3.2c0-2.1,0.9-3.5,3.1-3.5c1,0,2.7,0.5,2.8,2.4h-1.7
				c-0.1-0.4-0.3-1.1-1.1-1c-1.1,0-1.3,1.1-1.3,1.8c0,0.7,0,2.1,1.3,2.1c0.9,0,1.1-0.8,1.1-1.1H134.8z"/>
			<path d="M137.7,290.8h-1.7v-1.6h1.7V290.8z M137.7,291.5v6.4h-1.7v-6.4H137.7z"/>
			<path d="M142.2,298.1c-1.7,0-3.3-1.1-3.3-3.4s1.5-3.4,3.3-3.4c1.7,0,3.3,1.1,3.3,3.4S143.9,298.1,142.2,298.1z M142.2,292.8
				c-1.3,0-1.5,1.1-1.5,1.9s0.2,1.9,1.5,1.9s1.5-1.1,1.5-1.9S143.5,292.8,142.2,292.8z M142.7,290.7h-1.2l1.1-1.8h1.8L142.7,290.7z"
				/>
			<path d="M152.4,297.9h-1.7V294c0-0.5,0-1.3-1.1-1.3c-0.7,0-1.3,0.5-1.3,1.5v3.7h-1.7v-6.4h1.6v0.9h0c0.2-0.4,0.7-1.1,1.9-1.1
				c1.2,0,2.2,0.7,2.2,2.1V297.9z"/>
			<path d="M162.8,296c-0.4,1.5-1.7,2-2.8,2c-1.8,0-3.2-0.9-3.2-3.5c0-0.8,0.3-3.2,3.1-3.2c1.3,0,3,0.6,3,3.5v0.3h-4.4
				c0,0.5,0.1,1.6,1.5,1.6c0.5,0,0.9-0.2,1.1-0.7H162.8z M161.2,294.1c-0.1-1-0.8-1.3-1.3-1.3c-0.8,0-1.2,0.5-1.3,1.3H161.2z"/>
			<path d="M169.8,297.9h-1.7V294c0-0.5,0-1.3-1.1-1.3c-0.7,0-1.3,0.5-1.3,1.5v3.7H164v-6.4h1.6v0.9h0c0.2-0.4,0.7-1.1,1.9-1.1
				c1.2,0,2.2,0.7,2.2,2.1V297.9z"/>
			<path d="M176.4,297.9h-1.7v-8.6h1.7V297.9z"/>
			<path d="M183.2,296.7c0,0.8,0.2,0.9,0.4,1v0.3h-1.8c-0.1-0.3-0.1-0.4-0.2-0.8c-0.4,0.4-0.9,0.9-2.1,0.9c-1,0-1.9-0.5-1.9-1.9
				c0-1.2,0.8-1.9,1.9-2l1.5-0.2c0.3,0,0.6-0.1,0.6-0.5c0-0.7-0.7-0.7-1.1-0.7c-0.8,0-1,0.5-1,0.9h-1.6c0.2-2,1.5-2.2,2.9-2.2
				c0.9,0,2.5,0.3,2.5,1.8V296.7z M181.5,294.8c-0.2,0.1-0.4,0.2-1.1,0.3c-0.6,0.1-1.1,0.3-1.1,1c0,0.6,0.5,0.8,0.8,0.8
				c0.7,0,1.5-0.5,1.5-1.3V294.8z"/>
			<path d="M193.5,295.6c-0.1,0.7-0.6,2.5-2.9,2.5c-2.4,0-3-1.8-3-3.2c0-2.1,0.9-3.5,3.1-3.5c1,0,2.7,0.5,2.8,2.4h-1.7
				c-0.1-0.4-0.3-1.1-1.1-1c-1.1,0-1.3,1.1-1.3,1.8c0,0.7,0,2.1,1.3,2.1c0.9,0,1.1-0.8,1.1-1.1H193.5z"/>
			<path d="M199.9,296.7c0,0.8,0.2,0.9,0.4,1v0.3h-1.8c-0.1-0.3-0.1-0.4-0.2-0.8c-0.4,0.4-0.9,0.9-2.1,0.9c-1,0-1.9-0.5-1.9-1.9
				c0-1.2,0.8-1.9,1.9-2l1.5-0.2c0.3,0,0.6-0.1,0.6-0.5c0-0.7-0.7-0.7-1.1-0.7c-0.8,0-1,0.5-1,0.9h-1.6c0.2-2,1.5-2.2,2.9-2.2
				c0.9,0,2.5,0.3,2.5,1.8V296.7z M198.2,294.8c-0.2,0.1-0.4,0.2-1.1,0.3c-0.6,0.1-1.1,0.3-1.1,1c0,0.6,0.5,0.8,0.8,0.8
				c0.7,0,1.5-0.5,1.5-1.3V294.8z"/>
			<path d="M201.4,291.5h1.6v1.1h0c0.3-0.6,0.7-1.3,1.8-1.3c0.1,0,0.2,0,0.3,0v1.7c-0.1,0-0.3,0-0.5,0c-1.3,0-1.5,0.8-1.5,1.5v3.3
				h-1.7V291.5z"/>
			<path d="M207.6,292.4L207.6,292.4c0.3-0.5,0.8-1.1,1.9-1.1c1.4,0,2.7,1.1,2.7,3.3c0,1.8-0.8,3.4-2.7,3.4c-1.2,0-1.6-0.6-1.8-1h0
				v3.3H206v-8.9h1.6V292.4z M209.1,296.7c1.1,0,1.4-1.2,1.4-1.9c0-1-0.4-2-1.4-2c-1.2,0-1.4,1-1.4,2.1
				C207.6,295.8,208,296.7,209.1,296.7z"/>
			<path d="M218.9,296c-0.4,1.5-1.7,2-2.8,2c-1.8,0-3.2-0.9-3.2-3.5c0-0.8,0.3-3.2,3.1-3.2c1.3,0,3,0.6,3,3.5v0.3h-4.4
				c0,0.5,0.1,1.6,1.5,1.6c0.5,0,0.9-0.2,1.1-0.7H218.9z M217.2,294.1c-0.1-1-0.8-1.3-1.3-1.3c-0.8,0-1.2,0.5-1.3,1.3H217.2z"/>
			<path d="M221.9,291.5h1v1.2h-1v3.5c0,0.4,0,0.5,0.7,0.5c0.1,0,0.2,0,0.3,0v1.3c-0.3,0-0.5,0-0.8,0H222c-1.5,0-1.7-0.6-1.7-1.4
				v-3.9h-0.9v-1.2h0.9v-1.7h1.7V291.5z"/>
			<path d="M229.2,296.7c0,0.8,0.2,0.9,0.4,1v0.3h-1.8c-0.1-0.3-0.1-0.4-0.2-0.8c-0.4,0.4-0.9,0.9-2.1,0.9c-1,0-1.9-0.5-1.9-1.9
				c0-1.2,0.8-1.9,1.9-2l1.5-0.2c0.3,0,0.6-0.1,0.6-0.5c0-0.7-0.7-0.7-1.1-0.7c-0.8,0-1,0.5-1,0.9h-1.6c0.2-2,1.5-2.2,2.9-2.2
				c0.9,0,2.5,0.3,2.5,1.8V296.7z M227.6,294.8c-0.2,0.1-0.4,0.2-1.1,0.3c-0.6,0.1-1.1,0.3-1.1,1c0,0.6,0.5,0.8,0.8,0.8
				c0.7,0,1.5-0.5,1.5-1.3V294.8z"/>
			<path d="M242.4,297.9h-1.7v-7.2h0l-1.6,7.2h-1.8l-1.6-7.2h0v7.2h-1.7v-8.6h2.6l1.6,6.8h0l1.5-6.8h2.6V297.9z"/>
			<path d="M249.2,296.7c0,0.8,0.2,0.9,0.4,1v0.3h-1.8c-0.1-0.3-0.1-0.4-0.2-0.8c-0.4,0.4-0.9,0.9-2.1,0.9c-1,0-1.9-0.5-1.9-1.9
				c0-1.2,0.8-1.9,1.9-2l1.5-0.2c0.3,0,0.6-0.1,0.6-0.5c0-0.7-0.7-0.7-1.1-0.7c-0.8,0-1,0.5-1,0.9h-1.6c0.2-2,1.5-2.2,2.9-2.2
				c0.9,0,2.5,0.3,2.5,1.8V296.7z M247.6,294.8c-0.2,0.1-0.4,0.2-1.1,0.3c-0.6,0.1-1.1,0.3-1.1,1c0,0.6,0.5,0.8,0.8,0.8
				c0.7,0,1.5-0.5,1.5-1.3V294.8z"/>
			<path d="M250.7,291.5h1.6v1.1h0c0.3-0.6,0.7-1.3,1.8-1.3c0.1,0,0.2,0,0.3,0v1.7c-0.1,0-0.3,0-0.5,0c-1.3,0-1.5,0.8-1.5,1.5v3.3
				h-1.7V291.5z"/>
			<path d="M257.1,297.9h-1.7v-8.6h1.7v4.7l2.1-2.4h2.1L259,294l2.3,3.9h-2l-1.5-2.7l-0.7,0.7V297.9z"/>
			<path d="M267.5,296c-0.4,1.5-1.7,2-2.8,2c-1.8,0-3.2-0.9-3.2-3.5c0-0.8,0.3-3.2,3.1-3.2c1.3,0,3,0.6,3,3.5v0.3h-4.4
				c0,0.5,0.1,1.6,1.5,1.6c0.5,0,0.9-0.2,1.1-0.7H267.5z M265.9,294.1c-0.1-1-0.8-1.3-1.3-1.3c-0.8,0-1.2,0.5-1.3,1.3H265.9z"/>
			<path d="M270.6,291.5h1v1.2h-1v3.5c0,0.4,0,0.5,0.7,0.5c0.1,0,0.2,0,0.3,0v1.3c-0.3,0-0.5,0-0.8,0h-0.2c-1.5,0-1.7-0.6-1.7-1.4
				v-3.9h-0.9v-1.2h0.9v-1.7h1.7V291.5z"/>
			<path d="M274.4,290.8h-1.7v-1.6h1.7V290.8z M274.4,291.5v6.4h-1.7v-6.4H274.4z"/>
			<path d="M281.8,297.9h-1.7V294c0-0.5,0-1.3-1.1-1.3c-0.7,0-1.3,0.5-1.3,1.5v3.7h-1.7v-6.4h1.6v0.9h0c0.2-0.4,0.7-1.1,1.9-1.1
				c1.2,0,2.2,0.7,2.2,2.1V297.9z"/>
			<path d="M289.2,291.5v6c0,1.1-0.1,2.9-3.2,2.9c-1.3,0-2.7-0.6-2.8-1.9h1.8c0.1,0.3,0.2,0.6,1.2,0.6c0.9,0,1.3-0.4,1.3-1.5V297
				l0,0c-0.3,0.5-0.7,1-1.7,1c-1.5,0-2.7-1.1-2.7-3.3c0-2.2,1.2-3.3,2.7-3.3c1.2,0,1.7,0.7,1.9,1.1h0v-0.9H289.2z M286.1,296.5
				c1.1,0,1.4-1,1.4-1.8c0-1-0.5-1.9-1.4-1.9c-0.6,0-1.3,0.5-1.3,1.9C284.8,295.6,285.2,296.5,286.1,296.5z"/>
			<path d="M295.6,292.4L295.6,292.4c0.3-0.5,0.8-1.1,1.9-1.1c1.4,0,2.7,1.1,2.7,3.3c0,1.8-0.8,3.4-2.7,3.4c-1.2,0-1.6-0.6-1.8-1h0
				v3.3H294v-8.9h1.6V292.4z M297.1,296.7c1.1,0,1.4-1.2,1.4-1.9c0-1-0.4-2-1.4-2c-1.2,0-1.4,1-1.4,2.1
				C295.6,295.8,296,296.7,297.1,296.7z"/>
			<path d="M304.3,298.1c-1.7,0-3.3-1.1-3.3-3.4s1.5-3.4,3.3-3.4s3.3,1.1,3.3,3.4S306,298.1,304.3,298.1z M304.3,292.8
				c-1.3,0-1.5,1.1-1.5,1.9s0.2,1.9,1.5,1.9s1.5-1.1,1.5-1.9S305.6,292.8,304.3,292.8z"/>
			<path d="M308.7,291.5h1.6v1.1h0c0.3-0.6,0.7-1.3,1.8-1.3c0.1,0,0.2,0,0.3,0v1.7c-0.1,0-0.3,0-0.5,0c-1.3,0-1.5,0.8-1.5,1.5v3.3
				h-1.7V291.5z"/>
			<path d="M322.5,297.9h-1.7V294c0-0.5,0-1.3-1.1-1.3c-0.7,0-1.3,0.5-1.3,1.5v3.7h-1.7v-8.6h1.7v3.1h0c0.2-0.5,0.9-1,1.8-1
				c1.2,0,2.2,0.7,2.2,2.1V297.9z"/>
			<path d="M329.5,296c-0.4,1.5-1.7,2-2.8,2c-1.8,0-3.2-0.9-3.2-3.5c0-0.8,0.3-3.2,3.1-3.2c1.3,0,3,0.6,3,3.5v0.3h-4.4
				c0,0.5,0.1,1.6,1.5,1.6c0.5,0,0.9-0.2,1.1-0.7H329.5z M327.9,294.1c-0.1-1-0.8-1.3-1.3-1.3c-0.8,0-1.2,0.5-1.3,1.3H327.9z"/>
			<path d="M330.7,291.5h1.6v1.1h0c0.3-0.6,0.7-1.3,1.8-1.3c0.1,0,0.2,0,0.3,0v1.7c-0.1,0-0.3,0-0.5,0c-1.3,0-1.5,0.8-1.5,1.5v3.3
				h-1.7V291.5z"/>
			<path d="M340.9,296c-0.4,1.5-1.7,2-2.8,2c-1.8,0-3.2-0.9-3.2-3.5c0-0.8,0.3-3.2,3.1-3.2c1.3,0,3,0.6,3,3.5v0.3h-4.4
				c0,0.5,0.1,1.6,1.5,1.6c0.5,0,0.9-0.2,1.1-0.7H340.9z M339.2,294.1c-0.1-1-0.8-1.3-1.3-1.3c-0.8,0-1.2,0.5-1.3,1.3H339.2z"/>
			<path d="M347.8,297.9h-1.7V294c0-0.5,0-1.3-1.1-1.3c-0.7,0-1.3,0.5-1.3,1.5v3.7h-1.7v-6.4h1.6v0.9h0c0.2-0.4,0.7-1.1,1.9-1.1
				c1.2,0,2.2,0.7,2.2,2.1V297.9z"/>
			<path d="M354.9,295.6c-0.1,0.7-0.6,2.5-2.9,2.5c-2.4,0-3-1.8-3-3.2c0-2.1,0.9-3.5,3.1-3.5c1,0,2.7,0.5,2.8,2.4h-1.7
				c-0.1-0.4-0.3-1.1-1.1-1c-1.1,0-1.3,1.1-1.3,1.8c0,0.7,0,2.1,1.3,2.1c0.9,0,1.1-0.8,1.1-1.1H354.9z"/>
			<path d="M357.8,290.8h-1.7v-1.6h1.7V290.8z M357.8,291.5v6.4h-1.7v-6.4H357.8z"/>
			<path d="M364.6,296.7c0,0.8,0.2,0.9,0.4,1v0.3h-1.8c-0.1-0.3-0.1-0.4-0.2-0.8c-0.4,0.4-0.9,0.9-2.1,0.9c-1,0-1.9-0.5-1.9-1.9
				c0-1.2,0.8-1.9,1.9-2l1.5-0.2c0.3,0,0.6-0.1,0.6-0.5c0-0.7-0.7-0.7-1.1-0.7c-0.8,0-1,0.5-1,0.9h-1.6c0.2-2,1.5-2.2,2.9-2.2
				c0.9,0,2.5,0.3,2.5,1.8V296.7z M362.9,294.8c-0.2,0.1-0.4,0.2-1.1,0.3c-0.6,0.1-1.1,0.3-1.1,1c0,0.6,0.5,0.8,0.8,0.8
				c0.7,0,1.5-0.5,1.5-1.3V294.8z"/>
			<path d="M367.9,297.9h-1.8v-1.8h1.8V297.9z"/>
			<path d="M11.7,305.2H7.2v1.8h4.2v1.5H7.2v2.2h4.8v1.5H5.4v-8.6h6.3V305.2z"/>
			<path d="M15,312.3h-1.7v-8.6H15V312.3z"/>
			<path d="M25.8,305.9v6c0,1.1-0.1,2.9-3.2,2.9c-1.3,0-2.7-0.6-2.8-1.9h1.8c0.1,0.3,0.2,0.6,1.2,0.6c0.9,0,1.3-0.4,1.3-1.5v-0.8
				l0,0c-0.3,0.5-0.7,1-1.7,1c-1.5,0-2.7-1.1-2.7-3.3c0-2.2,1.2-3.3,2.7-3.3c1.2,0,1.7,0.7,1.9,1.1h0v-0.9H25.8z M22.7,310.9
				c1.1,0,1.4-1,1.4-1.8c0-1-0.5-1.9-1.4-1.9c-0.6,0-1.3,0.5-1.3,1.9C21.4,310,21.7,310.9,22.7,310.9z"/>
			<path d="M27.3,305.9h1.6v1.1h0c0.3-0.6,0.7-1.3,1.8-1.3c0.1,0,0.2,0,0.3,0v1.7c-0.1,0-0.3,0-0.5,0c-1.3,0-1.5,0.8-1.5,1.5v3.3
				h-1.7V305.9z"/>
			<path d="M37.7,312.3h-1.6v-0.9h0c-0.4,0.7-1.1,1.1-1.9,1.1c-1.3,0-2.2-0.7-2.2-2.4v-4.2h1.7v4c0,1,0.6,1.2,1.1,1.2
				c0.6,0,1.3-0.3,1.3-1.5v-3.7h1.7V312.3z"/>
			<path d="M40.9,306.8L40.9,306.8c0.3-0.5,0.8-1.1,1.9-1.1c1.4,0,2.7,1.1,2.7,3.3c0,1.8-0.8,3.4-2.7,3.4c-1.2,0-1.6-0.6-1.8-1h0
				v3.3h-1.7v-8.9h1.6V306.8z M42.3,311.1c1.1,0,1.4-1.2,1.4-1.9c0-1-0.4-2-1.4-2c-1.2,0-1.4,1-1.4,2.1
				C40.9,310.2,41.3,311.1,42.3,311.1z"/>
			<path d="M49.5,312.5c-1.7,0-3.3-1.1-3.3-3.4s1.5-3.4,3.3-3.4c1.7,0,3.3,1.1,3.3,3.4S51.2,312.5,49.5,312.5z M49.5,307.2
				c-1.3,0-1.5,1.1-1.5,1.9s0.2,1.9,1.5,1.9s1.5-1.1,1.5-1.9S50.8,307.2,49.5,307.2z"/>
			<path d="M63.1,312.3h-1.6v-0.8h0c-0.4,0.7-1.2,1-1.8,1c-1.9,0-2.7-1.7-2.7-3.4c0-2.2,1.2-3.3,2.7-3.3c1.1,0,1.6,0.6,1.8,1h0v-3.1
				h1.7V312.3z M60,311.1c1.1,0,1.5-0.9,1.5-1.8c0-1-0.3-2.1-1.4-2.1c-1.1,0-1.4,0.9-1.4,2C58.6,309.9,58.9,311.1,60,311.1z"/>
			<path d="M70.1,310.4c-0.4,1.5-1.7,2-2.8,2c-1.8,0-3.2-0.9-3.2-3.5c0-0.8,0.3-3.2,3.1-3.2c1.3,0,3,0.6,3,3.5v0.3h-4.4
				c0,0.5,0.1,1.6,1.5,1.6c0.5,0,0.9-0.2,1.1-0.7H70.1z M68.4,308.5c-0.1-1-0.8-1.3-1.3-1.3c-0.8,0-1.2,0.5-1.3,1.3H68.4z"/>
			<path d="M80.4,312.3h-1.6v-0.9h0c-0.4,0.7-1.1,1.1-1.9,1.1c-1.3,0-2.2-0.7-2.2-2.4v-4.2h1.7v4c0,1,0.6,1.2,1.1,1.2
				c0.6,0,1.3-0.3,1.3-1.5v-3.7h1.7V312.3z"/>
			<path d="M85.6,307.9c-0.1-0.4-0.2-0.8-1.1-0.8s-1,0.3-1,0.6c0,1,4,0.3,4,2.6c0,1.9-1.8,2.2-2.8,2.2c-1.5,0-3-0.5-3.1-2.2h1.7
				c0,0.5,0.3,0.9,1.4,0.9c0.9,0,1.1-0.4,1.1-0.7c0-1.1-4-0.3-4-2.7c0-0.9,0.6-2.1,2.6-2.1c1.2,0,2.7,0.3,2.9,2.1H85.6z"/>
			<path d="M94.4,312.3h-1.6v-0.9h0c-0.4,0.7-1.1,1.1-1.9,1.1c-1.3,0-2.2-0.7-2.2-2.4v-4.2h1.7v4c0,1,0.6,1.2,1.1,1.2
				c0.6,0,1.3-0.3,1.3-1.5v-3.7h1.7V312.3z"/>
			<path d="M101.1,311.1c0,0.8,0.2,0.9,0.4,1v0.3h-1.8c-0.1-0.3-0.1-0.4-0.2-0.8c-0.4,0.4-0.9,0.9-2.1,0.9c-1,0-1.9-0.5-1.9-1.9
				c0-1.2,0.8-1.9,1.9-2l1.5-0.2c0.3,0,0.6-0.1,0.6-0.5c0-0.7-0.7-0.7-1.1-0.7c-0.8,0-1,0.5-1,0.9h-1.6c0.2-2,1.5-2.2,2.9-2.2
				c0.9,0,2.5,0.3,2.5,1.8V311.1z M99.5,309.2c-0.2,0.1-0.4,0.2-1.1,0.3c-0.6,0.1-1.1,0.3-1.1,1c0,0.6,0.5,0.8,0.8,0.8
				c0.7,0,1.5-0.5,1.5-1.3V309.2z"/>
			<path d="M102.6,305.9h1.6v1.1h0c0.3-0.6,0.7-1.3,1.8-1.3c0.1,0,0.2,0,0.3,0v1.7c-0.1,0-0.3,0-0.5,0c-1.3,0-1.5,0.8-1.5,1.5v3.3
				h-1.7V305.9z"/>
			<path d="M109,305.2h-1.7v-1.6h1.7V305.2z M109,305.9v6.4h-1.7v-6.4H109z"/>
			<path d="M113.5,312.5c-1.7,0-3.3-1.1-3.3-3.4s1.5-3.4,3.3-3.4c1.7,0,3.3,1.1,3.3,3.4S115.2,312.5,113.5,312.5z M113.5,307.2
				c-1.3,0-1.5,1.1-1.5,1.9s0.2,1.9,1.5,1.9s1.5-1.1,1.5-1.9S114.8,307.2,113.5,307.2z"/>
			<path d="M121.6,307.9c-0.1-0.4-0.2-0.8-1.1-0.8s-1,0.3-1,0.6c0,1,4,0.3,4,2.6c0,1.9-1.8,2.2-2.8,2.2c-1.5,0-3-0.5-3.1-2.2h1.7
				c0,0.5,0.3,0.9,1.4,0.9c0.9,0,1.1-0.4,1.1-0.7c0-1.1-4-0.3-4-2.7c0-0.9,0.6-2.1,2.6-2.1c1.2,0,2.7,0.3,2.9,2.1H121.6z"/>
			<path d="M136.4,312.3h-1.7v-7.2h0l-1.6,7.2h-1.8l-1.6-7.2h0v7.2H128v-8.6h2.6l1.6,6.8h0l1.5-6.8h2.6V312.3z"/>
			<path d="M143.1,311.1c0,0.8,0.2,0.9,0.4,1v0.3h-1.8c-0.1-0.3-0.1-0.4-0.2-0.8c-0.4,0.4-0.9,0.9-2.1,0.9c-1,0-1.9-0.5-1.9-1.9
				c0-1.2,0.8-1.9,1.9-2l1.5-0.2c0.3,0,0.6-0.1,0.6-0.5c0-0.7-0.7-0.7-1.1-0.7c-0.8,0-1,0.5-1,0.9h-1.6c0.2-2,1.5-2.2,2.9-2.2
				c0.9,0,2.5,0.3,2.5,1.8V311.1z M141.5,309.2c-0.2,0.1-0.4,0.2-1.1,0.3c-0.6,0.1-1.1,0.3-1.1,1c0,0.6,0.5,0.8,0.8,0.8
				c0.7,0,1.5-0.5,1.5-1.3V309.2z"/>
			<path d="M144.6,305.9h1.6v1.1h0c0.3-0.6,0.7-1.3,1.8-1.3c0.1,0,0.2,0,0.3,0v1.7c-0.1,0-0.3,0-0.5,0c-1.3,0-1.5,0.8-1.5,1.5v3.3
				h-1.7V305.9z"/>
			<path d="M151,312.3h-1.7v-8.6h1.7v4.7l2.1-2.4h2.1l-2.3,2.5l2.3,3.9h-2l-1.5-2.7l-0.7,0.7V312.3z"/>
			<path d="M161.5,310.4c-0.4,1.5-1.7,2-2.8,2c-1.8,0-3.2-0.9-3.2-3.5c0-0.8,0.3-3.2,3.1-3.2c1.3,0,3,0.6,3,3.5v0.3h-4.4
				c0,0.5,0.1,1.6,1.5,1.6c0.5,0,0.9-0.2,1.1-0.7H161.5z M159.8,308.5c-0.1-1-0.8-1.3-1.3-1.3c-0.8,0-1.2,0.5-1.3,1.3H159.8z"/>
			<path d="M164.5,305.9h1v1.2h-1v3.5c0,0.4,0,0.5,0.7,0.5c0.1,0,0.2,0,0.3,0v1.3c-0.3,0-0.5,0-0.8,0h-0.2c-1.5,0-1.7-0.6-1.7-1.4
				v-3.9H162v-1.2h0.9v-1.7h1.7V305.9z"/>
			<path d="M168.4,305.2h-1.7v-1.6h1.7V305.2z M168.4,305.9v6.4h-1.7v-6.4H168.4z"/>
			<path d="M175.8,312.3h-1.7v-3.9c0-0.5,0-1.3-1.1-1.3c-0.7,0-1.3,0.5-1.3,1.5v3.7H170v-6.4h1.6v0.9h0c0.2-0.4,0.7-1.1,1.9-1.1
				c1.2,0,2.2,0.7,2.2,2.1V312.3z"/>
			<path d="M183.2,305.9v6c0,1.1-0.1,2.9-3.2,2.9c-1.3,0-2.7-0.6-2.8-1.9h1.8c0.1,0.3,0.2,0.6,1.2,0.6c0.9,0,1.3-0.4,1.3-1.5v-0.8
				l0,0c-0.3,0.5-0.7,1-1.7,1c-1.5,0-2.7-1.1-2.7-3.3c0-2.2,1.2-3.3,2.7-3.3c1.2,0,1.7,0.7,1.9,1.1h0v-0.9H183.2z M180.1,310.9
				c1.1,0,1.4-1,1.4-1.8c0-1-0.5-1.9-1.4-1.9c-0.6,0-1.3,0.5-1.3,1.9C178.8,310,179.1,310.9,180.1,310.9z"/>
			<path d="M189.9,305.9h1v1.2h-1v3.5c0,0.4,0,0.5,0.7,0.5c0.1,0,0.2,0,0.3,0v1.3c-0.3,0-0.5,0-0.8,0h-0.2c-1.5,0-1.7-0.6-1.7-1.4
				v-3.9h-0.9v-1.2h0.9v-1.7h1.7V305.9z"/>
			<path d="M193.7,305.2H192v-1.6h1.7V305.2z M193.7,305.9v6.4H192v-6.4H193.7z"/>
			<path d="M200.8,310.4c-0.4,1.5-1.7,2-2.8,2c-1.8,0-3.2-0.9-3.2-3.5c0-0.8,0.3-3.2,3.1-3.2c1.3,0,3,0.6,3,3.5v0.3h-4.4
				c0,0.5,0.1,1.6,1.5,1.6c0.5,0,0.9-0.2,1.1-0.7H200.8z M199.1,308.5c-0.1-1-0.8-1.3-1.3-1.3c-0.8,0-1.2,0.5-1.3,1.3H199.1z"/>
			<path d="M207.8,312.3h-1.7v-3.9c0-0.5,0-1.3-1.1-1.3c-0.7,0-1.3,0.5-1.3,1.5v3.7H202v-6.4h1.6v0.9h0c0.2-0.4,0.7-1.1,1.9-1.1
				c1.2,0,2.2,0.7,2.2,2.1V312.3z"/>
			<path d="M214.8,310.4c-0.4,1.5-1.7,2-2.8,2c-1.8,0-3.2-0.9-3.2-3.5c0-0.8,0.3-3.2,3.1-3.2c1.3,0,3,0.6,3,3.5v0.3h-4.4
				c0,0.5,0.1,1.6,1.5,1.6c0.5,0,0.9-0.2,1.1-0.7H214.8z M213.2,308.5c-0.1-1-0.8-1.3-1.3-1.3c-0.8,0-1.2,0.5-1.3,1.3H213.2z"/>
			<path d="M220.9,306.8L220.9,306.8c0.3-0.5,0.8-1.1,1.9-1.1c1.4,0,2.7,1.1,2.7,3.3c0,1.8-0.8,3.4-2.7,3.4c-1.2,0-1.6-0.6-1.8-1h0
				v3.3h-1.7v-8.9h1.6V306.8z M222.4,311.1c1.1,0,1.4-1.2,1.4-1.9c0-1-0.4-2-1.4-2c-1.2,0-1.4,1-1.4,2.1
				C220.9,310.2,221.3,311.1,222.4,311.1z"/>
			<path d="M232.1,310.4c-0.4,1.5-1.7,2-2.8,2c-1.8,0-3.2-0.9-3.2-3.5c0-0.8,0.3-3.2,3.1-3.2c1.3,0,3,0.6,3,3.5v0.3h-4.4
				c0,0.5,0.1,1.6,1.5,1.6c0.5,0,0.9-0.2,1.1-0.7H232.1z M230.5,308.5c-0.1-1-0.8-1.3-1.3-1.3c-0.8,0-1.2,0.5-1.3,1.3H230.5z"/>
			<path d="M233.3,305.9h1.6v1.1h0c0.3-0.6,0.7-1.3,1.8-1.3c0.1,0,0.2,0,0.3,0v1.7c-0.1,0-0.3,0-0.5,0c-1.3,0-1.5,0.8-1.5,1.5v3.3
				h-1.7V305.9z"/>
			<path d="M247.1,312.3h-1.7v-3.9c0-0.9-0.4-1.3-0.9-1.3c-0.8,0-1.1,0.6-1.1,1.3v3.8h-1.7v-3.8c0-0.5,0-1.3-1-1.3
				c-0.8,0-1,0.6-1,1.2v3.9H238v-6.4h1.6v0.9h0c0.2-0.4,0.7-1.1,1.8-1.1c0.9,0,1.3,0.3,1.8,1c0.2-0.3,0.7-1,1.7-1
				c1.2,0,2.2,0.7,2.2,2.1V312.3z"/>
			<path d="M250.4,305.2h-1.7v-1.6h1.7V305.2z M250.4,305.9v6.4h-1.7v-6.4H250.4z"/>
			<path d="M255.6,307.9c-0.1-0.4-0.2-0.8-1.1-0.8c-0.9,0-1,0.3-1,0.6c0,1,4,0.3,4,2.6c0,1.9-1.8,2.2-2.8,2.2c-1.5,0-3-0.5-3.1-2.2
				h1.7c0,0.5,0.3,0.9,1.4,0.9c0.9,0,1.1-0.4,1.1-0.7c0-1.1-4-0.3-4-2.7c0-0.9,0.6-2.1,2.6-2.1c1.2,0,2.7,0.3,2.9,2.1H255.6z"/>
			<path d="M261.6,312.5c-1.7,0-3.3-1.1-3.3-3.4s1.5-3.4,3.3-3.4s3.3,1.1,3.3,3.4S263.3,312.5,261.6,312.5z M261.6,307.2
				c-1.3,0-1.5,1.1-1.5,1.9s0.2,1.9,1.5,1.9s1.5-1.1,1.5-1.9S262.9,307.2,261.6,307.2z"/>
			<path d="M269.6,307.9c-0.1-0.4-0.2-0.8-1.1-0.8c-0.9,0-1,0.3-1,0.6c0,1,4,0.3,4,2.6c0,1.9-1.8,2.2-2.8,2.2c-1.5,0-3-0.5-3.1-2.2
				h1.7c0,0.5,0.3,0.9,1.4,0.9c0.9,0,1.1-0.4,1.1-0.7c0-1.1-4-0.3-4-2.7c0-0.9,0.6-2.1,2.6-2.1c1.2,0,2.7,0.3,2.9,2.1H269.6z"/>
			<path d="M281.9,312.3h-1.6v-0.8h0c-0.4,0.7-1.2,1-1.8,1c-1.9,0-2.7-1.7-2.7-3.4c0-2.2,1.2-3.3,2.7-3.3c1.1,0,1.6,0.6,1.8,1h0
				v-3.1h1.7V312.3z M278.8,311.1c1.1,0,1.5-0.9,1.5-1.8c0-1-0.3-2.1-1.4-2.1c-1.1,0-1.4,0.9-1.4,2
				C277.4,309.9,277.7,311.1,278.8,311.1z"/>
			<path d="M288.8,310.4c-0.4,1.5-1.7,2-2.8,2c-1.8,0-3.2-0.9-3.2-3.5c0-0.8,0.3-3.2,3.1-3.2c1.3,0,3,0.6,3,3.5v0.3h-4.4
				c0,0.5,0.1,1.6,1.5,1.6c0.5,0,0.9-0.2,1.1-0.7H288.8z M287.2,308.5c-0.1-1-0.8-1.3-1.3-1.3c-0.8,0-1.2,0.5-1.3,1.3H287.2z"/>
			<path d="M298.8,310.4c-0.4,1.5-1.7,2-2.8,2c-1.8,0-3.2-0.9-3.2-3.5c0-0.8,0.3-3.2,3.1-3.2c1.3,0,3,0.6,3,3.5v0.3h-4.4
				c0,0.5,0.1,1.6,1.5,1.6c0.5,0,0.9-0.2,1.1-0.7H298.8z M297.2,308.5c-0.1-1-0.8-1.3-1.3-1.3c-0.8,0-1.2,0.5-1.3,1.3H297.2z"/>
			<path d="M305.9,312.3h-1.6v-0.8h0c-0.4,0.7-1.2,1-1.8,1c-1.9,0-2.7-1.7-2.7-3.4c0-2.2,1.2-3.3,2.7-3.3c1.1,0,1.6,0.6,1.8,1h0
				v-3.1h1.7V312.3z M302.8,311.1c1.1,0,1.5-0.9,1.5-1.8c0-1-0.3-2.1-1.4-2.1c-1.1,0-1.4,0.9-1.4,2
				C301.4,309.9,301.7,311.1,302.8,311.1z"/>
			<path d="M309.1,305.2h-1.7v-1.6h1.7V305.2z M309.1,305.9v6.4h-1.7v-6.4H309.1z"/>
			<path d="M316.2,310c-0.1,0.7-0.6,2.5-2.9,2.5c-2.4,0-3-1.8-3-3.2c0-2.1,0.9-3.5,3.1-3.5c1,0,2.7,0.5,2.8,2.4h-1.7
				c-0.1-0.4-0.3-1.1-1.1-1c-1.1,0-1.3,1.1-1.3,1.8c0,0.7,0,2.1,1.3,2.1c0.9,0,1.1-0.8,1.1-1.1H316.2z"/>
			<path d="M319.1,305.2h-1.7v-1.6h1.7V305.2z M319.1,305.9v6.4h-1.7v-6.4H319.1z"/>
			<path d="M323.6,312.5c-1.7,0-3.3-1.1-3.3-3.4s1.5-3.4,3.3-3.4s3.3,1.1,3.3,3.4S325.3,312.5,323.6,312.5z M323.6,307.2
				c-1.3,0-1.5,1.1-1.5,1.9s0.2,1.9,1.5,1.9s1.5-1.1,1.5-1.9S324.9,307.2,323.6,307.2z M324.1,305.1h-1.2l1.1-1.8h1.8L324.1,305.1z"
				/>
			<path d="M333.8,312.3h-1.7v-3.9c0-0.5,0-1.3-1.1-1.3c-0.7,0-1.3,0.5-1.3,1.5v3.7H328v-6.4h1.6v0.9h0c0.2-0.4,0.7-1.1,1.9-1.1
				c1.2,0,2.2,0.7,2.2,2.1V312.3z"/>
			<path d="M337.2,312.3h-1.8v-1.8h1.8V312.3z"/>
			<path d="M11.7,319.6H7.2v1.8h4.2v1.5H7.2v2.2h4.8v1.5H5.4v-8.6h6.3V319.6z"/>
			<path d="M15,326.7h-1.7v-8.6H15V326.7z"/>
			<path d="M25.8,320.3v6c0,1.1-0.1,2.9-3.2,2.9c-1.3,0-2.7-0.6-2.8-1.9h1.8c0.1,0.3,0.2,0.6,1.2,0.6c0.9,0,1.3-0.4,1.3-1.5v-0.8
				l0,0c-0.3,0.5-0.7,1-1.7,1c-1.5,0-2.7-1.1-2.7-3.3c0-2.2,1.2-3.3,2.7-3.3c1.2,0,1.7,0.7,1.9,1.1h0v-0.9H25.8z M22.7,325.3
				c1.1,0,1.4-1,1.4-1.8c0-1-0.5-1.9-1.4-1.9c-0.6,0-1.3,0.5-1.3,1.9C21.4,324.4,21.7,325.3,22.7,325.3z"/>
			<path d="M27.3,320.3h1.6v1.1h0c0.3-0.6,0.7-1.3,1.8-1.3c0.1,0,0.2,0,0.3,0v1.7c-0.1,0-0.3,0-0.5,0c-1.3,0-1.5,0.8-1.5,1.5v3.3
				h-1.7V320.3z"/>
			<path d="M37.7,326.7h-1.6v-0.9h0c-0.4,0.7-1.1,1.1-1.9,1.1c-1.3,0-2.2-0.7-2.2-2.4v-4.2h1.7v4c0,1,0.6,1.2,1.1,1.2
				c0.6,0,1.3-0.3,1.3-1.5v-3.7h1.7V326.7z"/>
			<path d="M40.9,321.2L40.9,321.2c0.3-0.5,0.8-1.1,1.9-1.1c1.4,0,2.7,1.1,2.7,3.3c0,1.8-0.8,3.4-2.7,3.4c-1.2,0-1.6-0.6-1.8-1h0
				v3.3h-1.7v-8.9h1.6V321.2z M42.3,325.5c1.1,0,1.4-1.2,1.4-1.9c0-1-0.4-2-1.4-2c-1.2,0-1.4,1-1.4,2.1
				C40.9,324.6,41.3,325.5,42.3,325.5z"/>
			<path d="M49.5,326.9c-1.7,0-3.3-1.1-3.3-3.4s1.5-3.4,3.3-3.4c1.7,0,3.3,1.1,3.3,3.4S51.2,326.9,49.5,326.9z M49.5,321.6
				c-1.3,0-1.5,1.1-1.5,1.9s0.2,1.9,1.5,1.9s1.5-1.1,1.5-1.9S50.8,321.6,49.5,321.6z"/>
			<path d="M63.1,326.7h-1.6v-0.8h0c-0.4,0.7-1.2,1-1.8,1c-1.9,0-2.7-1.7-2.7-3.4c0-2.2,1.2-3.3,2.7-3.3c1.1,0,1.6,0.6,1.8,1h0v-3.1
				h1.7V326.7z M60,325.5c1.1,0,1.5-0.9,1.5-1.8c0-1-0.3-2.1-1.4-2.1c-1.1,0-1.4,0.9-1.4,2C58.6,324.3,58.9,325.5,60,325.5z"/>
			<path d="M70.1,324.8c-0.4,1.5-1.7,2-2.8,2c-1.8,0-3.2-0.9-3.2-3.5c0-0.8,0.3-3.2,3.1-3.2c1.3,0,3,0.6,3,3.5v0.3h-4.4
				c0,0.5,0.1,1.6,1.5,1.6c0.5,0,0.9-0.2,1.1-0.7H70.1z M68.4,322.9c-0.1-1-0.8-1.3-1.3-1.3c-0.8,0-1.2,0.5-1.3,1.3H68.4z"/>
			<path d="M80.4,326.7h-1.6v-0.9h0c-0.4,0.7-1.1,1.1-1.9,1.1c-1.3,0-2.2-0.7-2.2-2.4v-4.2h1.7v4c0,1,0.6,1.2,1.1,1.2
				c0.6,0,1.3-0.3,1.3-1.5v-3.7h1.7V326.7z"/>
			<path d="M85.6,322.3c-0.1-0.4-0.2-0.8-1.1-0.8s-1,0.3-1,0.6c0,1,4,0.3,4,2.6c0,1.9-1.8,2.2-2.8,2.2c-1.5,0-3-0.5-3.1-2.2h1.7
				c0,0.5,0.3,0.9,1.4,0.9c0.9,0,1.1-0.4,1.1-0.7c0-1.1-4-0.3-4-2.7c0-0.9,0.6-2.1,2.6-2.1c1.2,0,2.7,0.3,2.9,2.1H85.6z"/>
			<path d="M94.4,326.7h-1.6v-0.9h0c-0.4,0.7-1.1,1.1-1.9,1.1c-1.3,0-2.2-0.7-2.2-2.4v-4.2h1.7v4c0,1,0.6,1.2,1.1,1.2
				c0.6,0,1.3-0.3,1.3-1.5v-3.7h1.7V326.7z"/>
			<path d="M101.1,325.5c0,0.8,0.2,0.9,0.4,1v0.3h-1.8c-0.1-0.3-0.1-0.4-0.2-0.8c-0.4,0.4-0.9,0.9-2.1,0.9c-1,0-1.9-0.5-1.9-1.9
				c0-1.2,0.8-1.9,1.9-2l1.5-0.2c0.3,0,0.6-0.1,0.6-0.5c0-0.7-0.7-0.7-1.1-0.7c-0.8,0-1,0.5-1,0.9h-1.6c0.2-2,1.5-2.2,2.9-2.2
				c0.9,0,2.5,0.3,2.5,1.8V325.5z M99.5,323.6c-0.2,0.1-0.4,0.2-1.1,0.3c-0.6,0.1-1.1,0.3-1.1,1c0,0.6,0.5,0.8,0.8,0.8
				c0.7,0,1.5-0.5,1.5-1.3V323.6z"/>
			<path d="M102.6,320.3h1.6v1.1h0c0.3-0.6,0.7-1.3,1.8-1.3c0.1,0,0.2,0,0.3,0v1.7c-0.1,0-0.3,0-0.5,0c-1.3,0-1.5,0.8-1.5,1.5v3.3
				h-1.7V320.3z"/>
			<path d="M109,319.6h-1.7V318h1.7V319.6z M109,320.3v6.4h-1.7v-6.4H109z"/>
			<path d="M113.5,326.9c-1.7,0-3.3-1.1-3.3-3.4s1.5-3.4,3.3-3.4c1.7,0,3.3,1.1,3.3,3.4S115.2,326.9,113.5,326.9z M113.5,321.6
				c-1.3,0-1.5,1.1-1.5,1.9s0.2,1.9,1.5,1.9s1.5-1.1,1.5-1.9S114.8,321.6,113.5,321.6z"/>
			<path d="M121.6,322.3c-0.1-0.4-0.2-0.8-1.1-0.8s-1,0.3-1,0.6c0,1,4,0.3,4,2.6c0,1.9-1.8,2.2-2.8,2.2c-1.5,0-3-0.5-3.1-2.2h1.7
				c0,0.5,0.3,0.9,1.4,0.9c0.9,0,1.1-0.4,1.1-0.7c0-1.1-4-0.3-4-2.7c0-0.9,0.6-2.1,2.6-2.1c1.2,0,2.7,0.3,2.9,2.1H121.6z"/>
			<path d="M136.4,326.7h-1.7v-7.2h0l-1.6,7.2h-1.8l-1.6-7.2h0v7.2H128v-8.6h2.6l1.6,6.8h0l1.5-6.8h2.6V326.7z"/>
			<path d="M143.1,325.5c0,0.8,0.2,0.9,0.4,1v0.3h-1.8c-0.1-0.3-0.1-0.4-0.2-0.8c-0.4,0.4-0.9,0.9-2.1,0.9c-1,0-1.9-0.5-1.9-1.9
				c0-1.2,0.8-1.9,1.9-2l1.5-0.2c0.3,0,0.6-0.1,0.6-0.5c0-0.7-0.7-0.7-1.1-0.7c-0.8,0-1,0.5-1,0.9h-1.6c0.2-2,1.5-2.2,2.9-2.2
				c0.9,0,2.5,0.3,2.5,1.8V325.5z M141.5,323.6c-0.2,0.1-0.4,0.2-1.1,0.3c-0.6,0.1-1.1,0.3-1.1,1c0,0.6,0.5,0.8,0.8,0.8
				c0.7,0,1.5-0.5,1.5-1.3V323.6z"/>
			<path d="M144.6,320.3h1.6v1.1h0c0.3-0.6,0.7-1.3,1.8-1.3c0.1,0,0.2,0,0.3,0v1.7c-0.1,0-0.3,0-0.5,0c-1.3,0-1.5,0.8-1.5,1.5v3.3
				h-1.7V320.3z"/>
			<path d="M151,326.7h-1.7v-8.6h1.7v4.7l2.1-2.4h2.1l-2.3,2.5l2.3,3.9h-2l-1.5-2.7l-0.7,0.7V326.7z"/>
			<path d="M161.5,324.8c-0.4,1.5-1.7,2-2.8,2c-1.8,0-3.2-0.9-3.2-3.5c0-0.8,0.3-3.2,3.1-3.2c1.3,0,3,0.6,3,3.5v0.3h-4.4
				c0,0.5,0.1,1.6,1.5,1.6c0.5,0,0.9-0.2,1.1-0.7H161.5z M159.8,322.9c-0.1-1-0.8-1.3-1.3-1.3c-0.8,0-1.2,0.5-1.3,1.3H159.8z"/>
			<path d="M164.5,320.3h1v1.2h-1v3.5c0,0.4,0,0.5,0.7,0.5c0.1,0,0.2,0,0.3,0v1.3c-0.3,0-0.5,0-0.8,0h-0.2c-1.5,0-1.7-0.6-1.7-1.4
				v-3.9H162v-1.2h0.9v-1.7h1.7V320.3z"/>
			<path d="M168.4,319.6h-1.7V318h1.7V319.6z M168.4,320.3v6.4h-1.7v-6.4H168.4z"/>
			<path d="M175.8,326.7h-1.7v-3.9c0-0.5,0-1.3-1.1-1.3c-0.7,0-1.3,0.5-1.3,1.5v3.7H170v-6.4h1.6v0.9h0c0.2-0.4,0.7-1.1,1.9-1.1
				c1.2,0,2.2,0.7,2.2,2.1V326.7z"/>
			<path d="M183.2,320.3v6c0,1.1-0.1,2.9-3.2,2.9c-1.3,0-2.7-0.6-2.8-1.9h1.8c0.1,0.3,0.2,0.6,1.2,0.6c0.9,0,1.3-0.4,1.3-1.5v-0.8
				l0,0c-0.3,0.5-0.7,1-1.7,1c-1.5,0-2.7-1.1-2.7-3.3c0-2.2,1.2-3.3,2.7-3.3c1.2,0,1.7,0.7,1.9,1.1h0v-0.9H183.2z M180.1,325.3
				c1.1,0,1.4-1,1.4-1.8c0-1-0.5-1.9-1.4-1.9c-0.6,0-1.3,0.5-1.3,1.9C178.8,324.4,179.1,325.3,180.1,325.3z"/>
			<path d="M189.9,320.3h1v1.2h-1v3.5c0,0.4,0,0.5,0.7,0.5c0.1,0,0.2,0,0.3,0v1.3c-0.3,0-0.5,0-0.8,0h-0.2c-1.5,0-1.7-0.6-1.7-1.4
				v-3.9h-0.9v-1.2h0.9v-1.7h1.7V320.3z"/>
			<path d="M193.7,319.6H192V318h1.7V319.6z M193.7,320.3v6.4H192v-6.4H193.7z"/>
			<path d="M200.8,324.8c-0.4,1.5-1.7,2-2.8,2c-1.8,0-3.2-0.9-3.2-3.5c0-0.8,0.3-3.2,3.1-3.2c1.3,0,3,0.6,3,3.5v0.3h-4.4
				c0,0.5,0.1,1.6,1.5,1.6c0.5,0,0.9-0.2,1.1-0.7H200.8z M199.1,322.9c-0.1-1-0.8-1.3-1.3-1.3c-0.8,0-1.2,0.5-1.3,1.3H199.1z"/>
			<path d="M207.8,326.7h-1.7v-3.9c0-0.5,0-1.3-1.1-1.3c-0.7,0-1.3,0.5-1.3,1.5v3.7H202v-6.4h1.6v0.9h0c0.2-0.4,0.7-1.1,1.9-1.1
				c1.2,0,2.2,0.7,2.2,2.1V326.7z"/>
			<path d="M214.8,324.8c-0.4,1.5-1.7,2-2.8,2c-1.8,0-3.2-0.9-3.2-3.5c0-0.8,0.3-3.2,3.1-3.2c1.3,0,3,0.6,3,3.5v0.3h-4.4
				c0,0.5,0.1,1.6,1.5,1.6c0.5,0,0.9-0.2,1.1-0.7H214.8z M213.2,322.9c-0.1-1-0.8-1.3-1.3-1.3c-0.8,0-1.2,0.5-1.3,1.3H213.2z"/>
			<path d="M220.9,321.2L220.9,321.2c0.3-0.5,0.8-1.1,1.9-1.1c1.4,0,2.7,1.1,2.7,3.3c0,1.8-0.8,3.4-2.7,3.4c-1.2,0-1.6-0.6-1.8-1h0
				v3.3h-1.7v-8.9h1.6V321.2z M222.4,325.5c1.1,0,1.4-1.2,1.4-1.9c0-1-0.4-2-1.4-2c-1.2,0-1.4,1-1.4,2.1
				C220.9,324.6,221.3,325.5,222.4,325.5z"/>
			<path d="M232.1,324.8c-0.4,1.5-1.7,2-2.8,2c-1.8,0-3.2-0.9-3.2-3.5c0-0.8,0.3-3.2,3.1-3.2c1.3,0,3,0.6,3,3.5v0.3h-4.4
				c0,0.5,0.1,1.6,1.5,1.6c0.5,0,0.9-0.2,1.1-0.7H232.1z M230.5,322.9c-0.1-1-0.8-1.3-1.3-1.3c-0.8,0-1.2,0.5-1.3,1.3H230.5z"/>
			<path d="M233.3,320.3h1.6v1.1h0c0.3-0.6,0.7-1.3,1.8-1.3c0.1,0,0.2,0,0.3,0v1.7c-0.1,0-0.3,0-0.5,0c-1.3,0-1.5,0.8-1.5,1.5v3.3
				h-1.7V320.3z"/>
			<path d="M247.1,326.7h-1.7v-3.9c0-0.9-0.4-1.3-0.9-1.3c-0.8,0-1.1,0.6-1.1,1.3v3.8h-1.7v-3.8c0-0.5,0-1.3-1-1.3
				c-0.8,0-1,0.6-1,1.2v3.9H238v-6.4h1.6v0.9h0c0.2-0.4,0.7-1.1,1.8-1.1c0.9,0,1.3,0.3,1.8,1c0.2-0.3,0.7-1,1.7-1
				c1.2,0,2.2,0.7,2.2,2.1V326.7z"/>
			<path d="M250.4,319.6h-1.7V318h1.7V319.6z M250.4,320.3v6.4h-1.7v-6.4H250.4z"/>
			<path d="M255.6,322.3c-0.1-0.4-0.2-0.8-1.1-0.8c-0.9,0-1,0.3-1,0.6c0,1,4,0.3,4,2.6c0,1.9-1.8,2.2-2.8,2.2c-1.5,0-3-0.5-3.1-2.2
				h1.7c0,0.5,0.3,0.9,1.4,0.9c0.9,0,1.1-0.4,1.1-0.7c0-1.1-4-0.3-4-2.7c0-0.9,0.6-2.1,2.6-2.1c1.2,0,2.7,0.3,2.9,2.1H255.6z"/>
			<path d="M261.6,326.9c-1.7,0-3.3-1.1-3.3-3.4s1.5-3.4,3.3-3.4s3.3,1.1,3.3,3.4S263.3,326.9,261.6,326.9z M261.6,321.6
				c-1.3,0-1.5,1.1-1.5,1.9s0.2,1.9,1.5,1.9s1.5-1.1,1.5-1.9S262.9,321.6,261.6,321.6z"/>
			<path d="M269.6,322.3c-0.1-0.4-0.2-0.8-1.1-0.8c-0.9,0-1,0.3-1,0.6c0,1,4,0.3,4,2.6c0,1.9-1.8,2.2-2.8,2.2c-1.5,0-3-0.5-3.1-2.2
				h1.7c0,0.5,0.3,0.9,1.4,0.9c0.9,0,1.1-0.4,1.1-0.7c0-1.1-4-0.3-4-2.7c0-0.9,0.6-2.1,2.6-2.1c1.2,0,2.7,0.3,2.9,2.1H269.6z"/>
			<path d="M281.9,326.7h-1.6v-0.8h0c-0.4,0.7-1.2,1-1.8,1c-1.9,0-2.7-1.7-2.7-3.4c0-2.2,1.2-3.3,2.7-3.3c1.1,0,1.6,0.6,1.8,1h0
				v-3.1h1.7V326.7z M278.8,325.5c1.1,0,1.5-0.9,1.5-1.8c0-1-0.3-2.1-1.4-2.1c-1.1,0-1.4,0.9-1.4,2
				C277.4,324.3,277.7,325.5,278.8,325.5z"/>
			<path d="M288.8,324.8c-0.4,1.5-1.7,2-2.8,2c-1.8,0-3.2-0.9-3.2-3.5c0-0.8,0.3-3.2,3.1-3.2c1.3,0,3,0.6,3,3.5v0.3h-4.4
				c0,0.5,0.1,1.6,1.5,1.6c0.5,0,0.9-0.2,1.1-0.7H288.8z M287.2,322.9c-0.1-1-0.8-1.3-1.3-1.3c-0.8,0-1.2,0.5-1.3,1.3H287.2z"/>
			<path d="M298.8,324.8c-0.4,1.5-1.7,2-2.8,2c-1.8,0-3.2-0.9-3.2-3.5c0-0.8,0.3-3.2,3.1-3.2c1.3,0,3,0.6,3,3.5v0.3h-4.4
				c0,0.5,0.1,1.6,1.5,1.6c0.5,0,0.9-0.2,1.1-0.7H298.8z M297.2,322.9c-0.1-1-0.8-1.3-1.3-1.3c-0.8,0-1.2,0.5-1.3,1.3H297.2z"/>
			<path d="M305.9,326.7h-1.6v-0.8h0c-0.4,0.7-1.2,1-1.8,1c-1.9,0-2.7-1.7-2.7-3.4c0-2.2,1.2-3.3,2.7-3.3c1.1,0,1.6,0.6,1.8,1h0
				v-3.1h1.7V326.7z M302.8,325.5c1.1,0,1.5-0.9,1.5-1.8c0-1-0.3-2.1-1.4-2.1c-1.1,0-1.4,0.9-1.4,2
				C301.4,324.3,301.7,325.5,302.8,325.5z"/>
			<path d="M309.1,319.6h-1.7V318h1.7V319.6z M309.1,320.3v6.4h-1.7v-6.4H309.1z"/>
			<path d="M316.2,324.4c-0.1,0.7-0.6,2.5-2.9,2.5c-2.4,0-3-1.8-3-3.2c0-2.1,0.9-3.5,3.1-3.5c1,0,2.7,0.5,2.8,2.4h-1.7
				c-0.1-0.4-0.3-1.1-1.1-1c-1.1,0-1.3,1.1-1.3,1.8c0,0.7,0,2.1,1.3,2.1c0.9,0,1.1-0.8,1.1-1.1H316.2z"/>
			<path d="M319.1,319.6h-1.7V318h1.7V319.6z M319.1,320.3v6.4h-1.7v-6.4H319.1z"/>
			<path d="M323.6,326.9c-1.7,0-3.3-1.1-3.3-3.4s1.5-3.4,3.3-3.4s3.3,1.1,3.3,3.4S325.3,326.9,323.6,326.9z M323.6,321.6
				c-1.3,0-1.5,1.1-1.5,1.9s0.2,1.9,1.5,1.9s1.5-1.1,1.5-1.9S324.9,321.6,323.6,321.6z M324.1,319.5h-1.2l1.1-1.8h1.8L324.1,319.5z"
				/>
			<path d="M333.8,326.7h-1.7v-3.9c0-0.5,0-1.3-1.1-1.3c-0.7,0-1.3,0.5-1.3,1.5v3.7H328v-6.4h1.6v0.9h0c0.2-0.4,0.7-1.1,1.9-1.1
				c1.2,0,2.2,0.7,2.2,2.1V326.7z"/>
			<path d="M10.8,339.2c-0.4,1.5-1.7,2-2.8,2c-1.8,0-3.2-0.9-3.2-3.5c0-0.8,0.3-3.2,3.1-3.2c1.3,0,3,0.6,3,3.5v0.3H6.5
				c0,0.5,0.1,1.6,1.5,1.6c0.5,0,0.9-0.2,1.1-0.7H10.8z M9.1,337.3c-0.1-1-0.8-1.3-1.3-1.3c-0.8,0-1.2,0.5-1.3,1.3H9.1z"/>
			<path d="M17.7,341.1H16v-3.9c0-0.5,0-1.3-1.1-1.3c-0.7,0-1.3,0.5-1.3,1.5v3.7H12v-6.4h1.6v0.9h0c0.2-0.4,0.7-1.1,1.9-1.1
				c1.2,0,2.2,0.7,2.2,2.1V341.1z"/>
			<path d="M24.5,334.7h1v1.2h-1v3.5c0,0.4,0,0.5,0.7,0.5c0.1,0,0.2,0,0.3,0v1.3c-0.3,0-0.5,0-0.8,0h-0.2c-1.5,0-1.7-0.6-1.7-1.4
				v-3.9H22v-1.2h0.9V333h1.7V334.7z"/>
			<path d="M29.5,341.3c-1.7,0-3.3-1.1-3.3-3.4s1.5-3.4,3.3-3.4c1.7,0,3.3,1.1,3.3,3.4S31.2,341.3,29.5,341.3z M29.5,336
				c-1.3,0-1.5,1.1-1.5,1.9s0.2,1.9,1.5,1.9s1.5-1.1,1.5-1.9S30.8,336,29.5,336z"/>
			<path d="M39.8,341.1h-1.6v-0.8h0c-0.4,0.7-1.2,1-1.8,1c-1.9,0-2.7-1.7-2.7-3.4c0-2.2,1.2-3.3,2.7-3.3c1.1,0,1.6,0.6,1.8,1h0v-3.1
				h1.7V341.1z M36.7,339.9c1.1,0,1.5-0.9,1.5-1.8c0-1-0.3-2.1-1.4-2.1c-1.1,0-1.4,0.9-1.4,2C35.3,338.7,35.6,339.9,36.7,339.9z"/>
			<path d="M46.4,339.9c0,0.8,0.2,0.9,0.4,1v0.3H45c-0.1-0.3-0.1-0.4-0.2-0.8c-0.4,0.4-0.9,0.9-2.1,0.9c-1,0-1.9-0.5-1.9-1.9
				c0-1.2,0.8-1.9,1.9-2l1.5-0.2c0.3,0,0.6-0.1,0.6-0.5c0-0.7-0.7-0.7-1.1-0.7c-0.8,0-1,0.5-1,0.9h-1.6c0.2-2,1.5-2.2,2.9-2.2
				c0.9,0,2.5,0.3,2.5,1.8V339.9z M44.8,338c-0.2,0.1-0.4,0.2-1.1,0.3c-0.6,0.1-1.1,0.3-1.1,1c0,0.6,0.5,0.8,0.8,0.8
				c0.7,0,1.5-0.5,1.5-1.3V338z"/>
			<path d="M51.6,336.7c-0.1-0.4-0.2-0.8-1.1-0.8s-1,0.3-1,0.6c0,1,4,0.3,4,2.6c0,1.9-1.8,2.2-2.8,2.2c-1.5,0-3-0.5-3.1-2.2h1.7
				c0,0.5,0.3,0.9,1.4,0.9c0.9,0,1.1-0.4,1.1-0.7c0-1.1-4-0.3-4-2.7c0-0.9,0.6-2.1,2.6-2.1c1.2,0,2.7,0.3,2.9,2.1H51.6z"/>
			<path d="M59.7,341.1H58v-8.6h1.7V341.1z"/>
			<path d="M66.5,339.9c0,0.8,0.2,0.9,0.4,1v0.3H65c-0.1-0.3-0.1-0.4-0.2-0.8c-0.4,0.4-0.9,0.9-2.1,0.9c-1,0-1.9-0.5-1.9-1.9
				c0-1.2,0.8-1.9,1.9-2l1.5-0.2c0.3,0,0.6-0.1,0.6-0.5c0-0.7-0.7-0.7-1.1-0.7c-0.8,0-1,0.5-1,0.9h-1.6c0.2-2,1.5-2.2,2.9-2.2
				c0.9,0,2.5,0.3,2.5,1.8V339.9z M64.8,338c-0.2,0.1-0.4,0.2-1.1,0.3c-0.6,0.1-1.1,0.3-1.1,1c0,0.6,0.5,0.8,0.8,0.8
				c0.7,0,1.5-0.5,1.5-1.3V338z"/>
			<path d="M71.6,336.7c-0.1-0.4-0.2-0.8-1.1-0.8s-1,0.3-1,0.6c0,1,4,0.3,4,2.6c0,1.9-1.8,2.2-2.8,2.2c-1.5,0-3-0.5-3.1-2.2h1.7
				c0,0.5,0.3,0.9,1.4,0.9c0.9,0,1.1-0.4,1.1-0.7c0-1.1-4-0.3-4-2.7c0-0.9,0.6-2.1,2.6-2.1c1.2,0,2.7,0.3,2.9,2.1H71.6z"/>
			<path d="M83.5,338.8c-0.1,0.7-0.6,2.5-2.9,2.5c-2.4,0-3-1.8-3-3.2c0-2.1,0.9-3.5,3.1-3.5c1,0,2.7,0.5,2.8,2.4h-1.7
				c-0.1-0.4-0.3-1.1-1.1-1c-1.1,0-1.3,1.1-1.3,1.8c0,0.7,0,2.1,1.3,2.1c0.9,0,1.1-0.8,1.1-1.1H83.5z"/>
			<path d="M89.8,339.9c0,0.8,0.2,0.9,0.4,1v0.3h-1.8c-0.1-0.3-0.1-0.4-0.2-0.8c-0.4,0.4-0.9,0.9-2.1,0.9c-1,0-1.9-0.5-1.9-1.9
				c0-1.2,0.8-1.9,1.9-2l1.5-0.2c0.3,0,0.6-0.1,0.6-0.5c0-0.7-0.7-0.7-1.1-0.7c-0.8,0-1,0.5-1,0.9h-1.6c0.2-2,1.5-2.2,2.9-2.2
				c0.9,0,2.5,0.3,2.5,1.8V339.9z M88.2,338c-0.2,0.1-0.4,0.2-1.1,0.3c-0.6,0.1-1.1,0.3-1.1,1c0,0.6,0.5,0.8,0.8,0.8
				c0.7,0,1.5-0.5,1.5-1.3V338z"/>
			<path d="M91.3,334.7h1.6v1.1h0c0.3-0.6,0.7-1.3,1.8-1.3c0.1,0,0.2,0,0.3,0v1.7c-0.1,0-0.3,0-0.5,0c-1.3,0-1.5,0.8-1.5,1.5v3.3
				h-1.7V334.7z"/>
			<path d="M97.6,335.6L97.6,335.6c0.3-0.5,0.8-1.1,1.9-1.1c1.4,0,2.7,1.1,2.7,3.3c0,1.8-0.8,3.4-2.7,3.4c-1.2,0-1.6-0.6-1.8-1h0
				v3.3H96v-8.9h1.6V335.6z M99,339.9c1.1,0,1.4-1.2,1.4-1.9c0-1-0.4-2-1.4-2c-1.2,0-1.4,1-1.4,2.1C97.6,339,98,339.9,99,339.9z"/>
			<path d="M108.8,339.2c-0.4,1.5-1.7,2-2.8,2c-1.8,0-3.2-0.9-3.2-3.5c0-0.8,0.3-3.2,3.1-3.2c1.3,0,3,0.6,3,3.5v0.3h-4.4
				c0,0.5,0.1,1.6,1.5,1.6c0.5,0,0.9-0.2,1.1-0.7H108.8z M107.1,337.3c-0.1-1-0.8-1.3-1.3-1.3c-0.8,0-1.2,0.5-1.3,1.3H107.1z"/>
			<path d="M111.9,334.7h1v1.2h-1v3.5c0,0.4,0,0.5,0.7,0.5c0.1,0,0.2,0,0.3,0v1.3c-0.3,0-0.5,0-0.8,0h-0.2c-1.5,0-1.7-0.6-1.7-1.4
				v-3.9h-0.9v-1.2h0.9V333h1.7V334.7z"/>
			<path d="M119.2,339.9c0,0.8,0.2,0.9,0.4,1v0.3h-1.8c-0.1-0.3-0.1-0.4-0.2-0.8c-0.4,0.4-0.9,0.9-2.1,0.9c-1,0-1.9-0.5-1.9-1.9
				c0-1.2,0.8-1.9,1.9-2l1.5-0.2c0.3,0,0.6-0.1,0.6-0.5c0-0.7-0.7-0.7-1.1-0.7c-0.8,0-1,0.5-1,0.9h-1.6c0.2-2,1.5-2.2,2.9-2.2
				c0.9,0,2.5,0.3,2.5,1.8V339.9z M117.5,338c-0.2,0.1-0.4,0.2-1.1,0.3c-0.6,0.1-1.1,0.3-1.1,1c0,0.6,0.5,0.8,0.8,0.8
				c0.7,0,1.5-0.5,1.5-1.3V338z"/>
			<path d="M124.3,336.7c-0.1-0.4-0.2-0.8-1.1-0.8s-1,0.3-1,0.6c0,1,4,0.3,4,2.6c0,1.9-1.8,2.2-2.8,2.2c-1.5,0-3-0.5-3.1-2.2h1.7
				c0,0.5,0.3,0.9,1.4,0.9c0.9,0,1.1-0.4,1.1-0.7c0-1.1-4-0.3-4-2.7c0-0.9,0.6-2.1,2.6-2.1c1.2,0,2.7,0.3,2.9,2.1H124.3z"/>
			<path d="M134.3,336.7c-0.1-0.4-0.2-0.8-1.1-0.8s-1,0.3-1,0.6c0,1,4,0.3,4,2.6c0,1.9-1.8,2.2-2.8,2.2c-1.5,0-3-0.5-3.1-2.2h1.7
				c0,0.5,0.3,0.9,1.4,0.9c0.9,0,1.1-0.4,1.1-0.7c0-1.1-4-0.3-4-2.7c0-0.9,0.6-2.1,2.6-2.1c1.2,0,2.7,0.3,2.9,2.1H134.3z"/>
			<path d="M142.8,339.2c-0.4,1.5-1.7,2-2.8,2c-1.8,0-3.2-0.9-3.2-3.5c0-0.8,0.3-3.2,3.1-3.2c1.3,0,3,0.6,3,3.5v0.3h-4.4
				c0,0.5,0.1,1.6,1.5,1.6c0.5,0,0.9-0.2,1.1-0.7H142.8z M141.2,337.3c-0.1-1-0.8-1.3-1.3-1.3c-0.8,0-1.2,0.5-1.3,1.3H141.2z"/>
			<path d="M149.5,338.8c-0.1,0.7-0.6,2.5-2.9,2.5c-2.4,0-3-1.8-3-3.2c0-2.1,0.9-3.5,3.1-3.5c1,0,2.7,0.5,2.8,2.4h-1.7
				c-0.1-0.4-0.3-1.1-1.1-1c-1.1,0-1.3,1.1-1.3,1.8c0,0.7,0,2.1,1.3,2.1c0.9,0,1.1-0.8,1.1-1.1H149.5z"/>
			<path d="M156.4,341.1h-1.6v-0.9h0c-0.4,0.7-1.1,1.1-1.9,1.1c-1.3,0-2.2-0.7-2.2-2.4v-4.2h1.7v4c0,1,0.6,1.2,1.1,1.2
				c0.6,0,1.3-0.3,1.3-1.5v-3.7h1.7V341.1z"/>
			<path d="M163.8,341.1h-1.7v-3.9c0-0.5,0-1.3-1.1-1.3c-0.7,0-1.3,0.5-1.3,1.5v3.7H158v-6.4h1.6v0.9h0c0.2-0.4,0.7-1.1,1.9-1.1
				c1.2,0,2.2,0.7,2.2,2.1V341.1z"/>
			<path d="M171.2,341.1h-1.6v-0.8h0c-0.4,0.7-1.2,1-1.8,1c-1.9,0-2.7-1.7-2.7-3.4c0-2.2,1.2-3.3,2.7-3.3c1.1,0,1.6,0.6,1.8,1h0
				v-3.1h1.7V341.1z M168.1,339.9c1.1,0,1.5-0.9,1.5-1.8c0-1-0.3-2.1-1.4-2.1c-1.1,0-1.4,0.9-1.4,2
				C166.7,338.7,167,339.9,168.1,339.9z"/>
			<path d="M177.8,339.9c0,0.8,0.2,0.9,0.4,1v0.3h-1.8c-0.1-0.3-0.1-0.4-0.2-0.8c-0.4,0.4-0.9,0.9-2.1,0.9c-1,0-1.9-0.5-1.9-1.9
				c0-1.2,0.8-1.9,1.9-2l1.5-0.2c0.3,0,0.6-0.1,0.6-0.5c0-0.7-0.7-0.7-1.1-0.7c-0.8,0-1,0.5-1,0.9h-1.6c0.2-2,1.5-2.2,2.9-2.2
				c0.9,0,2.5,0.3,2.5,1.8V339.9z M176.2,338c-0.2,0.1-0.4,0.2-1.1,0.3c-0.6,0.1-1.1,0.3-1.1,1c0,0.6,0.5,0.8,0.8,0.8
				c0.7,0,1.5-0.5,1.5-1.3V338z"/>
			<path d="M179.3,334.7h1.6v1.1h0c0.3-0.6,0.7-1.3,1.8-1.3c0.1,0,0.2,0,0.3,0v1.7c-0.1,0-0.3,0-0.5,0c-1.3,0-1.5,0.8-1.5,1.5v3.3
				h-1.7V334.7z"/>
			<path d="M185.7,334h-1.7v-1.6h1.7V334z M185.7,334.7v6.4h-1.7v-6.4H185.7z"/>
			<path d="M192.5,339.9c0,0.8,0.2,0.9,0.4,1v0.3h-1.8c-0.1-0.3-0.1-0.4-0.2-0.8c-0.4,0.4-0.9,0.9-2.1,0.9c-1,0-1.9-0.5-1.9-1.9
				c0-1.2,0.8-1.9,1.9-2l1.5-0.2c0.3,0,0.6-0.1,0.6-0.5c0-0.7-0.7-0.7-1.1-0.7c-0.8,0-1,0.5-1,0.9h-1.6c0.2-2,1.5-2.2,2.9-2.2
				c0.9,0,2.5,0.3,2.5,1.8V339.9z M190.9,338c-0.2,0.1-0.4,0.2-1.1,0.3c-0.6,0.1-1.1,0.3-1.1,1c0,0.6,0.5,0.8,0.8,0.8
				c0.7,0,1.5-0.5,1.5-1.3V338z"/>
			<path d="M197.6,336.7c-0.1-0.4-0.2-0.8-1.1-0.8s-1,0.3-1,0.6c0,1,4,0.3,4,2.6c0,1.9-1.8,2.2-2.8,2.2c-1.5,0-3-0.5-3.1-2.2h1.7
				c0,0.5,0.3,0.9,1.4,0.9c0.9,0,1.1-0.4,1.1-0.7c0-1.1-4-0.3-4-2.7c0-0.9,0.6-2.1,2.6-2.1c1.2,0,2.7,0.3,2.9,2.1H197.6z"/>
			<path d="M209.9,341.1h-1.6v-0.8h0c-0.4,0.7-1.2,1-1.8,1c-1.9,0-2.7-1.7-2.7-3.4c0-2.2,1.2-3.3,2.7-3.3c1.1,0,1.6,0.6,1.8,1h0
				v-3.1h1.7V341.1z M206.8,339.9c1.1,0,1.5-0.9,1.5-1.8c0-1-0.3-2.1-1.4-2.1c-1.1,0-1.4,0.9-1.4,2
				C205.4,338.7,205.7,339.9,206.8,339.9z"/>
			<path d="M216.8,339.2c-0.4,1.5-1.7,2-2.8,2c-1.8,0-3.2-0.9-3.2-3.5c0-0.8,0.3-3.2,3.1-3.2c1.3,0,3,0.6,3,3.5v0.3h-4.4
				c0,0.5,0.1,1.6,1.5,1.6c0.5,0,0.9-0.2,1.1-0.7H216.8z M215.2,337.3c-0.1-1-0.8-1.3-1.3-1.3c-0.8,0-1.2,0.5-1.3,1.3H215.2z"/>
			<path d="M223.1,341.1h-1.7v-8.6h1.7V341.1z"/>
			<path d="M229.9,339.9c0,0.8,0.2,0.9,0.4,1v0.3h-1.8c-0.1-0.3-0.1-0.4-0.2-0.8c-0.4,0.4-0.9,0.9-2.1,0.9c-1,0-1.9-0.5-1.9-1.9
				c0-1.2,0.8-1.9,1.9-2l1.5-0.2c0.3,0,0.6-0.1,0.6-0.5c0-0.7-0.7-0.7-1.1-0.7c-0.8,0-1,0.5-1,0.9h-1.6c0.2-2,1.5-2.2,2.9-2.2
				c0.9,0,2.5,0.3,2.5,1.8V339.9z M228.2,338c-0.2,0.1-0.4,0.2-1.1,0.3c-0.6,0.1-1.1,0.3-1.1,1c0,0.6,0.5,0.8,0.8,0.8
				c0.7,0,1.5-0.5,1.5-1.3V338z"/>
			<path d="M240.2,338.8c-0.1,0.7-0.6,2.5-2.9,2.5c-2.4,0-3-1.8-3-3.2c0-2.1,0.9-3.5,3.1-3.5c1,0,2.7,0.5,2.8,2.4h-1.7
				c-0.1-0.4-0.3-1.1-1.1-1c-1.1,0-1.3,1.1-1.3,1.8c0,0.7,0,2.1,1.3,2.1c0.9,0,1.1-0.8,1.1-1.1H240.2z"/>
			<path d="M246.6,339.9c0,0.8,0.2,0.9,0.4,1v0.3h-1.8c-0.1-0.3-0.1-0.4-0.2-0.8c-0.4,0.4-0.9,0.9-2.1,0.9c-1,0-1.9-0.5-1.9-1.9
				c0-1.2,0.8-1.9,1.9-2l1.5-0.2c0.3,0,0.6-0.1,0.6-0.5c0-0.7-0.7-0.7-1.1-0.7c-0.8,0-1,0.5-1,0.9h-1.6c0.2-2,1.5-2.2,2.9-2.2
				c0.9,0,2.5,0.3,2.5,1.8V339.9z M244.9,338c-0.2,0.1-0.4,0.2-1.1,0.3c-0.6,0.1-1.1,0.3-1.1,1c0,0.6,0.5,0.8,0.8,0.8
				c0.7,0,1.5-0.5,1.5-1.3V338z"/>
			<path d="M248,334.7h1.6v1.1h0c0.3-0.6,0.7-1.3,1.8-1.3c0.1,0,0.2,0,0.3,0v1.7c-0.1,0-0.3,0-0.5,0c-1.3,0-1.5,0.8-1.5,1.5v3.3H248
				V334.7z"/>
			<path d="M254.3,335.6L254.3,335.6c0.3-0.5,0.8-1.1,1.9-1.1c1.4,0,2.7,1.1,2.7,3.3c0,1.8-0.8,3.4-2.7,3.4c-1.2,0-1.6-0.6-1.8-1h0
				v3.3h-1.7v-8.9h1.6V335.6z M255.8,339.9c1.1,0,1.4-1.2,1.4-1.9c0-1-0.4-2-1.4-2c-1.2,0-1.4,1-1.4,2.1
				C254.3,339,254.7,339.9,255.8,339.9z"/>
			<path d="M265.5,339.2c-0.4,1.5-1.7,2-2.8,2c-1.8,0-3.2-0.9-3.2-3.5c0-0.8,0.3-3.2,3.1-3.2c1.3,0,3,0.6,3,3.5v0.3h-4.4
				c0,0.5,0.1,1.6,1.5,1.6c0.5,0,0.9-0.2,1.1-0.7H265.5z M263.9,337.3c-0.1-1-0.8-1.3-1.3-1.3c-0.8,0-1.2,0.5-1.3,1.3H263.9z"/>
			<path d="M268.6,334.7h1v1.2h-1v3.5c0,0.4,0,0.5,0.7,0.5c0.1,0,0.2,0,0.3,0v1.3c-0.3,0-0.5,0-0.8,0h-0.2c-1.5,0-1.7-0.6-1.7-1.4
				v-3.9h-0.9v-1.2h0.9V333h1.7V334.7z"/>
			<path d="M275.9,339.9c0,0.8,0.2,0.9,0.4,1v0.3h-1.8c-0.1-0.3-0.1-0.4-0.2-0.8c-0.4,0.4-0.9,0.9-2.1,0.9c-1,0-1.9-0.5-1.9-1.9
				c0-1.2,0.8-1.9,1.9-2l1.5-0.2c0.3,0,0.6-0.1,0.6-0.5c0-0.7-0.7-0.7-1.1-0.7c-0.8,0-1,0.5-1,0.9h-1.6c0.2-2,1.5-2.2,2.9-2.2
				c0.9,0,2.5,0.3,2.5,1.8V339.9z M274.3,338c-0.2,0.1-0.4,0.2-1.1,0.3c-0.6,0.1-1.1,0.3-1.1,1c0,0.6,0.5,0.8,0.8,0.8
				c0.7,0,1.5-0.5,1.5-1.3V338z"/>
			<path d="M289.1,341.1h-1.7v-7.2h0l-1.6,7.2h-1.8l-1.6-7.2h0v7.2h-1.7v-8.6h2.6l1.6,6.8h0l1.5-6.8h2.6V341.1z"/>
			<path d="M295.9,339.9c0,0.8,0.2,0.9,0.4,1v0.3h-1.8c-0.1-0.3-0.1-0.4-0.2-0.8c-0.4,0.4-0.9,0.9-2.1,0.9c-1,0-1.9-0.5-1.9-1.9
				c0-1.2,0.8-1.9,1.9-2l1.5-0.2c0.3,0,0.6-0.1,0.6-0.5c0-0.7-0.7-0.7-1.1-0.7c-0.8,0-1,0.5-1,0.9h-1.6c0.2-2,1.5-2.2,2.9-2.2
				c0.9,0,2.5,0.3,2.5,1.8V339.9z M294.3,338c-0.2,0.1-0.4,0.2-1.1,0.3c-0.6,0.1-1.1,0.3-1.1,1c0,0.6,0.5,0.8,0.8,0.8
				c0.7,0,1.5-0.5,1.5-1.3V338z"/>
			<path d="M297.4,334.7h1.6v1.1h0c0.3-0.6,0.7-1.3,1.8-1.3c0.1,0,0.2,0,0.3,0v1.7c-0.1,0-0.3,0-0.5,0c-1.3,0-1.5,0.8-1.5,1.5v3.3
				h-1.7V334.7z"/>
			<path d="M303.8,341.1h-1.7v-8.6h1.7v4.7l2.1-2.4h2.1l-2.3,2.5l2.3,3.9h-2l-1.5-2.7l-0.7,0.7V341.1z"/>
			<path d="M314.2,339.2c-0.4,1.5-1.7,2-2.8,2c-1.8,0-3.2-0.9-3.2-3.5c0-0.8,0.3-3.2,3.1-3.2c1.3,0,3,0.6,3,3.5v0.3h-4.4
				c0,0.5,0.1,1.6,1.5,1.6c0.5,0,0.9-0.2,1.1-0.7H314.2z M312.6,337.3c-0.1-1-0.8-1.3-1.3-1.3c-0.8,0-1.2,0.5-1.3,1.3H312.6z"/>
			<path d="M317.3,334.7h1v1.2h-1v3.5c0,0.4,0,0.5,0.7,0.5c0.1,0,0.2,0,0.3,0v1.3c-0.3,0-0.5,0-0.8,0h-0.2c-1.5,0-1.7-0.6-1.7-1.4
				v-3.9h-0.9v-1.2h0.9V333h1.7V334.7z"/>
			<path d="M321.1,334h-1.7v-1.6h1.7V334z M321.1,334.7v6.4h-1.7v-6.4H321.1z"/>
			<path d="M328.5,341.1h-1.7v-3.9c0-0.5,0-1.3-1.1-1.3c-0.7,0-1.3,0.5-1.3,1.5v3.7h-1.7v-6.4h1.6v0.9h0c0.2-0.4,0.7-1.1,1.9-1.1
				c1.2,0,2.2,0.7,2.2,2.1V341.1z"/>
			<path d="M335.9,334.7v6c0,1.1-0.1,2.9-3.2,2.9c-1.3,0-2.7-0.6-2.8-1.9h1.8c0.1,0.3,0.2,0.6,1.2,0.6c0.9,0,1.3-0.4,1.3-1.5v-0.8
				l0,0c-0.3,0.5-0.7,1-1.7,1c-1.5,0-2.7-1.1-2.7-3.3c0-2.2,1.2-3.3,2.7-3.3c1.2,0,1.7,0.7,1.9,1.1h0v-0.9H335.9z M332.8,339.7
				c1.1,0,1.4-1,1.4-1.8c0-1-0.5-1.9-1.4-1.9c-0.6,0-1.3,0.5-1.3,1.9C331.5,338.8,331.8,339.7,332.8,339.7z"/>
			<path d="M339.2,341.1h-1.8v-1.8h1.8V341.1z"/>
		</g>
	</g>
</g>
<path pointer-events="stroke" class="st3" d="M200.5,99.5v53.6"/>
<path pointer-events="all" class="st4" d="M200.5,158.4l-3.5-7l3.5,1.8l3.5-1.8L200.5,158.4z"/>
<rect x="153.5" y="2.5" pointer-events="all" class="st5" width="90" height="70"/>
<path pointer-events="all" class="st6" d="M201.2,11.8l10.3-8.2c0.9-0.7,2-1.1,3.3-1.1h23.3c2.4,0,5.3,1.7,5.3,4.7v4.6H201.2z
	 M153.5,72.5V19.9c0-2.6,2.7-4.5,5.3-4.5h84.7v57.2H153.5z"/>
<g transform="translate(-0.5 -0.5)">
	<g class="st2">
		<path d="M173.9,91.5h-1.8v-8.6h6.1v1.5h-4.3v1.9h3.8v1.5h-3.8V91.5z"/>
		<path d="M185,91.5h-1.6v-0.9h0c-0.4,0.7-1.1,1.1-1.9,1.1c-1.3,0-2.2-0.7-2.2-2.4v-4.2h1.7v4c0,1,0.6,1.2,1.1,1.2
			c0.6,0,1.3-0.3,1.3-1.5v-3.7h1.7V91.5z"/>
		<path d="M192.4,91.5h-1.7v-3.9c0-0.5,0-1.3-1.1-1.3c-0.7,0-1.3,0.5-1.3,1.5v3.7h-1.7v-6.4h1.6v0.9h0c0.2-0.4,0.7-1.1,1.9-1.1
			c1.2,0,2.2,0.7,2.2,2.1V91.5z"/>
		<path d="M199.4,89.2c-0.1,0.7-0.6,2.5-2.9,2.5c-2.4,0-3-1.8-3-3.2c0-2.1,0.9-3.5,3.1-3.5c1,0,2.7,0.5,2.8,2.4h-1.7
			c-0.1-0.4-0.3-1.1-1.1-1c-1.1,0-1.3,1.1-1.3,1.8c0,0.7,0,2.1,1.3,2.1c0.9,0,1.1-0.8,1.1-1.1H199.4z"/>
		<path d="M202.3,84.4h-1.7v-1.6h1.7V84.4z M202.3,85.1v6.4h-1.7v-6.4H202.3z"/>
		<path d="M206.8,91.7c-1.7,0-3.3-1.1-3.3-3.4s1.5-3.4,3.3-3.4c1.7,0,3.3,1.1,3.3,3.4S208.5,91.7,206.8,91.7z M206.8,86.4
			c-1.3,0-1.5,1.1-1.5,1.9s0.2,1.9,1.5,1.9s1.5-1.1,1.5-1.9S208.1,86.4,206.8,86.4z"/>
		<path d="M217,91.5h-1.7v-3.9c0-0.5,0-1.3-1.1-1.3c-0.7,0-1.3,0.5-1.3,1.5v3.7h-1.7v-6.4h1.6v0.9h0c0.2-0.4,0.7-1.1,1.9-1.1
			c1.2,0,2.2,0.7,2.2,2.1V91.5z"/>
		<path d="M224.1,89.6c-0.4,1.5-1.7,2-2.8,2c-1.8,0-3.2-0.9-3.2-3.5c0-0.8,0.3-3.2,3.1-3.2c1.3,0,3,0.6,3,3.5v0.3h-4.4
			c0,0.5,0.1,1.6,1.5,1.6c0.5,0,0.9-0.2,1.1-0.7H224.1z M222.4,87.7c-0.1-1-0.8-1.3-1.3-1.3c-0.8,0-1.2,0.5-1.3,1.3H222.4z"/>
		<path d="M228.9,87.1c-0.1-0.4-0.2-0.8-1.1-0.8s-1,0.3-1,0.6c0,1,4,0.3,4,2.6c0,1.9-1.8,2.2-2.8,2.2c-1.5,0-3-0.5-3.1-2.2h1.7
			c0,0.5,0.3,0.9,1.4,0.9c0.9,0,1.1-0.4,1.1-0.7c0-1.1-4-0.3-4-2.7c0-0.9,0.6-2.1,2.6-2.1c1.2,0,2.7,0.3,2.9,2.1H228.9z"/>
	</g>
</g>
<rect x="148.5" y="167.5" pointer-events="all" class="st5" width="90" height="70"/>
<path pointer-events="all" class="st6" d="M196.2,176.8l10.3-8.2c0.9-0.7,2-1.1,3.3-1.1h23.3c2.4,0,5.3,1.7,5.3,4.7v4.6H196.2z
	 M148.5,237.5v-52.6c0-2.6,2.7-4.6,5.3-4.6h84.7v57.2H148.5z"/>
<g transform="translate(-0.5 -0.5)">
	<g class="st2">
		<path d="M176.4,256.5h-1.7v-7.2h0l-1.6,7.2h-1.8l-1.6-7.2h0v7.2H168v-8.6h2.6l1.6,6.8h0l1.5-6.8h2.6V256.5z"/>
		<path d="M183.1,255.3c0,0.8,0.2,0.9,0.4,1v0.3h-1.8c-0.1-0.3-0.1-0.4-0.2-0.8c-0.4,0.4-0.9,0.9-2.1,0.9c-1,0-1.9-0.5-1.9-1.9
			c0-1.2,0.8-1.9,1.9-2l1.5-0.2c0.3,0,0.6-0.1,0.6-0.5c0-0.7-0.7-0.7-1.1-0.7c-0.8,0-1,0.5-1,0.9h-1.6c0.2-2,1.5-2.2,2.9-2.2
			c0.9,0,2.5,0.3,2.5,1.8V255.3z M181.5,253.4c-0.2,0.1-0.4,0.2-1.1,0.3c-0.6,0.1-1.1,0.3-1.1,1c0,0.6,0.5,0.8,0.8,0.8
			c0.7,0,1.5-0.5,1.5-1.3V253.4z"/>
		<path d="M184.6,250.1h1.6v1.1h0c0.3-0.6,0.7-1.3,1.8-1.3c0.1,0,0.2,0,0.3,0v1.7c-0.1,0-0.3,0-0.5,0c-1.3,0-1.5,0.8-1.5,1.5v3.3
			h-1.7V250.1z"/>
		<path d="M191,256.5h-1.7v-8.6h1.7v4.7l2.1-2.4h2.1l-2.3,2.5l2.3,3.9h-2l-1.5-2.7l-0.7,0.7V256.5z"/>
		<path d="M201.5,254.6c-0.4,1.5-1.7,2-2.8,2c-1.8,0-3.2-0.9-3.2-3.5c0-0.8,0.3-3.2,3.1-3.2c1.3,0,3,0.6,3,3.5v0.3h-4.4
			c0,0.5,0.1,1.6,1.5,1.6c0.5,0,0.9-0.2,1.1-0.7H201.5z M199.8,252.7c-0.1-1-0.8-1.3-1.3-1.3c-0.8,0-1.2,0.5-1.3,1.3H199.8z"/>
		<path d="M204.5,250.1h1v1.2h-1v3.5c0,0.4,0,0.5,0.7,0.5c0.1,0,0.2,0,0.3,0v1.3c-0.3,0-0.5,0-0.8,0h-0.2c-1.5,0-1.7-0.6-1.7-1.4
			v-3.9H202v-1.2h0.9v-1.7h1.7V250.1z"/>
		<path d="M208.4,249.4h-1.7v-1.6h1.7V249.4z M208.4,250.1v6.4h-1.7v-6.4H208.4z"/>
		<path d="M215.8,256.5h-1.7v-3.9c0-0.5,0-1.3-1.1-1.3c-0.7,0-1.3,0.5-1.3,1.5v3.7H210v-6.4h1.6v0.9h0c0.2-0.4,0.7-1.1,1.9-1.1
			c1.2,0,2.2,0.7,2.2,2.1V256.5z"/>
		<path d="M223.2,250.1v6c0,1.1-0.1,2.9-3.2,2.9c-1.3,0-2.7-0.6-2.8-1.9h1.8c0.1,0.3,0.2,0.6,1.2,0.6c0.9,0,1.3-0.4,1.3-1.5v-0.8
			l0,0c-0.3,0.5-0.7,1-1.7,1c-1.5,0-2.7-1.1-2.7-3.3c0-2.2,1.2-3.3,2.7-3.3c1.2,0,1.7,0.7,1.9,1.1h0v-0.9H223.2z M220.1,255.1
			c1.1,0,1.4-1,1.4-1.8c0-1-0.5-1.9-1.4-1.9c-0.6,0-1.3,0.5-1.3,1.9C218.7,254.2,219.1,255.1,220.1,255.1z"/>
	</g>
</g>
</svg>
